<svg xmlns="http://www.w3.org/2000/svg" xmlns:xlink="http://www.w3.org/1999/xlink" width="500" zoomAndPan="magnify" viewBox="0 0 375 374.999991" height="500" preserveAspectRatio="xMidYMid meet" version="1.0"><defs><clipPath id="8b47cf826f"><path d="M 0 59.269531 L 374.65625 59.269531 L 374.65625 236 L 0 236 Z M 0 59.269531 " clip-rule="nonzero"/></clipPath></defs><g clip-path="url(#8b47cf826f)"><path fill="#000000" d="M 154.675781 232.425781 C 152.484375 233.335938 150.535156 233.164062 148.632812 233.109375 C 133.566406 232.683594 118.542969 233.5625 103.503906 234.394531 C 91.667969 235.050781 79.796875 235.128906 67.949219 235.636719 C 53.980469 236.234375 40.023438 235.105469 26.050781 235.425781 C 21.339844 235.53125 16.617188 234.839844 11.890625 234.71875 C 8.554688 234.636719 5.210938 234.941406 1.871094 234.996094 C 1.246094 235.003906 0.164062 235.238281 0.1875 234.164062 C 0.207031 233.195312 1.199219 233.351562 1.898438 233.265625 C 8.777344 232.414062 15.695312 232.839844 22.59375 232.617188 C 31.898438 232.316406 41.191406 231.679688 50.496094 231.386719 C 60.824219 231.066406 71.152344 230.886719 81.484375 230.808594 C 89.632812 230.746094 97.78125 230.707031 105.921875 230.363281 C 111.753906 230.117188 117.554688 230.65625 123.359375 231.097656 C 132.796875 231.816406 142.257812 231.71875 151.714844 231.894531 C 152.570312 231.910156 153.457031 231.710938 154.675781 232.425781 Z M 374.0625 230.457031 C 370.507812 230.011719 366.949219 229.648438 363.347656 229.65625 C 347.195312 229.695312 331.042969 229.679688 314.894531 230.101562 C 301.441406 230.453125 287.976562 230.40625 274.527344 231 C 268.710938 231.253906 262.96875 232.398438 257.136719 232.394531 C 248.257812 232.390625 239.382812 232.351562 230.507812 232.328125 C 230 232.328125 229.488281 232.300781 228.980469 232.335938 C 228.488281 232.371094 227.835938 232.324219 227.75 232.96875 C 227.644531 233.746094 228.367188 233.875 228.902344 234.015625 C 229.460938 234.164062 230.054688 234.179688 230.628906 234.265625 C 233.75 234.738281 236.875 234.324219 239.996094 234.316406 C 256.511719 234.265625 273.023438 234.300781 289.535156 234.199219 C 304.8125 234.109375 320.074219 233.257812 335.359375 233.351562 C 344.667969 233.410156 353.988281 233.453125 363.269531 232.46875 C 366.890625 232.082031 370.492188 231.496094 374.105469 231 C 374.089844 230.820312 374.078125 230.640625 374.0625 230.457031 Z M 192.574219 127.398438 C 191.730469 104.820312 191.859375 82.210938 190.558594 59.269531 C 189.390625 60.25 189.339844 61.125 189.191406 61.972656 C 188.644531 65.085938 188.675781 68.226562 188.839844 71.355469 C 189.472656 83.515625 189.371094 95.695312 189.5625 107.863281 C 189.824219 124.78125 188.359375 141.667969 188.65625 158.589844 C 188.835938 168.9375 188.644531 179.292969 188.691406 189.644531 C 188.703125 191.492188 188.898438 193.382812 190.300781 195.015625 C 192.613281 172.511719 193.421875 149.980469 192.574219 127.398438 Z M 220.230469 205.410156 C 223.25 202.777344 226.253906 200.128906 229.226562 197.445312 C 240.691406 187.089844 251.957031 176.542969 262.015625 164.757812 C 268.40625 157.273438 275.183594 150.136719 282.351562 143.386719 C 286.234375 139.730469 289.386719 135.410156 293.144531 131.640625 C 293.683594 131.101562 294.582031 130.289062 293.953125 129.613281 C 293.121094 128.710938 292.4375 129.886719 291.84375 130.371094 C 290.433594 131.515625 289.011719 132.675781 287.761719 133.988281 C 276.027344 146.355469 264.042969 158.484375 251.667969 170.207031 C 240.441406 180.839844 230.207031 192.417969 219.425781 203.472656 C 218.492188 204.433594 217.429688 205.40625 217.3125 207.121094 C 218.746094 207.046875 219.429688 206.109375 220.230469 205.410156 Z M 230.695312 218.832031 C 241.953125 213.863281 253.734375 210.277344 265.125 205.636719 C 284.257812 197.84375 303.476562 190.261719 322.636719 182.535156 C 324.820312 181.65625 326.605469 180.105469 328.683594 179.054688 C 329.011719 178.890625 329.410156 178.683594 329.292969 178.277344 C 329.136719 177.714844 328.621094 177.863281 328.195312 177.917969 C 326.671875 178.105469 325.238281 178.574219 323.804688 179.148438 C 313.339844 183.316406 303.210938 188.34375 292.273438 191.328125 C 287.863281 192.53125 283.605469 194.300781 279.285156 195.820312 C 268.964844 199.449219 259.460938 204.953125 249.285156 208.914062 C 242.097656 211.714844 234.96875 214.648438 228.105469 218.199219 C 227.289062 218.621094 226.328125 218.863281 225.742188 220.0625 C 227.699219 220.339844 229.203125 219.488281 230.695312 218.832031 Z M 92.15625 135.269531 C 100.972656 145.066406 109.941406 154.695312 119.238281 164.054688 C 131.597656 176.5 143.433594 189.472656 156.507812 201.195312 C 158.535156 203.011719 160.59375 204.796875 163.332031 206.390625 C 159.558594 198.371094 94.902344 134.167969 90.542969 132.570312 C 90.539062 133.980469 91.503906 134.542969 92.15625 135.269531 Z M 152.757812 217.484375 C 149.011719 216.078125 145.214844 214.8125 141.507812 213.316406 C 134.15625 210.347656 127.074219 206.773438 119.707031 203.808594 C 106.949219 198.679688 93.742188 194.777344 81.066406 189.421875 C 76.050781 187.304688 71.136719 184.867188 65.800781 183.582031 C 64.917969 183.371094 63.503906 182.277344 63.175781 183.328125 C 62.804688 184.523438 64.578125 184.667969 65.503906 185.070312 C 73.300781 188.46875 81.347656 191.269531 89.03125 194.941406 C 94.542969 197.574219 100.0625 200.214844 105.679688 202.613281 C 120.019531 208.734375 135.011719 213 149.75 217.988281 C 151.445312 218.5625 153.15625 219.238281 155.277344 219.1875 C 154.574219 218.007812 153.609375 217.804688 152.757812 217.484375 Z M 208.265625 190.96875 C 213.671875 179.898438 219.800781 169.199219 224.925781 157.984375 C 229.050781 148.960938 232.230469 139.546875 236.527344 130.601562 C 238.925781 125.605469 241.316406 120.609375 243.671875 115.597656 C 243.90625 115.09375 244.59375 114.351562 243.667969 113.921875 C 242.996094 113.609375 242.710938 114.394531 242.375 114.832031 C 242.066406 115.238281 241.800781 115.675781 241.53125 116.109375 C 239.246094 119.777344 237.601562 123.753906 235.9375 127.71875 C 232.792969 135.207031 228.234375 141.949219 224.648438 149.183594 C 217.457031 163.679688 211.171875 178.601562 205.203125 193.652344 C 204.757812 194.78125 204.1875 195.917969 204.582031 197.667969 C 206.5 195.558594 207.203125 193.148438 208.265625 190.96875 Z M 147.445312 118.582031 C 148.355469 121.804688 149.882812 124.804688 150.835938 128.035156 C 153.867188 138.304688 156.070312 148.804688 159.457031 158.976562 C 163.347656 170.65625 166.988281 182.433594 172.574219 193.464844 C 173.113281 194.535156 173.496094 195.738281 174.585938 196.59375 C 174.898438 192.15625 150.277344 117.941406 146.992188 113.433594 C 146.28125 115.320312 146.988281 116.960938 147.445312 118.582031 Z M 226.332031 226.039062 C 255.65625 221.363281 284.34375 216.707031 312.980469 210.035156 C 309.398438 208.023438 231.105469 222.433594 226.332031 226.039062 Z M 281.628906 172.324219 C 277.949219 174.808594 274.335938 177.398438 270.597656 179.785156 C 257.035156 188.433594 243.40625 196.984375 230.027344 205.921875 C 227.371094 207.699219 224.96875 209.800781 222.789062 212.1875 C 244.253906 200.292969 265.097656 187.46875 284.1875 171.933594 C 282.957031 171.167969 282.320312 171.855469 281.628906 172.324219 Z M 94.707031 169.554688 C 115.804688 185.285156 136.566406 201.503906 160.09375 213.671875 C 139.390625 197.40625 116.847656 183.828125 95.429688 168.609375 C 95.191406 168.921875 94.949219 169.238281 94.707031 169.554688 Z M 211.21875 201.949219 C 227.03125 183.609375 239.378906 162.828125 252.519531 142.597656 C 249.199219 144.15625 212 197.671875 211.21875 201.949219 Z M 197.902344 196.417969 C 198.839844 195.726562 198.949219 194.683594 199.269531 193.769531 C 202.210938 185.378906 203.003906 176.542969 204.523438 167.867188 C 206.644531 155.730469 208.582031 143.566406 211.390625 131.558594 C 211.980469 129.035156 212.179688 126.414062 212.648438 123.234375 C 209.484375 126.234375 196.699219 191.3125 197.902344 196.417969 Z M 155.761719 226.242188 C 148.777344 222.824219 73.816406 210.023438 69.046875 211.417969 C 97.84375 217.203125 126.480469 222.078125 155.761719 226.242188 Z M 128.652344 138.28125 C 128.222656 140.589844 166.320312 199.628906 169.949219 202.589844 C 158.640625 179.164062 142.820312 159.261719 128.652344 138.28125 Z M 180.785156 194.148438 C 181.023438 195.097656 181.113281 196.113281 182.214844 197.300781 C 180.699219 172.261719 176.378906 148.152344 171.972656 124.070312 C 171.472656 125.777344 179.890625 190.550781 180.785156 194.148438 Z M 180.785156 194.148438 " fill-opacity="1" fill-rule="nonzero"/><path fill="#000000" d="M 154.675781 232.425781 C 152.484375 233.335938 150.535156 233.164062 148.632812 233.109375 C 133.566406 232.683594 118.542969 233.5625 103.503906 234.394531 C 91.667969 235.050781 79.796875 235.128906 67.949219 235.636719 C 53.980469 236.234375 40.023438 235.105469 26.050781 235.425781 C 21.339844 235.53125 16.617188 234.839844 11.890625 234.71875 C 8.554688 234.636719 5.210938 234.941406 1.871094 234.996094 C 1.246094 235.003906 0.164062 235.238281 0.1875 234.164062 C 0.207031 233.195312 1.199219 233.351562 1.898438 233.265625 C 8.777344 232.414062 15.695312 232.839844 22.59375 232.617188 C 31.898438 232.316406 41.191406 231.679688 50.496094 231.386719 C 60.824219 231.066406 71.152344 230.886719 81.484375 230.808594 C 89.632812 230.746094 97.78125 230.707031 105.921875 230.363281 C 111.753906 230.117188 117.554688 230.65625 123.359375 231.097656 C 132.796875 231.816406 142.257812 231.71875 151.714844 231.894531 C 152.570312 231.910156 153.457031 231.710938 154.675781 232.425781 Z M 374.0625 230.457031 C 370.507812 230.011719 366.949219 229.648438 363.347656 229.65625 C 347.195312 229.695312 331.042969 229.679688 314.894531 230.101562 C 301.441406 230.453125 287.976562 230.40625 274.527344 231 C 268.710938 231.253906 262.96875 232.398438 257.136719 232.394531 C 248.257812 232.390625 239.382812 232.351562 230.507812 232.328125 C 230 232.328125 229.488281 232.300781 228.980469 232.335938 C 228.488281 232.371094 227.835938 232.324219 227.75 232.96875 C 227.644531 233.746094 228.367188 233.875 228.902344 234.015625 C 229.460938 234.164062 230.054688 234.179688 230.628906 234.265625 C 233.75 234.738281 236.875 234.324219 239.996094 234.316406 C 256.511719 234.265625 273.023438 234.300781 289.535156 234.199219 C 304.8125 234.109375 320.074219 233.257812 335.359375 233.351562 C 344.667969 233.410156 353.988281 233.453125 363.269531 232.46875 C 366.890625 232.082031 370.492188 231.496094 374.105469 231 C 374.089844 230.820312 374.078125 230.640625 374.0625 230.457031 Z M 192.574219 127.398438 C 191.730469 104.820312 191.859375 82.210938 190.558594 59.269531 C 189.390625 60.25 189.339844 61.125 189.191406 61.972656 C 188.644531 65.085938 188.675781 68.226562 188.839844 71.355469 C 189.472656 83.515625 189.371094 95.695312 189.5625 107.863281 C 189.824219 124.78125 188.359375 141.667969 188.65625 158.589844 C 188.835938 168.9375 188.644531 179.292969 188.691406 189.644531 C 188.703125 191.492188 188.898438 193.382812 190.300781 195.015625 C 192.613281 172.511719 193.421875 149.980469 192.574219 127.398438 Z M 220.230469 205.410156 C 223.25 202.777344 226.253906 200.128906 229.226562 197.445312 C 240.691406 187.089844 251.957031 176.542969 262.015625 164.757812 C 268.40625 157.273438 275.183594 150.136719 282.351562 143.386719 C 286.234375 139.730469 289.386719 135.410156 293.144531 131.640625 C 293.683594 131.101562 294.582031 130.289062 293.953125 129.613281 C 293.121094 128.710938 292.4375 129.886719 291.84375 130.371094 C 290.433594 131.515625 289.011719 132.675781 287.761719 133.988281 C 276.027344 146.355469 264.042969 158.484375 251.667969 170.207031 C 240.441406 180.839844 230.207031 192.417969 219.425781 203.472656 C 218.492188 204.433594 217.429688 205.40625 217.3125 207.121094 C 218.746094 207.046875 219.429688 206.109375 220.230469 205.410156 Z M 230.695312 218.832031 C 241.953125 213.863281 253.734375 210.277344 265.125 205.636719 C 284.257812 197.84375 303.476562 190.261719 322.636719 182.535156 C 324.820312 181.65625 326.605469 180.105469 328.683594 179.054688 C 329.011719 178.890625 329.410156 178.683594 329.292969 178.277344 C 329.136719 177.714844 328.621094 177.863281 328.195312 177.917969 C 326.671875 178.105469 325.238281 178.574219 323.804688 179.148438 C 313.339844 183.316406 303.210938 188.34375 292.273438 191.328125 C 287.863281 192.53125 283.605469 194.300781 279.285156 195.820312 C 268.964844 199.449219 259.460938 204.953125 249.285156 208.914062 C 242.097656 211.714844 234.96875 214.648438 228.105469 218.199219 C 227.289062 218.621094 226.328125 218.863281 225.742188 220.0625 C 227.699219 220.339844 229.203125 219.488281 230.695312 218.832031 Z M 92.15625 135.269531 C 100.972656 145.066406 109.941406 154.695312 119.238281 164.054688 C 131.597656 176.5 143.433594 189.472656 156.507812 201.195312 C 158.535156 203.011719 160.59375 204.796875 163.332031 206.390625 C 159.558594 198.371094 94.902344 134.167969 90.542969 132.570312 C 90.539062 133.980469 91.503906 134.542969 92.15625 135.269531 Z M 152.757812 217.484375 C 149.011719 216.078125 145.214844 214.8125 141.507812 213.316406 C 134.15625 210.347656 127.074219 206.773438 119.707031 203.808594 C 106.949219 198.679688 93.742188 194.777344 81.066406 189.421875 C 76.050781 187.304688 71.136719 184.867188 65.800781 183.582031 C 64.917969 183.371094 63.503906 182.277344 63.175781 183.328125 C 62.804688 184.523438 64.578125 184.667969 65.503906 185.070312 C 73.300781 188.46875 81.347656 191.269531 89.03125 194.941406 C 94.542969 197.574219 100.0625 200.214844 105.679688 202.613281 C 120.019531 208.734375 135.011719 213 149.75 217.988281 C 151.445312 218.5625 153.15625 219.238281 155.277344 219.1875 C 154.574219 218.007812 153.609375 217.804688 152.757812 217.484375 Z M 208.265625 190.96875 C 213.671875 179.898438 219.800781 169.199219 224.925781 157.984375 C 229.050781 148.960938 232.230469 139.546875 236.527344 130.601562 C 238.925781 125.605469 241.316406 120.609375 243.671875 115.597656 C 243.90625 115.09375 244.59375 114.351562 243.667969 113.921875 C 242.996094 113.609375 242.710938 114.394531 242.375 114.832031 C 242.066406 115.238281 241.800781 115.675781 241.53125 116.109375 C 239.246094 119.777344 237.601562 123.753906 235.9375 127.71875 C 232.792969 135.207031 228.234375 141.949219 224.648438 149.183594 C 217.457031 163.679688 211.171875 178.601562 205.203125 193.652344 C 204.757812 194.78125 204.1875 195.917969 204.582031 197.667969 C 206.5 195.558594 207.203125 193.148438 208.265625 190.96875 Z M 147.445312 118.582031 C 148.355469 121.804688 149.882812 124.804688 150.835938 128.035156 C 153.867188 138.304688 156.070312 148.804688 159.457031 158.976562 C 163.347656 170.65625 166.988281 182.433594 172.574219 193.464844 C 173.113281 194.535156 173.496094 195.738281 174.585938 196.59375 C 174.898438 192.15625 150.277344 117.941406 146.992188 113.433594 C 146.28125 115.320312 146.988281 116.960938 147.445312 118.582031 Z M 226.332031 226.039062 C 255.65625 221.363281 284.34375 216.707031 312.980469 210.035156 C 309.398438 208.023438 231.105469 222.433594 226.332031 226.039062 Z M 281.628906 172.324219 C 277.949219 174.808594 274.335938 177.398438 270.597656 179.785156 C 257.035156 188.433594 243.40625 196.984375 230.027344 205.921875 C 227.371094 207.699219 224.96875 209.800781 222.789062 212.1875 C 244.253906 200.292969 265.097656 187.46875 284.1875 171.933594 C 282.957031 171.167969 282.320312 171.855469 281.628906 172.324219 Z M 94.707031 169.554688 C 115.804688 185.285156 136.566406 201.503906 160.09375 213.671875 C 139.390625 197.40625 116.847656 183.828125 95.429688 168.609375 C 95.191406 168.921875 94.949219 169.238281 94.707031 169.554688 Z M 211.21875 201.949219 C 227.03125 183.609375 239.378906 162.828125 252.519531 142.597656 C 249.199219 144.15625 212 197.671875 211.21875 201.949219 Z M 197.902344 196.417969 C 198.839844 195.726562 198.949219 194.683594 199.269531 193.769531 C 202.210938 185.378906 203.003906 176.542969 204.523438 167.867188 C 206.644531 155.730469 208.582031 143.566406 211.390625 131.558594 C 211.980469 129.035156 212.179688 126.414062 212.648438 123.234375 C 209.484375 126.234375 196.699219 191.3125 197.902344 196.417969 Z M 155.761719 226.242188 C 148.777344 222.824219 73.816406 210.023438 69.046875 211.417969 C 97.84375 217.203125 126.480469 222.078125 155.761719 226.242188 Z M 128.652344 138.28125 C 128.222656 140.589844 166.320312 199.628906 169.949219 202.589844 C 158.640625 179.164062 142.820312 159.261719 128.652344 138.28125 Z M 180.785156 194.148438 C 181.023438 195.097656 181.113281 196.113281 182.214844 197.300781 C 180.699219 172.261719 176.378906 148.152344 171.972656 124.070312 C 171.472656 125.777344 179.890625 190.550781 180.785156 194.148438 Z M 180.785156 194.148438 " fill-opacity="1" fill-rule="nonzero"/></g></svg>