<svg xmlns="http://www.w3.org/2000/svg" xmlns:xlink="http://www.w3.org/1999/xlink" width="500" zoomAndPan="magnify" viewBox="0 0 375 374.999991" height="500" preserveAspectRatio="xMidYMid meet" version="1.0"><defs><clipPath id="9dc6c747dd"><path d="M 113 37.5 L 117 37.5 L 117 41 L 113 41 Z M 113 37.5 " clip-rule="nonzero"/></clipPath><clipPath id="8473599993"><path d="M 52.226562 170 L 159 170 L 159 306 L 52.226562 306 Z M 52.226562 170 " clip-rule="nonzero"/></clipPath><clipPath id="ab064eaa2f"><path d="M 52.226562 154 L 94 154 L 94 208 L 52.226562 208 Z M 52.226562 154 " clip-rule="nonzero"/></clipPath><clipPath id="6942237622"><path d="M 216 172 L 322.976562 172 L 322.976562 307 L 216 307 Z M 216 172 " clip-rule="nonzero"/></clipPath><clipPath id="4522099a10"><path d="M 282 156 L 322.976562 156 L 322.976562 209 L 282 209 Z M 282 156 " clip-rule="nonzero"/></clipPath><clipPath id="37e670b9b1"><path d="M 194 289 L 239 289 L 239 308.25 L 194 308.25 Z M 194 289 " clip-rule="nonzero"/></clipPath></defs><path fill="#000000" d="M 115.472656 38.371094 C 115.953125 38.855469 115.96875 39.621094 115.503906 40.085938 C 115.039062 40.546875 114.273438 40.535156 113.789062 40.050781 C 113.308594 39.570312 113.292969 38.804688 113.757812 38.339844 C 114.21875 37.875 114.988281 37.890625 115.472656 38.371094 " fill-opacity="1" fill-rule="nonzero"/><g clip-path="url(#9dc6c747dd)"><path fill="#000000" d="M 114.582031 38.347656 C 114.371094 38.347656 114.160156 38.425781 114.003906 38.585938 C 113.675781 38.910156 113.691406 39.460938 114.035156 39.808594 C 114.382812 40.152344 114.929688 40.167969 115.257812 39.839844 C 115.585938 39.511719 115.570312 38.964844 115.226562 38.617188 C 115.046875 38.4375 114.8125 38.347656 114.582031 38.347656 Z M 114.675781 40.765625 C 114.269531 40.765625 113.859375 40.609375 113.546875 40.296875 C 112.929688 39.679688 112.914062 38.691406 113.511719 38.09375 C 114.113281 37.496094 115.101562 37.515625 115.714844 38.128906 C 116.332031 38.742188 116.347656 39.730469 115.75 40.328125 C 115.457031 40.621094 115.066406 40.765625 114.675781 40.765625 " fill-opacity="1" fill-rule="nonzero"/></g><g clip-path="url(#8473599993)"><path fill="#000000" d="M 138.21875 305.597656 C 137.613281 305.597656 137.082031 305.160156 136.988281 304.542969 L 136.710938 302.761719 C 135.132812 292.570312 132.972656 278.609375 128.929688 273.191406 C 124.339844 267.046875 115.863281 257.25 101.535156 245.46875 C 97.628906 242.257812 94.003906 239.464844 90.800781 237.003906 C 82.890625 230.917969 77.175781 226.523438 73.5625 220.871094 C 70.542969 216.148438 67.332031 207.769531 64.496094 200.375 C 62.636719 195.527344 61.03125 191.339844 59.964844 189.492188 C 53.4375 178.222656 52.640625 175.019531 52.605469 173.589844 C 52.570312 172.074219 53.339844 171.453125 53.800781 171.21875 C 54.277344 170.972656 55.730469 170.238281 59.847656 173.375 C 61.734375 174.8125 68.171875 180.136719 71.824219 188.269531 C 75.289062 195.976562 84.03125 206.976562 87.085938 209.542969 C 90.285156 212.230469 103.371094 220.675781 113.144531 224.15625 C 114.160156 224.519531 115.386719 224.921875 116.773438 225.375 C 128.695312 229.285156 153.5 237.421875 158.535156 258.226562 C 158.699219 258.894531 158.289062 259.570312 157.617188 259.730469 C 156.949219 259.886719 156.273438 259.484375 156.113281 258.8125 C 151.402344 239.355469 127.488281 231.511719 115.996094 227.742188 C 114.585938 227.28125 113.335938 226.871094 112.304688 226.503906 C 102.101562 222.867188 88.878906 214.304688 85.480469 211.449219 C 81.777344 208.339844 72.984375 196.9375 69.546875 189.292969 C 66.046875 181.492188 59.59375 176.316406 58.332031 175.355469 C 56.75 174.148438 55.628906 173.617188 55.101562 173.492188 C 55.101562 173.507812 55.101562 173.519531 55.101562 173.535156 C 55.125 174.539062 56.066406 177.785156 62.121094 188.246094 C 63.289062 190.261719 64.929688 194.535156 66.828125 199.484375 C 69.480469 206.40625 72.78125 215.019531 75.667969 219.527344 C 79.042969 224.8125 84.613281 229.097656 92.324219 235.027344 C 95.539062 237.503906 99.183594 240.304688 103.121094 243.546875 C 117.644531 255.484375 126.257812 265.449219 130.929688 271.703125 C 135.34375 277.617188 137.46875 291.347656 139.179688 302.382812 L 139.453125 304.160156 C 139.558594 304.839844 139.09375 305.476562 138.414062 305.582031 C 138.347656 305.589844 138.28125 305.597656 138.21875 305.597656 " fill-opacity="1" fill-rule="nonzero"/></g><g clip-path="url(#ab064eaa2f)"><path fill="#000000" d="M 91.773438 207.691406 C 91.371094 207.691406 90.976562 207.492188 90.734375 207.132812 C 90.621094 206.960938 79.296875 189.855469 74.296875 181.5625 C 69.296875 173.285156 61.457031 162.25 59.34375 159.609375 C 58.3125 158.320312 56.675781 157.609375 55.589844 157.496094 C 55.046875 157.441406 54.796875 157.535156 54.75 157.574219 C 54.773438 158.445312 55.816406 160.980469 56.734375 163.21875 C 58.136719 166.640625 59.882812 170.898438 60.328125 174.199219 C 60.417969 174.882812 59.941406 175.507812 59.257812 175.601562 C 58.5625 175.695312 57.945312 175.214844 57.855469 174.53125 C 57.453125 171.546875 55.773438 167.453125 54.421875 164.164062 C 53.058594 160.832031 52.285156 158.886719 52.269531 157.644531 C 52.261719 156.496094 52.90625 155.578125 53.988281 155.191406 C 56.078125 154.453125 59.484375 155.789062 61.292969 158.054688 C 63.332031 160.601562 71.160156 171.542969 76.429688 180.277344 C 81.410156 188.523438 92.703125 205.585938 92.816406 205.757812 C 93.195312 206.332031 93.035156 207.105469 92.460938 207.484375 C 92.25 207.621094 92.011719 207.691406 91.773438 207.691406 " fill-opacity="1" fill-rule="nonzero"/></g><path fill="#000000" d="M 101.910156 204.523438 C 101.542969 204.523438 101.175781 204.359375 100.929688 204.046875 C 100.125 203.03125 81.167969 179.054688 76.996094 170.550781 C 75.433594 167.367188 74.113281 164.289062 72.839844 161.316406 C 70.714844 156.371094 68.882812 152.097656 66.621094 148.925781 C 64.179688 145.496094 61.902344 144.171875 61.09375 144.070312 C 61.09375 144.078125 61.09375 144.085938 61.09375 144.097656 C 61.15625 146.625 62.992188 156.898438 63.917969 161.464844 C 64.058594 162.140625 63.621094 162.796875 62.945312 162.933594 C 62.269531 163.078125 61.609375 162.636719 61.472656 161.960938 C 60.65625 157.9375 58.671875 147.09375 58.601562 144.15625 C 58.574219 142.949219 59.148438 142.027344 60.140625 141.699219 C 62.28125 141 65.691406 143.320312 68.65625 147.480469 C 71.070312 150.871094 72.949219 155.257812 75.132812 160.332031 C 76.394531 163.28125 77.703125 166.324219 79.238281 169.457031 C 83.292969 177.722656 102.691406 202.253906 102.886719 202.5 C 103.316406 203.042969 103.222656 203.824219 102.683594 204.253906 C 102.453125 204.433594 102.179688 204.523438 101.910156 204.523438 " fill-opacity="1" fill-rule="nonzero"/><path fill="#000000" d="M 143.855469 215.765625 C 143.621094 215.765625 143.382812 215.699219 143.167969 215.558594 C 143.144531 215.542969 140.542969 213.875 134.289062 212.136719 C 132.355469 211.597656 130.429688 211.230469 128.566406 210.867188 C 124.050781 209.992188 119.789062 209.167969 115.898438 206.203125 C 114.882812 205.429688 113.699219 204.570312 112.40625 203.632812 C 107.304688 199.933594 100.320312 194.863281 95.609375 189.109375 C 93.382812 186.386719 90.792969 183.667969 88.050781 180.792969 C 83.679688 176.203125 79.15625 171.460938 75.230469 165.84375 C 74.839844 165.277344 74.976562 164.5 75.542969 164.109375 C 76.105469 163.714844 76.882812 163.851562 77.277344 164.417969 C 81.097656 169.878906 85.550781 174.554688 89.859375 179.074219 C 92.632812 181.984375 95.253906 184.734375 97.542969 187.53125 C 102.050781 193.039062 108.882812 197.996094 113.871094 201.617188 C 115.183594 202.566406 116.382812 203.4375 117.410156 204.222656 C 120.835938 206.832031 124.820312 207.605469 129.039062 208.421875 C 130.953125 208.789062 132.925781 209.171875 134.960938 209.738281 C 141.65625 211.597656 144.429688 213.40625 144.546875 213.480469 C 145.121094 213.859375 145.277344 214.632812 144.898438 215.207031 C 144.65625 215.570312 144.261719 215.765625 143.855469 215.765625 " fill-opacity="1" fill-rule="nonzero"/><path fill="#000000" d="M 178.859375 289.726562 C 178.417969 289.726562 177.988281 289.492188 177.761719 289.074219 C 177.507812 288.609375 171.5 277.347656 170.957031 254.742188 C 170.554688 238.339844 165.8125 225.585938 163.261719 218.734375 C 163.003906 218.035156 162.761719 217.386719 162.546875 216.796875 C 159.984375 209.730469 145.707031 194.714844 141.394531 190.28125 C 136.484375 185.238281 133.707031 180.015625 132.042969 176.890625 C 131.441406 175.753906 130.8125 174.578125 130.519531 174.300781 C 130.382812 174.167969 130.007812 173.878906 129.566406 174.035156 C 128.785156 174.316406 127.800781 175.863281 127.371094 179.378906 C 126.554688 186.03125 131.554688 194.15625 134.105469 197.050781 C 136.386719 199.640625 138.300781 205.429688 139.566406 209.261719 C 139.957031 210.4375 140.292969 211.453125 140.492188 211.914062 C 140.765625 212.542969 140.480469 213.277344 139.847656 213.554688 C 139.21875 213.824219 138.484375 213.542969 138.203125 212.910156 C 137.957031 212.347656 137.621094 211.328125 137.199219 210.039062 C 136.066406 206.625 134.179688 200.90625 132.230469 198.695312 C 128.925781 194.945312 124.007812 186.300781 124.890625 179.078125 C 125.527344 173.878906 127.328125 172.1875 128.730469 171.691406 C 129.929688 171.261719 131.273438 171.570312 132.246094 172.5 C 132.828125 173.054688 133.390625 174.117188 134.246094 175.722656 C 135.84375 178.726562 138.519531 183.753906 143.183594 188.546875 C 148.824219 194.34375 162.234375 208.617188 164.894531 215.949219 C 165.105469 216.535156 165.34375 217.171875 165.601562 217.867188 C 168.203125 224.855469 173.042969 237.863281 173.449219 254.683594 C 173.980469 276.6875 179.894531 287.773438 179.953125 287.882812 C 180.285156 288.484375 180.058594 289.246094 179.457031 289.574219 C 179.265625 289.675781 179.0625 289.726562 178.859375 289.726562 " fill-opacity="1" fill-rule="nonzero"/><path fill="#000000" d="M 145.546875 307.085938 C 140.984375 307.085938 138.230469 306.367188 138.027344 306.316406 C 137.359375 306.132812 136.96875 305.453125 137.144531 304.789062 C 137.324219 304.121094 137.996094 303.726562 138.675781 303.90625 C 138.757812 303.929688 147.4375 306.15625 159.726562 302.355469 C 174.449219 297.800781 177.773438 289.191406 177.804688 289.105469 C 178.042969 288.457031 178.761719 288.125 179.40625 288.363281 C 180.054688 288.601562 180.386719 289.316406 180.148438 289.964844 C 180 290.363281 176.355469 299.820312 160.464844 304.734375 C 154.507812 306.578125 149.386719 307.085938 145.546875 307.085938 " fill-opacity="1" fill-rule="nonzero"/><g clip-path="url(#6942237622)"><path fill="#000000" d="M 236.953125 306.761719 C 236.886719 306.761719 236.824219 306.753906 236.757812 306.746094 C 236.078125 306.636719 235.613281 306 235.714844 305.324219 L 235.996094 303.53125 C 237.703125 292.503906 239.828125 278.777344 244.238281 272.863281 C 248.90625 266.613281 257.523438 256.652344 272.046875 244.710938 C 275.988281 241.472656 279.628906 238.664062 282.84375 236.195312 C 290.554688 230.261719 296.125 225.976562 299.503906 220.691406 C 302.386719 216.183594 305.691406 207.570312 308.34375 200.648438 C 310.242188 195.699219 311.878906 191.425781 313.046875 189.410156 C 319.105469 178.945312 320.046875 175.699219 320.070312 174.695312 C 320.070312 174.683594 320.070312 174.671875 320.070312 174.65625 C 319.542969 174.777344 318.417969 175.3125 316.835938 176.519531 C 315.578125 177.476562 309.121094 182.65625 305.621094 190.453125 C 302.1875 198.09375 293.394531 209.5 289.6875 212.613281 C 286.292969 215.46875 273.070312 224.027344 262.867188 227.667969 C 261.832031 228.035156 260.585938 228.441406 259.175781 228.90625 C 247.683594 232.675781 223.765625 240.519531 219.058594 259.976562 C 218.898438 260.644531 218.222656 261.050781 217.550781 260.894531 C 216.882812 260.734375 216.472656 260.058594 216.632812 259.390625 C 221.667969 238.585938 246.476562 230.449219 258.394531 226.539062 C 259.785156 226.082031 261.011719 225.683594 262.027344 225.320312 C 271.800781 221.835938 284.886719 213.390625 288.082031 210.707031 C 291.140625 208.136719 299.882812 197.136719 303.34375 189.433594 C 307 181.296875 313.4375 175.976562 315.320312 174.539062 C 319.445312 171.398438 320.894531 172.136719 321.371094 172.378906 C 321.832031 172.617188 322.601562 173.234375 322.5625 174.753906 C 322.53125 176.179688 321.734375 179.382812 315.207031 190.65625 C 314.136719 192.5 312.535156 196.691406 310.671875 201.539062 C 307.839844 208.929688 304.625 217.3125 301.605469 222.035156 C 297.992188 227.683594 292.277344 232.082031 284.367188 238.167969 C 281.167969 240.628906 277.542969 243.417969 273.632812 246.632812 C 259.300781 258.417969 250.824219 268.210938 246.242188 274.355469 C 242.199219 279.769531 240.039062 293.722656 238.460938 303.914062 L 238.183594 305.707031 C 238.085938 306.320312 237.558594 306.761719 236.953125 306.761719 " fill-opacity="1" fill-rule="nonzero"/></g><g clip-path="url(#4522099a10)"><path fill="#000000" d="M 283.394531 208.851562 C 283.160156 208.851562 282.921875 208.785156 282.707031 208.648438 C 282.132812 208.269531 281.976562 207.492188 282.355469 206.921875 C 282.46875 206.75 293.761719 189.683594 298.738281 181.4375 C 304.015625 172.699219 311.839844 161.761719 313.875 159.214844 C 315.6875 156.949219 319.101562 155.613281 321.179688 156.355469 C 322.265625 156.738281 322.90625 157.65625 322.898438 158.808594 C 322.886719 160.050781 322.113281 161.996094 320.746094 165.324219 C 319.398438 168.613281 317.71875 172.707031 317.316406 175.695312 C 317.222656 176.378906 316.59375 176.859375 315.914062 176.761719 C 315.230469 176.671875 314.75 176.042969 314.84375 175.363281 C 315.285156 172.0625 317.035156 167.800781 318.4375 164.378906 C 319.355469 162.144531 320.394531 159.609375 320.402344 158.785156 C 320.375 158.699219 320.117188 158.601562 319.578125 158.65625 C 318.496094 158.769531 316.855469 159.480469 315.824219 160.769531 C 313.714844 163.410156 305.878906 174.441406 300.875 182.726562 C 295.871094 191.015625 284.550781 208.121094 284.4375 208.292969 C 284.195312 208.65625 283.800781 208.851562 283.394531 208.851562 " fill-opacity="1" fill-rule="nonzero"/></g><path fill="#000000" d="M 273.257812 205.683594 C 272.988281 205.683594 272.714844 205.597656 272.488281 205.414062 C 271.945312 204.988281 271.851562 204.203125 272.28125 203.664062 C 272.480469 203.417969 291.878906 178.882812 295.929688 170.617188 C 297.464844 167.492188 298.773438 164.445312 300.035156 161.5 C 302.214844 156.421875 304.097656 152.035156 306.515625 148.644531 C 309.480469 144.480469 312.898438 142.160156 315.03125 142.863281 C 316.023438 143.191406 316.597656 144.109375 316.566406 145.320312 C 316.5 148.269531 314.511719 159.101562 313.695312 163.125 C 313.554688 163.796875 312.886719 164.238281 312.222656 164.097656 C 311.550781 163.960938 311.113281 163.300781 311.25 162.628906 C 312.175781 158.0625 314.015625 147.796875 314.074219 145.261719 C 314.074219 145.25 314.074219 145.242188 314.074219 145.230469 C 313.265625 145.335938 310.988281 146.660156 308.546875 150.085938 C 306.289062 153.261719 304.453125 157.535156 302.332031 162.480469 C 301.054688 165.453125 299.734375 168.53125 298.171875 171.714844 C 294.003906 180.21875 275.042969 204.195312 274.238281 205.210938 C 273.992188 205.523438 273.628906 205.683594 273.257812 205.683594 " fill-opacity="1" fill-rule="nonzero"/><path fill="#000000" d="M 231.3125 216.925781 C 230.910156 216.925781 230.511719 216.730469 230.269531 216.363281 C 229.894531 215.789062 230.050781 215.019531 230.625 214.644531 C 230.738281 214.566406 233.515625 212.757812 240.210938 210.898438 C 242.242188 210.335938 244.21875 209.953125 246.128906 209.582031 C 250.347656 208.765625 254.332031 207.996094 257.757812 205.382812 C 258.78125 204.605469 259.980469 203.738281 261.285156 202.789062 C 266.277344 199.167969 273.113281 194.207031 277.628906 188.691406 C 279.914062 185.898438 282.535156 183.148438 285.308594 180.238281 C 289.617188 175.71875 294.074219 171.042969 297.890625 165.578125 C 298.285156 165.015625 299.066406 164.878906 299.628906 165.269531 C 300.195312 165.664062 300.332031 166.441406 299.941406 167.003906 C 296.011719 172.625 291.488281 177.367188 287.117188 181.957031 C 284.375 184.832031 281.785156 187.550781 279.558594 190.269531 C 274.84375 196.03125 267.851562 201.105469 262.75 204.804688 C 261.460938 205.738281 260.28125 206.597656 259.273438 207.367188 C 255.382812 210.328125 251.117188 211.15625 246.605469 212.03125 C 244.742188 212.390625 242.816406 212.761719 240.878906 213.300781 C 234.625 215.035156 232.023438 216.707031 231.996094 216.722656 C 231.785156 216.859375 231.550781 216.925781 231.3125 216.925781 " fill-opacity="1" fill-rule="nonzero"/><path fill="#000000" d="M 196.3125 290.886719 C 196.109375 290.886719 195.902344 290.839844 195.714844 290.734375 C 195.113281 290.40625 194.886719 289.652344 195.214844 289.046875 C 195.273438 288.9375 201.191406 277.777344 201.722656 255.847656 C 202.125 239.023438 206.96875 226.015625 209.566406 219.027344 C 209.824219 218.335938 210.0625 217.695312 210.277344 217.109375 C 212.9375 209.777344 226.34375 195.503906 231.984375 189.707031 C 236.648438 184.917969 239.324219 179.890625 240.925781 176.886719 C 241.777344 175.277344 242.34375 174.21875 242.925781 173.660156 C 243.898438 172.734375 245.246094 172.425781 246.441406 172.851562 C 247.839844 173.351562 249.640625 175.039062 250.277344 180.238281 C 251.160156 187.460938 246.246094 196.105469 242.9375 199.859375 C 240.988281 202.070312 239.101562 207.789062 237.972656 211.207031 C 237.546875 212.492188 237.210938 213.507812 236.964844 214.074219 C 236.6875 214.707031 235.949219 214.992188 235.320312 214.71875 C 234.6875 214.441406 234.402344 213.707031 234.675781 213.074219 C 234.878906 212.617188 235.214844 211.601562 235.601562 210.421875 C 236.867188 206.59375 238.78125 200.808594 241.066406 198.210938 C 243.613281 195.320312 248.613281 187.195312 247.796875 180.542969 C 247.371094 177.027344 246.382812 175.476562 245.601562 175.199219 C 245.160156 175.039062 244.789062 175.332031 244.648438 175.460938 C 244.355469 175.742188 243.730469 176.917969 243.125 178.054688 C 241.464844 181.175781 238.6875 186.402344 233.777344 191.445312 C 229.460938 195.878906 215.1875 210.890625 212.621094 217.960938 C 212.40625 218.550781 212.164062 219.199219 211.90625 219.898438 C 209.355469 226.75 204.613281 239.503906 204.214844 255.90625 C 203.667969 278.507812 197.660156 289.769531 197.40625 290.238281 C 197.179688 290.652344 196.753906 290.886719 196.3125 290.886719 " fill-opacity="1" fill-rule="nonzero"/><g clip-path="url(#37e670b9b1)"><path fill="#000000" d="M 229.625 308.25 C 225.785156 308.25 220.664062 307.738281 214.707031 305.898438 C 198.816406 300.984375 195.171875 291.527344 195.023438 291.128906 C 194.785156 290.480469 195.117188 289.765625 195.765625 289.527344 C 196.410156 289.292969 197.125 289.621094 197.363281 290.261719 C 197.417969 290.402344 200.867188 299.007812 215.445312 303.515625 C 227.792969 307.335938 236.410156 305.089844 236.492188 305.070312 C 237.15625 304.898438 237.84375 305.285156 238.023438 305.949219 C 238.203125 306.613281 237.808594 307.296875 237.144531 307.476562 C 236.941406 307.53125 234.183594 308.25 229.625 308.25 " fill-opacity="1" fill-rule="nonzero"/></g><path fill="#000000" d="M 183.855469 74.191406 C 180.308594 76.492188 164.109375 88.359375 164.109375 113.148438 C 164.109375 137.929688 180.304688 149.800781 183.851562 152.101562 C 187.347656 149.351562 203.75 135.242188 203.75 113.148438 C 203.75 91.015625 187.347656 76.9375 183.855469 74.191406 Z M 183.929688 154.859375 C 183.722656 154.859375 183.511719 154.808594 183.324219 154.703125 C 183.105469 154.582031 161.613281 142.355469 161.613281 113.148438 C 161.613281 83.9375 183.105469 71.710938 183.324219 71.59375 C 183.742188 71.363281 184.261719 71.386719 184.648438 71.664062 C 184.867188 71.816406 206.242188 87.230469 206.242188 113.148438 C 206.242188 139.066406 184.867188 154.476562 184.648438 154.628906 C 184.433594 154.78125 184.179688 154.859375 183.929688 154.859375 " fill-opacity="1" fill-rule="nonzero"/><path fill="#000000" d="M 223.472656 126.097656 L 223.488281 126.097656 Z M 225.464844 79.335938 C 221.074219 79.769531 200.777344 83.007812 187.800781 106.136719 C 174.828125 129.261719 182.660156 148.238281 184.582031 152.210938 C 189.15625 151.324219 210.808594 146.117188 222.382812 125.488281 C 233.976562 104.820312 227.101562 83.6875 225.464844 79.335938 Z M 183.894531 154.839844 C 183.453125 154.839844 183.039062 154.609375 182.816406 154.21875 C 182.6875 154.003906 170.363281 132.125 185.625 104.917969 C 200.886719 77.707031 226.003906 76.785156 226.257812 76.78125 C 226.804688 76.71875 227.230469 77.0625 227.433594 77.527344 C 227.539062 77.773438 238.101562 102.5625 224.5625 126.703125 C 211.019531 150.847656 184.332031 154.792969 184.066406 154.832031 C 184.007812 154.839844 183.953125 154.839844 183.894531 154.839844 " fill-opacity="1" fill-rule="nonzero"/><path fill="#000000" d="M 185.511719 153.011719 C 189.914062 154.519531 211.28125 160.792969 231.621094 148.671875 C 251.984375 136.53125 256.574219 114.789062 257.328125 110.199219 C 253.308594 108.390625 234.097656 101.085938 211.300781 114.675781 C 188.457031 128.292969 185.8125 148.617188 185.511719 153.011719 Z M 204.332031 158.460938 C 192.484375 158.460938 183.902344 155.085938 183.753906 155.027344 C 183.285156 154.835938 182.976562 154.378906 182.976562 153.875 C 182.976562 153.625 183.210938 128.519531 210.023438 112.535156 C 236.832031 96.550781 259.070312 108.257812 259.292969 108.378906 C 259.738281 108.621094 259.992188 109.105469 259.9375 109.609375 C 259.90625 109.878906 256.6875 136.628906 232.898438 150.808594 C 222.972656 156.726562 212.8125 158.460938 204.332031 158.460938 " fill-opacity="1" fill-rule="nonzero"/><path fill="#000000" d="M 135.65625 148.550781 C 155.988281 160.667969 177.359375 154.402344 181.765625 152.890625 C 181.449219 148.492188 178.769531 128.140625 155.976562 114.554688 C 133.183594 100.96875 113.972656 108.265625 109.949219 110.078125 C 110.710938 114.671875 115.324219 136.429688 135.65625 148.550781 Z M 162.945312 158.339844 C 154.460938 158.339844 144.304688 156.609375 134.378906 150.691406 C 110.589844 136.507812 107.367188 109.757812 107.339844 109.488281 C 107.285156 108.988281 107.539062 108.5 107.984375 108.257812 C 108.203125 108.140625 130.445312 96.429688 157.253906 112.414062 C 184.066406 128.398438 184.300781 153.503906 184.300781 153.753906 C 184.300781 154.257812 183.992188 154.714844 183.519531 154.902344 C 183.375 154.964844 174.789062 158.339844 162.945312 158.339844 " fill-opacity="1" fill-rule="nonzero"/><path fill="#000000" d="M 141.679688 79.332031 C 140.050781 83.6875 133.183594 104.851562 144.757812 125.488281 C 156.355469 146.152344 177.988281 151.328125 182.558594 152.210938 C 184.484375 148.242188 192.320312 129.265625 179.34375 106.136719 C 166.339844 82.953125 146.070312 79.757812 141.679688 79.332031 Z M 183.25 154.839844 C 183.191406 154.839844 183.132812 154.839844 183.078125 154.832031 C 182.808594 154.792969 156.125 150.847656 142.582031 126.703125 C 129.039062 102.5625 139.601562 77.773438 139.710938 77.527344 C 139.910156 77.070312 140.359375 76.777344 140.855469 76.777344 C 140.863281 76.777344 140.875 76.777344 140.886719 76.78125 C 141.136719 76.785156 166.257812 77.707031 181.519531 104.917969 C 196.785156 132.125 184.457031 154.003906 184.328125 154.21875 C 184.101562 154.609375 183.691406 154.839844 183.25 154.839844 " fill-opacity="1" fill-rule="nonzero"/><path fill="#000000" d="M 281.308594 128.554688 C 281.976562 129.210938 282.550781 129.960938 283.023438 130.796875 C 283.496094 131.628906 283.839844 132.511719 284.058594 133.417969 C 284.710938 132.75 285.460938 132.175781 286.296875 131.707031 C 287.132812 131.234375 288.015625 130.890625 288.925781 130.671875 C 287.570312 129.34375 286.613281 127.652344 286.175781 125.808594 C 284.847656 127.160156 283.152344 128.117188 281.308594 128.554688 Z M 282.753906 139.339844 C 282.644531 139.339844 282.53125 139.324219 282.417969 139.292969 C 281.867188 139.140625 281.503906 138.636719 281.503906 138.09375 C 281.503906 137.980469 281.519531 137.871094 281.550781 137.757812 C 282.09375 135.816406 281.84375 133.777344 280.851562 132.023438 C 279.859375 130.265625 278.242188 129.003906 276.296875 128.460938 C 275.742188 128.304688 275.382812 127.804688 275.382812 127.257812 C 275.382812 127.148438 275.398438 127.035156 275.429688 126.925781 C 275.613281 126.261719 276.296875 125.875 276.964844 126.058594 C 280.976562 127.171875 285.148438 124.824219 286.273438 120.816406 C 286.273438 120.816406 286.273438 120.8125 286.273438 120.8125 C 286.460938 120.148438 287.144531 119.761719 287.8125 119.945312 C 287.960938 119.988281 288.089844 120.050781 288.210938 120.136719 C 288.210938 120.136719 288.214844 120.140625 288.214844 120.140625 C 288.214844 120.140625 288.210938 120.136719 288.214844 120.140625 C 288.21875 120.140625 288.21875 120.144531 288.21875 120.144531 C 288.222656 120.144531 288.222656 120.144531 288.222656 120.144531 C 288.222656 120.144531 288.222656 120.144531 288.222656 120.148438 C 288.222656 120.148438 288.226562 120.148438 288.226562 120.148438 C 288.230469 120.152344 288.226562 120.152344 288.230469 120.152344 L 288.238281 120.15625 C 288.238281 120.160156 288.238281 120.160156 288.238281 120.160156 C 288.242188 120.160156 288.242188 120.160156 288.242188 120.160156 C 288.242188 120.160156 288.242188 120.160156 288.246094 120.160156 L 288.246094 120.164062 L 288.25 120.167969 C 288.25 120.167969 288.25 120.167969 288.253906 120.167969 C 288.253906 120.171875 288.253906 120.171875 288.253906 120.171875 C 288.257812 120.171875 288.257812 120.171875 288.257812 120.171875 L 288.257812 120.175781 C 288.257812 120.175781 288.261719 120.175781 288.261719 120.175781 C 288.261719 120.175781 288.261719 120.175781 288.265625 120.179688 C 288.410156 120.296875 288.53125 120.449219 288.609375 120.621094 C 288.609375 120.621094 288.609375 120.625 288.609375 120.625 C 288.609375 120.628906 288.609375 120.628906 288.613281 120.628906 C 288.613281 120.628906 288.613281 120.628906 288.613281 120.632812 C 288.613281 120.632812 288.613281 120.632812 288.613281 120.636719 C 288.613281 120.636719 288.617188 120.636719 288.617188 120.636719 C 288.617188 120.640625 288.617188 120.640625 288.617188 120.640625 C 288.617188 120.640625 288.617188 120.640625 288.617188 120.644531 C 288.617188 120.644531 288.621094 120.644531 288.621094 120.648438 C 288.621094 120.648438 288.621094 120.648438 288.621094 120.652344 L 288.625 120.652344 C 288.625 120.65625 288.625 120.65625 288.625 120.65625 L 288.625 120.660156 C 288.625 120.660156 288.625 120.660156 288.625 120.664062 C 288.628906 120.664062 288.628906 120.667969 288.628906 120.667969 C 288.628906 120.667969 288.628906 120.667969 288.628906 120.671875 C 288.628906 120.671875 288.628906 120.671875 288.632812 120.671875 C 288.632812 120.675781 288.632812 120.671875 288.632812 120.675781 C 288.632812 120.675781 288.632812 120.679688 288.632812 120.679688 L 288.632812 120.683594 C 288.632812 120.683594 288.636719 120.683594 288.636719 120.683594 C 288.636719 120.683594 288.636719 120.6875 288.636719 120.6875 C 288.636719 120.6875 288.636719 120.6875 288.636719 120.691406 C 288.640625 120.691406 288.640625 120.695312 288.640625 120.695312 C 288.640625 120.695312 288.640625 120.695312 288.640625 120.699219 C 288.640625 120.699219 288.640625 120.699219 288.640625 120.703125 C 288.734375 120.941406 288.753906 121.210938 288.679688 121.480469 C 287.5625 125.488281 289.917969 129.660156 293.933594 130.777344 C 294.484375 130.929688 294.847656 131.433594 294.847656 131.980469 C 294.847656 132.089844 294.832031 132.199219 294.800781 132.3125 C 294.617188 132.976562 293.921875 133.359375 293.265625 133.179688 C 291.320312 132.636719 289.28125 132.886719 287.523438 133.875 C 285.761719 134.867188 284.496094 136.484375 283.957031 138.425781 C 283.800781 138.980469 283.300781 139.339844 282.753906 139.339844 " fill-opacity="1" fill-rule="nonzero"/><path fill="#000000" d="M 273.773438 64.355469 C 273.417969 64.355469 273.0625 64.203125 272.816406 63.910156 L 269.238281 59.652344 C 268.796875 59.125 268.867188 58.339844 269.390625 57.898438 C 269.917969 57.457031 270.707031 57.523438 271.152344 58.050781 L 274.730469 62.308594 C 275.171875 62.835938 275.105469 63.621094 274.578125 64.0625 C 274.34375 64.261719 274.058594 64.355469 273.773438 64.355469 " fill-opacity="1" fill-rule="nonzero"/><path fill="#000000" d="M 269.855469 64.015625 C 269.5 64.015625 269.144531 63.863281 268.898438 63.570312 C 268.457031 63.042969 268.523438 62.253906 269.050781 61.8125 L 273.3125 58.238281 C 273.839844 57.800781 274.625 57.863281 275.074219 58.394531 C 275.515625 58.917969 275.445312 59.707031 274.917969 60.148438 L 270.65625 63.722656 C 270.421875 63.917969 270.136719 64.015625 269.855469 64.015625 " fill-opacity="1" fill-rule="nonzero"/><path fill="#000000" d="M 85.457031 83.496094 C 85.867188 83.496094 86.277344 83.527344 86.6875 83.59375 C 87.199219 83.675781 87.695312 83.808594 88.171875 83.988281 C 88.152344 83.480469 88.183594 82.96875 88.265625 82.457031 C 88.347656 81.941406 88.480469 81.445312 88.660156 80.972656 C 88.15625 80.992188 87.640625 80.960938 87.125 80.878906 C 86.609375 80.796875 86.113281 80.664062 85.640625 80.484375 C 85.660156 80.992188 85.628906 81.503906 85.546875 82.015625 C 85.464844 82.53125 85.332031 83.027344 85.148438 83.5 C 85.253906 83.496094 85.355469 83.496094 85.457031 83.496094 Z M 90.617188 88.613281 C 90.226562 88.613281 89.847656 88.433594 89.601562 88.097656 C 88.808594 86.996094 87.628906 86.269531 86.285156 86.054688 C 84.949219 85.847656 83.601562 86.15625 82.496094 86.949219 C 81.9375 87.355469 81.160156 87.230469 80.757812 86.667969 C 80.597656 86.449219 80.519531 86.195312 80.519531 85.945312 C 80.519531 85.554688 80.699219 85.171875 81.039062 84.929688 C 82.140625 84.136719 82.863281 82.960938 83.082031 81.617188 C 83.300781 80.277344 82.980469 78.933594 82.183594 77.832031 C 82.027344 77.613281 81.949219 77.359375 81.949219 77.109375 C 81.949219 76.71875 82.128906 76.339844 82.46875 76.09375 C 83.027344 75.691406 83.804688 75.816406 84.207031 76.375 C 85.851562 78.644531 89.039062 79.160156 91.3125 77.523438 C 91.535156 77.363281 91.789062 77.285156 92.042969 77.285156 C 92.429688 77.285156 92.8125 77.464844 93.054688 77.804688 C 93.457031 78.363281 93.332031 79.140625 92.773438 79.542969 C 91.671875 80.339844 90.945312 81.515625 90.730469 82.855469 C 90.511719 84.191406 90.832031 85.539062 91.625 86.640625 C 91.785156 86.859375 91.859375 87.113281 91.863281 87.367188 C 91.863281 87.753906 91.679688 88.136719 91.34375 88.378906 C 91.125 88.539062 90.867188 88.613281 90.617188 88.613281 " fill-opacity="1" fill-rule="nonzero"/><path fill="#000000" d="M 119.136719 68.070312 C 118.988281 68.070312 118.84375 68.042969 118.699219 67.992188 L 114.949219 66.585938 C 114.304688 66.34375 113.976562 65.625 114.21875 64.984375 C 114.460938 64.339844 115.183594 64.011719 115.824219 64.253906 L 119.574219 65.65625 C 120.21875 65.898438 120.546875 66.617188 120.304688 67.261719 C 120.117188 67.761719 119.640625 68.070312 119.136719 68.070312 " fill-opacity="1" fill-rule="nonzero"/><path fill="#000000" d="M 116.558594 69.242188 C 116.414062 69.242188 116.265625 69.214844 116.121094 69.164062 C 115.476562 68.917969 115.148438 68.199219 115.390625 67.558594 L 116.796875 63.8125 C 117.039062 63.167969 117.761719 62.839844 118.402344 63.082031 C 119.046875 63.324219 119.375 64.042969 119.132812 64.6875 L 117.726562 68.429688 C 117.539062 68.929688 117.0625 69.242188 116.558594 69.242188 " fill-opacity="1" fill-rule="nonzero"/><path fill="#000000" d="M 93.671875 126.71875 C 94.152344 127.203125 94.132812 128.003906 93.621094 128.515625 C 93.113281 129.023438 92.308594 129.046875 91.828125 128.5625 C 91.34375 128.082031 91.363281 127.28125 91.875 126.769531 C 92.386719 126.261719 93.1875 126.238281 93.671875 126.71875 " fill-opacity="1" fill-rule="nonzero"/><path fill="#000000" d="M 92.820312 126.71875 C 92.570312 126.71875 92.316406 126.820312 92.121094 127.015625 C 91.929688 127.207031 91.824219 127.453125 91.824219 127.710938 C 91.824219 127.945312 91.914062 128.160156 92.070312 128.320312 C 92.414062 128.664062 93 128.644531 93.375 128.269531 C 93.75 127.898438 93.773438 127.3125 93.425781 126.964844 C 93.261719 126.800781 93.042969 126.71875 92.820312 126.71875 Z M 92.679688 129.257812 C 92.277344 129.257812 91.882812 129.105469 91.578125 128.808594 C 91.289062 128.519531 91.132812 128.128906 91.132812 127.710938 C 91.132812 127.265625 91.308594 126.847656 91.628906 126.527344 C 92.269531 125.882812 93.296875 125.859375 93.917969 126.476562 C 94.53125 127.089844 94.511719 128.117188 93.867188 128.757812 C 93.535156 129.089844 93.105469 129.257812 92.679688 129.257812 " fill-opacity="1" fill-rule="nonzero"/><path fill="#000000" d="M 224.089844 57.792969 C 224.570312 58.273438 224.550781 59.078125 224.039062 59.585938 C 223.53125 60.09375 222.726562 60.117188 222.242188 59.636719 C 221.761719 59.152344 221.785156 58.351562 222.292969 57.839844 C 222.800781 57.332031 223.605469 57.308594 224.089844 57.792969 " fill-opacity="1" fill-rule="nonzero"/><path fill="#000000" d="M 223.238281 57.789062 C 222.988281 57.789062 222.734375 57.890625 222.539062 58.085938 C 222.164062 58.460938 222.140625 59.046875 222.488281 59.390625 C 222.835938 59.738281 223.421875 59.714844 223.796875 59.339844 C 224.167969 58.96875 224.191406 58.382812 223.84375 58.035156 C 223.679688 57.871094 223.460938 57.789062 223.238281 57.789062 Z M 223.09375 60.328125 C 222.695312 60.328125 222.296875 60.179688 222 59.878906 C 221.382812 59.261719 221.402344 58.238281 222.046875 57.597656 C 222.691406 56.957031 223.714844 56.929688 224.332031 57.546875 C 224.949219 58.164062 224.929688 59.1875 224.285156 59.832031 C 223.953125 60.164062 223.523438 60.328125 223.09375 60.328125 " fill-opacity="1" fill-rule="nonzero"/></svg>