<svg xmlns="http://www.w3.org/2000/svg" xmlns:xlink="http://www.w3.org/1999/xlink" width="500" zoomAndPan="magnify" viewBox="0 0 375 374.999991" height="500" preserveAspectRatio="xMidYMid meet" version="1.0"><defs><clipPath id="681dd0df2e"><path d="M 15.363281 74.714844 L 337.863281 74.714844 L 337.863281 221.714844 L 15.363281 221.714844 Z M 15.363281 74.714844 " clip-rule="nonzero"/></clipPath></defs><g clip-path="url(#681dd0df2e)"><path fill="#000000" d="M 239.792969 75.171875 C 240.117188 76.203125 239.554688 76.964844 239.230469 77.738281 C 235.773438 85.988281 231.476562 93.832031 227.542969 101.851562 C 220.929688 115.328125 214.09375 128.6875 208.484375 142.648438 C 205.15625 150.929688 201.445312 159.0625 198.042969 167.320312 C 197.777344 167.964844 197.542969 169.253906 196.75 168.890625 C 195.78125 168.445312 196.695312 167.453125 196.976562 166.773438 C 201.210938 156.488281 205.390625 146.179688 209.75 135.945312 C 214.175781 125.554688 219.503906 115.589844 224.460938 105.445312 C 229.199219 95.746094 234.019531 86.082031 238.808594 76.40625 C 239.019531 75.984375 239.105469 75.457031 239.792969 75.171875 Z M 117.808594 76.085938 C 118.613281 78.816406 119.402344 81.550781 120.503906 84.183594 C 124.394531 93.480469 128.707031 102.632812 131.84375 112.195312 C 138.144531 131.414062 146.289062 149.925781 153.039062 168.964844 C 153.246094 169.546875 153.289062 170.71875 154.242188 170.359375 C 155.078125 170.046875 154.324219 169.207031 154.15625 168.648438 C 152.601562 163.453125 150.5625 158.421875 148.570312 153.386719 C 138.421875 127.726562 128.96875 101.800781 118.925781 76.101562 C 118.722656 75.578125 118.644531 74.898438 117.808594 74.714844 C 117.542969 75.25 117.683594 75.664062 117.808594 76.085938 Z M 233.148438 198.875 C 241.074219 195.253906 248.980469 191.589844 256.886719 187.929688 C 269.023438 182.308594 281.03125 176.410156 293.234375 170.933594 C 302.632812 166.710938 312.203125 162.859375 321.230469 157.84375 C 321.890625 157.476562 322.753906 157.320312 323.261719 156.0625 C 291.679688 170.105469 260.964844 185.085938 229.96875 199.480469 C 231.191406 199.84375 232.179688 199.316406 233.148438 198.875 Z M 239.796875 221.210938 C 250.664062 220.878906 261.53125 221.5625 272.40625 221.167969 C 280.195312 220.886719 287.988281 221.402344 295.785156 221.542969 C 305.503906 221.71875 315.207031 221.152344 324.917969 220.785156 C 328.867188 220.636719 332.816406 220.519531 336.769531 220.378906 C 337.199219 220.363281 337.820312 220.363281 337.800781 219.832031 C 337.78125 219.1875 337.121094 219.449219 336.746094 219.460938 C 334.496094 219.53125 332.246094 219.648438 329.996094 219.738281 C 310.957031 220.476562 291.902344 219.839844 272.859375 220.449219 C 261.0625 220.828125 249.261719 219.691406 237.453125 220.242188 C 236.777344 220.273438 236.042969 220.066406 235.375 220.816406 C 236.894531 221.285156 238.355469 221.257812 239.796875 221.210938 Z M 115.753906 219.859375 C 113.507812 219.789062 111.257812 219.765625 109.007812 219.710938 C 99.671875 219.480469 90.367188 220.550781 81.039062 220.421875 C 72.425781 220.300781 63.816406 219.957031 55.203125 219.835938 C 42.417969 219.660156 29.632812 219.921875 16.847656 220.105469 C 16.335938 220.113281 15.519531 219.914062 15.488281 220.632812 C 15.457031 221.484375 16.308594 221.128906 16.769531 221.132812 C 22.917969 221.175781 29.066406 221.25 35.210938 221.191406 C 57.324219 220.976562 79.441406 221.308594 101.550781 220.804688 C 106.105469 220.699219 110.664062 220.796875 115.21875 220.765625 C 115.890625 220.761719 116.65625 220.980469 117.230469 220.335938 C 116.863281 219.75 116.265625 219.875 115.753906 219.859375 Z M 33.453125 156.914062 C 44.386719 162.015625 55.328125 167.085938 65.832031 173.078125 C 80.179688 181.265625 95.457031 187.65625 109.996094 195.496094 C 113.800781 197.550781 117.828125 199.199219 121.765625 201.003906 C 122.089844 201.152344 122.585938 201.683594 122.851562 201.015625 C 123.03125 200.5625 122.484375 200.421875 122.160156 200.25 C 121.097656 199.679688 120.035156 199.105469 118.953125 198.570312 C 109.796875 194.0625 100.582031 189.675781 91.492188 185.042969 C 71.945312 175.074219 52.378906 165.144531 32.703125 155.429688 C 32.238281 155.199219 31.796875 154.75 31.003906 155.175781 C 31.632812 156.164062 32.585938 156.507812 33.453125 156.914062 Z M 177.039062 95.511719 C 176.945312 102.691406 176.8125 109.875 176.753906 117.054688 C 176.617188 132.957031 176.398438 148.859375 176.671875 164.757812 C 176.683594 165.460938 176.417969 166.625 177.449219 166.589844 C 178.375 166.5625 177.96875 165.433594 177.992188 164.792969 C 178.410156 153.117188 177.507812 141.449219 177.882812 129.761719 C 178.238281 118.75 177.976562 107.71875 177.96875 96.695312 C 177.96875 96.015625 178.171875 95.261719 177.496094 94.605469 C 177.058594 94.855469 177.042969 95.175781 177.039062 95.511719 Z M 268.273438 130.949219 C 267.894531 131.140625 267.542969 131.417969 267.234375 131.714844 C 262.902344 135.832031 258.617188 140 254.242188 144.074219 C 249.148438 148.816406 243.90625 153.410156 238.851562 158.195312 C 231.683594 164.980469 224.746094 171.996094 217.929688 179.132812 C 217.476562 179.605469 217.046875 180.105469 216.632812 180.617188 C 216.425781 180.875 216.265625 181.226562 216.539062 181.507812 C 216.894531 181.871094 217.246094 181.640625 217.53125 181.355469 C 218.308594 180.582031 219.066406 179.789062 219.84375 179.019531 C 223.972656 174.925781 228.304688 171.019531 232.1875 166.710938 C 237.742188 160.542969 243.664062 154.78125 249.976562 149.410156 C 256.125 144.183594 261.789062 138.441406 267.589844 132.847656 C 268.058594 132.394531 268.457031 131.875 268.832031 131.453125 C 268.804688 130.953125 268.53125 130.820312 268.273438 130.949219 Z M 86.871094 129.429688 C 87.164062 130.296875 87.867188 130.851562 88.484375 131.460938 C 101.8125 144.585938 114.421875 158.414062 127.734375 171.554688 C 130.703125 174.484375 133.519531 177.558594 136.320312 180.644531 C 136.632812 180.984375 137.035156 181.523438 137.550781 181.058594 C 138.066406 180.589844 137.570312 180.171875 137.246094 179.816406 C 136.0625 178.519531 134.890625 177.210938 133.675781 175.941406 C 125.785156 167.699219 117.511719 159.835938 109.53125 151.679688 C 103.242188 145.253906 97.320312 138.472656 90.738281 132.328125 C 89.566406 131.234375 88.378906 130.15625 87.195312 129.070312 C 87.085938 129.1875 86.980469 129.308594 86.871094 129.429688 Z M 145.875 174.378906 C 145.738281 173.109375 144.945312 172.109375 144.277344 171.082031 C 138.839844 162.714844 133.484375 154.292969 127.765625 146.117188 C 126.570312 144.410156 125.398438 142.6875 124.195312 140.988281 C 123.988281 140.695312 123.6875 140.289062 123.261719 140.613281 C 122.917969 140.875 123.214844 141.214844 123.355469 141.492188 C 123.476562 141.738281 123.636719 141.964844 123.792969 142.191406 C 129.773438 150.980469 136.070312 159.5625 141.375 168.804688 C 142.554688 170.855469 144.082031 172.707031 145.453125 174.652344 C 145.59375 174.5625 145.734375 174.46875 145.875 174.378906 Z M 166.789062 166.660156 C 166.78125 164.9375 166.113281 163.34375 165.796875 161.683594 C 163.703125 150.664062 161.632812 139.640625 159.535156 128.625 C 159.390625 127.871094 159.410156 126.464844 158.621094 126.628906 C 157.644531 126.835938 158.195312 128.105469 158.359375 128.894531 C 160.445312 138.964844 162.949219 148.949219 164.214844 159.183594 C 164.5625 161.988281 165.375 164.707031 166.222656 167.488281 C 166.839844 167.214844 166.789062 166.914062 166.789062 166.660156 Z M 128.625 187.652344 C 126.972656 186.113281 125.082031 184.890625 123.230469 183.613281 C 117.09375 179.375 110.949219 175.148438 105.066406 170.550781 C 103.210938 169.101562 101.242188 167.792969 99.304688 166.457031 C 98.925781 166.195312 98.347656 165.839844 98.019531 166.429688 C 97.757812 166.902344 98.316406 167.195312 98.65625 167.441406 C 99.765625 168.242188 100.886719 169.03125 102.023438 169.796875 C 103.980469 171.113281 105.988281 172.359375 107.910156 173.722656 C 114.613281 178.488281 120.925781 183.789062 127.796875 188.328125 C 128.34375 188.691406 128.78125 189.425781 129.6875 189.066406 C 129.578125 188.386719 129.054688 188.046875 128.625 187.652344 Z M 118.816406 209.6875 C 118.578125 209.5625 118.351562 209.375 118.101562 209.332031 C 112.96875 208.460938 108.03125 206.773438 102.925781 205.789062 C 96.792969 204.613281 90.898438 202.476562 84.792969 201.203125 C 83.707031 200.972656 82.5625 200.425781 81.3125 201.003906 C 81.890625 201.816406 82.683594 201.863281 83.40625 202.050781 C 88.28125 203.292969 93.1875 204.410156 98.101562 205.492188 C 103.117188 206.59375 108.035156 208.132812 113.023438 209.382812 C 114.886719 209.847656 116.796875 210.257812 118.738281 210.09375 C 118.765625 209.957031 118.789062 209.824219 118.816406 209.6875 Z M 226.148438 190.1875 C 227.664062 189.109375 229.148438 187.984375 230.664062 186.898438 C 237.917969 181.703125 245.183594 176.519531 252.429688 171.308594 C 253.273438 170.707031 254.027344 169.976562 254.796875 169.277344 C 255.050781 169.042969 255.5 168.75 255.109375 168.34375 C 254.824219 168.046875 254.488281 168.351562 254.234375 168.527344 C 252.96875 169.394531 251.730469 170.296875 250.464844 171.164062 C 246.171875 174.113281 242.457031 177.820312 238.019531 180.574219 C 233.871094 183.148438 229.894531 185.96875 226.054688 188.976562 C 225.464844 189.4375 224.75 189.816406 224.558594 190.734375 C 225.347656 190.980469 225.726562 190.488281 226.148438 190.1875 Z M 210.632812 171.015625 C 214.726562 164.402344 218.847656 157.8125 223.5 151.570312 C 225.269531 149.195312 226.839844 146.6875 228.304688 144.117188 C 228.566406 143.652344 229.035156 142.976562 228.503906 142.644531 C 227.910156 142.273438 227.601562 143.0625 227.339844 143.496094 C 221.6875 152.878906 215.273438 161.765625 209.375 170.988281 C 208.65625 172.109375 207.785156 173.160156 207.550781 174.554688 C 209.011719 173.710938 209.8125 172.34375 210.632812 171.015625 Z M 187.714844 166.949219 C 187.867188 166.382812 188.046875 165.820312 188.160156 165.242188 C 190.289062 154.292969 192.207031 143.304688 194.765625 132.441406 C 195.03125 131.324219 195.195312 130.183594 195.363281 129.046875 C 195.425781 128.625 195.457031 128.050781 194.890625 127.984375 C 194.328125 127.917969 194.289062 128.515625 194.15625 128.910156 C 194.085938 129.113281 194.089844 129.34375 194.058594 129.558594 C 192.554688 139.625 190.296875 149.542969 188.304688 159.515625 C 187.824219 161.9375 187.339844 164.398438 187.285156 166.890625 C 187.429688 166.910156 187.574219 166.929688 187.714844 166.949219 Z M 270.214844 202.28125 C 258.265625 204.785156 246.308594 207.238281 234.527344 210.507812 C 236.980469 210.878906 269.460938 203.351562 270.214844 202.28125 Z M 77.175781 200.226562 C 77.335938 200.242188 77.609375 200.066406 77.675781 199.914062 C 77.816406 199.59375 77.542969 199.40625 77.28125 199.335938 C 75.382812 198.804688 73.519531 198.058594 71.460938 198.296875 C 73.230469 199.359375 75.136719 200 77.175781 200.226562 Z M 117.941406 132.691406 C 117.804688 132.652344 117.53125 132.671875 117.515625 132.730469 C 117.453125 132.914062 117.402344 133.171875 117.488281 133.328125 C 118.234375 134.734375 119.160156 136.027344 120.203125 137.230469 C 120.394531 137.453125 120.65625 137.570312 120.933594 137.429688 C 121.042969 137.371094 121.078125 137.171875 121.113281 137.113281 C 121.113281 136.464844 118.46875 132.828125 117.941406 132.691406 Z M 258.667969 165.046875 C 258.402344 165.257812 258.234375 165.609375 258.441406 165.914062 C 258.683594 166.265625 259.042969 166.070312 259.3125 165.902344 C 260.707031 165.050781 261.945312 164.027344 262.828125 162.589844 C 261.226562 163.101562 259.925781 164.046875 258.667969 165.046875 Z M 157.410156 122.066406 C 157.480469 122.367188 157.585938 122.746094 158.015625 122.6875 C 158.332031 122.648438 158.46875 122.375 158.398438 122.082031 C 157.996094 120.328125 157.929688 118.464844 156.6875 116.960938 C 156.542969 118.726562 157.007812 120.394531 157.410156 122.066406 Z M 196.992188 119.097656 C 197.015625 118.9375 196.851562 118.652344 196.703125 118.582031 C 196.375 118.433594 196.203125 118.730469 196.140625 118.980469 C 195.742188 120.582031 195.15625 122.164062 195.734375 123.878906 C 196.8125 122.441406 196.757812 120.730469 196.992188 119.097656 Z M 234.167969 134.195312 C 232.921875 135.808594 231.28125 137.160156 230.882812 139.324219 C 232.28125 137.804688 233.722656 136.316406 234.167969 134.195312 Z M 88.546875 160.160156 C 89.675781 161.75 91.289062 162.664062 93.105469 163.320312 C 91.921875 161.808594 90.507812 160.589844 88.546875 160.160156 Z M 274.332031 201.519531 C 276.125 201.214844 278.035156 201.320312 279.488281 199.929688 C 277.679688 200.207031 275.746094 200.0625 274.332031 201.519531 Z M 274.332031 201.519531 " fill-opacity="1" fill-rule="nonzero"/><path fill="#000000" d="M 239.792969 75.171875 C 240.117188 76.203125 239.554688 76.964844 239.230469 77.738281 C 235.773438 85.988281 231.476562 93.832031 227.542969 101.851562 C 220.929688 115.328125 214.09375 128.6875 208.484375 142.648438 C 205.15625 150.929688 201.445312 159.0625 198.042969 167.320312 C 197.777344 167.964844 197.542969 169.253906 196.75 168.890625 C 195.78125 168.445312 196.695312 167.453125 196.976562 166.773438 C 201.210938 156.488281 205.390625 146.179688 209.75 135.945312 C 214.175781 125.554688 219.503906 115.589844 224.460938 105.445312 C 229.199219 95.746094 234.019531 86.082031 238.808594 76.40625 C 239.019531 75.984375 239.105469 75.457031 239.792969 75.171875 Z M 117.808594 76.085938 C 118.613281 78.816406 119.402344 81.550781 120.503906 84.183594 C 124.394531 93.480469 128.707031 102.632812 131.84375 112.195312 C 138.144531 131.414062 146.289062 149.925781 153.039062 168.964844 C 153.246094 169.546875 153.289062 170.71875 154.242188 170.359375 C 155.078125 170.046875 154.324219 169.207031 154.15625 168.648438 C 152.601562 163.453125 150.5625 158.421875 148.570312 153.386719 C 138.421875 127.726562 128.96875 101.800781 118.925781 76.101562 C 118.722656 75.578125 118.644531 74.898438 117.808594 74.714844 C 117.542969 75.25 117.683594 75.664062 117.808594 76.085938 Z M 233.148438 198.875 C 241.074219 195.253906 248.980469 191.589844 256.886719 187.929688 C 269.023438 182.308594 281.03125 176.410156 293.234375 170.933594 C 302.632812 166.710938 312.203125 162.859375 321.230469 157.84375 C 321.890625 157.476562 322.753906 157.320312 323.261719 156.0625 C 291.679688 170.105469 260.964844 185.085938 229.96875 199.480469 C 231.191406 199.84375 232.179688 199.316406 233.148438 198.875 Z M 239.796875 221.210938 C 250.664062 220.878906 261.53125 221.5625 272.40625 221.167969 C 280.195312 220.886719 287.988281 221.402344 295.785156 221.542969 C 305.503906 221.71875 315.207031 221.152344 324.917969 220.785156 C 328.867188 220.636719 332.816406 220.519531 336.769531 220.378906 C 337.199219 220.363281 337.820312 220.363281 337.800781 219.832031 C 337.78125 219.1875 337.121094 219.449219 336.746094 219.460938 C 334.496094 219.53125 332.246094 219.648438 329.996094 219.738281 C 310.957031 220.476562 291.902344 219.839844 272.859375 220.449219 C 261.0625 220.828125 249.261719 219.691406 237.453125 220.242188 C 236.777344 220.273438 236.042969 220.066406 235.375 220.816406 C 236.894531 221.285156 238.355469 221.257812 239.796875 221.210938 Z M 115.753906 219.859375 C 113.507812 219.789062 111.257812 219.765625 109.007812 219.710938 C 99.671875 219.480469 90.367188 220.550781 81.039062 220.421875 C 72.425781 220.300781 63.816406 219.957031 55.203125 219.835938 C 42.417969 219.660156 29.632812 219.921875 16.847656 220.105469 C 16.335938 220.113281 15.519531 219.914062 15.488281 220.632812 C 15.457031 221.484375 16.308594 221.128906 16.769531 221.132812 C 22.917969 221.175781 29.066406 221.25 35.210938 221.191406 C 57.324219 220.976562 79.441406 221.308594 101.550781 220.804688 C 106.105469 220.699219 110.664062 220.796875 115.21875 220.765625 C 115.890625 220.761719 116.65625 220.980469 117.230469 220.335938 C 116.863281 219.75 116.265625 219.875 115.753906 219.859375 Z M 33.453125 156.914062 C 44.386719 162.015625 55.328125 167.085938 65.832031 173.078125 C 80.179688 181.265625 95.457031 187.65625 109.996094 195.496094 C 113.800781 197.550781 117.828125 199.199219 121.765625 201.003906 C 122.089844 201.152344 122.585938 201.683594 122.851562 201.015625 C 123.03125 200.5625 122.484375 200.421875 122.160156 200.25 C 121.097656 199.679688 120.035156 199.105469 118.953125 198.570312 C 109.796875 194.0625 100.582031 189.675781 91.492188 185.042969 C 71.945312 175.074219 52.378906 165.144531 32.703125 155.429688 C 32.238281 155.199219 31.796875 154.75 31.003906 155.175781 C 31.632812 156.164062 32.585938 156.507812 33.453125 156.914062 Z M 177.039062 95.511719 C 176.945312 102.691406 176.8125 109.875 176.753906 117.054688 C 176.617188 132.957031 176.398438 148.859375 176.671875 164.757812 C 176.683594 165.460938 176.417969 166.625 177.449219 166.589844 C 178.375 166.5625 177.96875 165.433594 177.992188 164.792969 C 178.410156 153.117188 177.507812 141.449219 177.882812 129.761719 C 178.238281 118.75 177.976562 107.71875 177.96875 96.695312 C 177.96875 96.015625 178.171875 95.261719 177.496094 94.605469 C 177.058594 94.855469 177.042969 95.175781 177.039062 95.511719 Z M 268.273438 130.949219 C 267.894531 131.140625 267.542969 131.417969 267.234375 131.714844 C 262.902344 135.832031 258.617188 140 254.242188 144.074219 C 249.148438 148.816406 243.90625 153.410156 238.851562 158.195312 C 231.683594 164.980469 224.746094 171.996094 217.929688 179.132812 C 217.476562 179.605469 217.046875 180.105469 216.632812 180.617188 C 216.425781 180.875 216.265625 181.226562 216.539062 181.507812 C 216.894531 181.871094 217.246094 181.640625 217.53125 181.355469 C 218.308594 180.582031 219.066406 179.789062 219.84375 179.019531 C 223.972656 174.925781 228.304688 171.019531 232.1875 166.710938 C 237.742188 160.542969 243.664062 154.78125 249.976562 149.410156 C 256.125 144.183594 261.789062 138.441406 267.589844 132.847656 C 268.058594 132.394531 268.457031 131.875 268.832031 131.453125 C 268.804688 130.953125 268.53125 130.820312 268.273438 130.949219 Z M 86.871094 129.429688 C 87.164062 130.296875 87.867188 130.851562 88.484375 131.460938 C 101.8125 144.585938 114.421875 158.414062 127.734375 171.554688 C 130.703125 174.484375 133.519531 177.558594 136.320312 180.644531 C 136.632812 180.984375 137.035156 181.523438 137.550781 181.058594 C 138.066406 180.589844 137.570312 180.171875 137.246094 179.816406 C 136.0625 178.519531 134.890625 177.210938 133.675781 175.941406 C 125.785156 167.699219 117.511719 159.835938 109.53125 151.679688 C 103.242188 145.253906 97.320312 138.472656 90.738281 132.328125 C 89.566406 131.234375 88.378906 130.15625 87.195312 129.070312 C 87.085938 129.1875 86.980469 129.308594 86.871094 129.429688 Z M 145.875 174.378906 C 145.738281 173.109375 144.945312 172.109375 144.277344 171.082031 C 138.839844 162.714844 133.484375 154.292969 127.765625 146.117188 C 126.570312 144.410156 125.398438 142.6875 124.195312 140.988281 C 123.988281 140.695312 123.6875 140.289062 123.261719 140.613281 C 122.917969 140.875 123.214844 141.214844 123.355469 141.492188 C 123.476562 141.738281 123.636719 141.964844 123.792969 142.191406 C 129.773438 150.980469 136.070312 159.5625 141.375 168.804688 C 142.554688 170.855469 144.082031 172.707031 145.453125 174.652344 C 145.59375 174.5625 145.734375 174.46875 145.875 174.378906 Z M 166.789062 166.660156 C 166.78125 164.9375 166.113281 163.34375 165.796875 161.683594 C 163.703125 150.664062 161.632812 139.640625 159.535156 128.625 C 159.390625 127.871094 159.410156 126.464844 158.621094 126.628906 C 157.644531 126.835938 158.195312 128.105469 158.359375 128.894531 C 160.445312 138.964844 162.949219 148.949219 164.214844 159.183594 C 164.5625 161.988281 165.375 164.707031 166.222656 167.488281 C 166.839844 167.214844 166.789062 166.914062 166.789062 166.660156 Z M 128.625 187.652344 C 126.972656 186.113281 125.082031 184.890625 123.230469 183.613281 C 117.09375 179.375 110.949219 175.148438 105.066406 170.550781 C 103.210938 169.101562 101.242188 167.792969 99.304688 166.457031 C 98.925781 166.195312 98.347656 165.839844 98.019531 166.429688 C 97.757812 166.902344 98.316406 167.195312 98.65625 167.441406 C 99.765625 168.242188 100.886719 169.03125 102.023438 169.796875 C 103.980469 171.113281 105.988281 172.359375 107.910156 173.722656 C 114.613281 178.488281 120.925781 183.789062 127.796875 188.328125 C 128.34375 188.691406 128.78125 189.425781 129.6875 189.066406 C 129.578125 188.386719 129.054688 188.046875 128.625 187.652344 Z M 118.816406 209.6875 C 118.578125 209.5625 118.351562 209.375 118.101562 209.332031 C 112.96875 208.460938 108.03125 206.773438 102.925781 205.789062 C 96.792969 204.613281 90.898438 202.476562 84.792969 201.203125 C 83.707031 200.972656 82.5625 200.425781 81.3125 201.003906 C 81.890625 201.816406 82.683594 201.863281 83.40625 202.050781 C 88.28125 203.292969 93.1875 204.410156 98.101562 205.492188 C 103.117188 206.59375 108.035156 208.132812 113.023438 209.382812 C 114.886719 209.847656 116.796875 210.257812 118.738281 210.09375 C 118.765625 209.957031 118.789062 209.824219 118.816406 209.6875 Z M 226.148438 190.1875 C 227.664062 189.109375 229.148438 187.984375 230.664062 186.898438 C 237.917969 181.703125 245.183594 176.519531 252.429688 171.308594 C 253.273438 170.707031 254.027344 169.976562 254.796875 169.277344 C 255.050781 169.042969 255.5 168.75 255.109375 168.34375 C 254.824219 168.046875 254.488281 168.351562 254.234375 168.527344 C 252.96875 169.394531 251.730469 170.296875 250.464844 171.164062 C 246.171875 174.113281 242.457031 177.820312 238.019531 180.574219 C 233.871094 183.148438 229.894531 185.96875 226.054688 188.976562 C 225.464844 189.4375 224.75 189.816406 224.558594 190.734375 C 225.347656 190.980469 225.726562 190.488281 226.148438 190.1875 Z M 210.632812 171.015625 C 214.726562 164.402344 218.847656 157.8125 223.5 151.570312 C 225.269531 149.195312 226.839844 146.6875 228.304688 144.117188 C 228.566406 143.652344 229.035156 142.976562 228.503906 142.644531 C 227.910156 142.273438 227.601562 143.0625 227.339844 143.496094 C 221.6875 152.878906 215.273438 161.765625 209.375 170.988281 C 208.65625 172.109375 207.785156 173.160156 207.550781 174.554688 C 209.011719 173.710938 209.8125 172.34375 210.632812 171.015625 Z M 187.714844 166.949219 C 187.867188 166.382812 188.046875 165.820312 188.160156 165.242188 C 190.289062 154.292969 192.207031 143.304688 194.765625 132.441406 C 195.03125 131.324219 195.195312 130.183594 195.363281 129.046875 C 195.425781 128.625 195.457031 128.050781 194.890625 127.984375 C 194.328125 127.917969 194.289062 128.515625 194.15625 128.910156 C 194.085938 129.113281 194.089844 129.34375 194.058594 129.558594 C 192.554688 139.625 190.296875 149.542969 188.304688 159.515625 C 187.824219 161.9375 187.339844 164.398438 187.285156 166.890625 C 187.429688 166.910156 187.574219 166.929688 187.714844 166.949219 Z M 270.214844 202.28125 C 258.265625 204.785156 246.308594 207.238281 234.527344 210.507812 C 236.980469 210.878906 269.460938 203.351562 270.214844 202.28125 Z M 77.175781 200.226562 C 77.335938 200.242188 77.609375 200.066406 77.675781 199.914062 C 77.816406 199.59375 77.542969 199.40625 77.28125 199.335938 C 75.382812 198.804688 73.519531 198.058594 71.460938 198.296875 C 73.230469 199.359375 75.136719 200 77.175781 200.226562 Z M 117.941406 132.691406 C 117.804688 132.652344 117.53125 132.671875 117.515625 132.730469 C 117.453125 132.914062 117.402344 133.171875 117.488281 133.328125 C 118.234375 134.734375 119.160156 136.027344 120.203125 137.230469 C 120.394531 137.453125 120.65625 137.570312 120.933594 137.429688 C 121.042969 137.371094 121.078125 137.171875 121.113281 137.113281 C 121.113281 136.464844 118.46875 132.828125 117.941406 132.691406 Z M 258.667969 165.046875 C 258.402344 165.257812 258.234375 165.609375 258.441406 165.914062 C 258.683594 166.265625 259.042969 166.070312 259.3125 165.902344 C 260.707031 165.050781 261.945312 164.027344 262.828125 162.589844 C 261.226562 163.101562 259.925781 164.046875 258.667969 165.046875 Z M 157.410156 122.066406 C 157.480469 122.367188 157.585938 122.746094 158.015625 122.6875 C 158.332031 122.648438 158.46875 122.375 158.398438 122.082031 C 157.996094 120.328125 157.929688 118.464844 156.6875 116.960938 C 156.542969 118.726562 157.007812 120.394531 157.410156 122.066406 Z M 196.992188 119.097656 C 197.015625 118.9375 196.851562 118.652344 196.703125 118.582031 C 196.375 118.433594 196.203125 118.730469 196.140625 118.980469 C 195.742188 120.582031 195.15625 122.164062 195.734375 123.878906 C 196.8125 122.441406 196.757812 120.730469 196.992188 119.097656 Z M 234.167969 134.195312 C 232.921875 135.808594 231.28125 137.160156 230.882812 139.324219 C 232.28125 137.804688 233.722656 136.316406 234.167969 134.195312 Z M 88.546875 160.160156 C 89.675781 161.75 91.289062 162.664062 93.105469 163.320312 C 91.921875 161.808594 90.507812 160.589844 88.546875 160.160156 Z M 274.332031 201.519531 C 276.125 201.214844 278.035156 201.320312 279.488281 199.929688 C 277.679688 200.207031 275.746094 200.0625 274.332031 201.519531 Z M 274.332031 201.519531 " fill-opacity="1" fill-rule="nonzero"/></g></svg>