<svg xmlns="http://www.w3.org/2000/svg" xmlns:xlink="http://www.w3.org/1999/xlink" width="500" zoomAndPan="magnify" viewBox="0 0 375 374.999991" height="500" preserveAspectRatio="xMidYMid meet" version="1.0"><defs><clipPath id="d187f84786"><path d="M 20.640625 42 L 337 42 L 337 298.492188 L 20.640625 298.492188 Z M 20.640625 42 " clip-rule="nonzero"/></clipPath></defs><g clip-path="url(#d187f84786)"><path fill="#000000" d="M 179.738281 232.996094 C 178.953125 232.1875 179.09375 231.695312 179.09375 231.246094 C 179.0625 206.347656 179.125 181.449219 178.960938 156.554688 C 178.90625 148.199219 178.21875 139.855469 177.929688 131.5 C 177.523438 119.613281 177.5 107.726562 177.808594 95.835938 C 178.160156 82.125 178.792969 68.421875 178.8125 54.703125 C 178.816406 50.945312 179.113281 47.183594 179.316406 43.425781 C 179.34375 42.921875 179.15625 42.019531 180.054688 42.128906 C 180.734375 42.214844 180.496094 42.996094 180.488281 43.480469 C 180.304688 55.367188 180.207031 67.257812 179.878906 79.144531 C 179.324219 99.386719 178.78125 119.636719 179.148438 139.886719 C 179.363281 151.652344 180.105469 163.40625 180.195312 175.179688 C 180.328125 192.660156 180.414062 210.144531 180.507812 227.625 C 180.515625 229.355469 180.179688 231.03125 179.738281 232.996094 Z M 208.722656 70.175781 C 206.609375 81.144531 205.054688 92.199219 203.773438 103.289062 C 202.703125 112.515625 201.421875 121.71875 199.675781 130.832031 C 197.511719 142.15625 195.902344 153.546875 194.558594 164.984375 C 194.066406 169.1875 193.832031 173.417969 193.371094 177.625 C 192.378906 186.675781 191.21875 195.710938 190.316406 204.769531 C 189.609375 211.847656 189.152344 218.953125 188.664062 226.050781 C 188.507812 228.34375 188.175781 230.605469 187.886719 232.878906 C 187.84375 233.246094 187.679688 233.8125 188.242188 233.90625 C 188.75 233.992188 188.867188 233.484375 188.976562 233.085938 C 189.070312 232.746094 189.191406 232.40625 189.226562 232.058594 C 189.621094 228.199219 190.042969 224.339844 190.378906 220.476562 C 190.859375 214.972656 191.207031 209.457031 191.726562 203.957031 C 192.261719 198.34375 192.964844 192.742188 193.546875 187.128906 C 194.386719 179.003906 195.136719 170.871094 196.019531 162.753906 C 197.03125 153.402344 198.402344 144.105469 200.210938 134.875 C 201.96875 125.875 203.230469 116.796875 204.5 107.71875 C 205.945312 97.359375 207.289062 86.984375 208.753906 76.628906 C 209.113281 74.089844 209.515625 71.566406 209.605469 68.691406 C 208.863281 69.257812 208.808594 69.722656 208.722656 70.175781 Z M 149.226562 72.121094 C 150.164062 79.757812 151.113281 87.394531 152.042969 95.035156 C 152.730469 100.691406 153.410156 106.351562 154.058594 112.015625 C 154.679688 117.449219 155 122.929688 155.90625 128.3125 C 158.179688 141.8125 160.054688 155.367188 161.832031 168.933594 C 163.203125 179.421875 164.738281 189.875 166.324219 200.328125 C 167.820312 210.195312 169.605469 220.023438 170.671875 229.957031 C 170.789062 231.0625 171.050781 232.152344 171.300781 233.238281 C 171.410156 233.710938 171.445312 234.492188 172.152344 234.308594 C 172.835938 234.128906 172.546875 233.441406 172.414062 232.941406 C 171.425781 229.300781 171.285156 225.523438 170.648438 221.820312 C 169.441406 214.820312 168.597656 207.757812 167.550781 200.730469 C 166.503906 193.699219 165.113281 186.710938 164.371094 179.648438 C 163.078125 167.371094 160.878906 155.226562 159.375 142.980469 C 158.433594 135.285156 156.804688 127.671875 156.203125 119.9375 C 155.40625 109.671875 153.722656 99.511719 152.75 89.269531 C 152.308594 84.589844 150.988281 80.035156 150.730469 75.316406 C 150.652344 73.917969 150.371094 72.460938 149.640625 71.175781 C 149.113281 71.402344 149.183594 71.773438 149.226562 72.121094 Z M 226.121094 121.585938 C 223.917969 128.65625 222.265625 135.890625 220.761719 143.117188 C 217.910156 156.8125 214.8125 170.4375 211.109375 183.917969 C 207.734375 196.203125 203.953125 208.382812 200.402344 220.621094 C 199.195312 224.792969 198.441406 229.089844 197.109375 233.234375 C 196.9375 233.761719 196.632812 234.707031 197.449219 234.917969 C 198.378906 235.160156 198.285156 234.179688 198.433594 233.605469 C 199.816406 228.261719 200.992188 222.851562 202.601562 217.578125 C 207.992188 199.9375 212.660156 182.089844 217.355469 164.265625 C 220.976562 150.53125 223.613281 136.542969 226.695312 122.667969 C 226.9375 121.574219 227.15625 120.488281 226.886719 119.007812 C 226.160156 119.957031 226.355469 120.835938 226.121094 121.585938 Z M 21.984375 298.386719 C 26.742188 298.386719 31.507812 298.507812 36.261719 298.347656 C 59.226562 297.578125 82.195312 297.730469 105.167969 297.664062 C 109.214844 297.652344 113.261719 297.53125 117.308594 297.441406 C 117.675781 297.433594 118.273438 297.542969 118.292969 296.980469 C 118.316406 296.277344 117.683594 296.410156 117.242188 296.421875 C 109.605469 296.625 101.984375 295.941406 94.347656 295.9375 C 70.664062 295.933594 47.011719 297.308594 23.335938 297.425781 C 22.484375 297.429688 21.636719 297.507812 20.832031 297.902344 C 21.144531 298.480469 21.589844 298.386719 21.984375 298.386719 Z M 132.699219 126.785156 C 136.609375 144.390625 141.484375 161.757812 146.429688 179.078125 C 151.296875 196.125 156.359375 213.121094 160.882812 230.265625 C 161.332031 231.96875 161.808594 233.664062 162.304688 235.351562 C 162.414062 235.722656 162.574219 236.222656 163.144531 235.972656 C 163.5625 235.789062 163.457031 235.402344 163.371094 235.054688 C 163.304688 234.765625 163.246094 234.480469 163.171875 234.195312 C 160.164062 223.089844 157.523438 211.867188 154.070312 200.902344 C 148.527344 183.308594 143.703125 165.523438 139 147.699219 C 136.824219 139.472656 134.609375 131.253906 132.96875 122.890625 C 132.726562 121.65625 132.675781 120.347656 131.335938 119.457031 C 131.785156 121.902344 132.160156 124.363281 132.699219 126.785156 Z M 240.363281 297.769531 C 240.9375 298.253906 241.667969 298.089844 242.335938 298.085938 C 252.972656 297.988281 263.609375 297.847656 274.242188 297.769531 C 284.582031 297.695312 294.917969 298.222656 305.265625 297.953125 C 313.429688 297.734375 321.570312 296.914062 329.746094 297.027344 C 331.742188 297.054688 333.738281 296.902344 335.730469 296.789062 C 336.148438 296.765625 336.875 296.941406 336.902344 296.351562 C 336.941406 295.574219 336.183594 295.761719 335.699219 295.773438 C 331.355469 295.878906 327.015625 295.792969 322.667969 295.863281 C 309.332031 296.078125 295.996094 296.265625 282.664062 296.582031 C 270.621094 296.871094 258.574219 296.949219 246.527344 297.109375 C 244.492188 297.136719 242.453125 297.113281 240.417969 297.113281 C 240.398438 297.332031 240.382812 297.550781 240.363281 297.769531 Z M 291.054688 185.886719 C 286.683594 189.453125 282.359375 193.070312 278.503906 197.21875 C 269.664062 206.734375 260.363281 215.796875 251.59375 225.398438 C 243.445312 234.324219 234.332031 242.367188 225.644531 250.804688 C 224.847656 251.582031 224.070312 252.386719 223.320312 253.210938 C 223.019531 253.546875 222.632812 253.996094 223.042969 254.453125 C 223.476562 254.929688 223.910156 254.558594 224.246094 254.230469 C 224.921875 253.574219 225.554688 252.878906 226.226562 252.21875 C 234.785156 243.824219 243.535156 235.617188 251.714844 226.835938 C 257.402344 220.730469 262.933594 214.472656 269.039062 208.765625 C 276.464844 201.820312 282.933594 193.894531 290.835938 187.4375 C 291.375 187 292.015625 186.492188 292.0625 185.679688 C 291.570312 185.359375 291.304688 185.683594 291.054688 185.886719 Z M 73.375 193.300781 C 87.59375 206.761719 101.175781 220.867188 115.085938 234.640625 C 120.097656 239.605469 124.929688 244.753906 129.996094 249.667969 C 131.300781 250.933594 132.714844 252.09375 134.089844 253.289062 C 134.394531 253.558594 134.800781 253.898438 135.15625 253.480469 C 135.527344 253.035156 135.039062 252.738281 134.761719 252.476562 C 133.351562 251.144531 131.886719 249.867188 130.519531 248.496094 C 124.914062 242.871094 119.425781 237.132812 113.734375 231.605469 C 106.140625 224.234375 98.46875 216.941406 91.15625 209.292969 C 83.757812 201.550781 75.875 194.308594 68.449219 186.597656 C 67.660156 185.777344 66.761719 185.058594 65.460938 184.925781 C 68.089844 187.726562 70.589844 190.667969 73.375 193.300781 Z M 253.414062 168.261719 C 246.375 179.46875 239.558594 190.8125 232.972656 202.289062 C 226.476562 213.613281 220.121094 225.015625 213.304688 236.148438 C 212.199219 237.953125 211.261719 239.859375 210.253906 241.71875 C 210.054688 242.089844 209.835938 242.570312 210.25 242.832031 C 210.65625 243.09375 211.007812 242.707031 211.261719 242.367188 C 211.398438 242.179688 211.519531 241.976562 211.636719 241.773438 C 214.652344 236.589844 217.703125 231.425781 220.664062 226.210938 C 224.519531 219.40625 228.183594 212.492188 232.144531 205.75 C 238.816406 194.390625 245.664062 183.136719 252.414062 171.824219 C 253.421875 170.136719 254.292969 168.371094 255.226562 166.640625 C 254.21875 166.867188 253.835938 167.589844 253.414062 168.261719 Z M 103.683594 168.167969 C 107.28125 175.386719 111.441406 182.289062 115.480469 189.257812 C 119.636719 196.429688 123.617188 203.707031 127.859375 210.828125 C 130.929688 215.988281 133.828125 221.234375 136.742188 226.476562 C 139.683594 231.765625 142.46875 237.152344 145.96875 242.109375 C 146.339844 242.632812 146.664062 243.730469 147.449219 243.195312 C 148.195312 242.683594 147.351562 241.933594 147 241.382812 C 145.523438 239.046875 143.796875 236.847656 142.535156 234.402344 C 136.269531 222.269531 128.542969 210.988281 122.148438 198.925781 C 116.667969 188.589844 110.675781 178.527344 104.902344 168.351562 C 104.421875 167.503906 103.855469 166.710938 103.09375 165.515625 C 102.8125 166.902344 103.355469 167.511719 103.683594 168.167969 Z M 239.449219 282.890625 C 244.265625 281.355469 249.253906 280.507812 254.109375 279.140625 C 266.976562 275.507812 279.855469 271.917969 292.820312 268.625 C 299.980469 266.808594 307.230469 265.308594 314.269531 263.027344 C 314.875 262.828125 316.152344 262.929688 315.792969 261.8125 C 315.488281 260.875 314.53125 261.542969 313.949219 261.742188 C 311.554688 262.558594 309.101562 263.128906 306.652344 263.746094 C 296.46875 266.300781 286.386719 269.222656 276.28125 272.070312 C 267.359375 274.585938 258.332031 276.707031 249.355469 279.011719 C 245.722656 279.945312 241.996094 280.550781 238.523438 282.050781 C 238.222656 282.179688 237.722656 282.179688 237.757812 282.632812 C 237.789062 283.09375 238.222656 283.070312 238.582031 283.042969 C 238.871094 282.996094 239.171875 282.980469 239.449219 282.890625 Z M 121.589844 283.621094 C 121.644531 282.984375 121.109375 282.929688 120.636719 282.828125 C 119.835938 282.648438 119.035156 282.472656 118.246094 282.242188 C 107.097656 279 95.886719 275.980469 84.738281 272.726562 C 74.835938 269.832031 64.800781 267.398438 54.910156 264.445312 C 51.652344 263.472656 48.394531 262.496094 45.210938 261.277344 C 44.820312 261.128906 44.261719 260.722656 44.027344 261.378906 C 43.855469 261.867188 44.4375 262.007812 44.796875 262.15625 C 46.207031 262.738281 47.597656 263.375 49.042969 263.859375 C 58.453125 267 68.117188 269.210938 77.664062 271.851562 C 90.886719 275.507812 103.996094 279.578125 117.15625 283.46875 C 118.222656 283.785156 119.292969 284.085938 120.085938 284.3125 C 120.917969 284.304688 121.527344 284.363281 121.589844 283.621094 Z M 233.667969 267.679688 C 241.382812 263.433594 249.105469 259.207031 256.777344 254.890625 C 263.988281 250.832031 271.195312 246.769531 278.300781 242.53125 C 283.941406 239.167969 289.617188 235.839844 295.039062 232.109375 C 295.5 231.792969 296.226562 231.445312 295.734375 230.769531 C 295.339844 230.230469 294.761719 230.695312 294.328125 230.972656 C 287 235.632812 279.660156 240.273438 272.167969 244.667969 C 268.015625 247.101562 263.917969 249.632812 259.691406 251.921875 C 250.757812 256.757812 241.855469 261.636719 233.214844 266.980469 C 232.757812 267.261719 232.078125 267.386719 232.058594 268.179688 C 232.710938 268.34375 233.191406 267.945312 233.667969 267.679688 Z M 226.15625 184.960938 C 225.347656 186.59375 224.566406 188.242188 223.824219 189.902344 C 218.3125 202.226562 213.613281 214.90625 207.648438 227.042969 C 206.007812 230.390625 204.519531 233.875 203.496094 237.503906 C 203.351562 238.015625 202.949219 238.773438 203.738281 239.003906 C 204.457031 239.210938 204.460938 238.386719 204.609375 237.929688 C 205.351562 235.636719 206.320312 233.4375 207.347656 231.257812 C 214.132812 216.859375 220.128906 202.117188 226.183594 187.40625 C 226.679688 186.203125 227.355469 185.039062 227.492188 183.644531 C 226.496094 183.664062 226.417969 184.433594 226.15625 184.960938 Z M 64.433594 232.0625 C 71.9375 237.164062 80.003906 241.277344 88.042969 245.433594 C 92.164062 247.566406 96.300781 249.6875 100.269531 252.085938 C 106.957031 256.128906 113.703125 260.070312 120.484375 263.957031 C 122.007812 264.832031 123.609375 265.582031 125.175781 266.382812 C 125.652344 266.628906 126.335938 267 126.605469 266.496094 C 126.941406 265.871094 126.207031 265.519531 125.722656 265.207031 C 125.574219 265.109375 125.417969 265.027344 125.261719 264.941406 C 117.890625 260.796875 110.472656 256.730469 103.058594 252.65625 C 90.292969 245.640625 77.347656 238.9375 64.886719 231.363281 C 64.308594 231.015625 63.75 230.503906 62.769531 230.652344 C 63.160156 231.441406 63.867188 231.679688 64.433594 232.0625 Z M 131.933594 184.425781 C 133.324219 187.46875 134.929688 190.421875 136.179688 193.519531 C 140.917969 205.28125 145.539062 217.089844 150.234375 228.871094 C 151.386719 231.761719 152.632812 234.609375 153.871094 237.464844 C 154.0625 237.90625 154.300781 238.636719 154.96875 238.304688 C 155.683594 237.945312 155.09375 237.390625 154.914062 236.949219 C 152.609375 231.300781 150.183594 225.695312 148.007812 219.992188 C 144.472656 210.722656 141.027344 201.414062 137.070312 192.3125 C 135.320312 188.289062 132.828125 184.636719 131.042969 180.5625 C 130.945312 181.949219 131.382812 183.21875 131.933594 184.425781 Z M 105.480469 203.164062 C 109.511719 208.371094 113.5625 213.558594 117.585938 218.769531 C 120.707031 222.816406 123.804688 226.878906 126.910156 230.941406 C 131.332031 236.726562 135.328125 242.835938 140.0625 248.386719 C 140.390625 248.773438 140.738281 249.675781 141.382812 249.085938 C 141.992188 248.53125 141.175781 248.054688 140.835938 247.65625 C 136.023438 241.941406 131.707031 235.851562 127.371094 229.777344 C 121.050781 220.925781 114.519531 212.238281 107.492188 203.933594 C 106.777344 203.089844 106.046875 202.238281 104.835938 201.722656 C 104.851562 202.460938 105.203125 202.804688 105.480469 203.164062 Z M 242.015625 290.832031 C 249.246094 290.519531 256.320312 289.011719 263.453125 287.988281 C 271.457031 286.835938 279.421875 285.417969 287.480469 284.617188 C 291.035156 284.265625 294.578125 283.730469 298.117188 283.214844 C 298.683594 283.132812 299.703125 283.140625 299.613281 282.347656 C 299.511719 281.457031 298.574219 281.855469 298.003906 281.9375 C 291.386719 282.859375 284.769531 283.804688 278.15625 284.753906 C 265.625 286.558594 253.121094 288.570312 240.535156 290.003906 C 240.253906 290.039062 239.941406 290.03125 239.746094 290.621094 C 240.527344 291.003906 241.269531 290.863281 242.015625 290.832031 Z M 231.980469 258.355469 C 240.972656 251.535156 249.828125 244.53125 259.210938 238.242188 C 262.253906 236.203125 264.804688 233.570312 267.746094 231.414062 C 268.066406 231.179688 268.523438 230.90625 268.183594 230.441406 C 267.917969 230.085938 267.523438 230.363281 267.238281 230.539062 C 266.390625 231.066406 265.523438 231.570312 264.722656 232.164062 C 254.886719 239.519531 245.046875 246.875 235.230469 254.257812 C 232.8125 256.078125 230.476562 258.011719 228.101562 259.890625 C 229.796875 260.101562 230.878906 259.191406 231.980469 258.355469 Z M 96.566406 235.988281 C 103.898438 241.296875 111.273438 246.539062 118.460938 252.046875 C 122.191406 254.90625 125.886719 257.808594 129.578125 260.71875 C 130.058594 261.097656 130.742188 261.785156 131.238281 261.128906 C 131.667969 260.558594 130.800781 260.167969 130.367188 259.835938 C 125.183594 255.878906 119.929688 252.011719 114.808594 247.976562 C 107.746094 242.402344 100.40625 237.203125 93.25 231.757812 C 91.582031 230.492188 89.929688 229.199219 87.660156 228.847656 C 90.625 231.234375 93.488281 233.757812 96.566406 235.988281 Z M 238.078125 220.910156 C 231.710938 229.640625 225.257812 238.320312 218.285156 246.59375 C 217.875 247.082031 217.519531 247.632812 217.195312 248.1875 C 217.011719 248.496094 216.996094 248.902344 217.308594 249.15625 C 217.71875 249.492188 218.105469 249.269531 218.367188 248.925781 C 218.902344 248.226562 219.355469 247.46875 219.902344 246.777344 C 229.179688 235.011719 238.167969 223.027344 246.929688 210.871094 C 247.664062 209.847656 248.5625 208.902344 248.734375 207.546875 C 245.023438 211.890625 241.4375 216.300781 238.078125 220.910156 Z M 80.667969 259.007812 C 91.816406 263.53125 102.945312 268.109375 114.09375 272.632812 C 117.195312 273.886719 120.335938 275.035156 123.476562 276.1875 C 123.820312 276.3125 124.472656 276.753906 124.632812 276.007812 C 124.753906 275.457031 124.09375 275.523438 123.746094 275.382812 C 118.410156 273.246094 113.042969 271.175781 107.734375 268.964844 C 97.277344 264.605469 86.855469 260.164062 76.410156 255.773438 C 75.679688 255.464844 74.945312 255.046875 73.582031 255.375 C 76.113281 256.929688 78.335938 258.058594 80.667969 259.007812 Z M 236.566406 274.292969 C 241.902344 272.695312 247.121094 270.761719 252.320312 268.753906 C 262.878906 264.6875 273.46875 260.707031 283.785156 256.050781 C 284.269531 255.832031 285.238281 255.726562 284.953125 255.050781 C 284.617188 254.253906 283.957031 255.042969 283.488281 255.230469 C 277.230469 257.730469 271.019531 260.355469 264.722656 262.753906 C 254.710938 266.566406 244.820312 270.695312 234.410156 274.257812 C 235.414062 274.953125 235.996094 274.460938 236.566406 274.292969 Z M 69.941406 284.320312 C 79.636719 286.085938 89.414062 287.285156 99.195312 288.441406 C 105.542969 289.195312 111.890625 289.945312 118.242188 290.667969 C 118.773438 290.730469 119.617188 291 119.722656 290.210938 C 119.851562 289.296875 118.9375 289.316406 118.335938 289.300781 C 113.28125 289.183594 108.300781 288.335938 103.277344 287.894531 C 94.625 287.136719 86.082031 285.558594 77.476562 284.460938 C 74.078125 284.027344 70.714844 283.171875 66.835938 283.242188 C 68 284.082031 68.996094 284.148438 69.941406 284.320312 Z M 126.660156 169.425781 C 126.574219 169.15625 126.394531 168.835938 126.046875 169.007812 C 125.894531 169.082031 125.734375 169.417969 125.78125 169.582031 C 126.402344 171.890625 127.046875 174.199219 128.660156 176.066406 C 128.4375 173.699219 127.367188 171.617188 126.660156 169.425781 Z M 230.207031 177.710938 C 231.738281 176.230469 232.332031 174.222656 233.023438 172.277344 C 233.121094 172.003906 233.089844 171.652344 232.800781 171.507812 C 232.503906 171.355469 232.195312 171.527344 232.078125 171.808594 C 231.28125 173.703125 230.511719 175.609375 229.730469 177.511719 C 229.890625 177.578125 230.046875 177.644531 230.207031 177.710938 Z M 97.222656 190.96875 C 98.242188 193.234375 99.957031 194.925781 101.882812 196.449219 C 100.925781 194.117188 99.121094 192.507812 97.222656 190.96875 Z M 273.507812 225.878906 C 273.21875 226.117188 273.066406 226.453125 273.289062 226.808594 C 273.488281 227.128906 273.820312 227.066406 274.042969 226.867188 C 275.429688 225.632812 277.242188 224.925781 278.765625 223.050781 C 276.507812 223.738281 274.945312 224.695312 273.507812 225.878906 Z M 83.835938 225.09375 C 82.707031 223.203125 81.25 221.730469 79.011719 221.25 C 80.453125 222.738281 81.847656 224.289062 83.835938 225.09375 Z M 64.828125 250.496094 C 64.5625 250.371094 64.203125 250.394531 64.113281 250.757812 C 64.066406 250.941406 64.148438 251.292969 64.285156 251.371094 C 65.726562 252.195312 67.050781 253.3125 69.269531 253.445312 C 67.839844 251.894531 66.320312 251.210938 64.828125 250.496094 Z M 256.984375 197.59375 C 257.148438 197.34375 257.210938 197.003906 256.914062 196.820312 C 256.621094 196.640625 256.359375 196.839844 256.167969 197.078125 C 255.082031 198.417969 254.023438 199.777344 253.726562 201.59375 C 255.230469 200.582031 256.046875 199.039062 256.984375 197.59375 Z M 61.046875 282.175781 C 59.183594 281.308594 57.234375 280.917969 55.191406 281.066406 C 56.996094 282.261719 59.007812 282.296875 61.046875 282.175781 Z M 310.464844 281.816406 C 310.777344 281.785156 311.105469 281.601562 311.105469 281.324219 C 311.105469 280.878906 310.695312 280.785156 310.332031 280.84375 C 308.757812 281.105469 307.113281 281.066406 305.199219 281.984375 C 307.277344 282.433594 308.863281 281.980469 310.464844 281.816406 Z M 261.792969 157.105469 C 261.792969 157.769531 262.132812 158.257812 262.855469 158.222656 C 263.710938 158.179688 264.097656 157.613281 264.050781 156.8125 C 264.015625 156.144531 263.589844 155.773438 262.925781 155.738281 C 262.167969 155.898438 261.792969 156.390625 261.792969 157.105469 Z M 303.550781 225.933594 C 303.605469 226.699219 304.050781 227.121094 304.820312 227.054688 C 305.484375 226.996094 305.921875 226.5625 305.9375 225.902344 C 305.953125 225.054688 305.308594 224.882812 304.523438 224.816406 C 303.949219 224.894531 303.5 225.195312 303.550781 225.933594 Z M 325.554688 261.683594 C 325.578125 260.976562 325.359375 260.347656 324.546875 260.3125 C 323.773438 260.277344 323.410156 260.839844 323.320312 261.535156 C 323.222656 262.289062 323.5625 262.769531 324.34375 262.878906 C 325.132812 262.867188 325.53125 262.441406 325.554688 261.683594 Z M 294.699219 250.96875 C 294.886719 250.875 295.101562 250.679688 294.992188 250.398438 C 294.851562 250.046875 294.507812 250.027344 294.257812 250.140625 C 293.1875 250.640625 291.957031 250.894531 291.058594 252.1875 C 292.550781 252.09375 293.621094 251.507812 294.699219 250.96875 Z M 129.945312 111.175781 C 129.320312 111.101562 128.890625 111.417969 128.925781 112.046875 C 128.972656 112.835938 129.476562 113.3125 130.28125 113.332031 C 130.835938 113.347656 131.105469 112.992188 131.132812 112.335938 C 131.015625 111.761719 130.683594 111.257812 129.945312 111.175781 Z M 54.808594 225.609375 C 54.765625 226.238281 55.128906 226.636719 55.722656 226.699219 C 56.410156 226.773438 56.886719 226.398438 56.898438 225.699219 C 56.90625 225.097656 56.488281 224.757812 55.789062 224.648438 C 55.339844 224.761719 54.851562 224.960938 54.808594 225.609375 Z M 230.5 110.304688 C 229.867188 110.285156 229.566406 110.726562 229.539062 111.332031 C 229.511719 111.871094 229.757812 112.25 230.316406 112.316406 C 230.972656 112.394531 231.289062 112.035156 231.355469 111.414062 C 231.363281 110.808594 231.152344 110.324219 230.5 110.304688 Z M 101.074219 159.789062 C 101.03125 159.207031 100.71875 158.800781 100.105469 158.785156 C 99.453125 158.769531 99.183594 159.210938 99.183594 159.796875 C 99.1875 160.398438 99.503906 160.765625 100.234375 160.792969 C 100.726562 160.710938 101.125 160.4375 101.074219 159.789062 Z M 37.296875 260.410156 C 37.355469 259.789062 37 259.417969 36.414062 259.355469 C 35.898438 259.300781 35.515625 259.574219 35.472656 260.128906 C 35.421875 260.742188 35.777344 261.074219 36.355469 261.195312 C 36.882812 261.1875 37.25 260.957031 37.296875 260.410156 Z M 37.296875 260.410156 " fill-opacity="1" fill-rule="nonzero"/><path fill="#000000" d="M 179.738281 232.996094 C 178.953125 232.1875 179.09375 231.695312 179.09375 231.246094 C 179.0625 206.347656 179.125 181.449219 178.960938 156.554688 C 178.90625 148.199219 178.21875 139.855469 177.929688 131.5 C 177.523438 119.613281 177.5 107.726562 177.808594 95.835938 C 178.160156 82.125 178.792969 68.421875 178.8125 54.703125 C 178.816406 50.945312 179.113281 47.183594 179.316406 43.425781 C 179.34375 42.921875 179.15625 42.019531 180.054688 42.128906 C 180.734375 42.214844 180.496094 42.996094 180.488281 43.480469 C 180.304688 55.367188 180.207031 67.257812 179.878906 79.144531 C 179.324219 99.386719 178.78125 119.636719 179.148438 139.886719 C 179.363281 151.652344 180.105469 163.40625 180.195312 175.179688 C 180.328125 192.660156 180.414062 210.144531 180.507812 227.625 C 180.515625 229.355469 180.179688 231.03125 179.738281 232.996094 Z M 208.722656 70.175781 C 206.609375 81.144531 205.054688 92.199219 203.773438 103.289062 C 202.703125 112.515625 201.421875 121.71875 199.675781 130.832031 C 197.511719 142.15625 195.902344 153.546875 194.558594 164.984375 C 194.066406 169.1875 193.832031 173.417969 193.371094 177.625 C 192.378906 186.675781 191.21875 195.710938 190.316406 204.769531 C 189.609375 211.847656 189.152344 218.953125 188.664062 226.050781 C 188.507812 228.34375 188.175781 230.605469 187.886719 232.878906 C 187.84375 233.246094 187.679688 233.8125 188.242188 233.90625 C 188.75 233.992188 188.867188 233.484375 188.976562 233.085938 C 189.070312 232.746094 189.191406 232.40625 189.226562 232.058594 C 189.621094 228.199219 190.042969 224.339844 190.378906 220.476562 C 190.859375 214.972656 191.207031 209.457031 191.726562 203.957031 C 192.261719 198.34375 192.964844 192.742188 193.546875 187.128906 C 194.386719 179.003906 195.136719 170.871094 196.019531 162.753906 C 197.03125 153.402344 198.402344 144.105469 200.210938 134.875 C 201.96875 125.875 203.230469 116.796875 204.5 107.71875 C 205.945312 97.359375 207.289062 86.984375 208.753906 76.628906 C 209.113281 74.089844 209.515625 71.566406 209.605469 68.691406 C 208.863281 69.257812 208.808594 69.722656 208.722656 70.175781 Z M 149.226562 72.121094 C 150.164062 79.757812 151.113281 87.394531 152.042969 95.035156 C 152.730469 100.691406 153.410156 106.351562 154.058594 112.015625 C 154.679688 117.449219 155 122.929688 155.90625 128.3125 C 158.179688 141.8125 160.054688 155.367188 161.832031 168.933594 C 163.203125 179.421875 164.738281 189.875 166.324219 200.328125 C 167.820312 210.195312 169.605469 220.023438 170.671875 229.957031 C 170.789062 231.0625 171.050781 232.152344 171.300781 233.238281 C 171.410156 233.710938 171.445312 234.492188 172.152344 234.308594 C 172.835938 234.128906 172.546875 233.441406 172.414062 232.941406 C 171.425781 229.300781 171.285156 225.523438 170.648438 221.820312 C 169.441406 214.820312 168.597656 207.757812 167.550781 200.730469 C 166.503906 193.699219 165.113281 186.710938 164.371094 179.648438 C 163.078125 167.371094 160.878906 155.226562 159.375 142.980469 C 158.433594 135.285156 156.804688 127.671875 156.203125 119.9375 C 155.40625 109.671875 153.722656 99.511719 152.75 89.269531 C 152.308594 84.589844 150.988281 80.035156 150.730469 75.316406 C 150.652344 73.917969 150.371094 72.460938 149.640625 71.175781 C 149.113281 71.402344 149.183594 71.773438 149.226562 72.121094 Z M 226.121094 121.585938 C 223.917969 128.65625 222.265625 135.890625 220.761719 143.117188 C 217.910156 156.8125 214.8125 170.4375 211.109375 183.917969 C 207.734375 196.203125 203.953125 208.382812 200.402344 220.621094 C 199.195312 224.792969 198.441406 229.089844 197.109375 233.234375 C 196.9375 233.761719 196.632812 234.707031 197.449219 234.917969 C 198.378906 235.160156 198.285156 234.179688 198.433594 233.605469 C 199.816406 228.261719 200.992188 222.851562 202.601562 217.578125 C 207.992188 199.9375 212.660156 182.089844 217.355469 164.265625 C 220.976562 150.53125 223.613281 136.542969 226.695312 122.667969 C 226.9375 121.574219 227.15625 120.488281 226.886719 119.007812 C 226.160156 119.957031 226.355469 120.835938 226.121094 121.585938 Z M 21.984375 298.386719 C 26.742188 298.386719 31.507812 298.507812 36.261719 298.347656 C 59.226562 297.578125 82.195312 297.730469 105.167969 297.664062 C 109.214844 297.652344 113.261719 297.53125 117.308594 297.441406 C 117.675781 297.433594 118.273438 297.542969 118.292969 296.980469 C 118.316406 296.277344 117.683594 296.410156 117.242188 296.421875 C 109.605469 296.625 101.984375 295.941406 94.347656 295.9375 C 70.664062 295.933594 47.011719 297.308594 23.335938 297.425781 C 22.484375 297.429688 21.636719 297.507812 20.832031 297.902344 C 21.144531 298.480469 21.589844 298.386719 21.984375 298.386719 Z M 132.699219 126.785156 C 136.609375 144.390625 141.484375 161.757812 146.429688 179.078125 C 151.296875 196.125 156.359375 213.121094 160.882812 230.265625 C 161.332031 231.96875 161.808594 233.664062 162.304688 235.351562 C 162.414062 235.722656 162.574219 236.222656 163.144531 235.972656 C 163.5625 235.789062 163.457031 235.402344 163.371094 235.054688 C 163.304688 234.765625 163.246094 234.480469 163.171875 234.195312 C 160.164062 223.089844 157.523438 211.867188 154.070312 200.902344 C 148.527344 183.308594 143.703125 165.523438 139 147.699219 C 136.824219 139.472656 134.609375 131.253906 132.96875 122.890625 C 132.726562 121.65625 132.675781 120.347656 131.335938 119.457031 C 131.785156 121.902344 132.160156 124.363281 132.699219 126.785156 Z M 240.363281 297.769531 C 240.9375 298.253906 241.667969 298.089844 242.335938 298.085938 C 252.972656 297.988281 263.609375 297.847656 274.242188 297.769531 C 284.582031 297.695312 294.917969 298.222656 305.265625 297.953125 C 313.429688 297.734375 321.570312 296.914062 329.746094 297.027344 C 331.742188 297.054688 333.738281 296.902344 335.730469 296.789062 C 336.148438 296.765625 336.875 296.941406 336.902344 296.351562 C 336.941406 295.574219 336.183594 295.761719 335.699219 295.773438 C 331.355469 295.878906 327.015625 295.792969 322.667969 295.863281 C 309.332031 296.078125 295.996094 296.265625 282.664062 296.582031 C 270.621094 296.871094 258.574219 296.949219 246.527344 297.109375 C 244.492188 297.136719 242.453125 297.113281 240.417969 297.113281 C 240.398438 297.332031 240.382812 297.550781 240.363281 297.769531 Z M 291.054688 185.886719 C 286.683594 189.453125 282.359375 193.070312 278.503906 197.21875 C 269.664062 206.734375 260.363281 215.796875 251.59375 225.398438 C 243.445312 234.324219 234.332031 242.367188 225.644531 250.804688 C 224.847656 251.582031 224.070312 252.386719 223.320312 253.210938 C 223.019531 253.546875 222.632812 253.996094 223.042969 254.453125 C 223.476562 254.929688 223.910156 254.558594 224.246094 254.230469 C 224.921875 253.574219 225.554688 252.878906 226.226562 252.21875 C 234.785156 243.824219 243.535156 235.617188 251.714844 226.835938 C 257.402344 220.730469 262.933594 214.472656 269.039062 208.765625 C 276.464844 201.820312 282.933594 193.894531 290.835938 187.4375 C 291.375 187 292.015625 186.492188 292.0625 185.679688 C 291.570312 185.359375 291.304688 185.683594 291.054688 185.886719 Z M 73.375 193.300781 C 87.59375 206.761719 101.175781 220.867188 115.085938 234.640625 C 120.097656 239.605469 124.929688 244.753906 129.996094 249.667969 C 131.300781 250.933594 132.714844 252.09375 134.089844 253.289062 C 134.394531 253.558594 134.800781 253.898438 135.15625 253.480469 C 135.527344 253.035156 135.039062 252.738281 134.761719 252.476562 C 133.351562 251.144531 131.886719 249.867188 130.519531 248.496094 C 124.914062 242.871094 119.425781 237.132812 113.734375 231.605469 C 106.140625 224.234375 98.46875 216.941406 91.15625 209.292969 C 83.757812 201.550781 75.875 194.308594 68.449219 186.597656 C 67.660156 185.777344 66.761719 185.058594 65.460938 184.925781 C 68.089844 187.726562 70.589844 190.667969 73.375 193.300781 Z M 253.414062 168.261719 C 246.375 179.46875 239.558594 190.8125 232.972656 202.289062 C 226.476562 213.613281 220.121094 225.015625 213.304688 236.148438 C 212.199219 237.953125 211.261719 239.859375 210.253906 241.71875 C 210.054688 242.089844 209.835938 242.570312 210.25 242.832031 C 210.65625 243.09375 211.007812 242.707031 211.261719 242.367188 C 211.398438 242.179688 211.519531 241.976562 211.636719 241.773438 C 214.652344 236.589844 217.703125 231.425781 220.664062 226.210938 C 224.519531 219.40625 228.183594 212.492188 232.144531 205.75 C 238.816406 194.390625 245.664062 183.136719 252.414062 171.824219 C 253.421875 170.136719 254.292969 168.371094 255.226562 166.640625 C 254.21875 166.867188 253.835938 167.589844 253.414062 168.261719 Z M 103.683594 168.167969 C 107.28125 175.386719 111.441406 182.289062 115.480469 189.257812 C 119.636719 196.429688 123.617188 203.707031 127.859375 210.828125 C 130.929688 215.988281 133.828125 221.234375 136.742188 226.476562 C 139.683594 231.765625 142.46875 237.152344 145.96875 242.109375 C 146.339844 242.632812 146.664062 243.730469 147.449219 243.195312 C 148.195312 242.683594 147.351562 241.933594 147 241.382812 C 145.523438 239.046875 143.796875 236.847656 142.535156 234.402344 C 136.269531 222.269531 128.542969 210.988281 122.148438 198.925781 C 116.667969 188.589844 110.675781 178.527344 104.902344 168.351562 C 104.421875 167.503906 103.855469 166.710938 103.09375 165.515625 C 102.8125 166.902344 103.355469 167.511719 103.683594 168.167969 Z M 239.449219 282.890625 C 244.265625 281.355469 249.253906 280.507812 254.109375 279.140625 C 266.976562 275.507812 279.855469 271.917969 292.820312 268.625 C 299.980469 266.808594 307.230469 265.308594 314.269531 263.027344 C 314.875 262.828125 316.152344 262.929688 315.792969 261.8125 C 315.488281 260.875 314.53125 261.542969 313.949219 261.742188 C 311.554688 262.558594 309.101562 263.128906 306.652344 263.746094 C 296.46875 266.300781 286.386719 269.222656 276.28125 272.070312 C 267.359375 274.585938 258.332031 276.707031 249.355469 279.011719 C 245.722656 279.945312 241.996094 280.550781 238.523438 282.050781 C 238.222656 282.179688 237.722656 282.179688 237.757812 282.632812 C 237.789062 283.09375 238.222656 283.070312 238.582031 283.042969 C 238.871094 282.996094 239.171875 282.980469 239.449219 282.890625 Z M 121.589844 283.621094 C 121.644531 282.984375 121.109375 282.929688 120.636719 282.828125 C 119.835938 282.648438 119.035156 282.472656 118.246094 282.242188 C 107.097656 279 95.886719 275.980469 84.738281 272.726562 C 74.835938 269.832031 64.800781 267.398438 54.910156 264.445312 C 51.652344 263.472656 48.394531 262.496094 45.210938 261.277344 C 44.820312 261.128906 44.261719 260.722656 44.027344 261.378906 C 43.855469 261.867188 44.4375 262.007812 44.796875 262.15625 C 46.207031 262.738281 47.597656 263.375 49.042969 263.859375 C 58.453125 267 68.117188 269.210938 77.664062 271.851562 C 90.886719 275.507812 103.996094 279.578125 117.15625 283.46875 C 118.222656 283.785156 119.292969 284.085938 120.085938 284.3125 C 120.917969 284.304688 121.527344 284.363281 121.589844 283.621094 Z M 233.667969 267.679688 C 241.382812 263.433594 249.105469 259.207031 256.777344 254.890625 C 263.988281 250.832031 271.195312 246.769531 278.300781 242.53125 C 283.941406 239.167969 289.617188 235.839844 295.039062 232.109375 C 295.5 231.792969 296.226562 231.445312 295.734375 230.769531 C 295.339844 230.230469 294.761719 230.695312 294.328125 230.972656 C 287 235.632812 279.660156 240.273438 272.167969 244.667969 C 268.015625 247.101562 263.917969 249.632812 259.691406 251.921875 C 250.757812 256.757812 241.855469 261.636719 233.214844 266.980469 C 232.757812 267.261719 232.078125 267.386719 232.058594 268.179688 C 232.710938 268.34375 233.191406 267.945312 233.667969 267.679688 Z M 226.15625 184.960938 C 225.347656 186.59375 224.566406 188.242188 223.824219 189.902344 C 218.3125 202.226562 213.613281 214.90625 207.648438 227.042969 C 206.007812 230.390625 204.519531 233.875 203.496094 237.503906 C 203.351562 238.015625 202.949219 238.773438 203.738281 239.003906 C 204.457031 239.210938 204.460938 238.386719 204.609375 237.929688 C 205.351562 235.636719 206.320312 233.4375 207.347656 231.257812 C 214.132812 216.859375 220.128906 202.117188 226.183594 187.40625 C 226.679688 186.203125 227.355469 185.039062 227.492188 183.644531 C 226.496094 183.664062 226.417969 184.433594 226.15625 184.960938 Z M 64.433594 232.0625 C 71.9375 237.164062 80.003906 241.277344 88.042969 245.433594 C 92.164062 247.566406 96.300781 249.6875 100.269531 252.085938 C 106.957031 256.128906 113.703125 260.070312 120.484375 263.957031 C 122.007812 264.832031 123.609375 265.582031 125.175781 266.382812 C 125.652344 266.628906 126.335938 267 126.605469 266.496094 C 126.941406 265.871094 126.207031 265.519531 125.722656 265.207031 C 125.574219 265.109375 125.417969 265.027344 125.261719 264.941406 C 117.890625 260.796875 110.472656 256.730469 103.058594 252.65625 C 90.292969 245.640625 77.347656 238.9375 64.886719 231.363281 C 64.308594 231.015625 63.75 230.503906 62.769531 230.652344 C 63.160156 231.441406 63.867188 231.679688 64.433594 232.0625 Z M 131.933594 184.425781 C 133.324219 187.46875 134.929688 190.421875 136.179688 193.519531 C 140.917969 205.28125 145.539062 217.089844 150.234375 228.871094 C 151.386719 231.761719 152.632812 234.609375 153.871094 237.464844 C 154.0625 237.90625 154.300781 238.636719 154.96875 238.304688 C 155.683594 237.945312 155.09375 237.390625 154.914062 236.949219 C 152.609375 231.300781 150.183594 225.695312 148.007812 219.992188 C 144.472656 210.722656 141.027344 201.414062 137.070312 192.3125 C 135.320312 188.289062 132.828125 184.636719 131.042969 180.5625 C 130.945312 181.949219 131.382812 183.21875 131.933594 184.425781 Z M 105.480469 203.164062 C 109.511719 208.371094 113.5625 213.558594 117.585938 218.769531 C 120.707031 222.816406 123.804688 226.878906 126.910156 230.941406 C 131.332031 236.726562 135.328125 242.835938 140.0625 248.386719 C 140.390625 248.773438 140.738281 249.675781 141.382812 249.085938 C 141.992188 248.53125 141.175781 248.054688 140.835938 247.65625 C 136.023438 241.941406 131.707031 235.851562 127.371094 229.777344 C 121.050781 220.925781 114.519531 212.238281 107.492188 203.933594 C 106.777344 203.089844 106.046875 202.238281 104.835938 201.722656 C 104.851562 202.460938 105.203125 202.804688 105.480469 203.164062 Z M 242.015625 290.832031 C 249.246094 290.519531 256.320312 289.011719 263.453125 287.988281 C 271.457031 286.835938 279.421875 285.417969 287.480469 284.617188 C 291.035156 284.265625 294.578125 283.730469 298.117188 283.214844 C 298.683594 283.132812 299.703125 283.140625 299.613281 282.347656 C 299.511719 281.457031 298.574219 281.855469 298.003906 281.9375 C 291.386719 282.859375 284.769531 283.804688 278.15625 284.753906 C 265.625 286.558594 253.121094 288.570312 240.535156 290.003906 C 240.253906 290.039062 239.941406 290.03125 239.746094 290.621094 C 240.527344 291.003906 241.269531 290.863281 242.015625 290.832031 Z M 231.980469 258.355469 C 240.972656 251.535156 249.828125 244.53125 259.210938 238.242188 C 262.253906 236.203125 264.804688 233.570312 267.746094 231.414062 C 268.066406 231.179688 268.523438 230.90625 268.183594 230.441406 C 267.917969 230.085938 267.523438 230.363281 267.238281 230.539062 C 266.390625 231.066406 265.523438 231.570312 264.722656 232.164062 C 254.886719 239.519531 245.046875 246.875 235.230469 254.257812 C 232.8125 256.078125 230.476562 258.011719 228.101562 259.890625 C 229.796875 260.101562 230.878906 259.191406 231.980469 258.355469 Z M 96.566406 235.988281 C 103.898438 241.296875 111.273438 246.539062 118.460938 252.046875 C 122.191406 254.90625 125.886719 257.808594 129.578125 260.71875 C 130.058594 261.097656 130.742188 261.785156 131.238281 261.128906 C 131.667969 260.558594 130.800781 260.167969 130.367188 259.835938 C 125.183594 255.878906 119.929688 252.011719 114.808594 247.976562 C 107.746094 242.402344 100.40625 237.203125 93.25 231.757812 C 91.582031 230.492188 89.929688 229.199219 87.660156 228.847656 C 90.625 231.234375 93.488281 233.757812 96.566406 235.988281 Z M 238.078125 220.910156 C 231.710938 229.640625 225.257812 238.320312 218.285156 246.59375 C 217.875 247.082031 217.519531 247.632812 217.195312 248.1875 C 217.011719 248.496094 216.996094 248.902344 217.308594 249.15625 C 217.71875 249.492188 218.105469 249.269531 218.367188 248.925781 C 218.902344 248.226562 219.355469 247.46875 219.902344 246.777344 C 229.179688 235.011719 238.167969 223.027344 246.929688 210.871094 C 247.664062 209.847656 248.5625 208.902344 248.734375 207.546875 C 245.023438 211.890625 241.4375 216.300781 238.078125 220.910156 Z M 80.667969 259.007812 C 91.816406 263.53125 102.945312 268.109375 114.09375 272.632812 C 117.195312 273.886719 120.335938 275.035156 123.476562 276.1875 C 123.820312 276.3125 124.472656 276.753906 124.632812 276.007812 C 124.753906 275.457031 124.09375 275.523438 123.746094 275.382812 C 118.410156 273.246094 113.042969 271.175781 107.734375 268.964844 C 97.277344 264.605469 86.855469 260.164062 76.410156 255.773438 C 75.679688 255.464844 74.945312 255.046875 73.582031 255.375 C 76.113281 256.929688 78.335938 258.058594 80.667969 259.007812 Z M 236.566406 274.292969 C 241.902344 272.695312 247.121094 270.761719 252.320312 268.753906 C 262.878906 264.6875 273.46875 260.707031 283.785156 256.050781 C 284.269531 255.832031 285.238281 255.726562 284.953125 255.050781 C 284.617188 254.253906 283.957031 255.042969 283.488281 255.230469 C 277.230469 257.730469 271.019531 260.355469 264.722656 262.753906 C 254.710938 266.566406 244.820312 270.695312 234.410156 274.257812 C 235.414062 274.953125 235.996094 274.460938 236.566406 274.292969 Z M 69.941406 284.320312 C 79.636719 286.085938 89.414062 287.285156 99.195312 288.441406 C 105.542969 289.195312 111.890625 289.945312 118.242188 290.667969 C 118.773438 290.730469 119.617188 291 119.722656 290.210938 C 119.851562 289.296875 118.9375 289.316406 118.335938 289.300781 C 113.28125 289.183594 108.300781 288.335938 103.277344 287.894531 C 94.625 287.136719 86.082031 285.558594 77.476562 284.460938 C 74.078125 284.027344 70.714844 283.171875 66.835938 283.242188 C 68 284.082031 68.996094 284.148438 69.941406 284.320312 Z M 126.660156 169.425781 C 126.574219 169.15625 126.394531 168.835938 126.046875 169.007812 C 125.894531 169.082031 125.734375 169.417969 125.78125 169.582031 C 126.402344 171.890625 127.046875 174.199219 128.660156 176.066406 C 128.4375 173.699219 127.367188 171.617188 126.660156 169.425781 Z M 230.207031 177.710938 C 231.738281 176.230469 232.332031 174.222656 233.023438 172.277344 C 233.121094 172.003906 233.089844 171.652344 232.800781 171.507812 C 232.503906 171.355469 232.195312 171.527344 232.078125 171.808594 C 231.28125 173.703125 230.511719 175.609375 229.730469 177.511719 C 229.890625 177.578125 230.046875 177.644531 230.207031 177.710938 Z M 97.222656 190.96875 C 98.242188 193.234375 99.957031 194.925781 101.882812 196.449219 C 100.925781 194.117188 99.121094 192.507812 97.222656 190.96875 Z M 273.507812 225.878906 C 273.21875 226.117188 273.066406 226.453125 273.289062 226.808594 C 273.488281 227.128906 273.820312 227.066406 274.042969 226.867188 C 275.429688 225.632812 277.242188 224.925781 278.765625 223.050781 C 276.507812 223.738281 274.945312 224.695312 273.507812 225.878906 Z M 83.835938 225.09375 C 82.707031 223.203125 81.25 221.730469 79.011719 221.25 C 80.453125 222.738281 81.847656 224.289062 83.835938 225.09375 Z M 64.828125 250.496094 C 64.5625 250.371094 64.203125 250.394531 64.113281 250.757812 C 64.066406 250.941406 64.148438 251.292969 64.285156 251.371094 C 65.726562 252.195312 67.050781 253.3125 69.269531 253.445312 C 67.839844 251.894531 66.320312 251.210938 64.828125 250.496094 Z M 256.984375 197.59375 C 257.148438 197.34375 257.210938 197.003906 256.914062 196.820312 C 256.621094 196.640625 256.359375 196.839844 256.167969 197.078125 C 255.082031 198.417969 254.023438 199.777344 253.726562 201.59375 C 255.230469 200.582031 256.046875 199.039062 256.984375 197.59375 Z M 61.046875 282.175781 C 59.183594 281.308594 57.234375 280.917969 55.191406 281.066406 C 56.996094 282.261719 59.007812 282.296875 61.046875 282.175781 Z M 310.464844 281.816406 C 310.777344 281.785156 311.105469 281.601562 311.105469 281.324219 C 311.105469 280.878906 310.695312 280.785156 310.332031 280.84375 C 308.757812 281.105469 307.113281 281.066406 305.199219 281.984375 C 307.277344 282.433594 308.863281 281.980469 310.464844 281.816406 Z M 261.792969 157.105469 C 261.792969 157.769531 262.132812 158.257812 262.855469 158.222656 C 263.710938 158.179688 264.097656 157.613281 264.050781 156.8125 C 264.015625 156.144531 263.589844 155.773438 262.925781 155.738281 C 262.167969 155.898438 261.792969 156.390625 261.792969 157.105469 Z M 303.550781 225.933594 C 303.605469 226.699219 304.050781 227.121094 304.820312 227.054688 C 305.484375 226.996094 305.921875 226.5625 305.9375 225.902344 C 305.953125 225.054688 305.308594 224.882812 304.523438 224.816406 C 303.949219 224.894531 303.5 225.195312 303.550781 225.933594 Z M 325.554688 261.683594 C 325.578125 260.976562 325.359375 260.347656 324.546875 260.3125 C 323.773438 260.277344 323.410156 260.839844 323.320312 261.535156 C 323.222656 262.289062 323.5625 262.769531 324.34375 262.878906 C 325.132812 262.867188 325.53125 262.441406 325.554688 261.683594 Z M 294.699219 250.96875 C 294.886719 250.875 295.101562 250.679688 294.992188 250.398438 C 294.851562 250.046875 294.507812 250.027344 294.257812 250.140625 C 293.1875 250.640625 291.957031 250.894531 291.058594 252.1875 C 292.550781 252.09375 293.621094 251.507812 294.699219 250.96875 Z M 129.945312 111.175781 C 129.320312 111.101562 128.890625 111.417969 128.925781 112.046875 C 128.972656 112.835938 129.476562 113.3125 130.28125 113.332031 C 130.835938 113.347656 131.105469 112.992188 131.132812 112.335938 C 131.015625 111.761719 130.683594 111.257812 129.945312 111.175781 Z M 54.808594 225.609375 C 54.765625 226.238281 55.128906 226.636719 55.722656 226.699219 C 56.410156 226.773438 56.886719 226.398438 56.898438 225.699219 C 56.90625 225.097656 56.488281 224.757812 55.789062 224.648438 C 55.339844 224.761719 54.851562 224.960938 54.808594 225.609375 Z M 230.5 110.304688 C 229.867188 110.285156 229.566406 110.726562 229.539062 111.332031 C 229.511719 111.871094 229.757812 112.25 230.316406 112.316406 C 230.972656 112.394531 231.289062 112.035156 231.355469 111.414062 C 231.363281 110.808594 231.152344 110.324219 230.5 110.304688 Z M 101.074219 159.789062 C 101.03125 159.207031 100.71875 158.800781 100.105469 158.785156 C 99.453125 158.769531 99.183594 159.210938 99.183594 159.796875 C 99.1875 160.398438 99.503906 160.765625 100.234375 160.792969 C 100.726562 160.710938 101.125 160.4375 101.074219 159.789062 Z M 37.296875 260.410156 C 37.355469 259.789062 37 259.417969 36.414062 259.355469 C 35.898438 259.300781 35.515625 259.574219 35.472656 260.128906 C 35.421875 260.742188 35.777344 261.074219 36.355469 261.195312 C 36.882812 261.1875 37.25 260.957031 37.296875 260.410156 Z M 37.296875 260.410156 " fill-opacity="1" fill-rule="nonzero"/></g></svg>