<svg xmlns="http://www.w3.org/2000/svg" xmlns:xlink="http://www.w3.org/1999/xlink" width="500" zoomAndPan="magnify" viewBox="0 0 375 374.999991" height="500" preserveAspectRatio="xMidYMid meet" version="1.0"><defs><clipPath id="b15133515c"><path d="M 129 16.460938 L 246.957031 16.460938 L 246.957031 244 L 129 244 Z M 129 16.460938 " clip-rule="nonzero"/></clipPath><clipPath id="0da857dd64"><path d="M 75 233.113281 L 299.902344 233.113281 L 299.902344 366.613281 L 75 366.613281 Z M 75 233.113281 " clip-rule="nonzero"/></clipPath></defs><g clip-path="url(#b15133515c)"><path fill="#000000" d="M 196.863281 23.082031 C 196.535156 21.195312 197.785156 19.457031 198.875 18.171875 C 200.15625 16.664062 200.703125 16.476562 200.703125 16.476562 C 200.703125 16.476562 200.523438 16.664062 199.917969 17.8125 C 199.464844 18.664062 199.320312 19.761719 199.742188 21.484375 C 200.070312 22.832031 199.78125 23.636719 199.269531 23.777344 C 198.910156 23.878906 198.214844 23.539062 198.40625 23.058594 C 198.542969 22.714844 196.980469 22.910156 198.832031 25.0625 C 199.328125 25.542969 199.953125 26.09375 200.683594 26.808594 C 202.722656 28.808594 203.609375 29.945312 203.300781 31.058594 C 203.042969 31.976562 201.914062 32.957031 199.6875 34.503906 C 196.644531 36.617188 192.21875 37.621094 191.082031 39.648438 C 190.589844 40.523438 190.875 41.578125 192.222656 43.074219 C 193.761719 44.78125 195.96875 46.097656 198.222656 46.945312 C 201.246094 44.867188 203.558594 44.148438 205.101562 44.164062 C 206.945312 44.179688 207.832031 45.179688 207.847656 46.324219 C 207.859375 47.332031 207.359375 48.0625 206.472656 48.523438 C 205.300781 49.132812 203.367188 49.226562 201.195312 48.816406 C 200.335938 48.652344 199.4375 48.414062 198.539062 48.101562 C 196.328125 49.601562 193.410156 51.148438 190.601562 52.300781 C 191.171875 52.75 191.75 53.261719 192.335938 53.835938 C 193.785156 55.269531 195.855469 56.476562 198.0625 57.351562 C 198.191406 57.25 198.3125 57.152344 198.433594 57.050781 C 201.238281 54.695312 203.894531 53.828125 205.949219 53.800781 C 208.976562 53.757812 210.742188 55.539062 210.519531 57.269531 C 210.378906 58.382812 209.730469 59.191406 208.699219 59.703125 C 207.300781 60.394531 205.097656 60.515625 202.652344 60.113281 C 201.304688 59.890625 199.878906 59.515625 198.480469 59.011719 C 196.492188 60.449219 193.710938 61.84375 190.792969 62.9375 C 191.351562 63.324219 191.917969 63.742188 192.480469 64.183594 C 193.597656 65.054688 194.851562 65.867188 196.175781 66.601562 C 199.800781 64.753906 204.644531 63.578125 208.273438 63.738281 C 211.746094 63.890625 214.105469 65.320312 214.15625 67.941406 C 214.214844 71.097656 211.570312 72.535156 207.585938 72.289062 C 204.339844 72.089844 200.179688 70.796875 196.40625 68.863281 C 195.757812 69.238281 195.167969 69.640625 194.65625 70.058594 C 192.851562 71.542969 189.402344 73.445312 185.597656 75.070312 C 188.066406 76.433594 190.460938 77.976562 192.507812 79.503906 C 193.917969 80.554688 195.613281 81.40625 197.429688 82.066406 C 201.050781 80.144531 205.019531 78.367188 208.273438 77.507812 C 210.554688 76.90625 212.527344 76.769531 213.890625 77.199219 C 215.019531 77.554688 215.816406 78.246094 216.230469 79.308594 C 217.597656 82.816406 215.007812 85.261719 210.316406 85.96875 C 206.820312 86.496094 202.164062 86.085938 197.914062 84.757812 C 196.621094 85.46875 195.382812 86.191406 194.261719 86.886719 C 192.445312 88.003906 189.519531 89.476562 186.125 90.921875 C 187.640625 91.769531 189.046875 92.664062 190.277344 93.582031 C 191.945312 94.820312 194.066406 96.074219 196.445312 97.238281 C 203.054688 92.929688 209.527344 91.199219 214.71875 91.105469 C 218.984375 91.03125 222.425781 92.070312 224.527344 93.65625 C 227.035156 95.554688 227.878906 98.1875 226.542969 101.007812 C 225.464844 103.277344 223.375 104.699219 220.570312 105.339844 C 217.828125 105.96875 214.355469 105.84375 210.644531 105.164062 C 206.148438 104.34375 201.292969 102.714844 197.003906 100.769531 C 196.226562 101.320312 195.449219 101.910156 194.671875 102.542969 C 189.011719 107.140625 183.71875 110.640625 178.90625 113.222656 C 182.914062 115.328125 186.617188 117.722656 189.417969 120.097656 C 193.339844 119.195312 196.390625 118.671875 198.046875 118.3125 C 206.351562 116.523438 216.917969 116.097656 223.558594 118.355469 C 228.546875 120.054688 231.472656 123.210938 230.925781 127.925781 C 230.183594 134.292969 223.304688 138.089844 213.203125 136.40625 C 206.179688 135.238281 197.542969 131.457031 188.769531 124.269531 C 188.355469 124.367188 187.9375 124.472656 187.507812 124.582031 C 186.296875 124.953125 185.007812 125.355469 183.640625 125.789062 C 160.320312 133.183594 147.050781 147.914062 142.828125 158.445312 C 138.058594 170.332031 135.324219 191.355469 144.789062 208.523438 C 153.226562 223.824219 168.839844 232.601562 185.023438 233.589844 C 201.769531 234.609375 220.605469 229.144531 230.0625 213.359375 C 237.285156 201.300781 237.1875 183.46875 231.855469 173.191406 C 223.035156 156.199219 201.636719 153.332031 188.953125 156.269531 C 175.179688 159.457031 170.265625 172.339844 170.75 178.410156 C 171.046875 182.117188 172.609375 189.265625 179.335938 192.46875 C 181.1875 193.148438 183.304688 193.269531 184.898438 192.453125 C 183.417969 191.101562 182.488281 189.152344 182.488281 186.988281 C 182.488281 182.910156 185.792969 179.597656 189.859375 179.597656 C 193.925781 179.597656 197.230469 182.910156 197.230469 186.988281 C 197.230469 187.359375 197.203125 187.71875 197.148438 188.074219 C 196.683594 194.96875 189.707031 199.925781 181.800781 199.34375 C 175.941406 198.914062 169.59375 195.464844 165.71875 187.359375 C 161.542969 178.625 163.300781 169.128906 168.699219 161.597656 C 173.644531 154.6875 181.65625 149.460938 190.75 148.109375 C 204.292969 146.09375 219.679688 148.886719 230.785156 157.820312 C 240.425781 165.578125 246.933594 177.9375 246.15625 195.886719 C 245.476562 211.570312 237.027344 224.710938 224.261719 233.132812 C 212.796875 240.699219 197.835938 244.441406 181.996094 242.71875 C 168.640625 241.257812 153.605469 233.546875 143.007812 221.226562 C 133.625 210.320312 127.699219 195.828125 129.429688 178.949219 C 131.503906 158.691406 141.203125 145.265625 152.785156 136.3125 C 163.441406 128.074219 175.710938 123.660156 184.992188 121.191406 C 182.125 119.0625 178.613281 116.980469 174.945312 115.195312 C 170.394531 117.285156 166.359375 118.503906 162.953125 119.050781 C 157.5625 119.914062 153.613281 119.066406 151.417969 117.40625 C 149.578125 116.015625 148.761719 114.074219 149.074219 111.816406 C 149.433594 109.207031 151.035156 107.589844 153.5625 106.835938 C 155.714844 106.191406 158.667969 106.246094 162.027344 106.902344 C 166.042969 107.683594 170.6875 109.308594 175.1875 111.386719 C 180.398438 108.84375 186.265625 105.140625 192.632812 100.011719 C 192.996094 99.71875 193.355469 99.4375 193.71875 99.160156 C 191.742188 98.113281 189.972656 97.015625 188.53125 95.933594 C 186.839844 94.667969 184.804688 93.441406 182.605469 92.339844 C 178.058594 94.070312 173.121094 95.546875 169.070312 96.019531 C 162.890625 96.738281 158.726562 94.988281 159.175781 89.867188 C 159.507812 86.046875 163.257812 84.425781 168.613281 84.949219 C 172.902344 85.363281 178.242188 87.054688 183.011719 89.320312 C 187.132812 87.703125 190.792969 85.929688 192.894531 84.644531 C 193.484375 84.285156 194.101562 83.917969 194.742188 83.550781 C 193.410156 82.945312 192.171875 82.230469 191.085938 81.414062 C 188.65625 79.585938 185.710938 77.726562 182.765625 76.199219 C 180.363281 77.09375 177.945312 77.816406 175.808594 78.207031 C 173.492188 78.628906 171.488281 78.648438 170.121094 78.175781 C 168.433594 77.59375 167.496094 76.382812 167.679688 74.339844 C 167.992188 70.859375 171.082031 69.84375 175.519531 70.871094 C 177.78125 71.394531 180.421875 72.4375 183.089844 73.753906 C 187.320312 72.117188 191.347656 70.015625 193.316406 68.410156 C 193.621094 68.164062 193.949219 67.921875 194.300781 67.691406 C 193.246094 67.054688 192.246094 66.367188 191.332031 65.648438 C 190.421875 64.921875 189.511719 64.269531 188.617188 63.691406 C 186.476562 64.371094 184.351562 64.859375 182.488281 65.058594 C 178.148438 65.523438 175.25 64.246094 175.671875 61.136719 C 175.941406 59.171875 177.925781 58.113281 181.058594 58.585938 C 183.253906 58.914062 186.066406 59.976562 189.074219 61.8125 C 191.871094 60.875 194.625 59.628906 196.710938 58.296875 C 194.652344 57.375 192.753906 56.179688 191.378906 54.804688 C 190.613281 54.039062 189.859375 53.402344 189.125 52.871094 C 188.167969 53.21875 187.242188 53.507812 186.378906 53.71875 C 184.546875 54.167969 182.988281 54.253906 181.988281 53.894531 C 181.148438 53.589844 180.628906 53.011719 180.503906 52.117188 C 180.261719 50.347656 182.210938 48.910156 185.390625 49.632812 C 186.589844 49.90625 187.972656 50.484375 189.445312 51.460938 C 192.125 50.453125 194.972656 49.023438 197.234375 47.59375 C 195.078125 46.675781 193.015625 45.347656 191.539062 43.6875 C 189.820312 41.753906 189.671875 40.332031 190.3125 39.207031 C 191.507812 37.113281 196.054688 36.007812 199.230469 33.835938 C 201.234375 32.464844 202.324219 31.667969 202.558594 30.847656 C 202.828125 29.902344 201.890625 29.050781 200.167969 27.335938 C 198.171875 25.347656 196.976562 24.433594 196.863281 23.109375 C 196.863281 23.101562 196.863281 23.09375 196.863281 23.082031 Z M 193.324219 123.238281 C 200.710938 128.765625 207.867188 131.777344 213.804688 132.746094 C 217.925781 133.417969 221.417969 133.109375 223.882812 131.886719 C 225.757812 130.957031 226.964844 129.46875 227.1875 127.492188 C 227.398438 125.621094 226.550781 124.25 225.074219 123.257812 C 223.582031 122.25 221.539062 121.601562 219.191406 121.1875 C 213.179688 120.125 205.292969 120.710938 198.871094 122.121094 C 197.6875 122.378906 195.773438 122.722656 193.324219 123.238281 Z M 170.785156 113.328125 C 168.941406 112.566406 167.105469 111.902344 165.328125 111.359375 C 161.738281 110.265625 158.425781 109.671875 155.910156 109.921875 C 154.082031 110.101562 152.71875 110.707031 152.492188 112.300781 C 152.304688 113.597656 153.066406 114.605469 154.449219 115.21875 C 157.054688 116.378906 161.40625 116.324219 167.097656 114.609375 C 168.277344 114.253906 169.503906 113.828125 170.785156 113.328125 Z M 200 98.832031 C 203.609375 100.316406 207.523438 101.527344 211.179688 102.183594 C 214.4375 102.765625 217.480469 102.910156 219.882812 102.347656 C 221.667969 101.933594 223.070312 101.128906 223.753906 99.683594 C 224.394531 98.3125 223.878906 97.070312 222.660156 96.15625 C 220.976562 94.894531 218.191406 94.191406 214.78125 94.265625 C 210.53125 94.359375 205.355469 95.691406 200 98.832031 Z M 179.121094 90.746094 C 176.53125 89.671875 173.863281 88.808594 171.386719 88.273438 C 168.625 87.671875 166.117188 87.46875 164.273438 87.90625 C 162.984375 88.214844 162.070312 88.863281 161.957031 90.117188 C 161.800781 91.8125 162.621094 92.742188 164.042969 93.136719 C 166.097656 93.703125 169.0625 93.398438 172.328125 92.679688 C 174.519531 92.199219 176.835938 91.523438 179.121094 90.746094 Z M 201.089844 83.101562 C 203.238281 83.558594 205.410156 83.765625 207.375 83.730469 C 209.75 83.691406 211.816406 83.308594 213.101562 82.496094 C 213.921875 81.972656 214.289062 81.222656 213.898438 80.230469 C 213.628906 79.542969 212.855469 79.453125 211.898438 79.472656 C 210.484375 79.503906 208.703125 79.960938 206.757812 80.65625 C 204.945312 81.304688 203.003906 82.15625 201.089844 83.101562 Z M 179.96875 74.855469 C 179.105469 74.472656 178.253906 74.132812 177.433594 73.839844 C 175.199219 73.046875 173.191406 72.605469 171.710938 72.808594 C 170.703125 72.949219 170.023438 73.464844 169.921875 74.546875 C 169.816406 75.667969 170.597656 76.113281 171.738281 76.25 C 173.386719 76.445312 175.65625 76.074219 178.125 75.402344 C 178.730469 75.238281 179.347656 75.054688 179.96875 74.855469 Z M 198.554688 67.796875 C 200.855469 68.839844 203.238281 69.617188 205.390625 70.027344 C 207.507812 70.425781 209.390625 70.480469 210.703125 70 C 211.609375 69.667969 212.167969 69.027344 212.140625 67.984375 C 212.121094 67.144531 211.585938 66.613281 210.800781 66.28125 C 209.628906 65.785156 207.976562 65.6875 206.152344 65.851562 C 203.699219 66.070312 200.941406 66.773438 198.554688 67.796875 Z M 186.675781 62.535156 C 185.148438 61.703125 183.699219 61.09375 182.402344 60.714844 C 180.890625 60.273438 179.597656 60.128906 178.640625 60.324219 C 177.960938 60.464844 177.480469 60.78125 177.394531 61.378906 C 177.238281 62.476562 177.921875 63.035156 179.007812 63.28125 C 180.460938 63.613281 182.511719 63.449219 184.765625 62.988281 C 185.390625 62.859375 186.027344 62.707031 186.675781 62.535156 Z M 199.804688 57.964844 C 200.84375 58.285156 201.886719 58.53125 202.882812 58.6875 C 204.625 58.964844 206.222656 58.972656 207.40625 58.625 C 208.304688 58.359375 208.945312 57.894531 209.042969 57.085938 C 209.089844 56.691406 208.886719 56.332031 208.539062 56.042969 C 207.792969 55.417969 206.457031 55.140625 204.808594 55.457031 C 203.324219 55.738281 201.609375 56.511719 199.804688 57.964844 Z M 187.832031 52.03125 C 186.851562 51.46875 185.925781 51.105469 185.09375 50.910156 C 183.980469 50.652344 183.054688 50.6875 182.421875 50.96875 C 181.976562 51.171875 181.707031 51.507812 181.765625 51.945312 C 181.835938 52.484375 182.261719 52.722656 182.867188 52.820312 C 184.0625 53.015625 185.84375 52.667969 187.832031 52.03125 Z M 199.570312 47.398438 C 200.183594 47.582031 200.789062 47.726562 201.375 47.832031 C 202.949219 48.117188 204.386719 48.136719 205.421875 47.832031 C 206.257812 47.582031 206.8125 47.121094 206.796875 46.34375 C 206.777344 45.484375 205.835938 45.023438 204.171875 45.332031 C 202.972656 45.554688 201.4375 46.1875 199.570312 47.398438 Z M 199.570312 47.398438 " fill-opacity="1" fill-rule="evenodd"/></g><g clip-path="url(#0da857dd64)"><path fill="#000000" d="M 122.542969 250.875 C 141.050781 240.175781 162.34375 239.0625 175.1875 239.628906 C 163.089844 245.839844 144.011719 258.171875 132.347656 278.40625 C 129.234375 283.8125 126.882812 289.394531 125.101562 294.929688 C 107.488281 299.855469 90.519531 298.789062 83.128906 297.941406 C 87.117188 288.726562 99.449219 264.226562 122.542969 250.875 Z M 252.28125 250.875 C 275.324219 264.199219 287.6875 288.71875 291.691406 297.945312 C 284.292969 298.792969 267.332031 299.851562 249.722656 294.929688 C 247.945312 289.394531 245.59375 283.8125 242.476562 278.40625 C 230.8125 258.171875 211.738281 245.839844 199.640625 239.628906 C 212.484375 239.0625 233.773438 240.175781 252.28125 250.875 Z M 247.617188 342.074219 C 238.40625 338.066406 213.925781 325.683594 200.625 302.609375 C 195.105469 293.039062 192.164062 282.734375 190.664062 273.222656 C 192.589844 260.394531 191.992188 249.140625 191.3125 242.710938 C 201.339844 247.246094 224.257812 259.511719 236.984375 281.585938 C 250.289062 304.660156 248.753906 332.082031 247.617188 342.074219 Z M 187.410156 358.234375 C 182.980469 352.25 173.582031 338.066406 169.035156 320.328125 C 172.933594 316.019531 176.582031 311.191406 179.699219 305.785156 C 183.089844 299.898438 185.585938 293.800781 187.410156 287.78125 C 189.238281 293.800781 191.734375 299.898438 195.128906 305.785156 C 198.246094 311.195312 201.898438 316.023438 205.800781 320.335938 C 201.253906 338.070312 191.84375 352.25 187.410156 358.234375 Z M 137.839844 281.585938 C 150.566406 259.511719 173.484375 247.246094 183.515625 242.710938 C 182.835938 249.140625 182.234375 260.394531 184.164062 273.226562 C 182.660156 282.734375 179.722656 293.042969 174.203125 302.609375 C 160.898438 325.683594 136.417969 338.066406 127.207031 342.074219 C 126.074219 332.082031 124.539062 304.660156 137.839844 281.585938 Z M 75.925781 302.109375 C 76.386719 302.910156 77.175781 303.472656 78.085938 303.640625 C 79.019531 303.820312 99.746094 307.597656 123.113281 302.011719 C 117.546875 325.257812 121.300781 345.984375 121.515625 347.132812 C 121.683594 348.042969 122.246094 348.835938 123.046875 349.296875 C 123.847656 349.761719 124.808594 349.851562 125.679688 349.546875 C 126.785156 349.15625 146.585938 342.046875 163.902344 325.59375 C 170.753906 348.65625 184.390625 364.738281 185.007812 365.464844 C 185.609375 366.167969 186.488281 366.570312 187.410156 366.570312 C 188.335938 366.570312 189.214844 366.167969 189.820312 365.464844 C 190.429688 364.753906 204.066406 348.667969 210.925781 325.597656 C 228.242188 342.046875 248.042969 349.15625 249.144531 349.546875 C 250.015625 349.851562 250.976562 349.757812 251.78125 349.296875 C 252.578125 348.835938 253.140625 348.042969 253.3125 347.132812 C 253.527344 345.984375 257.28125 325.257812 251.714844 302.011719 C 275.082031 307.597656 295.804688 303.820312 296.742188 303.640625 C 297.652344 303.472656 298.4375 302.910156 298.898438 302.109375 C 299.363281 301.308594 299.453125 300.34375 299.144531 299.46875 C 298.628906 297.992188 286.144531 263.121094 255.453125 245.375 C 238.070312 235.324219 218.867188 233.089844 205.191406 233.089844 C 196.070312 233.089844 189.417969 234.082031 187.410156 234.421875 C 185.40625 234.082031 178.753906 233.089844 169.636719 233.089844 C 155.960938 233.089844 136.753906 235.324219 119.375 245.375 C 88.679688 263.121094 76.195312 297.992188 75.679688 299.46875 C 75.371094 300.34375 75.460938 301.308594 75.925781 302.109375 " fill-opacity="1" fill-rule="nonzero"/></g></svg>