<svg xmlns="http://www.w3.org/2000/svg" xmlns:xlink="http://www.w3.org/1999/xlink" width="500" zoomAndPan="magnify" viewBox="0 0 375 374.999991" height="500" preserveAspectRatio="xMidYMid meet" version="1.0"><defs><clipPath id="125db3ed3a"><path d="M 106 90.355469 L 302.238281 90.355469 L 302.238281 289.894531 L 106 289.894531 Z M 106 90.355469 " clip-rule="nonzero"/></clipPath></defs><g clip-path="url(#125db3ed3a)"><path fill="#7ca494" d="M 108.085938 200.160156 C 96.050781 231.902344 139.207031 272.371094 167.019531 282.324219 C 211.203125 301.816406 256.125 281.101562 282.792969 249.445312 C 329.617188 194.832031 287.792969 82.007812 201.726562 90.9375 C 161.59375 93.496094 107.242188 142.46875 110.269531 185.492188 " fill-opacity="1" fill-rule="nonzero"/></g><path fill="#53718e" d="M 66.433594 163.648438 C 65.769531 159.109375 58.722656 160.140625 59.394531 164.683594 C 60.0625 169.222656 67.105469 168.1875 66.433594 163.648438 " fill-opacity="1" fill-rule="nonzero"/><path fill="#53718e" d="M 80.734375 139.199219 C 80.0625 134.660156 73.023438 135.695312 73.6875 140.230469 C 74.359375 144.769531 81.398438 143.730469 80.734375 139.199219 " fill-opacity="1" fill-rule="nonzero"/><path fill="#53718e" d="M 88.457031 153.710938 C 87.789062 149.171875 80.75 150.203125 81.417969 154.746094 C 82.082031 159.28125 89.125 158.242188 88.457031 153.710938 " fill-opacity="1" fill-rule="nonzero"/><path fill="#53718e" d="M 70.300781 151.90625 C 69.636719 147.367188 62.589844 148.402344 63.257812 152.941406 C 63.925781 157.480469 70.96875 156.441406 70.300781 151.90625 " fill-opacity="1" fill-rule="nonzero"/><path fill="#53718e" d="M 106.195312 167.863281 C 105.527344 163.324219 98.484375 164.359375 99.152344 168.898438 C 99.824219 173.4375 106.863281 172.402344 106.195312 167.863281 " fill-opacity="1" fill-rule="nonzero"/><path fill="#53718e" d="M 120.652344 144.507812 C 119.988281 139.972656 112.941406 141.003906 113.609375 145.542969 C 114.28125 150.078125 121.320312 149.042969 120.652344 144.507812 " fill-opacity="1" fill-rule="nonzero"/><path fill="#53718e" d="M 108.898438 140.644531 C 108.230469 136.109375 101.191406 137.140625 101.859375 141.679688 C 102.53125 146.21875 109.570312 145.183594 108.898438 140.644531 " fill-opacity="1" fill-rule="nonzero"/><path fill="#53718e" d="M 96.34375 131.3125 C 95.675781 126.773438 88.636719 127.808594 89.304688 132.347656 C 89.96875 136.886719 97.015625 135.847656 96.34375 131.3125 " fill-opacity="1" fill-rule="nonzero"/><path fill="#53718e" d="M 92.679688 113.96875 C 92.011719 109.433594 84.964844 110.46875 85.632812 115.003906 C 86.304688 119.546875 93.34375 118.511719 92.679688 113.96875 " fill-opacity="1" fill-rule="nonzero"/><path fill="#53718e" d="M 114.148438 123.109375 C 113.484375 118.574219 106.441406 119.605469 107.109375 124.144531 C 107.777344 128.683594 114.816406 127.648438 114.148438 123.109375 " fill-opacity="1" fill-rule="nonzero"/><path fill="#53718e" d="M 132.148438 123.816406 C 131.480469 119.28125 124.441406 120.3125 125.105469 124.851562 C 125.773438 129.390625 132.816406 128.355469 132.148438 123.816406 " fill-opacity="1" fill-rule="nonzero"/><path fill="#53718e" d="M 137.265625 151.007812 C 136.597656 146.46875 129.554688 147.503906 130.226562 152.042969 C 130.890625 156.582031 137.933594 155.542969 137.265625 151.007812 " fill-opacity="1" fill-rule="nonzero"/><path fill="#53718e" d="M 133.171875 184.015625 C 132.503906 179.476562 125.464844 180.511719 126.132812 185.050781 C 126.804688 189.589844 133.84375 188.550781 133.171875 184.015625 " fill-opacity="1" fill-rule="nonzero"/><path fill="#53718e" d="M 109.414062 189.742188 C 108.746094 185.203125 101.703125 186.234375 102.375 190.773438 C 103.042969 195.3125 110.082031 194.277344 109.414062 189.742188 " fill-opacity="1" fill-rule="nonzero"/><path fill="#53718e" d="M 91.253906 187.941406 C 90.589844 183.402344 83.546875 184.4375 84.214844 188.972656 C 84.882812 193.511719 91.921875 192.476562 91.253906 187.941406 " fill-opacity="1" fill-rule="nonzero"/><path fill="#53718e" d="M 89.003906 172.625 C 88.335938 168.085938 81.296875 169.121094 81.964844 173.660156 C 82.628906 178.199219 89.671875 177.160156 89.003906 172.625 " fill-opacity="1" fill-rule="nonzero"/><path fill="#53718e" d="M 71.070312 187.550781 C 70.402344 183.015625 63.359375 184.046875 64.027344 188.585938 C 64.695312 193.125 71.738281 192.089844 71.070312 187.550781 " fill-opacity="1" fill-rule="nonzero"/><path fill="#53718e" d="M 82.886719 207.050781 C 82.214844 202.511719 75.175781 203.542969 75.84375 208.082031 C 76.511719 212.621094 83.554688 211.589844 82.886719 207.050781 " fill-opacity="1" fill-rule="nonzero"/><path fill="#53718e" d="M 59.449219 138.972656 C 58.78125 134.429688 51.738281 135.464844 52.410156 140.007812 C 53.074219 144.542969 60.117188 143.503906 59.449219 138.972656 " fill-opacity="1" fill-rule="nonzero"/><path fill="#53718e" d="M 60.449219 115.355469 C 59.78125 110.816406 52.738281 111.847656 53.410156 116.386719 C 54.074219 120.925781 61.113281 119.894531 60.449219 115.355469 " fill-opacity="1" fill-rule="nonzero"/><path fill="#53718e" d="M 73.523438 97.785156 C 72.851562 93.25 65.8125 94.285156 66.480469 98.820312 C 67.144531 103.355469 74.191406 102.324219 73.523438 97.785156 " fill-opacity="1" fill-rule="nonzero"/><path fill="#53718e" d="M 77.0625 121.855469 C 76.398438 117.316406 69.355469 118.351562 70.019531 122.890625 C 70.6875 127.425781 77.730469 126.390625 77.0625 121.855469 " fill-opacity="1" fill-rule="nonzero"/><path fill="#53718e" d="M 90.492188 76.300781 C 89.824219 71.757812 82.777344 72.792969 83.445312 77.332031 C 84.113281 81.867188 91.15625 80.832031 90.492188 76.300781 " fill-opacity="1" fill-rule="nonzero"/><path fill="#53718e" d="M 85.851562 90.386719 C 85.183594 85.851562 78.140625 86.878906 78.808594 91.421875 C 79.480469 95.957031 86.519531 94.925781 85.851562 90.386719 " fill-opacity="1" fill-rule="nonzero"/><path fill="#53718e" d="M 101.367188 97.046875 C 100.703125 92.511719 93.660156 93.546875 94.324219 98.082031 C 94.996094 102.621094 102.035156 101.585938 101.367188 97.046875 " fill-opacity="1" fill-rule="nonzero"/><path fill="#53718e" d="M 127.800781 94.28125 C 127.136719 89.746094 120.09375 90.78125 120.761719 95.316406 C 121.429688 99.855469 128.46875 98.816406 127.800781 94.28125 " fill-opacity="1" fill-rule="nonzero"/><path fill="#53718e" d="M 130.542969 74.882812 C 129.871094 70.347656 122.832031 71.378906 123.496094 75.917969 C 124.164062 80.453125 131.207031 79.421875 130.542969 74.882812 " fill-opacity="1" fill-rule="nonzero"/><path fill="#53718e" d="M 146.992188 80.285156 C 146.324219 75.746094 139.285156 76.78125 139.949219 81.320312 C 140.617188 85.859375 147.660156 84.824219 146.992188 80.285156 " fill-opacity="1" fill-rule="nonzero"/><path fill="#53718e" d="M 153.363281 108.410156 C 152.695312 103.875 145.652344 104.902344 146.324219 109.445312 C 146.992188 113.980469 154.03125 112.945312 153.363281 108.410156 " fill-opacity="1" fill-rule="nonzero"/><path fill="#53718e" d="M 172.296875 107.863281 C 171.628906 103.324219 164.589844 104.359375 165.253906 108.894531 C 165.921875 113.4375 172.96875 112.402344 172.296875 107.863281 " fill-opacity="1" fill-rule="nonzero"/><path fill="#53718e" d="M 199.628906 134.019531 C 198.960938 129.484375 191.917969 130.519531 192.585938 135.054688 C 193.253906 139.59375 200.296875 138.558594 199.628906 134.019531 " fill-opacity="1" fill-rule="nonzero"/><path fill="#53718e" d="M 208.804688 120.382812 C 208.136719 115.84375 201.09375 116.875 201.761719 121.414062 C 202.429688 125.949219 209.472656 124.917969 208.804688 120.382812 " fill-opacity="1" fill-rule="nonzero"/><path fill="#53718e" d="M 221.8125 125.179688 C 221.144531 120.640625 214.101562 121.671875 214.769531 126.210938 C 215.433594 130.75 222.476562 129.710938 221.8125 125.179688 " fill-opacity="1" fill-rule="nonzero"/><path fill="#53718e" d="M 231.917969 148.273438 C 231.25 143.734375 224.210938 144.769531 224.875 149.308594 C 225.546875 153.851562 232.582031 152.8125 231.917969 148.273438 " fill-opacity="1" fill-rule="nonzero"/><path fill="#53718e" d="M 220.261719 167.871094 C 219.597656 163.332031 212.554688 164.367188 213.222656 168.90625 C 213.886719 173.441406 220.933594 172.40625 220.261719 167.871094 " fill-opacity="1" fill-rule="nonzero"/><path fill="#53718e" d="M 221.585938 146.441406 C 220.917969 141.902344 213.875 142.9375 214.542969 147.476562 C 215.207031 152.011719 222.253906 150.976562 221.585938 146.441406 " fill-opacity="1" fill-rule="nonzero"/><path fill="#53718e" d="M 205.582031 174.496094 C 204.917969 169.960938 197.871094 170.992188 198.539062 175.53125 C 199.207031 180.070312 206.25 179.03125 205.582031 174.496094 " fill-opacity="1" fill-rule="nonzero"/><path fill="#53718e" d="M 190.355469 162.203125 C 189.683594 157.664062 182.644531 158.699219 183.3125 163.238281 C 183.980469 167.777344 191.019531 166.742188 190.355469 162.203125 " fill-opacity="1" fill-rule="nonzero"/><path fill="#53718e" d="M 175.414062 144.28125 C 174.75 139.746094 167.707031 140.78125 168.375 145.316406 C 169.042969 149.855469 176.082031 148.824219 175.414062 144.28125 " fill-opacity="1" fill-rule="nonzero"/><path fill="#53718e" d="M 161.375 193.285156 C 160.707031 188.746094 153.667969 189.777344 154.335938 194.316406 C 155.003906 198.855469 162.042969 197.820312 161.375 193.285156 " fill-opacity="1" fill-rule="nonzero"/><path fill="#53718e" d="M 179.730469 203.996094 C 179.058594 199.457031 172.019531 200.496094 172.6875 205.03125 C 173.355469 209.570312 180.394531 208.535156 179.730469 203.996094 " fill-opacity="1" fill-rule="nonzero"/><path fill="#53718e" d="M 153.839844 225.679688 C 153.171875 221.140625 146.132812 222.175781 146.800781 226.71875 C 147.46875 231.253906 154.507812 230.21875 153.839844 225.679688 " fill-opacity="1" fill-rule="nonzero"/><path fill="#53718e" d="M 141.160156 223.074219 C 140.492188 218.539062 133.449219 219.570312 134.113281 224.109375 C 134.78125 228.648438 141.824219 227.613281 141.160156 223.074219 " fill-opacity="1" fill-rule="nonzero"/><path fill="#53718e" d="M 116.203125 205.507812 C 115.539062 200.96875 108.496094 202 109.167969 206.542969 C 109.832031 211.078125 116.875 210.042969 116.203125 205.507812 " fill-opacity="1" fill-rule="nonzero"/><path fill="#53718e" d="M 104.355469 216.191406 C 103.691406 211.652344 96.652344 212.683594 97.316406 217.222656 C 97.984375 221.761719 105.027344 220.726562 104.355469 216.191406 " fill-opacity="1" fill-rule="nonzero"/><path fill="#53718e" d="M 155.777344 124.820312 C 155.113281 120.28125 148.066406 121.3125 148.738281 125.851562 C 149.40625 130.390625 156.445312 129.359375 155.777344 124.820312 " fill-opacity="1" fill-rule="nonzero"/><path fill="#53718e" d="M 163.730469 156.058594 C 163.0625 151.519531 156.019531 152.558594 156.6875 157.09375 C 157.355469 161.632812 164.394531 160.59375 163.730469 156.058594 " fill-opacity="1" fill-rule="nonzero"/><path fill="#53718e" d="M 155.164062 166.257812 C 154.5 161.722656 147.457031 162.753906 148.121094 167.296875 C 148.792969 171.832031 155.832031 170.792969 155.164062 166.257812 " fill-opacity="1" fill-rule="nonzero"/><path fill="#53718e" d="M 172.097656 174.945312 C 171.429688 170.40625 164.386719 171.441406 165.054688 175.976562 C 165.726562 180.519531 172.765625 179.484375 172.097656 174.945312 " fill-opacity="1" fill-rule="nonzero"/><path fill="#53718e" d="M 135.171875 174.785156 C 134.503906 170.242188 127.460938 171.277344 128.132812 175.816406 C 128.800781 180.355469 135.839844 179.320312 135.171875 174.785156 " fill-opacity="1" fill-rule="nonzero"/><path fill="#53718e" d="M 148.597656 205.21875 C 147.929688 200.679688 140.890625 201.714844 141.554688 206.253906 C 142.21875 210.792969 149.261719 209.757812 148.597656 205.21875 " fill-opacity="1" fill-rule="nonzero"/><path fill="#53718e" d="M 196.761719 198.144531 C 196.09375 193.605469 189.050781 194.640625 189.71875 199.179688 C 190.386719 203.714844 197.429688 202.683594 196.761719 198.144531 " fill-opacity="1" fill-rule="nonzero"/><path fill="#53718e" d="M 191.546875 109.503906 C 190.882812 104.96875 183.839844 106 184.507812 110.539062 C 185.175781 115.078125 192.214844 114.042969 191.546875 109.503906 " fill-opacity="1" fill-rule="nonzero"/><path fill="#53718e" d="M 192.546875 85.886719 C 191.882812 81.347656 184.835938 82.382812 185.503906 86.921875 C 186.175781 91.460938 193.214844 90.425781 192.546875 85.886719 " fill-opacity="1" fill-rule="nonzero"/><path fill="#53718e" d="M 177.21875 88.144531 C 176.554688 83.605469 169.511719 84.636719 170.179688 89.175781 C 170.84375 93.71875 177.890625 92.675781 177.21875 88.144531 " fill-opacity="1" fill-rule="nonzero"/><path fill="#53718e" d="M 174.164062 67.355469 C 173.496094 62.816406 166.453125 63.851562 167.121094 68.386719 C 167.789062 72.925781 174.832031 71.894531 174.164062 67.355469 " fill-opacity="1" fill-rule="nonzero"/><path fill="#53718e" d="M 202.5 69.898438 C 201.828125 65.359375 194.785156 66.394531 195.453125 70.933594 C 196.121094 75.46875 203.164062 74.4375 202.5 69.898438 " fill-opacity="1" fill-rule="nonzero"/><path fill="#53718e" d="M 214.277344 81.574219 C 213.609375 77.035156 206.570312 78.070312 207.238281 82.613281 C 207.90625 87.148438 214.945312 86.113281 214.277344 81.574219 " fill-opacity="1" fill-rule="nonzero"/><path fill="#53718e" d="M 224.710938 106.867188 C 224.042969 102.328125 217 103.367188 217.667969 107.898438 C 218.335938 112.4375 225.375 111.40625 224.710938 106.867188 " fill-opacity="1" fill-rule="nonzero"/><path fill="#53718e" d="M 200.757812 103.683594 C 200.089844 99.144531 193.046875 100.179688 193.714844 104.71875 C 194.382812 109.257812 201.425781 108.222656 200.757812 103.683594 " fill-opacity="1" fill-rule="nonzero"/><path fill="#53718e" d="M 102.660156 67.800781 C 101.996094 63.261719 94.953125 64.296875 95.621094 68.835938 C 96.285156 73.375 103.328125 72.339844 102.660156 67.800781 " fill-opacity="1" fill-rule="nonzero"/><path fill="#53718e" d="M 144.867188 58.25 C 144.199219 53.707031 137.15625 54.746094 137.824219 59.285156 C 138.496094 63.816406 145.535156 62.785156 144.867188 58.25 " fill-opacity="1" fill-rule="nonzero"/><path fill="#53718e" d="M 175.09375 218.089844 C 174.425781 213.550781 167.382812 214.585938 168.050781 219.121094 C 168.71875 223.660156 175.761719 222.628906 175.09375 218.089844 " fill-opacity="1" fill-rule="nonzero"/><path fill="#53718e" d="M 131.851562 205.445312 C 131.183594 200.90625 124.144531 201.9375 124.8125 206.476562 C 125.480469 211.015625 132.523438 209.984375 131.851562 205.445312 " fill-opacity="1" fill-rule="nonzero"/><path fill="#53718e" d="M 115.890625 89.328125 C 115.222656 84.789062 108.179688 85.824219 108.847656 90.363281 C 109.511719 94.898438 116.554688 93.863281 115.890625 89.328125 " fill-opacity="1" fill-rule="nonzero"/><path fill="#53718e" d="M 174.871094 125.363281 C 174.203125 120.828125 167.164062 121.863281 167.828125 126.398438 C 168.496094 130.9375 175.539062 129.902344 174.871094 125.363281 " fill-opacity="1" fill-rule="nonzero"/><path fill="#53718e" d="M 149.46875 150.332031 C 148.800781 145.792969 141.757812 146.828125 142.425781 151.367188 C 143.09375 155.902344 150.132812 154.871094 149.46875 150.332031 " fill-opacity="1" fill-rule="nonzero"/><path fill="#53718e" d="M 125.808594 65.519531 C 125.140625 60.980469 118.097656 62.015625 118.769531 66.554688 C 119.4375 71.09375 126.476562 70.058594 125.808594 65.519531 " fill-opacity="1" fill-rule="nonzero"/><path fill="#53718e" d="M 159.128906 63.980469 C 158.464844 59.441406 151.421875 60.472656 152.089844 65.011719 C 152.753906 69.546875 159.796875 68.511719 159.128906 63.980469 " fill-opacity="1" fill-rule="nonzero"/><path fill="#53718e" d="M 137.71875 108.472656 C 137.046875 103.933594 130.007812 104.96875 130.675781 109.511719 C 131.339844 114.046875 138.382812 113.011719 137.71875 108.472656 " fill-opacity="1" fill-rule="nonzero"/><path fill="#53718e" d="M 205.25 155.546875 C 204.75 152.140625 199.46875 152.917969 199.96875 156.320312 C 200.46875 159.726562 205.75 158.949219 205.25 155.546875 " fill-opacity="1" fill-rule="nonzero"/><path fill="#53718e" d="M 211.496094 190.390625 C 210.996094 186.988281 205.710938 187.761719 206.214844 191.167969 C 206.714844 194.570312 211.996094 193.792969 211.496094 190.390625 " fill-opacity="1" fill-rule="nonzero"/><path fill="#53718e" d="M 189.570312 185.789062 C 189.066406 182.382812 183.789062 183.160156 184.289062 186.5625 C 184.789062 189.96875 190.070312 189.191406 189.570312 185.789062 " fill-opacity="1" fill-rule="nonzero"/><path fill="#53718e" d="M 119.316406 225.164062 C 118.816406 221.761719 113.535156 222.539062 114.035156 225.941406 C 114.539062 229.347656 119.820312 228.570312 119.316406 225.164062 " fill-opacity="1" fill-rule="nonzero"/><path fill="#53718e" d="M 118.742188 160.4375 C 118.238281 157.027344 112.960938 157.804688 113.457031 161.210938 C 113.960938 164.609375 119.238281 163.835938 118.742188 160.4375 " fill-opacity="1" fill-rule="nonzero"/><path fill="#53718e" d="M 120.738281 113.203125 C 120.238281 109.800781 114.953125 110.574219 115.457031 113.980469 C 115.957031 117.378906 121.242188 116.605469 120.738281 113.203125 " fill-opacity="1" fill-rule="nonzero"/><path fill="#53718e" d="M 107.929688 79.320312 C 107.425781 75.921875 102.148438 76.691406 102.644531 80.101562 C 103.148438 83.5 108.429688 82.722656 107.929688 79.320312 " fill-opacity="1" fill-rule="nonzero"/><path fill="#53718e" d="M 166.136719 79.707031 C 165.632812 76.308594 160.351562 77.078125 160.851562 80.488281 C 161.355469 83.886719 166.632812 83.117188 166.136719 79.707031 " fill-opacity="1" fill-rule="nonzero"/><path fill="#53718e" d="M 188.714844 65.953125 C 188.214844 62.554688 182.9375 63.324219 183.433594 66.730469 C 183.9375 70.132812 189.214844 69.359375 188.714844 65.953125 " fill-opacity="1" fill-rule="nonzero"/><path fill="#53718e" d="M 141.792969 134.695312 C 141.296875 131.289062 136.011719 132.066406 136.511719 135.472656 C 137.011719 138.875 142.296875 138.097656 141.792969 134.695312 " fill-opacity="1" fill-rule="nonzero"/><path fill="#53718e" d="M 157.921875 137.914062 C 157.421875 134.511719 152.140625 135.285156 152.640625 138.6875 C 153.144531 142.09375 158.425781 141.316406 157.921875 137.914062 " fill-opacity="1" fill-rule="nonzero"/><path fill="#53718e" d="M 148.101562 185.171875 C 147.605469 181.769531 142.320312 182.546875 142.824219 185.949219 C 143.320312 189.351562 148.601562 188.578125 148.101562 185.171875 " fill-opacity="1" fill-rule="nonzero"/><path fill="#53718e" d="M 161.976562 211.074219 C 161.476562 207.671875 156.195312 208.449219 156.699219 211.851562 C 157.195312 215.253906 162.480469 214.480469 161.976562 211.074219 " fill-opacity="1" fill-rule="nonzero"/></svg>