<svg xmlns="http://www.w3.org/2000/svg" xmlns:xlink="http://www.w3.org/1999/xlink" width="500" zoomAndPan="magnify" viewBox="0 0 375 374.999991" height="500" preserveAspectRatio="xMidYMid meet" version="1.0"><defs><clipPath id="629b194fcb"><path d="M 208 49.738281 L 225 49.738281 L 225 70 L 208 70 Z M 208 49.738281 " clip-rule="nonzero"/></clipPath><clipPath id="16cb1c3bb0"><path d="M 103 310 L 116 310 L 116 324.988281 L 103 324.988281 Z M 103 310 " clip-rule="nonzero"/></clipPath></defs><path fill="#849c84" d="M 127.117188 314.640625 C 126.738281 312.636719 126.515625 310.613281 126.445312 308.578125 C 126.5 305.957031 127.128906 303.351562 127.355469 300.738281 C 127.914062 296.933594 129.1875 293.390625 131.175781 290.101562 C 134.671875 283.398438 138.8125 277.136719 146.710938 274.785156 C 147.984375 274.402344 149.230469 273.910156 150.472656 273.414062 C 151.023438 273.136719 151.601562 272.949219 152.210938 272.84375 C 152.816406 272.742188 153.425781 272.726562 154.039062 272.800781 C 154.652344 272.878906 155.238281 273.042969 155.800781 273.289062 C 156.367188 273.539062 156.882812 273.867188 157.347656 274.269531 C 157.773438 274.539062 158.144531 274.867188 158.460938 275.253906 C 158.78125 275.640625 159.035156 276.066406 159.21875 276.53125 C 159.40625 277 159.515625 277.484375 159.546875 277.984375 C 159.582031 278.484375 159.535156 278.976562 159.414062 279.464844 C 157.75 285.277344 155.464844 290.835938 152.558594 296.140625 C 150.332031 300.59375 146.742188 304 143.726562 307.855469 C 140.800781 311.597656 136.734375 313.800781 133.332031 316.867188 C 131.542969 318.476562 129.015625 317.679688 127.117188 314.640625 Z M 133.832031 309.585938 C 142.59375 305.617188 152.480469 286.585938 152.28125 280.554688 C 139.8125 282.253906 131.269531 299.292969 133.832031 309.585938 Z M 133.832031 309.585938 " fill-opacity="1" fill-rule="nonzero"/><path fill="#849c84" d="M 264.164062 173.128906 C 264.644531 173.625 265.039062 174.183594 265.34375 174.804688 C 265.652344 175.425781 265.855469 176.078125 265.960938 176.761719 C 266.0625 177.445312 266.058594 178.128906 265.949219 178.8125 C 265.839844 179.492188 265.628906 180.144531 265.316406 180.761719 C 263.941406 184.191406 262.890625 187.777344 261.257812 191.078125 C 260.171875 193.316406 258.679688 195.242188 256.78125 196.855469 C 253.832031 199.265625 250.664062 201.355469 247.285156 203.117188 C 243.347656 205.15625 239.234375 204.324219 235.40625 202.4375 C 234.988281 202.261719 234.625 202.007812 234.316406 201.679688 C 234.003906 201.355469 233.769531 200.980469 233.613281 200.554688 C 233.457031 200.132812 233.390625 199.695312 233.417969 199.242188 C 233.441406 198.792969 233.554688 198.367188 233.753906 197.960938 C 235.597656 193.886719 236.347656 189.242188 239.832031 185.992188 C 240.292969 185.4375 240.65625 184.820312 240.921875 184.148438 C 241.828125 182.242188 243.054688 180.566406 244.601562 179.125 C 246.148438 177.683594 247.90625 176.578125 249.875 175.808594 C 252.492188 174.816406 255.058594 173.679688 257.746094 172.765625 C 260.167969 171.933594 262.164062 173.011719 264.164062 173.128906 Z M 256.855469 180.125 C 249.835938 179.132812 243.011719 190.21875 242.277344 196.4375 C 247.4375 196.34375 256.851562 187.304688 256.855469 180.128906 Z M 256.855469 180.125 " fill-opacity="1" fill-rule="nonzero"/><path fill="#849c84" d="M 190.539062 175.9375 C 191.390625 177.667969 192.523438 179.636719 193.355469 181.726562 C 194.183594 183.722656 194.738281 185.792969 195.015625 187.9375 C 195.296875 190.078125 195.292969 192.222656 195.007812 194.363281 C 194.9375 194.976562 194.710938 195.519531 194.316406 195.992188 C 193.921875 196.46875 193.433594 196.796875 192.84375 196.976562 C 192.105469 197.296875 191.335938 197.511719 190.539062 197.617188 C 189.738281 197.726562 188.941406 197.726562 188.144531 197.613281 C 187.347656 197.5 186.578125 197.285156 185.839844 196.960938 C 185.105469 196.636719 184.425781 196.21875 183.800781 195.707031 C 180.914062 193.957031 178.402344 191.769531 176.269531 189.152344 C 174.136719 186.535156 172.503906 183.636719 171.371094 180.453125 C 169.863281 175.808594 168.472656 171.03125 169.753906 165.964844 C 169.785156 165.75 169.832031 165.535156 169.890625 165.328125 C 169.949219 165.117188 170.023438 164.914062 170.105469 164.710938 C 170.191406 164.511719 170.289062 164.316406 170.398438 164.128906 C 170.507812 163.941406 170.628906 163.757812 170.761719 163.585938 C 170.894531 163.414062 171.035156 163.246094 171.1875 163.09375 C 171.339844 162.9375 171.503906 162.792969 171.675781 162.65625 C 171.847656 162.523438 172.023438 162.398438 172.210938 162.285156 C 172.398438 162.175781 172.589844 162.074219 172.792969 161.984375 C 172.992188 161.898438 173.195312 161.824219 173.402344 161.761719 C 173.613281 161.699219 173.824219 161.648438 174.039062 161.613281 C 174.253906 161.578125 174.472656 161.554688 174.6875 161.546875 C 174.90625 161.539062 175.125 161.542969 175.339844 161.5625 C 175.558594 161.582031 175.773438 161.613281 175.988281 161.660156 C 176.199219 161.707031 176.410156 161.765625 176.613281 161.835938 C 176.820312 161.910156 177.019531 161.996094 177.214844 162.09375 C 177.410156 162.191406 177.597656 162.300781 177.78125 162.421875 C 180.410156 164.136719 182.804688 166.140625 184.960938 168.425781 C 187.113281 170.707031 188.976562 173.210938 190.539062 175.9375 Z M 187.441406 189.117188 C 188.097656 183.425781 182.058594 171.71875 177.101562 169.089844 C 175.089844 176.1875 180.863281 187.363281 187.429688 189.117188 Z M 187.441406 189.117188 " fill-opacity="1" fill-rule="nonzero"/><path fill="#849c84" d="M 166.40625 231.777344 C 163.46875 232.691406 160.644531 233.585938 157.808594 234.4375 C 156.734375 234.757812 155.589844 234.863281 154.546875 235.261719 C 153.804688 235.515625 153.046875 235.550781 152.285156 235.363281 C 151.519531 235.179688 150.867188 234.800781 150.324219 234.230469 C 150.035156 234.007812 149.792969 233.746094 149.597656 233.441406 C 149.402344 233.136719 149.261719 232.808594 149.179688 232.453125 C 149.097656 232.101562 149.078125 231.746094 149.117188 231.386719 C 149.15625 231.023438 149.257812 230.683594 149.417969 230.355469 C 150.933594 225.386719 153.277344 220.84375 156.449219 216.726562 C 158.96875 213.59375 161.785156 210.746094 164.890625 208.1875 C 167.234375 206.339844 169.746094 204.757812 172.421875 203.441406 C 172.691406 203.300781 172.972656 203.195312 173.265625 203.121094 C 173.5625 203.050781 173.859375 203.011719 174.164062 203.011719 C 174.464844 203.011719 174.765625 203.046875 175.058594 203.121094 C 175.351562 203.191406 175.632812 203.300781 175.902344 203.4375 C 176.171875 203.578125 176.417969 203.75 176.648438 203.949219 C 176.875 204.152344 177.074219 204.375 177.246094 204.625 C 177.417969 204.875 177.558594 205.140625 177.667969 205.421875 C 177.777344 205.703125 177.851562 205.996094 177.886719 206.296875 C 178.054688 207.394531 178.121094 208.5 178.078125 209.609375 C 178.078125 211.558594 177.953125 213.507812 178.015625 215.449219 C 178.082031 216.328125 177.984375 217.1875 177.726562 218.027344 C 177.46875 218.867188 177.066406 219.632812 176.523438 220.324219 C 175.453125 221.671875 174.816406 223.390625 173.660156 224.640625 C 171.382812 227.109375 168.875 229.375 166.40625 231.777344 Z M 171.292969 212.632812 C 165.902344 214.675781 159.425781 222.578125 159.210938 227.007812 C 163.78125 224.859375 167.773438 222.320312 170.039062 217.808594 C 170.636719 216.128906 171.054688 214.402344 171.292969 212.632812 Z M 171.292969 212.632812 " fill-opacity="1" fill-rule="nonzero"/><path fill="#849c84" d="M 192.523438 108.082031 C 193.363281 109.464844 194.234375 110.835938 195.035156 112.242188 C 196.082031 114.238281 196.789062 116.347656 197.167969 118.570312 C 197.542969 120.789062 197.566406 123.015625 197.234375 125.242188 C 196.699219 129.8125 195.609375 134.246094 193.96875 138.546875 C 192.769531 141.96875 191.375 142.589844 187.910156 141.765625 C 182.652344 140.488281 181.164062 138.800781 180.617188 133.4375 C 180.398438 131.304688 180.203125 129.167969 180.019531 127.03125 C 179.789062 123.292969 180.390625 119.691406 181.820312 116.226562 C 182.609375 114.121094 183.472656 112.03125 184.339844 109.957031 C 184.65625 109.199219 185.054688 108.488281 185.539062 107.824219 C 187.875 104.625 190.355469 104.753906 192.523438 108.082031 Z M 189.96875 114.890625 C 185.722656 119.886719 184.769531 129 187.96875 133.664062 C 190.285156 130.199219 190.457031 126.238281 190.828125 122.472656 C 191.066406 120.117188 192.011719 117.402344 189.96875 114.886719 Z M 189.96875 114.890625 " fill-opacity="1" fill-rule="nonzero"/><path fill="#849c84" d="M 180.878906 239.582031 C 177.925781 237.753906 177.195312 236.28125 178.113281 232.871094 C 178.59375 229.914062 179.625 227.160156 181.210938 224.617188 C 182.117188 223.019531 182.835938 221.34375 183.367188 219.585938 C 183.722656 218.738281 184.171875 217.941406 184.707031 217.195312 C 185.554688 215.910156 186.554688 214.757812 187.703125 213.738281 C 188.855469 212.71875 190.117188 211.863281 191.492188 211.175781 C 192.867188 210.488281 194.308594 209.988281 195.816406 209.679688 C 197.324219 209.371094 198.84375 209.261719 200.378906 209.355469 C 201.015625 209.332031 201.648438 209.257812 202.269531 209.128906 C 202.644531 209.390625 202.957031 209.710938 203.210938 210.089844 C 203.464844 210.46875 203.640625 210.882812 203.738281 211.328125 C 203.835938 211.773438 203.851562 212.222656 203.78125 212.671875 C 203.707031 213.121094 203.558594 213.542969 203.328125 213.9375 C 202.6875 216.296875 202.253906 218.695312 202.019531 221.128906 C 201.628906 223.074219 200.996094 224.9375 200.125 226.71875 C 199.253906 228.5 198.171875 230.144531 196.878906 231.644531 C 195.585938 233.148438 194.121094 234.464844 192.488281 235.59375 C 190.859375 236.722656 189.109375 237.625 187.246094 238.300781 C 185.164062 238.9375 183.042969 239.363281 180.878906 239.582031 Z M 197.867188 215.269531 C 197.21875 215.160156 196.5625 215.136719 195.90625 215.199219 C 195.25 215.261719 194.613281 215.414062 193.996094 215.648438 C 193.378906 215.886719 192.804688 216.199219 192.273438 216.589844 C 191.742188 216.980469 191.273438 217.433594 190.863281 217.953125 C 188.117188 221.257812 186.355469 225.023438 185.578125 229.25 C 185.460938 230.117188 185.390625 230.988281 185.371094 231.863281 C 187.007812 231.089844 188.527344 230.132812 189.929688 228.988281 C 191.335938 227.847656 192.582031 226.554688 193.667969 225.109375 C 194.757812 223.664062 195.65625 222.109375 196.367188 220.445312 C 197.078125 218.78125 197.578125 217.054688 197.867188 215.269531 Z M 197.867188 215.269531 " fill-opacity="1" fill-rule="nonzero"/><path fill="#849c84" d="M 152.960938 262.394531 C 149.660156 265.101562 145.851562 265.621094 142.171875 266.5 C 141.289062 266.71875 140.441406 267.035156 139.632812 267.449219 C 138.8125 267.882812 137.9375 268.09375 137.007812 268.089844 C 136.082031 268.082031 135.210938 267.855469 134.394531 267.414062 C 133.863281 266.644531 133.5625 265.792969 133.488281 264.859375 C 133.414062 263.925781 133.578125 263.039062 133.984375 262.195312 C 134.59375 260.523438 135.375 258.933594 136.324219 257.425781 C 137.273438 255.921875 138.371094 254.53125 139.621094 253.261719 C 140.867188 251.992188 142.234375 250.867188 143.722656 249.886719 C 145.214844 248.910156 146.789062 248.101562 148.449219 247.457031 C 152.019531 245.839844 155.722656 244.636719 159.5625 243.847656 C 160.992188 243.574219 162.386719 243.699219 163.75 244.214844 C 166.6875 245.371094 167.066406 248.003906 164.894531 250.261719 C 162.730469 252.566406 160.703125 254.992188 158.820312 257.535156 C 157.34375 259.730469 155.394531 261.351562 152.960938 262.394531 Z M 142.589844 260.757812 C 148.457031 259.265625 154.101562 255 155.363281 251.253906 C 147.835938 253.535156 143.792969 256.484375 142.589844 260.757812 Z M 142.589844 260.757812 " fill-opacity="1" fill-rule="nonzero"/><path fill="#849c84" d="M 175.675781 253.875 C 176.683594 253.207031 177.757812 252.652344 178.886719 252.210938 C 180.015625 251.773438 181.179688 251.460938 182.378906 251.269531 C 183.574219 251.078125 184.777344 251.019531 185.988281 251.089844 C 187.199219 251.15625 188.386719 251.351562 189.558594 251.675781 C 191.40625 252.207031 193.402344 252.207031 195.273438 252.671875 C 198.457031 253.460938 199.019531 254.71875 198.332031 257.847656 C 198.179688 258.734375 197.90625 259.585938 197.511719 260.394531 C 197.117188 261.207031 196.621094 261.949219 196.015625 262.621094 C 195.414062 263.292969 194.730469 263.867188 193.96875 264.347656 C 193.203125 264.828125 192.386719 265.191406 191.519531 265.441406 C 186.773438 267.0625 182.125 269.03125 177.34375 270.554688 C 175.050781 271.148438 172.71875 271.484375 170.351562 271.558594 C 170.082031 271.597656 169.8125 271.601562 169.542969 271.578125 C 169.269531 271.550781 169.007812 271.492188 168.75 271.402344 C 168.492188 271.3125 168.25 271.195312 168.023438 271.042969 C 167.796875 270.894531 167.589844 270.722656 167.40625 270.523438 C 167.21875 270.324219 167.0625 270.105469 166.929688 269.867188 C 166.796875 269.632812 166.695312 269.382812 166.625 269.117188 C 166.554688 268.855469 166.515625 268.589844 166.507812 268.316406 C 166.5 268.046875 166.527344 267.777344 166.585938 267.511719 C 167.472656 263.617188 168.527344 259.757812 172.1875 257.242188 C 173.464844 256.242188 174.628906 255.117188 175.675781 253.875 Z M 173.230469 266.425781 C 174.820312 267.632812 175.863281 266.648438 176.929688 266.21875 C 180.027344 264.933594 183.125 263.628906 186.191406 262.246094 C 187.78125 261.539062 189.308594 260.71875 190.78125 259.792969 C 191.042969 259.667969 191.25 259.484375 191.398438 259.230469 C 191.546875 258.980469 191.609375 258.710938 191.589844 258.421875 C 191.570312 258.128906 191.472656 257.871094 191.292969 257.640625 C 191.113281 257.414062 190.886719 257.253906 190.609375 257.164062 C 189.117188 256.433594 187.542969 256.03125 185.882812 255.960938 C 184.222656 255.886719 182.621094 256.152344 181.070312 256.753906 C 180.085938 257.195312 179.164062 257.75 178.308594 258.410156 C 177.453125 259.070312 176.683594 259.820312 176.003906 260.660156 C 175.324219 261.5 174.75 262.40625 174.28125 263.378906 C 173.8125 264.355469 173.464844 265.371094 173.230469 266.425781 Z M 173.230469 266.425781 " fill-opacity="1" fill-rule="nonzero"/><path fill="#849c84" d="M 219.433594 164.117188 C 211.6875 166.785156 204.058594 169.113281 196.039062 165.792969 C 193.996094 164.871094 192.09375 163.71875 190.328125 162.335938 C 190.148438 162.171875 189.988281 161.988281 189.851562 161.785156 C 189.714844 161.585938 189.601562 161.371094 189.515625 161.144531 C 189.429688 160.914062 189.371094 160.679688 189.335938 160.4375 C 189.304688 160.195312 189.300781 159.953125 189.328125 159.710938 C 189.351562 159.46875 189.40625 159.234375 189.484375 159.003906 C 189.566406 158.773438 189.671875 158.554688 189.800781 158.347656 C 189.933594 158.144531 190.085938 157.957031 190.261719 157.789062 C 190.4375 157.617188 190.632812 157.472656 190.839844 157.347656 C 192.859375 156.101562 195.027344 155.242188 197.347656 154.761719 C 201.695312 154.136719 206.066406 153.75 210.457031 153.59375 C 214.625 153.386719 218.167969 155.449219 221.648438 157.371094 C 223.277344 158.273438 223.390625 159.332031 222.269531 160.941406 C 221.390625 162.0625 220.445312 163.121094 219.433594 164.117188 Z M 211.730469 160.355469 C 208.085938 158.34375 201.5625 158.628906 198.863281 160.945312 C 200.980469 161.566406 203.144531 161.824219 205.347656 161.722656 C 207.550781 161.621094 209.679688 161.167969 211.730469 160.355469 Z M 211.730469 160.355469 " fill-opacity="1" fill-rule="nonzero"/><path fill="#849c84" d="M 115.839844 293.660156 C 113.363281 295.898438 111.320312 297.726562 109.289062 299.558594 C 105.035156 303.363281 100.199219 306.152344 94.78125 307.9375 C 90.550781 309.378906 86.695312 307.984375 82.863281 306.539062 C 82.160156 306.273438 81.765625 305.171875 81.246094 304.476562 C 81.835938 302.859375 82.851562 301.574219 84.289062 300.625 C 86.707031 298.929688 88.839844 296.828125 91.101562 294.914062 C 91.542969 294.480469 92.039062 294.121094 92.59375 293.84375 C 97.425781 291.886719 102.191406 289.714844 107.15625 288.164062 C 109.773438 287.632812 112.410156 287.496094 115.066406 287.753906 C 116.378906 287.753906 118.898438 290.398438 118.785156 291.636719 C 118.621094 292.425781 118.1875 293.023438 117.492188 293.429688 C 116.960938 293.648438 116.410156 293.726562 115.839844 293.660156 Z M 108.359375 294.179688 L 107.820312 293.503906 C 102.863281 294.46875 98.175781 296.183594 93.761719 298.636719 C 92.5 299.375 91.390625 300.292969 90.429688 301.390625 C 89.464844 302.488281 88.703125 303.710938 88.136719 305.054688 C 89.632812 305.296875 91.125 305.285156 92.617188 305.023438 C 94.105469 304.765625 95.515625 304.265625 96.835938 303.53125 C 99.609375 301.78125 102.300781 299.878906 104.886719 297.863281 C 106.144531 296.726562 107.300781 295.5 108.359375 294.179688 Z M 108.359375 294.179688 " fill-opacity="1" fill-rule="nonzero"/><path fill="#849c84" d="M 215.992188 139.363281 C 215.371094 139.734375 214.867188 140.074219 214.324219 140.367188 C 213.613281 140.816406 212.839844 141.054688 212 141.074219 C 211.160156 141.09375 210.375 140.898438 209.640625 140.480469 C 208.910156 140.066406 208.339844 139.492188 207.929688 138.757812 C 207.515625 138.027344 207.324219 137.238281 207.347656 136.398438 C 207.398438 134.554688 207.859375 132.816406 208.726562 131.183594 C 210.136719 128.574219 211.707031 126.0625 213.433594 123.644531 C 213.941406 122.867188 214.644531 122.351562 215.535156 122.089844 C 220.363281 121.191406 225.214844 120.402344 230.074219 119.691406 C 230.480469 119.648438 230.886719 119.664062 231.289062 119.742188 C 231.6875 119.820312 232.070312 119.953125 232.429688 120.144531 C 232.792969 120.335938 233.117188 120.578125 233.40625 120.867188 C 233.695312 121.15625 233.9375 121.480469 234.128906 121.839844 C 234.222656 122.214844 234.253906 122.589844 234.226562 122.972656 C 234.199219 123.355469 234.113281 123.726562 233.96875 124.082031 C 233.824219 124.4375 233.628906 124.761719 233.378906 125.054688 C 233.128906 125.347656 232.839844 125.59375 232.511719 125.792969 C 226.988281 130.339844 221.453125 134.878906 215.992188 139.363281 Z M 220.175781 127.757812 C 217.308594 127.617188 217.242188 127.671875 216.886719 130.167969 Z M 220.175781 127.757812 " fill-opacity="1" fill-rule="nonzero"/><path fill="#849c84" d="M 231.667969 177.621094 C 231.414062 177.003906 231.160156 176.691406 231.207031 176.433594 C 231.65625 173.898438 229.761719 171.988281 229.425781 169.722656 C 229.082031 166.988281 228.96875 164.242188 229.089844 161.488281 C 229.15625 159.4375 229.417969 157.410156 229.878906 155.410156 C 230.214844 153.910156 230.777344 152.496094 231.5625 151.171875 C 231.851562 150.722656 232.210938 150.339844 232.644531 150.027344 C 233.078125 149.71875 233.554688 149.496094 234.070312 149.367188 C 234.589844 149.234375 235.113281 149.207031 235.640625 149.273438 C 236.171875 149.34375 236.667969 149.507812 237.136719 149.769531 C 240.550781 151.0625 241.03125 154.101562 241.675781 156.921875 C 242.007812 158.585938 242.183594 160.265625 242.210938 161.960938 C 242.234375 163.65625 242.109375 165.339844 241.828125 167.011719 C 241.550781 168.6875 241.125 170.320312 240.546875 171.914062 C 239.972656 173.511719 239.257812 175.042969 238.40625 176.507812 C 237.140625 178.953125 235.722656 179.574219 233.707031 178.875 C 232.976562 178.542969 232.296875 178.125 231.667969 177.621094 Z M 231.667969 177.621094 " fill-opacity="1" fill-rule="nonzero"/><path fill="#849c84" d="M 216.578125 178.777344 C 217.324219 178.761719 218.050781 178.863281 218.765625 179.082031 C 219.558594 179.394531 220.148438 179.929688 220.535156 180.6875 C 222.160156 185.308594 225.089844 189.53125 225.546875 194.46875 C 225.730469 196.542969 225.578125 198.589844 225.089844 200.609375 C 224.601562 202.632812 223.808594 204.523438 222.703125 206.285156 C 220.941406 209.132812 218.441406 209.097656 216.246094 206.519531 C 215.023438 205.269531 213.878906 203.953125 212.8125 202.570312 C 211.6875 201.210938 210.964844 199.660156 210.644531 197.921875 C 210.441406 192.054688 210.722656 186.1875 214.324219 181.113281 C 214.691406 180.621094 215.089844 180.148438 215.511719 179.703125 C 215.714844 179.476562 215.972656 179.292969 216.578125 178.777344 Z M 218.023438 188.769531 C 215.722656 193.167969 215.890625 196.550781 218.378906 198.953125 C 218.914062 197.285156 219.15625 195.582031 219.09375 193.832031 C 219.035156 192.082031 218.683594 190.394531 218.03125 188.769531 Z M 218.023438 188.769531 " fill-opacity="1" fill-rule="nonzero"/><path fill="#849c84" d="M 240.21875 239.0625 C 241.050781 240.511719 241.65625 242.050781 242.042969 243.675781 C 242.429688 245.300781 242.578125 246.949219 242.492188 248.617188 C 242.144531 253.917969 241.339844 259.195312 237.84375 263.566406 C 237.417969 264.144531 236.910156 264.640625 236.316406 265.050781 C 233.457031 266.8125 231.410156 265.726562 230.890625 262.445312 C 230.507812 260.046875 229.664062 257.722656 229.261719 255.328125 C 228.261719 249.34375 228.171875 243.5 232.273438 238.40625 C 232.628906 237.90625 232.957031 237.386719 233.25 236.84375 C 233.4375 236.328125 233.75 235.90625 234.191406 235.574219 C 234.628906 235.246094 235.121094 235.058594 235.667969 235.015625 C 236.214844 234.972656 236.730469 235.082031 237.214844 235.339844 C 237.699219 235.601562 238.074219 235.972656 238.339844 236.449219 C 238.933594 237.152344 239.421875 237.941406 240.21875 239.0625 Z M 235.917969 243.988281 C 234.867188 247.011719 232.613281 249.988281 235.222656 253.738281 C 236.046875 252.242188 236.519531 250.640625 236.640625 248.9375 C 236.761719 247.234375 236.519531 245.585938 235.917969 243.988281 Z M 235.917969 243.988281 " fill-opacity="1" fill-rule="nonzero"/><path fill="#849c84" d="M 187.804688 89.277344 C 184.875 84.609375 185.230469 80.070312 185.550781 75.558594 C 185.910156 73.535156 186.117188 71.496094 186.171875 69.441406 C 186.160156 68.652344 186.359375 67.917969 186.765625 67.242188 C 187.175781 66.566406 187.734375 66.050781 188.441406 65.695312 C 189.144531 65.339844 189.890625 65.199219 190.679688 65.269531 C 191.464844 65.34375 192.171875 65.617188 192.800781 66.097656 C 194.34375 67.164062 195.605469 68.492188 196.597656 70.082031 C 197.585938 71.667969 198.222656 73.390625 198.5 75.242188 C 198.851562 77.792969 198.875 80.351562 198.570312 82.910156 C 198.265625 85.464844 197.644531 87.945312 196.703125 90.34375 C 195.382812 93.988281 192.554688 94.65625 189.921875 91.886719 C 189.003906 90.925781 188.242188 89.820312 187.804688 89.277344 Z M 192.140625 79.175781 C 191.917969 79.128906 191.8125 79.066406 191.742188 79.097656 C 191.644531 79.140625 191.589844 79.214844 191.574219 79.320312 C 191.613281 80.234375 191.667969 81.144531 191.71875 82.058594 L 192.242188 82.007812 C 192.214844 81.050781 192.179688 80.097656 192.148438 79.175781 Z M 192.140625 79.175781 " fill-opacity="1" fill-rule="nonzero"/><path fill="#849c84" d="M 176.546875 299.140625 C 176.0625 299.519531 175.511719 299.75 174.902344 299.832031 C 174.289062 299.914062 173.699219 299.835938 173.128906 299.597656 C 172.558594 299.355469 172.089844 298.992188 171.722656 298.496094 C 171.351562 298.003906 171.132812 297.449219 171.0625 296.835938 C 170.738281 294.316406 171.171875 291.933594 172.363281 289.691406 C 173.222656 287.539062 174.355469 285.539062 175.761719 283.695312 C 177.167969 281.855469 178.792969 280.234375 180.644531 278.839844 C 183.464844 276.828125 186.601562 275.65625 190.050781 275.332031 C 192.953125 275 194.53125 277.324219 193.410156 280.199219 C 192.527344 282.386719 191.503906 284.503906 190.339844 286.558594 C 189.164062 288.636719 187.5625 290.308594 185.539062 291.578125 C 182.664062 293.710938 179.925781 296.007812 177.328125 298.46875 C 177.015625 298.722656 176.710938 298.992188 176.546875 299.140625 Z M 185.679688 282.914062 C 182.40625 284.125 179.832031 285.957031 179.144531 289.527344 C 180.566406 288.8125 181.835938 287.886719 182.953125 286.753906 C 184.070312 285.621094 184.980469 284.34375 185.679688 282.914062 Z M 185.679688 282.914062 " fill-opacity="1" fill-rule="nonzero"/><path fill="#849c84" d="M 247.542969 216.363281 C 245.515625 218.671875 243.125 220.503906 240.371094 221.863281 C 236.289062 223.527344 232.230469 225.25 228.09375 226.769531 C 226.457031 227.390625 224.765625 227.699219 223.011719 227.695312 C 221.675781 227.644531 220.53125 227.144531 219.582031 226.203125 C 219.382812 225.929688 219.238281 225.628906 219.144531 225.300781 C 219.050781 224.976562 219.015625 224.644531 219.035156 224.304688 C 219.058594 223.96875 219.132812 223.644531 219.269531 223.332031 C 219.402344 223.019531 219.582031 222.738281 219.8125 222.492188 C 220.78125 221.164062 221.703125 219.808594 222.625 218.445312 C 222.964844 217.867188 223.367188 217.339844 223.832031 216.859375 C 224.300781 216.378906 224.816406 215.964844 225.386719 215.609375 C 225.953125 215.257812 226.558594 214.976562 227.195312 214.773438 C 227.832031 214.566406 228.484375 214.441406 229.152344 214.394531 C 229.96875 214.269531 230.75 214.03125 231.496094 213.667969 C 234.855469 212.386719 238.332031 211.71875 241.925781 211.660156 C 245.84375 211.5625 246.460938 212.171875 247.542969 216.363281 Z M 232.5625 218.449219 C 228.710938 217.820312 228.113281 218.175781 227.265625 221.175781 C 229.316406 221.109375 230.425781 219.550781 232.5625 218.449219 Z M 232.5625 218.449219 " fill-opacity="1" fill-rule="nonzero"/><path fill="#849c84" d="M 205.3125 289.765625 C 204.167969 287.769531 203.304688 285.660156 202.722656 283.433594 C 202.144531 281.210938 201.867188 278.949219 201.894531 276.648438 C 201.96875 273.988281 202.285156 271.355469 202.84375 268.753906 C 203.226562 267.0625 203.886719 265.488281 204.828125 264.03125 C 205.011719 263.679688 205.273438 263.402344 205.617188 263.207031 C 205.960938 263.007812 206.332031 262.917969 206.726562 262.9375 C 207.121094 262.957031 207.480469 263.082031 207.804688 263.3125 C 208.125 263.542969 208.359375 263.839844 208.507812 264.210938 C 208.964844 265.019531 209.261719 265.882812 209.398438 266.800781 C 210.359375 272.128906 211.363281 277.453125 212.144531 282.808594 C 212.402344 285.15625 212.480469 287.507812 212.378906 289.863281 C 212.394531 290.414062 212.261719 290.929688 211.980469 291.40625 C 211.695312 291.878906 211.308594 292.246094 210.816406 292.496094 C 210.324219 292.75 209.804688 292.847656 209.253906 292.800781 C 208.703125 292.75 208.207031 292.558594 207.769531 292.222656 C 206.871094 291.484375 206.050781 290.664062 205.3125 289.765625 Z M 205.3125 289.765625 " fill-opacity="1" fill-rule="nonzero"/><path fill="#849c84" d="M 216.679688 232.871094 C 217.289062 233.984375 217.632812 235.179688 217.714844 236.445312 C 217.800781 237.714844 217.609375 238.941406 217.148438 240.125 C 216.515625 241.929688 215.984375 243.765625 215.554688 245.625 C 214.570312 248.515625 213.46875 251.375 212.394531 254.234375 C 212.253906 254.648438 212.050781 255.035156 211.792969 255.386719 C 211.53125 255.742188 211.222656 256.046875 210.871094 256.304688 C 210.515625 256.566406 210.132812 256.765625 209.714844 256.90625 C 209.300781 257.050781 208.875 257.125 208.433594 257.136719 C 208.046875 257.113281 207.667969 257.027344 207.304688 256.882812 C 206.941406 256.738281 206.613281 256.539062 206.3125 256.285156 C 206.015625 256.035156 205.765625 255.738281 205.5625 255.40625 C 205.363281 255.070312 205.21875 254.714844 205.132812 254.332031 C 204.652344 252.867188 204.40625 251.359375 204.394531 249.816406 C 204.371094 248.199219 204.515625 246.59375 204.828125 245.007812 C 205.140625 243.417969 205.609375 241.878906 206.238281 240.386719 C 206.867188 238.894531 207.644531 237.484375 208.566406 236.152344 C 209.488281 234.820312 210.535156 233.597656 211.710938 232.484375 C 212 232.058594 212.375 231.730469 212.839844 231.507812 C 213.304688 231.285156 213.792969 231.191406 214.308594 231.230469 C 214.820312 231.273438 215.289062 231.4375 215.714844 231.730469 C 216.136719 232.023438 216.460938 232.40625 216.679688 232.871094 Z M 210.84375 244.171875 L 210.222656 243.917969 L 209.925781 245.328125 L 210.386719 245.457031 Z M 210.84375 244.171875 " fill-opacity="1" fill-rule="nonzero"/><path fill="#849c84" d="M 157.949219 203.535156 C 157.78125 203.652344 157.621094 203.78125 157.445312 203.890625 C 153.628906 206.28125 151.679688 206.074219 148.453125 203.03125 C 148.203125 202.847656 147.996094 202.628906 147.832031 202.367188 C 147.667969 202.105469 147.558594 201.820312 147.503906 201.519531 C 147.449219 201.214844 147.453125 200.910156 147.515625 200.609375 C 147.578125 200.304688 147.691406 200.027344 147.863281 199.769531 C 148.417969 198.6875 148.8125 197.546875 149.050781 196.355469 C 149.171875 195.847656 149.335938 195.355469 149.539062 194.878906 C 149.746094 194.398438 149.992188 193.941406 150.277344 193.503906 C 150.5625 193.066406 150.882812 192.660156 151.242188 192.277344 C 151.597656 191.898438 151.984375 191.550781 152.398438 191.238281 C 152.816406 190.921875 153.257812 190.648438 153.71875 190.410156 C 154.183594 190.171875 154.667969 189.976562 155.164062 189.820312 C 155.664062 189.667969 156.171875 189.558594 156.6875 189.492188 C 157.203125 189.425781 157.722656 189.402344 158.246094 189.425781 C 160.984375 189.726562 163.71875 190.132812 166.414062 190.683594 C 167.308594 190.960938 168.058594 191.460938 168.660156 192.171875 C 169.902344 193.460938 169.84375 194.46875 168.484375 195.554688 C 165.039062 198.300781 161.546875 200.980469 158.070312 203.691406 Z M 158.507812 195.4375 L 158.027344 194.863281 C 156.816406 194.957031 156.355469 195.703125 156.183594 197.472656 Z M 158.507812 195.4375 " fill-opacity="1" fill-rule="nonzero"/><path fill="#849c84" d="M 132.40625 221.855469 C 134.648438 224.792969 136.480469 227.96875 137.902344 231.375 C 139.324219 234.785156 140.289062 238.320312 140.796875 241.980469 C 140.4375 242.261719 140.042969 242.492188 139.617188 242.664062 C 139.195312 242.835938 138.753906 242.949219 138.296875 242.996094 C 137.839844 243.046875 137.386719 243.03125 136.933594 242.953125 C 136.484375 242.875 136.050781 242.738281 135.636719 242.539062 C 133.527344 241.773438 131.460938 240.894531 129.445312 239.910156 C 127.664062 238.867188 126.253906 237.453125 125.214844 235.671875 C 124.761719 234.074219 124.8125 232.492188 125.371094 230.925781 C 126.070312 227.945312 126.921875 224.941406 129.691406 223.085938 C 130.5625 222.601562 131.46875 222.191406 132.40625 221.855469 Z M 133.085938 234.949219 L 132.066406 232.011719 C 130.761719 233.59375 131.078125 234.265625 133.085938 234.949219 Z M 133.085938 234.949219 " fill-opacity="1" fill-rule="nonzero"/><path fill="#849c84" d="M 239.136719 110.023438 C 237.726562 110.640625 236.347656 111.335938 234.898438 111.847656 C 234.402344 112.085938 233.875 112.179688 233.324219 112.128906 C 232.773438 112.074219 232.273438 111.886719 231.828125 111.558594 C 231.378906 111.230469 231.050781 110.8125 230.835938 110.304688 C 230.621094 109.792969 230.550781 109.265625 230.628906 108.714844 C 230.933594 105.953125 231.652344 103.300781 232.78125 100.761719 C 234.589844 97.140625 238.257812 95.992188 242.046875 95.605469 C 243.792969 95.5625 245.535156 95.625 247.269531 95.789062 C 247.582031 95.792969 247.882812 95.84375 248.179688 95.945312 C 248.472656 96.042969 248.746094 96.183594 248.996094 96.367188 C 249.246094 96.550781 249.464844 96.769531 249.644531 97.019531 C 249.828125 97.269531 249.96875 97.542969 250.0625 97.839844 C 250.570312 98.976562 249.988281 99.789062 249.210938 100.554688 C 245.929688 103.773438 242.65625 107.007812 239.386719 110.25 Z M 241.769531 101.132812 C 238.113281 100.800781 237.476562 101.480469 237.742188 104.96875 Z M 241.769531 101.132812 " fill-opacity="1" fill-rule="nonzero"/><path fill="#849c84" d="M 179.253906 105.675781 C 178.089844 105.945312 176.910156 106.128906 175.71875 106.226562 C 171.378906 106.09375 167.230469 105.136719 163.273438 103.363281 C 160.011719 102.1875 159.605469 99.097656 162.296875 96.898438 C 163.570312 95.855469 164.957031 95.003906 166.460938 94.335938 C 167.003906 94.15625 167.554688 94.015625 168.117188 93.921875 C 168.679688 93.828125 169.246094 93.78125 169.816406 93.777344 C 170.386719 93.773438 170.957031 93.816406 171.519531 93.90625 C 172.082031 93.992188 172.636719 94.125 173.179688 94.300781 C 173.722656 94.476562 174.25 94.695312 174.757812 94.953125 C 175.265625 95.214844 175.75 95.511719 176.207031 95.847656 C 176.667969 96.1875 177.101562 96.558594 177.5 96.964844 C 177.902344 97.371094 178.269531 97.804688 178.597656 98.269531 C 179.089844 99.015625 179.679688 99.679688 180.371094 100.25 C 182.492188 102.070312 182.328125 103.917969 179.253906 105.675781 Z M 168.566406 99.128906 C 169.957031 100.9375 170.246094 101.019531 172.796875 100.457031 Z M 168.566406 99.128906 " fill-opacity="1" fill-rule="nonzero"/><g clip-path="url(#629b194fcb)"><path fill="#849c84" d="M 211.976562 69.636719 C 211.296875 68.355469 210.832031 67.230469 210.167969 66.246094 C 209.886719 65.832031 209.652344 65.398438 209.457031 64.9375 C 209.261719 64.480469 209.113281 64.003906 209.011719 63.515625 C 208.90625 63.03125 208.851562 62.535156 208.847656 62.039062 C 208.839844 61.539062 208.882812 61.042969 208.972656 60.554688 C 209.0625 60.0625 209.199219 59.585938 209.382812 59.121094 C 209.5625 58.660156 209.789062 58.21875 210.058594 57.796875 C 210.328125 57.378906 210.636719 56.988281 210.980469 56.628906 C 211.324219 56.265625 211.703125 55.945312 212.109375 55.65625 C 213.050781 55.019531 214.054688 54.507812 215.125 54.121094 C 216.605469 53.570312 217.984375 53.167969 217.96875 51.089844 C 217.96875 50.058594 219.0625 49.726562 220.082031 49.746094 C 220.550781 49.753906 221.003906 49.839844 221.441406 50.003906 C 221.882812 50.167969 222.277344 50.40625 222.632812 50.710938 C 222.988281 51.015625 223.28125 51.375 223.511719 51.78125 C 223.738281 52.191406 223.890625 52.628906 223.96875 53.089844 C 224.207031 54.417969 224.148438 55.734375 223.792969 57.039062 C 223.144531 59.277344 222.179688 61.371094 220.894531 63.316406 C 219.613281 65.261719 218.074219 66.976562 216.269531 68.457031 C 215.710938 69.023438 215.050781 69.410156 214.28125 69.621094 C 213.515625 69.832031 212.746094 69.839844 211.976562 69.636719 Z M 214.488281 62.550781 L 215.300781 62.964844 L 217.492188 59.023438 C 215.808594 59.765625 214.394531 60.660156 214.488281 62.550781 Z M 214.488281 62.550781 " fill-opacity="1" fill-rule="nonzero"/></g><path fill="#849c84" d="M 258.523438 140.300781 C 255.644531 141.070312 252.332031 142.117188 248.945312 142.777344 C 247.402344 142.992188 245.898438 142.832031 244.433594 142.300781 C 243.855469 142.191406 243.359375 141.925781 242.945312 141.511719 C 242.527344 141.097656 242.265625 140.597656 242.15625 140.023438 C 242.046875 139.445312 242.105469 138.886719 242.339844 138.347656 C 242.574219 137.808594 242.9375 137.382812 243.433594 137.066406 C 245.007812 135.621094 246.617188 134.199219 248.308594 132.890625 C 249.351562 132.191406 250.476562 131.65625 251.675781 131.28125 C 252.875 130.902344 254.105469 130.703125 255.363281 130.683594 C 256.621094 130.660156 257.855469 130.816406 259.070312 131.148438 C 260.28125 131.484375 261.421875 131.980469 262.492188 132.640625 C 262.644531 132.734375 262.785156 132.847656 262.914062 132.972656 C 263.042969 133.101562 263.152344 133.238281 263.246094 133.394531 C 263.339844 133.546875 263.417969 133.707031 263.472656 133.878906 C 263.53125 134.050781 263.566406 134.222656 263.582031 134.402344 C 263.597656 134.582031 263.589844 134.761719 263.5625 134.9375 C 263.535156 135.117188 263.488281 135.289062 263.421875 135.457031 C 263.355469 135.621094 263.269531 135.78125 263.164062 135.925781 C 263.058594 136.074219 262.9375 136.203125 262.804688 136.324219 C 261.652344 137.613281 260.273438 138.695312 258.523438 140.300781 Z M 254.070312 136.320312 L 253.722656 135.34375 L 250.960938 136.695312 L 251.234375 137.335938 Z M 254.070312 136.320312 " fill-opacity="1" fill-rule="nonzero"/><path fill="#849c84" d="M 108.042969 266.332031 C 109.941406 266.082031 111.847656 265.980469 113.757812 266.03125 C 115.992188 266.367188 118.203125 266.8125 120.390625 267.371094 C 121.449219 267.609375 122.441406 268.019531 123.355469 268.605469 C 124.273438 269.191406 125.0625 269.917969 125.722656 270.78125 C 125.96875 271.007812 126.164062 271.269531 126.308594 271.574219 C 126.453125 271.875 126.539062 272.191406 126.5625 272.527344 C 126.582031 272.859375 126.542969 273.1875 126.4375 273.503906 C 126.335938 273.824219 126.175781 274.113281 125.960938 274.367188 C 123.8125 277.609375 122.136719 278.265625 118.476562 276.808594 C 115.339844 275.558594 112.226562 274.238281 109.117188 272.914062 C 108.351562 272.613281 107.636719 272.226562 106.96875 271.75 C 104.515625 269.898438 104.597656 268.417969 108.042969 266.332031 Z M 108.042969 266.332031 " fill-opacity="1" fill-rule="nonzero"/><path fill="#849c84" d="M 163.707031 114.691406 C 165.445312 114.339844 167.609375 113.828125 169.804688 113.480469 C 169.945312 113.445312 170.085938 113.425781 170.230469 113.425781 C 170.378906 113.425781 170.519531 113.445312 170.660156 113.480469 C 170.800781 113.519531 170.933594 113.570312 171.0625 113.640625 C 171.1875 113.710938 171.304688 113.796875 171.410156 113.898438 C 171.515625 114 171.605469 114.109375 171.679688 114.234375 C 171.757812 114.359375 171.816406 114.488281 171.859375 114.628906 C 171.902344 114.765625 171.925781 114.90625 171.933594 115.054688 C 171.9375 115.199219 171.925781 115.339844 171.898438 115.484375 C 171.824219 116.910156 171.5625 118.300781 171.117188 119.65625 C 170.097656 122.554688 168.789062 125.355469 167.8125 128.269531 C 167.582031 128.964844 167.1875 129.546875 166.621094 130.011719 C 166.054688 130.480469 165.40625 130.757812 164.675781 130.851562 C 164.324219 130.933594 163.964844 130.957031 163.601562 130.925781 C 163.238281 130.890625 162.890625 130.800781 162.554688 130.65625 C 162.222656 130.511719 161.917969 130.320312 161.644531 130.078125 C 161.375 129.839844 161.144531 129.558594 160.960938 129.246094 C 160.402344 128.289062 159.988281 127.273438 159.722656 126.199219 C 159.453125 125.125 159.34375 124.035156 159.390625 122.929688 C 159.4375 121.824219 159.636719 120.746094 159.992188 119.699219 C 160.347656 118.648438 160.84375 117.671875 161.480469 116.765625 C 162.1875 116.039062 162.929688 115.347656 163.707031 114.691406 Z M 163.707031 114.691406 " fill-opacity="1" fill-rule="nonzero"/><path fill="#849c84" d="M 219.054688 84.988281 C 219.316406 86.628906 219.34375 88.273438 219.128906 89.921875 C 217.902344 94.144531 216.464844 98.324219 214.839844 102.40625 C 214.617188 102.949219 214.269531 103.390625 213.796875 103.730469 C 213.328125 104.074219 212.800781 104.269531 212.21875 104.3125 C 211.636719 104.355469 211.085938 104.242188 210.566406 103.972656 C 210.050781 103.707031 209.640625 103.320312 209.339844 102.820312 C 208.734375 102.101562 208.335938 101.28125 208.152344 100.359375 C 207.964844 99.4375 208.015625 98.527344 208.296875 97.632812 C 209.660156 93.878906 210.8125 90.046875 212.109375 86.269531 C 212.957031 83.792969 213.691406 83.277344 216.203125 83.628906 C 217.21875 83.949219 218.167969 84.402344 219.054688 84.988281 Z M 219.054688 84.988281 " fill-opacity="1" fill-rule="nonzero"/><path fill="#849c84" d="M 160.378906 142.035156 C 162.179688 141.734375 163.992188 141.574219 165.816406 141.554688 C 168.664062 141.871094 171.167969 142.972656 173.328125 144.855469 C 173.605469 145.003906 173.851562 145.191406 174.0625 145.425781 C 174.273438 145.65625 174.441406 145.914062 174.566406 146.203125 C 174.6875 146.492188 174.761719 146.792969 174.78125 147.105469 C 174.804688 147.417969 174.769531 147.726562 174.6875 148.027344 C 174.203125 149.367188 173.699219 150.710938 171.960938 151.039062 C 167.859375 151.8125 163.789062 151.65625 159.757812 150.582031 C 159.507812 150.546875 159.269531 150.480469 159.039062 150.386719 C 158.808594 150.292969 158.589844 150.171875 158.390625 150.019531 C 158.191406 149.871094 158.011719 149.703125 157.851562 149.507812 C 157.695312 149.3125 157.5625 149.101562 157.457031 148.875 C 157.355469 148.648438 157.277344 148.414062 157.234375 148.167969 C 157.1875 147.921875 157.171875 147.675781 157.1875 147.425781 C 157.207031 147.175781 157.253906 146.933594 157.328125 146.695312 C 157.40625 146.457031 157.511719 146.234375 157.648438 146.023438 C 158.4375 144.609375 159.347656 143.28125 160.378906 142.035156 Z M 160.378906 142.035156 " fill-opacity="1" fill-rule="nonzero"/><g clip-path="url(#16cb1c3bb0)"><path fill="#849c84" d="M 115.652344 311.597656 C 115.839844 313.1875 115.675781 314.742188 115.15625 316.257812 C 114.636719 317.773438 113.8125 319.101562 112.683594 320.242188 C 112.042969 321.039062 111.476562 321.886719 110.984375 322.785156 C 110.828125 323.039062 110.648438 323.277344 110.441406 323.496094 C 110.234375 323.714844 110.007812 323.90625 109.757812 324.074219 C 109.507812 324.246094 109.246094 324.382812 108.964844 324.496094 C 108.6875 324.609375 108.398438 324.6875 108.101562 324.738281 C 107.804688 324.785156 107.507812 324.800781 107.207031 324.785156 C 106.90625 324.769531 106.613281 324.722656 106.320312 324.644531 C 106.03125 324.566406 105.753906 324.453125 105.488281 324.316406 C 105.222656 324.175781 104.972656 324.007812 104.742188 323.816406 C 104.035156 323.078125 103.667969 322.199219 103.648438 321.175781 C 103.679688 319.945312 103.898438 318.75 104.300781 317.589844 C 104.703125 316.425781 105.269531 315.351562 106.003906 314.363281 C 106.734375 313.375 107.597656 312.523438 108.59375 311.800781 C 109.589844 311.078125 110.671875 310.523438 111.839844 310.132812 C 113.5625 309.597656 114.449219 310.820312 115.652344 311.597656 Z M 115.652344 311.597656 " fill-opacity="1" fill-rule="nonzero"/></g></svg>