<svg xmlns="http://www.w3.org/2000/svg" xmlns:xlink="http://www.w3.org/1999/xlink" width="500" zoomAndPan="magnify" viewBox="0 0 375 374.999991" height="500" preserveAspectRatio="xMidYMid meet" version="1.0"><defs><g/><clipPath id="id1"><path d="M 177 77.015625 L 241.582031 77.015625 L 241.582031 200.765625 L 177 200.765625 Z M 177 77.015625 " clip-rule="nonzero"/></clipPath><clipPath id="id2"><path d="M 155.242188 193.089844 L 262.492188 193.089844 L 262.492188 256.839844 L 155.242188 256.839844 Z M 155.242188 193.089844 " clip-rule="nonzero"/></clipPath></defs><g clip-path="url(#id1)"><path fill="#ffffff" d="M 214.167969 80.601562 C 213.988281 79.578125 214.671875 78.632812 215.269531 77.9375 C 215.96875 77.117188 216.269531 77.015625 216.269531 77.015625 C 216.269531 77.015625 216.167969 77.117188 215.839844 77.738281 C 215.589844 78.203125 215.511719 78.796875 215.742188 79.734375 C 215.921875 80.464844 215.765625 80.902344 215.484375 80.976562 C 215.289062 81.03125 214.910156 80.847656 215.011719 80.585938 C 215.085938 80.402344 214.234375 80.507812 215.246094 81.675781 C 215.515625 81.9375 215.859375 82.234375 216.257812 82.625 C 217.371094 83.710938 217.859375 84.328125 217.6875 84.929688 C 217.546875 85.425781 216.929688 85.960938 215.710938 86.800781 C 214.050781 87.949219 211.628906 88.492188 211.007812 89.59375 C 210.738281 90.070312 210.894531 90.640625 211.632812 91.453125 C 212.472656 92.378906 213.679688 93.09375 214.910156 93.554688 C 216.566406 92.425781 217.828125 92.035156 218.671875 92.042969 C 219.683594 92.054688 220.167969 92.597656 220.175781 93.21875 C 220.183594 93.765625 219.90625 94.160156 219.425781 94.410156 C 218.78125 94.742188 217.722656 94.792969 216.535156 94.570312 C 216.066406 94.480469 215.578125 94.351562 215.085938 94.179688 C 213.875 94.996094 212.28125 95.835938 210.742188 96.460938 C 211.054688 96.707031 211.375 96.980469 211.691406 97.292969 C 212.484375 98.074219 213.617188 98.726562 214.824219 99.203125 C 214.894531 99.148438 214.960938 99.09375 215.027344 99.039062 C 216.5625 97.761719 218.011719 97.292969 219.136719 97.273438 C 220.792969 97.253906 221.757812 98.21875 221.636719 99.160156 C 221.558594 99.761719 221.207031 100.199219 220.640625 100.480469 C 219.875 100.855469 218.671875 100.921875 217.335938 100.703125 C 216.597656 100.582031 215.820312 100.378906 215.054688 100.105469 C 213.964844 100.882812 212.445312 101.640625 210.851562 102.234375 C 211.15625 102.445312 211.464844 102.671875 211.773438 102.910156 C 212.382812 103.382812 213.066406 103.828125 213.792969 104.222656 C 215.777344 103.21875 218.421875 102.582031 220.410156 102.671875 C 222.304688 102.753906 223.597656 103.527344 223.625 104.953125 C 223.65625 106.664062 222.210938 107.445312 220.03125 107.3125 C 218.257812 107.203125 215.980469 106.503906 213.917969 105.453125 C 213.566406 105.65625 213.242188 105.871094 212.960938 106.101562 C 211.976562 106.90625 210.089844 107.9375 208.007812 108.820312 C 209.359375 109.5625 210.667969 110.398438 211.789062 111.226562 C 212.558594 111.796875 213.484375 112.261719 214.480469 112.617188 C 216.457031 111.578125 218.628906 110.613281 220.40625 110.144531 C 221.65625 109.816406 222.734375 109.746094 223.480469 109.976562 C 224.09375 110.167969 224.53125 110.546875 224.757812 111.121094 C 225.503906 113.027344 224.089844 114.355469 221.523438 114.738281 C 219.613281 115.023438 217.066406 114.800781 214.742188 114.082031 C 214.035156 114.464844 213.359375 114.859375 212.746094 115.234375 C 211.753906 115.84375 210.152344 116.644531 208.296875 117.425781 C 209.125 117.886719 209.894531 118.371094 210.566406 118.871094 C 211.480469 119.542969 212.640625 120.222656 213.941406 120.855469 C 217.554688 118.515625 221.09375 117.578125 223.933594 117.527344 C 226.265625 117.484375 228.144531 118.050781 229.292969 118.910156 C 230.667969 119.941406 231.128906 121.371094 230.398438 122.902344 C 229.808594 124.132812 228.664062 124.90625 227.132812 125.253906 C 225.632812 125.59375 223.734375 125.527344 221.703125 125.15625 C 219.246094 124.710938 216.589844 123.828125 214.246094 122.773438 C 213.820312 123.070312 213.394531 123.390625 212.96875 123.734375 C 209.875 126.230469 206.980469 128.128906 204.351562 129.53125 C 206.542969 130.675781 208.566406 131.976562 210.097656 133.261719 C 212.242188 132.773438 213.910156 132.488281 214.816406 132.296875 C 219.355469 131.324219 225.132812 131.09375 228.765625 132.320312 C 231.492188 133.238281 233.09375 134.953125 232.792969 137.511719 C 232.386719 140.96875 228.625 143.03125 223.105469 142.117188 C 219.261719 141.484375 214.539062 139.429688 209.742188 135.527344 C 209.519531 135.582031 209.289062 135.640625 209.054688 135.699219 C 208.390625 135.902344 207.6875 136.117188 206.9375 136.355469 C 194.1875 140.367188 186.933594 148.363281 184.621094 154.078125 C 182.015625 160.53125 180.519531 171.945312 185.695312 181.265625 C 190.308594 189.570312 198.847656 194.335938 207.695312 194.871094 C 216.851562 195.425781 227.152344 192.460938 232.320312 183.890625 C 236.273438 177.34375 236.21875 167.664062 233.300781 162.085938 C 228.480469 152.863281 216.78125 151.304688 209.84375 152.898438 C 202.3125 154.628906 199.625 161.625 199.890625 164.917969 C 200.050781 166.929688 200.90625 170.8125 204.585938 172.546875 C 205.597656 172.917969 206.753906 172.984375 207.628906 172.542969 C 206.816406 171.808594 206.308594 170.75 206.308594 169.574219 C 206.308594 167.359375 208.117188 165.5625 210.339844 165.5625 C 212.5625 165.5625 214.367188 167.359375 214.367188 169.574219 C 214.367188 169.773438 214.355469 169.972656 214.324219 170.164062 C 214.070312 173.90625 210.257812 176.597656 205.933594 176.28125 C 202.730469 176.046875 199.257812 174.175781 197.136719 169.773438 C 194.855469 165.035156 195.816406 159.878906 198.769531 155.789062 C 201.472656 152.042969 205.855469 149.203125 210.828125 148.46875 C 218.230469 147.375 226.644531 148.890625 232.71875 153.742188 C 237.988281 157.953125 241.546875 164.660156 241.121094 174.40625 C 240.75 182.917969 236.128906 190.050781 229.152344 194.625 C 222.882812 198.730469 214.699219 200.761719 206.039062 199.828125 C 198.734375 199.035156 190.515625 194.847656 184.722656 188.160156 C 179.589844 182.238281 176.351562 174.375 177.296875 165.210938 C 178.433594 154.214844 183.734375 146.925781 190.066406 142.066406 C 195.894531 137.59375 202.605469 135.199219 207.679688 133.855469 C 206.109375 132.703125 204.191406 131.574219 202.183594 130.601562 C 199.695312 131.738281 197.488281 132.398438 195.625 132.695312 C 192.679688 133.164062 190.519531 132.703125 189.320312 131.804688 C 188.3125 131.046875 187.867188 129.992188 188.039062 128.769531 C 188.234375 127.351562 189.109375 126.472656 190.492188 126.0625 C 191.667969 125.714844 193.285156 125.746094 195.121094 126.101562 C 197.316406 126.523438 199.855469 127.40625 202.316406 128.535156 C 205.164062 127.15625 208.375 125.144531 211.855469 122.359375 C 212.054688 122.203125 212.25 122.046875 212.449219 121.898438 C 211.371094 121.332031 210.402344 120.734375 209.613281 120.148438 C 208.6875 119.460938 207.574219 118.792969 206.375 118.195312 C 203.886719 119.132812 201.1875 119.9375 198.972656 120.195312 C 195.59375 120.582031 193.316406 119.632812 193.5625 116.855469 C 193.746094 114.777344 195.792969 113.898438 198.722656 114.183594 C 201.066406 114.410156 203.988281 115.328125 206.597656 116.554688 C 208.847656 115.679688 210.847656 114.714844 212 114.019531 C 212.320312 113.824219 212.660156 113.625 213.007812 113.425781 C 212.28125 113.09375 211.601562 112.707031 211.007812 112.265625 C 209.679688 111.273438 208.070312 110.261719 206.460938 109.433594 C 205.144531 109.917969 203.824219 110.3125 202.65625 110.523438 C 201.390625 110.753906 200.292969 110.761719 199.546875 110.507812 C 198.625 110.191406 198.109375 109.53125 198.210938 108.425781 C 198.382812 106.535156 200.070312 105.984375 202.496094 106.542969 C 203.734375 106.828125 205.179688 107.390625 206.636719 108.105469 C 208.949219 107.21875 211.152344 106.078125 212.230469 105.207031 C 212.394531 105.074219 212.574219 104.941406 212.765625 104.816406 C 212.191406 104.46875 211.644531 104.097656 211.144531 103.707031 C 210.644531 103.3125 210.148438 102.957031 209.660156 102.644531 C 208.488281 103.011719 207.328125 103.277344 206.308594 103.386719 C 203.9375 103.636719 202.351562 102.945312 202.582031 101.257812 C 202.726562 100.191406 203.8125 99.617188 205.527344 99.871094 C 206.726562 100.050781 208.265625 100.628906 209.910156 101.625 C 211.441406 101.117188 212.945312 100.4375 214.085938 99.714844 C 212.960938 99.214844 211.921875 98.566406 211.167969 97.820312 C 210.753906 97.40625 210.339844 97.058594 209.9375 96.769531 C 209.414062 96.960938 208.90625 97.117188 208.4375 97.230469 C 207.433594 97.476562 206.582031 97.523438 206.035156 97.328125 C 205.574219 97.160156 205.289062 96.847656 205.222656 96.359375 C 205.089844 95.402344 206.15625 94.621094 207.894531 95.011719 C 208.550781 95.160156 209.308594 95.476562 210.113281 96.007812 C 211.578125 95.457031 213.136719 94.683594 214.371094 93.90625 C 213.195312 93.40625 212.066406 92.6875 211.257812 91.785156 C 210.316406 90.734375 210.234375 89.964844 210.585938 89.355469 C 211.242188 88.21875 213.726562 87.617188 215.460938 86.4375 C 216.558594 85.695312 217.152344 85.261719 217.28125 84.816406 C 217.429688 84.300781 216.917969 83.839844 215.976562 82.910156 C 214.882812 81.832031 214.230469 81.332031 214.167969 80.617188 C 214.167969 80.609375 214.167969 80.605469 214.167969 80.601562 Z M 212.234375 134.96875 C 216.273438 137.96875 220.183594 139.605469 223.429688 140.128906 C 225.6875 140.496094 227.59375 140.328125 228.945312 139.664062 C 229.96875 139.160156 230.628906 138.351562 230.75 137.277344 C 230.863281 136.261719 230.402344 135.519531 229.59375 134.980469 C 228.777344 134.433594 227.660156 134.078125 226.378906 133.855469 C 223.089844 133.28125 218.777344 133.597656 215.265625 134.363281 C 214.621094 134.5 213.570312 134.6875 212.234375 134.96875 Z M 199.910156 129.589844 C 198.902344 129.175781 197.898438 128.8125 196.925781 128.519531 C 194.960938 127.925781 193.152344 127.605469 191.777344 127.742188 C 190.777344 127.839844 190.03125 128.164062 189.90625 129.03125 C 189.804688 129.734375 190.21875 130.28125 190.976562 130.617188 C 192.402344 131.246094 194.78125 131.214844 197.894531 130.285156 C 198.539062 130.09375 199.210938 129.863281 199.910156 129.589844 Z M 215.882812 121.722656 C 217.855469 122.527344 219.996094 123.183594 221.996094 123.539062 C 223.777344 123.855469 225.441406 123.933594 226.757812 123.628906 C 227.730469 123.402344 228.5 122.96875 228.871094 122.183594 C 229.222656 121.4375 228.941406 120.761719 228.273438 120.265625 C 227.351562 119.582031 225.832031 119.199219 223.964844 119.242188 C 221.640625 119.292969 218.8125 120.015625 215.882812 121.722656 Z M 204.46875 117.332031 C 203.050781 116.75 201.589844 116.28125 200.238281 115.988281 C 198.726562 115.664062 197.355469 115.550781 196.347656 115.789062 C 195.644531 115.957031 195.144531 116.308594 195.082031 116.992188 C 194.996094 117.910156 195.445312 118.414062 196.222656 118.628906 C 197.347656 118.933594 198.96875 118.769531 200.753906 118.382812 C 201.953125 118.121094 203.21875 117.753906 204.46875 117.332031 Z M 216.480469 113.179688 C 217.652344 113.429688 218.839844 113.542969 219.917969 113.523438 C 221.214844 113.5 222.34375 113.292969 223.046875 112.851562 C 223.496094 112.570312 223.699219 112.160156 223.484375 111.621094 C 223.335938 111.25 222.914062 111.199219 222.390625 111.210938 C 221.617188 111.226562 220.640625 111.476562 219.578125 111.851562 C 218.585938 112.203125 217.527344 112.667969 216.480469 113.179688 Z M 204.929688 108.703125 C 204.457031 108.496094 203.992188 108.3125 203.542969 108.152344 C 202.324219 107.722656 201.226562 107.484375 200.417969 107.59375 C 199.867188 107.667969 199.492188 107.949219 199.4375 108.539062 C 199.378906 109.144531 199.804688 109.386719 200.429688 109.460938 C 201.332031 109.570312 202.574219 109.367188 203.921875 109.003906 C 204.253906 108.914062 204.589844 108.8125 204.929688 108.703125 Z M 215.09375 104.871094 C 216.351562 105.4375 217.652344 105.863281 218.832031 106.082031 C 219.988281 106.300781 221.019531 106.328125 221.734375 106.070312 C 222.234375 105.890625 222.535156 105.539062 222.523438 104.976562 C 222.511719 104.519531 222.21875 104.230469 221.789062 104.050781 C 221.148438 103.78125 220.246094 103.730469 219.25 103.816406 C 217.90625 103.933594 216.398438 104.316406 215.09375 104.871094 Z M 208.597656 102.015625 C 207.761719 101.5625 206.972656 101.234375 206.261719 101.027344 C 205.433594 100.789062 204.726562 100.710938 204.207031 100.816406 C 203.832031 100.890625 203.570312 101.066406 203.523438 101.390625 C 203.4375 101.984375 203.8125 102.289062 204.40625 102.421875 C 205.199219 102.601562 206.320312 102.511719 207.554688 102.261719 C 207.894531 102.191406 208.246094 102.109375 208.597656 102.015625 Z M 215.777344 99.535156 C 216.34375 99.710938 216.914062 99.84375 217.460938 99.929688 C 218.410156 100.078125 219.285156 100.082031 219.933594 99.894531 C 220.425781 99.75 220.773438 99.496094 220.828125 99.058594 C 220.855469 98.84375 220.742188 98.648438 220.554688 98.492188 C 220.144531 98.152344 219.414062 98.003906 218.511719 98.175781 C 217.703125 98.328125 216.761719 98.746094 215.777344 99.535156 Z M 209.230469 96.3125 C 208.695312 96.007812 208.1875 95.8125 207.734375 95.707031 C 207.125 95.566406 206.617188 95.585938 206.273438 95.738281 C 206.027344 95.847656 205.882812 96.03125 205.914062 96.269531 C 205.953125 96.558594 206.1875 96.691406 206.515625 96.742188 C 207.171875 96.847656 208.144531 96.660156 209.230469 96.3125 Z M 215.648438 93.800781 C 215.984375 93.898438 216.316406 93.976562 216.636719 94.035156 C 217.496094 94.191406 218.28125 94.199219 218.847656 94.035156 C 219.304688 93.902344 219.609375 93.648438 219.601562 93.226562 C 219.589844 92.761719 219.074219 92.511719 218.164062 92.679688 C 217.507812 92.796875 216.667969 93.140625 215.648438 93.800781 Z M 215.648438 93.800781 " fill-opacity="1" fill-rule="evenodd"/></g><g clip-path="url(#id2)"><path fill="#ffffff" d="M 156.234375 203.734375 C 156.359375 203.859375 159.089844 206.101562 164.054688 208.464844 C 167.28125 209.960938 171.75 211.578125 177.335938 212.453125 C 173.488281 216.808594 171.007812 221.417969 169.515625 224.90625 C 167.160156 230.382812 166.539062 234.492188 166.539062 234.617188 L 166.414062 235.613281 L 167.40625 235.863281 C 167.53125 235.863281 171.75 236.859375 177.710938 236.484375 C 182.054688 236.238281 188.011719 235.117188 193.847656 231.878906 C 193.972656 237.109375 196.328125 242.835938 201.046875 248.816406 C 204.523438 253.171875 208 256.039062 208.121094 256.160156 L 208.742188 256.660156 L 209.613281 256.039062 C 209.734375 255.914062 213.210938 253.421875 216.5625 249.1875 C 221.15625 243.585938 223.640625 237.605469 223.640625 232.003906 C 223.640625 231.878906 223.640625 231.878906 223.640625 231.753906 C 229.472656 234.867188 235.429688 235.988281 239.652344 236.238281 C 245.609375 236.609375 249.832031 235.738281 249.953125 235.738281 L 250.949219 235.488281 L 250.824219 234.492188 C 250.824219 234.367188 250.453125 230.507812 248.21875 225.277344 C 246.726562 221.667969 244.246094 216.933594 239.898438 212.453125 C 245.609375 211.578125 250.328125 209.960938 253.554688 208.464844 C 258.519531 206.226562 261.25 203.859375 261.375 203.734375 L 262.492188 202.863281 L 261.375 201.992188 C 261.25 201.867188 258.519531 199.75 253.429688 197.632812 C 248.835938 195.640625 241.265625 193.273438 231.832031 193.273438 C 224.878906 193.273438 218.796875 195.640625 214.949219 197.757812 C 211.96875 199.375 209.859375 200.871094 208.867188 201.742188 C 207.875 200.996094 205.765625 199.375 202.785156 197.757812 C 198.9375 195.765625 192.855469 193.273438 185.902344 193.273438 C 176.46875 193.273438 168.898438 195.640625 164.304688 197.632812 C 159.214844 199.75 156.484375 201.992188 156.359375 201.992188 L 155.242188 202.863281 Z M 177.710938 234.121094 C 173.738281 234.367188 170.632812 233.996094 169.019531 233.746094 C 169.394531 232.25 170.136719 229.261719 171.628906 225.652344 C 173.242188 222.039062 175.847656 217.308594 180.070312 212.824219 C 181.683594 212.949219 183.421875 213.074219 185.15625 213.074219 C 185.15625 213.074219 185.28125 213.074219 185.28125 213.074219 C 191.738281 213.074219 198.066406 210.582031 202.164062 208.464844 C 202.414062 208.339844 202.535156 208.21875 202.785156 208.21875 C 202.289062 208.839844 201.792969 209.460938 201.296875 210.210938 C 198.316406 214.445312 194.714844 221.042969 194.09375 229.261719 C 188.136719 232.625 182.054688 233.746094 177.710938 234.121094 Z M 207.378906 206.347656 C 206.507812 211.578125 204.027344 221.667969 197.445312 226.898438 C 197.074219 227.144531 196.828125 227.394531 196.453125 227.644531 C 197.324219 220.796875 200.300781 215.191406 203.03125 211.578125 C 204.523438 209.339844 206.136719 207.59375 207.378906 206.347656 Z M 214.949219 211.453125 C 217.433594 215.066406 220.289062 220.671875 221.15625 227.519531 C 220.785156 227.269531 220.410156 227.023438 220.039062 226.773438 C 212.964844 221.292969 210.605469 210.210938 209.859375 205.351562 C 211.226562 206.597656 213.085938 208.714844 214.949219 211.453125 Z M 182.304688 210.707031 C 183.171875 209.960938 184.039062 209.214844 184.910156 208.464844 C 190 204.480469 196.207031 203.609375 200.425781 203.484375 C 202.535156 203.484375 204.398438 203.609375 205.765625 203.734375 C 201.914062 206.226562 193.722656 210.707031 185.28125 210.707031 C 185.28125 210.707031 185.15625 210.707031 185.15625 210.707031 C 184.164062 210.707031 183.171875 210.707031 182.304688 210.707031 Z M 221.40625 232.003906 C 221.40625 238.476562 217.929688 244.082031 214.949219 247.695312 C 212.589844 250.558594 210.234375 252.675781 208.992188 253.546875 C 206.261719 251.054688 196.207031 241.46875 196.207031 231.378906 C 196.207031 231.007812 196.207031 230.632812 196.207031 230.257812 C 197.074219 229.761719 197.945312 229.136719 198.8125 228.515625 C 203.03125 225.277344 206.136719 220.046875 208.246094 212.824219 C 208.496094 212.078125 208.617188 211.453125 208.742188 210.832031 C 208.867188 211.453125 209.117188 212.203125 209.238281 212.824219 C 211.351562 219.921875 214.453125 225.277344 218.671875 228.515625 C 219.542969 229.261719 220.410156 229.886719 221.40625 230.382812 C 221.40625 231.007812 221.40625 231.503906 221.40625 232.003906 Z M 246.230469 226.148438 C 247.597656 229.511719 248.21875 232.375 248.464844 233.871094 C 246.976562 234.121094 243.75 234.492188 239.777344 234.246094 C 235.429688 233.996094 229.347656 232.75 223.515625 229.261719 C 222.894531 221.042969 219.542969 214.445312 216.8125 210.335938 C 216.4375 209.710938 215.941406 209.089844 215.570312 208.589844 C 215.570312 208.589844 215.570312 208.589844 215.695312 208.589844 C 219.789062 210.707031 225.996094 213.199219 232.578125 213.199219 C 232.578125 213.199219 232.699219 213.199219 232.699219 213.199219 C 234.3125 213.199219 235.929688 213.074219 237.417969 212.949219 C 241.886719 217.433594 244.617188 222.414062 246.230469 226.148438 Z M 212.21875 203.859375 C 217.183594 203.609375 226.492188 204.109375 233.320312 209.460938 C 233.816406 209.835938 234.3125 210.335938 234.8125 210.707031 C 234.066406 210.707031 233.195312 210.707031 232.453125 210.707031 C 232.453125 210.707031 232.328125 210.707031 232.328125 210.707031 C 224.136719 210.707031 216.191406 206.472656 212.21875 203.859375 Z M 231.957031 195.515625 C 241.015625 195.515625 248.21875 197.757812 252.5625 199.625 C 255.417969 200.871094 257.527344 202.113281 258.769531 202.863281 C 256.039062 204.730469 248.589844 209.214844 237.914062 210.457031 C 236.921875 209.460938 235.804688 208.589844 234.6875 207.71875 C 229.101562 203.359375 222.273438 202.113281 217.433594 201.742188 C 216.316406 201.617188 215.199219 201.617188 214.203125 201.617188 C 213.707031 201.617188 213.210938 201.617188 212.714844 201.617188 C 216.5625 199.125 223.640625 195.515625 231.957031 195.515625 Z M 185.777344 195.515625 C 192.234375 195.515625 197.945312 197.757812 201.667969 199.625 C 202.785156 200.246094 203.777344 200.746094 204.648438 201.367188 C 203.652344 201.242188 202.535156 201.242188 201.417969 201.242188 C 201.171875 201.242188 200.796875 201.242188 200.550781 201.242188 C 193.972656 201.367188 188.136719 203.234375 183.667969 206.722656 C 182.179688 207.96875 180.6875 209.214844 179.449219 210.457031 C 173.488281 209.710938 168.523438 207.96875 165.296875 206.472656 C 162.441406 205.105469 160.332031 203.859375 159.089844 202.988281 C 162.195312 200.746094 171.75 195.515625 185.777344 195.515625 Z M 185.777344 195.515625 " fill-opacity="1" fill-rule="nonzero"/></g><g fill="#ffffff" fill-opacity="1"><g transform="translate(57.503908, 191.657272)"><g><path d="M 28.855469 -32.257812 C 29.023438 -33.25 29.105469 -34.246094 29.269531 -35.074219 C 29.355469 -35.738281 29.4375 -36.320312 29.4375 -36.816406 C 29.519531 -36.980469 29.601562 -37.148438 29.601562 -37.3125 L 30.015625 -37.976562 L 29.851562 -40.050781 L 29.851562 -41.542969 C 29.851562 -41.957031 29.851562 -42.371094 29.933594 -42.703125 L 29.933594 -43.203125 C 29.933594 -43.367188 29.851562 -43.53125 29.769531 -43.699219 C 29.519531 -43.949219 29.269531 -44.277344 29.105469 -44.363281 C 28.9375 -44.445312 28.691406 -44.445312 28.523438 -44.445312 C 28.359375 -44.445312 28.277344 -44.445312 28.109375 -44.363281 L 27.859375 -44.363281 C 27.613281 -44.195312 27.363281 -43.863281 27.113281 -43.53125 L 26.78125 -43.035156 L 26.121094 -42.453125 C 25.953125 -42.289062 25.707031 -41.957031 25.539062 -41.625 L 25.125 -40.714844 C 24.957031 -40.214844 24.792969 -39.554688 24.710938 -38.972656 L 24.460938 -37.480469 C 24.378906 -37.3125 24.378906 -37.148438 24.378906 -36.980469 C 24.296875 -36.652344 24.128906 -36.152344 24.128906 -35.738281 L 23.964844 -34.410156 C 23.964844 -33.582031 23.796875 -32.753906 23.796875 -31.925781 C 23.632812 -31.425781 23.632812 -30.847656 23.464844 -30.347656 C 23.464844 -30.183594 23.550781 -30.101562 23.550781 -29.933594 C 23.382812 -29.519531 23.300781 -29.105469 23.21875 -28.691406 L 21.890625 -19.816406 C 21.890625 -19.15625 21.808594 -18.574219 21.640625 -18.078125 L 21.726562 -18.078125 C 21.476562 -16.832031 21.226562 -15.589844 20.894531 -14.429688 L 20.5625 -12.851562 L 19.816406 -10.363281 L 19.816406 -10.449219 L 18.90625 -8.457031 L 17.746094 -6.300781 C 17.496094 -5.96875 17.332031 -5.636719 17.164062 -5.308594 L 16.667969 -4.5625 L 15.921875 -3.898438 C 15.753906 -3.8125 15.589844 -3.730469 15.421875 -3.730469 C 15.175781 -3.566406 15.089844 -3.316406 14.84375 -3.152344 C 13.683594 -3.898438 13.101562 -4.230469 12.605469 -5.636719 C 12.273438 -6.300781 11.941406 -7.046875 11.691406 -7.792969 C 11.109375 -9.453125 10.78125 -11.359375 10.449219 -13.019531 L 10.199219 -15.007812 C 10.117188 -15.089844 10.117188 -15.175781 10.117188 -15.339844 C 10.035156 -15.671875 9.949219 -16.003906 9.949219 -16.585938 C 9.949219 -17.164062 9.867188 -17.992188 9.867188 -18.738281 C 9.949219 -20.066406 9.949219 -20.980469 9.949219 -21.890625 L 9.949219 -23.464844 C 10.035156 -24.710938 9.949219 -25.789062 9.867188 -26.285156 C 9.949219 -26.617188 9.949219 -26.949219 9.949219 -27.199219 C 9.949219 -27.28125 9.867188 -27.28125 9.867188 -27.28125 C 9.785156 -28.109375 9.949219 -28.855469 10.035156 -29.683594 C 10.035156 -30.015625 10.117188 -30.429688 10.035156 -30.761719 C 10.035156 -31.261719 10.035156 -31.757812 9.949219 -32.171875 C 9.949219 -32.835938 9.867188 -33.417969 9.867188 -34.082031 L 9.867188 -33.914062 C 9.785156 -34.410156 9.785156 -34.828125 9.785156 -35.324219 C 9.703125 -35.574219 9.785156 -36.070312 9.785156 -36.566406 C 9.867188 -36.898438 9.867188 -37.3125 9.867188 -37.730469 L 9.867188 -38.890625 C 9.867188 -39.71875 9.785156 -40.546875 9.535156 -41.128906 C 9.453125 -41.542969 9.203125 -41.875 8.957031 -41.957031 L 8.539062 -42.703125 C 8.292969 -42.953125 8.042969 -43.117188 7.792969 -43.285156 C 7.628906 -43.449219 7.378906 -43.53125 7.132812 -43.617188 L 6.714844 -43.78125 L 6.46875 -43.78125 C 6.300781 -43.949219 6.054688 -43.949219 5.804688 -43.949219 C 5.222656 -43.78125 4.726562 -43.367188 4.3125 -42.785156 L 3.398438 -41.210938 L 3.152344 -40.382812 C 2.902344 -40.050781 2.738281 -39.71875 2.652344 -39.304688 C 2.652344 -38.890625 2.570312 -38.476562 2.488281 -38.144531 C 2.488281 -37.730469 2.40625 -36.734375 2.320312 -36.402344 C 2.15625 -35.90625 1.988281 -35.488281 1.988281 -35.074219 C 1.988281 -34.828125 1.988281 -34.578125 1.90625 -34.410156 L 2.074219 -34.164062 C 1.988281 -34.082031 1.90625 -32.835938 1.90625 -32.671875 C 1.90625 -32.421875 1.988281 -32.257812 1.988281 -32.007812 L 1.988281 -30.929688 C 1.988281 -29.519531 1.988281 -28.277344 1.90625 -26.867188 C 1.574219 -25.621094 1.492188 -24.296875 1.492188 -23.050781 C 1.492188 -22.304688 1.492188 -21.476562 1.574219 -20.648438 L 1.574219 -18.242188 C 1.660156 -17.246094 1.90625 -16.335938 1.988281 -15.507812 C 2.074219 -15.007812 2.074219 -14.429688 2.238281 -13.847656 C 2.40625 -12.6875 2.820312 -9.535156 3.398438 -8.457031 C 3.566406 -7.792969 3.898438 -7.132812 4.144531 -6.46875 L 4.976562 -4.230469 C 5.390625 -3.316406 5.886719 -2.488281 6.46875 -1.742188 L 7.628906 -0.664062 C 8.292969 0.164062 10.363281 1.328125 11.359375 1.574219 L 12.023438 1.824219 C 12.4375 1.90625 12.851562 2.074219 13.265625 2.074219 C 13.433594 2.15625 13.597656 2.15625 13.765625 2.15625 C 13.929688 2.15625 14.097656 2.15625 14.179688 2.074219 C 14.675781 1.988281 15.257812 1.90625 15.671875 1.742188 C 15.921875 1.660156 16.253906 1.492188 16.417969 1.328125 C 19.484375 -0.0820312 20.980469 -3.152344 22.304688 -6.054688 C 22.386719 -6.21875 22.386719 -6.386719 22.554688 -6.550781 L 23.714844 -9.371094 C 24.046875 -10.035156 24.296875 -10.695312 24.460938 -11.441406 C 25.207031 -13.515625 25.953125 -15.671875 26.285156 -17.828125 L 26.453125 -17.828125 C 26.453125 -17.910156 26.535156 -18.242188 26.535156 -18.574219 C 27.199219 -21.144531 27.695312 -24.542969 28.109375 -27.53125 L 28.441406 -29.851562 C 28.523438 -30.183594 28.605469 -30.429688 28.605469 -30.761719 Z M 28.855469 -32.257812 "/></g></g></g><g fill="#ffffff" fill-opacity="1"><g transform="translate(88.014828, 191.657272)"><g><path d="M 20.5625 -13.433594 L 20.398438 -13.265625 C 17.246094 -20.398438 13.683594 -27.28125 10.695312 -34.410156 C 9.703125 -36.734375 7.792969 -38.972656 5.058594 -38.972656 C 3.316406 -38.972656 3.152344 -36.652344 3.152344 -35.574219 C 3.152344 -28.605469 2.40625 -21.476562 2.40625 -14.59375 C 2.40625 -11.195312 2.074219 -7.960938 2.074219 -4.726562 C 2.074219 -1.742188 2.320312 1.90625 6.054688 1.824219 C 6.386719 2.074219 6.800781 2.320312 7.214844 2.320312 C 8.042969 2.320312 8.042969 1.160156 8.707031 0.914062 C 8.707031 -0.332031 9.453125 -1.574219 9.453125 -2.652344 C 9.453125 -5.554688 8.871094 -9.203125 9.535156 -12.023438 C 10.117188 -14.011719 10.449219 -16.167969 10.449219 -18.242188 C 10.449219 -19.734375 10.28125 -20.980469 10.613281 -22.472656 L 11.027344 -21.476562 C 11.691406 -19.652344 12.355469 -17.992188 13.183594 -16.253906 C 15.257812 -11.941406 18.160156 -7.628906 19.238281 -2.902344 C 19.652344 -0.746094 20.894531 4.476562 23.796875 4.476562 C 24.210938 4.476562 24.628906 4.726562 25.042969 4.808594 C 27.613281 4.0625 28.027344 -2.40625 28.027344 -4.644531 C 28.027344 -6.386719 28.523438 -7.960938 28.523438 -9.617188 L 28.523438 -9.949219 C 28.359375 -11.441406 28.277344 -12.519531 29.023438 -13.929688 C 29.023438 -14.097656 29.269531 -16.667969 29.4375 -16.832031 L 29.269531 -17.746094 C 29.851562 -19.402344 29.933594 -22.554688 29.933594 -24.460938 C 29.933594 -28.277344 30.847656 -37.730469 25.621094 -37.730469 C 22.636719 -37.730469 22.636719 -26.949219 22.304688 -24.792969 C 22.140625 -23.050781 21.476562 -20.8125 21.476562 -18.988281 C 21.476562 -17.414062 20.480469 -15.835938 20.480469 -14.179688 Z M 20.5625 -13.433594 "/></g></g></g><g fill="#ffffff" fill-opacity="1"><g transform="translate(120.681413, 191.657272)"><g><path d="M 25.125 -33.5 C 25.207031 -34.660156 25.457031 -36.152344 25.289062 -37.398438 C 24.957031 -40.546875 19.902344 -42.453125 17.246094 -43.78125 L 16.167969 -43.203125 L 16.003906 -42.703125 C 15.671875 -42.453125 12.933594 -35.074219 12.355469 -33.996094 C 10.53125 -30.515625 8.125 -26.285156 7.132812 -22.472656 C 6.21875 -21.226562 3.316406 -18.324219 3.484375 -16.75 C 3.484375 -16.335938 3.898438 -15.753906 4.230469 -15.589844 L 5.140625 -15.671875 C 3.648438 -12.851562 2.074219 -8.539062 1.242188 -5.222656 L 0.664062 -4.394531 C 0.582031 -3.566406 -0.414062 -1.160156 -0.996094 -0.582031 C -1.078125 0.496094 -1.492188 1.660156 -1.410156 2.820312 C -1.160156 3.234375 -1.078125 3.648438 -0.496094 3.648438 L 0.914062 2.820312 L 1.410156 2.820312 C 2.238281 2.488281 2.40625 1.410156 3.066406 0.828125 L 5.058594 -4.230469 L 5.140625 -4.230469 C 6.300781 -7.132812 8.292969 -9.785156 9.703125 -12.605469 C 12.6875 -13.433594 15.589844 -13.765625 18.492188 -14.925781 C 18.824219 -11.609375 18.078125 -8.292969 18.492188 -4.890625 C 18.738281 -2.488281 20.316406 0 20.5625 2.40625 C 21.558594 3.484375 22.886719 6.632812 24.710938 6.632812 L 24.875 6.632812 C 27.363281 6.386719 28.277344 5.722656 28.027344 3.234375 C 27.945312 2.570312 27.859375 1.988281 27.53125 1.492188 C 27.53125 1.242188 27.53125 -9.203125 27.363281 -11.027344 C 27.03125 -13.683594 26.121094 -18.90625 26.699219 -20.8125 C 26.949219 -21.0625 28.773438 -23.132812 28.773438 -23.300781 C 28.691406 -24.296875 28.109375 -24.296875 27.28125 -24.296875 C 27.199219 -24.210938 26.867188 -23.882812 26.617188 -23.882812 C 26.535156 -23.882812 26.453125 -23.964844 26.367188 -24.128906 L 26.367188 -28.9375 C 25.871094 -30.429688 25.457031 -32.007812 25.125 -33.5 Z M 10.945312 -16.832031 C 11.277344 -18.492188 14.59375 -29.683594 15.257812 -30.929688 L 16.003906 -31.675781 L 16.085938 -31.675781 C 16.75 -32.007812 17.414062 -32.421875 17.992188 -33.003906 C 18.078125 -32.753906 18.160156 -32.421875 18.242188 -32.171875 C 18.65625 -27.859375 17.828125 -23.300781 18.324219 -18.90625 C 16.167969 -17.992188 13.265625 -17.082031 10.945312 -16.832031 Z M 10.945312 -16.832031 "/></g></g></g><g fill="#ffffff" fill-opacity="1"><g transform="translate(151.026519, 191.657272)"><g><path d="M 12.023438 -30.183594 C 12.4375 -31.507812 13.019531 -32.917969 13.019531 -34.328125 C 13.019531 -35.738281 13.019531 -37.398438 12.6875 -38.804688 L 12.933594 -40.050781 C 12.355469 -42.207031 10.117188 -44.195312 7.878906 -44.195312 C 6.136719 -44.195312 5.96875 -42.539062 5.96875 -41.210938 C 5.804688 -40.878906 1.410156 -7.546875 1.410156 -4.976562 C 1.410156 -2.238281 -0.914062 -2.902344 -0.914062 -0.164062 C -0.914062 1.742188 2.15625 1.90625 3.484375 1.90625 C 10.363281 1.90625 17.246094 1.242188 23.796875 -0.828125 C 24.128906 -1.160156 24.378906 -1.660156 24.460938 -2.074219 C 24.296875 -2.652344 23.882812 -3.234375 23.300781 -3.316406 L 22.304688 -3.066406 L 21.726562 -3.730469 C 20.480469 -3.566406 19.402344 -3.484375 18.410156 -3.484375 C 16.417969 -3.484375 14.757812 -3.730469 12.4375 -4.144531 C 11.859375 -3.898438 11.277344 -3.730469 10.695312 -3.730469 L 10.945312 -3.980469 C 10.363281 -3.980469 9.617188 -3.8125 9.121094 -3.566406 L 9.703125 -4.476562 L 9.617188 -4.476562 C 9.617188 -4.476562 9.703125 -4.808594 9.453125 -4.808594 C 9.453125 -5.886719 9.453125 -7.132812 9.617188 -8.210938 L 9.535156 -8.292969 C 9.535156 -11.027344 11.109375 -14.011719 11.195312 -16.914062 C 11.277344 -20.480469 12.355469 -23.964844 12.355469 -27.53125 C 12.355469 -28.359375 12.355469 -29.105469 12.105469 -29.933594 Z M 12.023438 -30.183594 "/></g></g></g><g fill="#ffffff" fill-opacity="1"><g transform="translate(175.640619, 191.657272)"><g/></g></g><g fill="#ffffff" fill-opacity="1"><g transform="translate(191.061898, 191.657272)"><g/></g></g><g fill="#ffffff" fill-opacity="1"><g transform="translate(206.483178, 191.657272)"><g/></g></g><g fill="#ffffff" fill-opacity="1"><g transform="translate(221.904457, 191.657272)"><g/></g></g><g fill="#ffffff" fill-opacity="1"><g transform="translate(237.325736, 191.657272)"><g/></g></g><g fill="#ffffff" fill-opacity="1"><g transform="translate(252.738274, 191.657272)"><g><path d="M 34.742188 -34.082031 C 34.660156 -35.074219 34.496094 -36.070312 34.328125 -37.148438 C 34.246094 -37.398438 34.246094 -37.5625 34.246094 -37.8125 C 34.164062 -37.976562 34.082031 -38.144531 34.082031 -38.390625 C 33.996094 -38.722656 33.832031 -39.136719 33.582031 -39.554688 C 33.332031 -40.132812 32.917969 -40.628906 32.421875 -41.128906 C 32.007812 -41.707031 31.34375 -42.125 30.679688 -42.289062 C 30.597656 -42.371094 30.429688 -42.371094 30.347656 -42.371094 C 30.015625 -42.371094 29.683594 -42.207031 29.4375 -41.875 C 28.855469 -41.210938 28.359375 -39.386719 28.027344 -38.722656 C 27.53125 -37.8125 26.699219 -36.402344 26.285156 -35.40625 L 25.375 -33.75 L 25.042969 -32.917969 L 22.472656 -28.027344 L 19.902344 -23.632812 C 19.320312 -22.636719 18.90625 -21.476562 18.492188 -20.398438 C 18.492188 -20.148438 18.324219 -19.984375 18.242188 -19.734375 C 17.992188 -20.316406 17.828125 -20.894531 17.578125 -21.394531 C 17.414062 -21.808594 17.246094 -22.058594 17.164062 -22.472656 C 16.914062 -23.050781 16.667969 -23.714844 16.5 -24.296875 C 15.921875 -25.621094 15.421875 -26.949219 14.84375 -28.191406 L 13.101562 -32.671875 L 12.769531 -33.832031 C 12.6875 -34.578125 12.519531 -35.242188 12.1875 -36.070312 C 12.105469 -36.234375 11.941406 -36.566406 11.773438 -36.734375 C 11.195312 -37.480469 10.78125 -38.308594 10.363281 -38.890625 L 9.617188 -39.800781 C 9.039062 -40.382812 8.375 -40.960938 7.710938 -41.460938 C 7.296875 -41.707031 6.800781 -41.875 6.300781 -42.039062 C 5.96875 -42.125 5.636719 -42.125 5.308594 -42.125 C 4.890625 -42.039062 4.644531 -41.792969 4.5625 -41.460938 C 4.394531 -41.292969 4.230469 -40.960938 4.3125 -40.714844 L 4.3125 -38.144531 C 4.394531 -37.5625 4.394531 -36.898438 4.3125 -36.234375 C 4.144531 -34.828125 4.0625 -33.332031 3.980469 -31.925781 C 3.980469 -31.507812 3.898438 -30.761719 3.8125 -30.429688 L 3.8125 -28.605469 C 3.730469 -26.949219 3.484375 -25.289062 3.316406 -23.632812 L 3.152344 -22.222656 C 3.234375 -21.890625 3.152344 -21.558594 3.152344 -21.226562 L 3.152344 -21.0625 C 3.066406 -19.570312 2.984375 -18.078125 2.820312 -16.585938 L 2.488281 -14.011719 L 2.320312 -11.941406 C 2.320312 -11.691406 2.238281 -11.441406 2.238281 -11.195312 C 2.074219 -9.453125 1.90625 -7.792969 1.824219 -6.21875 L 1.824219 -5.636719 C 1.824219 -4.976562 1.90625 -4.3125 1.988281 -3.648438 L 1.988281 -3.066406 C 2.238281 -1.660156 3.152344 -0.746094 4.726562 -0.582031 C 4.808594 -0.582031 4.808594 -0.664062 4.890625 -0.664062 C 4.976562 -0.582031 5.222656 -0.582031 5.472656 -0.414062 L 5.554688 -0.332031 C 5.804688 -0.25 6.136719 -0.164062 6.386719 -0.164062 L 6.550781 -0.164062 C 6.964844 -0.25 7.296875 -0.332031 7.628906 -0.496094 C 7.878906 -0.746094 8.125 -0.996094 8.375 -1.410156 L 9.121094 -3.152344 L 9.285156 -3.8125 C 9.453125 -5.222656 9.453125 -6.632812 9.535156 -7.960938 L 9.535156 -9.617188 L 9.785156 -12.273438 C 9.785156 -12.6875 9.785156 -13.101562 9.867188 -13.515625 C 9.949219 -14.59375 10.199219 -15.835938 10.363281 -16.832031 C 10.449219 -17.332031 10.363281 -17.746094 10.449219 -18.160156 C 10.449219 -18.410156 10.53125 -18.574219 10.53125 -18.824219 C 10.613281 -19.734375 10.78125 -20.648438 10.78125 -21.640625 L 10.78125 -22.886719 C 10.945312 -23.796875 10.945312 -24.710938 11.027344 -25.621094 L 13.433594 -19.734375 L 13.929688 -18.824219 L 16.5 -12.6875 L 16.75 -12.273438 C 16.832031 -12.023438 17 -11.773438 17.164062 -11.691406 L 17.164062 -11.609375 C 17.164062 -11.441406 17.164062 -11.359375 17.246094 -11.277344 C 17.414062 -10.53125 17.828125 -9.867188 18.324219 -9.617188 C 19.070312 -9.703125 19.734375 -9.949219 20.234375 -10.53125 L 20.648438 -11.277344 C 20.730469 -11.527344 20.8125 -11.859375 20.980469 -12.1875 L 21.558594 -13.351562 C 21.726562 -13.515625 21.890625 -13.847656 21.972656 -14.097656 L 22.472656 -15.089844 C 23.132812 -16.585938 23.882812 -18.078125 24.710938 -19.484375 C 24.875 -19.902344 25.125 -20.234375 25.375 -20.5625 L 26.367188 -22.140625 L 27.695312 -24.792969 L 27.695312 -24.710938 C 27.53125 -23.300781 27.28125 -21.890625 27.03125 -20.5625 L 26.867188 -17.910156 L 26.867188 -16.667969 C 26.78125 -14.675781 26.699219 -12.355469 26.78125 -10.117188 L 27.03125 -6.054688 C 27.03125 -5.886719 27.113281 -5.722656 27.113281 -5.554688 C 27.363281 -3.066406 28.027344 -0.582031 29.683594 0.164062 C 30.015625 0.414062 30.265625 0.582031 30.597656 0.582031 C 30.679688 0.828125 31.011719 1.242188 31.507812 1.410156 L 31.839844 1.90625 C 31.925781 1.90625 31.925781 1.90625 32.007812 1.988281 C 32.089844 2.074219 32.257812 2.15625 32.339844 2.15625 C 32.421875 2.238281 32.503906 2.238281 32.585938 2.238281 C 32.671875 2.238281 32.835938 2.238281 32.917969 2.15625 C 33.25 2.074219 33.582031 1.824219 33.832031 1.574219 C 34.328125 1.160156 34.660156 0.496094 34.910156 0 C 35.15625 -0.164062 35.324219 -0.582031 35.40625 -0.828125 L 35.074219 -2.15625 C 34.992188 -2.488281 34.910156 -2.902344 34.910156 -3.398438 L 34.660156 -6.550781 L 34.660156 -8.125 C 34.660156 -9.285156 34.910156 -10.613281 34.828125 -11.773438 C 34.828125 -12.1875 34.742188 -12.605469 34.660156 -13.019531 L 34.496094 -13.019531 L 34.496094 -13.597656 C 34.578125 -14.011719 34.828125 -14.097656 34.992188 -14.179688 C 34.992188 -14.429688 34.910156 -14.757812 34.910156 -15.257812 L 34.910156 -19.570312 C 34.828125 -19.984375 34.828125 -20.316406 34.828125 -20.730469 C 34.742188 -22.71875 34.742188 -24.792969 34.660156 -25.953125 L 34.578125 -25.871094 L 34.578125 -26.535156 C 34.578125 -28.605469 34.660156 -31.011719 34.742188 -33.085938 Z M 34.742188 -34.082031 "/></g></g></g><g fill="#ffffff" fill-opacity="1"><g transform="translate(291.871847, 191.657272)"><g><path d="M 20.316406 -25.457031 C 19.484375 -25.457031 11.941406 -24.542969 11.527344 -24.378906 C 11.859375 -25.707031 12.605469 -26.035156 12.605469 -27.53125 C 12.605469 -28.441406 12.355469 -29.269531 12.023438 -30.101562 C 12.355469 -31.011719 11.527344 -33.5 11.527344 -34.660156 L 11.609375 -34.992188 C 12.105469 -35.738281 12.1875 -36.734375 12.355469 -37.5625 L 12.6875 -37.5625 C 13.183594 -37.5625 14.261719 -37.230469 14.757812 -37.066406 L 14.84375 -37.148438 L 15.421875 -36.980469 L 15.507812 -36.980469 L 16.085938 -37.730469 L 16.585938 -37.8125 L 17 -37.644531 L 17.578125 -37.8125 C 17.992188 -37.730469 18.410156 -37.644531 18.824219 -37.644531 C 20.066406 -37.644531 21.308594 -38.058594 22.554688 -38.058594 C 22.886719 -38.058594 23.21875 -38.058594 23.550781 -37.976562 C 23.964844 -38.058594 24.460938 -38.390625 24.875 -38.390625 L 25.207031 -38.226562 C 25.953125 -38.308594 26.203125 -39.222656 26.453125 -39.882812 L 26.203125 -40.546875 L 26.285156 -40.796875 C 25.953125 -41.210938 25.375 -41.792969 24.792969 -41.792969 C 17.828125 -41.792969 11.109375 -41.292969 4.144531 -40.382812 L 4.5625 -40.382812 C 5.554688 -40.382812 3.648438 -39.636719 4.644531 -36.898438 L 4.976562 -36.980469 L 5.636719 -35.90625 C 5.390625 -32.257812 4.476562 -28.605469 4.476562 -24.875 C 4.230469 -24.378906 3.980469 -23.796875 4.394531 -20.398438 C 4.394531 -15.007812 2.40625 -9.203125 2.570312 -3.980469 L 2.984375 -2.902344 C 2.320312 -1.742188 4.644531 0.332031 5.804688 0.332031 C 6.21875 -0.25 6.800781 -0.828125 7.546875 -0.828125 L 7.792969 -1.078125 C 9.039062 -1.078125 16.914062 -1.410156 17.578125 -1.90625 L 17.992188 -1.824219 C 21.144531 -2.984375 25.125 -1.574219 25.125 -5.886719 C 25.125 -6.800781 25.042969 -8.125 23.882812 -8.125 C 21.226562 -8.125 18.492188 -6.136719 15.921875 -6.136719 L 13.765625 -6.21875 L 13.597656 -6.136719 L 13.351562 -6.136719 C 12.1875 -6.136719 11.195312 -5.636719 10.035156 -5.472656 C 10.53125 -7.546875 10.035156 -16.75 11.859375 -16.75 L 11.773438 -16.75 L 12.519531 -18.410156 C 12.4375 -18.90625 12.519531 -19.484375 12.6875 -19.984375 L 12.519531 -20.5625 L 12.6875 -20.980469 L 13.265625 -20.730469 C 14.011719 -20.648438 18.574219 -21.308594 19.15625 -21.808594 C 19.570312 -21.808594 19.984375 -21.808594 20.316406 -21.726562 C 21.144531 -21.972656 21.726562 -23.21875 21.972656 -23.964844 C 21.808594 -24.710938 21.144531 -25.457031 20.316406 -25.457031 Z M 20.316406 -25.457031 "/></g></g></g></svg>