<svg xmlns="http://www.w3.org/2000/svg" xmlns:xlink="http://www.w3.org/1999/xlink" width="500" zoomAndPan="magnify" viewBox="0 0 375 374.999991" height="500" preserveAspectRatio="xMidYMid meet" version="1.0"><defs><clipPath id="c9c211caa9"><path d="M 78.5 37.5 L 287 37.5 L 287 323 L 78.5 323 Z M 78.5 37.5 " clip-rule="nonzero"/></clipPath></defs><g clip-path="url(#c9c211caa9)"><path fill="#68865e" d="M 138.394531 141.308594 C 136.359375 124.421875 142.71875 110.304688 150.597656 96.515625 C 153.753906 91.003906 156.234375 85.109375 159.242188 79.511719 C 160.011719 78.097656 161.648438 77.15625 162.886719 76.003906 C 163.863281 77.433594 165.457031 78.761719 165.738281 80.320312 C 167.847656 92.140625 166.519531 103.558594 160.835938 114.285156 C 158.300781 119.085938 155.082031 123.566406 152.957031 128.53125 C 150.375 134.558594 148.234375 140.851562 146.597656 147.199219 C 144.917969 153.773438 146.804688 159.945312 150.421875 165.648438 C 152.265625 168.550781 153.695312 171.703125 155.703125 175.503906 C 155.761719 174 155.835938 173.207031 155.804688 172.425781 C 155.40625 163.953125 158.035156 156.230469 161.828125 148.835938 C 168.480469 135.871094 175.121094 122.902344 181.863281 109.980469 C 182.351562 109.054688 183.753906 107.742188 184.34375 107.917969 C 185.523438 108.257812 186.941406 109.320312 187.398438 110.425781 C 191.632812 120.5625 191.234375 130.859375 187.839844 141.101562 C 184.433594 151.355469 177.792969 159.621094 171.109375 167.917969 C 167.683594 172.160156 165.058594 177.097656 162.492188 181.957031 C 161.78125 183.3125 161.960938 185.863281 162.800781 187.203125 C 168.140625 195.707031 173.792969 204.03125 179.738281 212.25 C 177.925781 201.714844 181.820312 192.875 186.894531 184.332031 C 191.839844 176.019531 196.976562 167.8125 201.609375 159.328125 C 203.746094 155.40625 204.765625 150.914062 206.535156 146.773438 C 207.082031 145.476562 208.394531 144.519531 209.355469 143.398438 C 210.3125 144.546875 211.832031 145.550781 212.144531 146.847656 C 216.230469 164.085938 214.769531 180.265625 202.507812 194.21875 C 199.277344 197.902344 195.792969 201.378906 192.871094 205.296875 C 190.867188 207.992188 189.226562 211.132812 188.152344 214.3125 C 186.691406 218.617188 187.308594 222.535156 190.570312 226.410156 C 196.355469 233.292969 201.460938 240.746094 207.273438 247.90625 C 205.710938 232.6875 213.605469 220.945312 220.835938 208.964844 C 227.179688 198.460938 232.652344 187.617188 234.085938 175.164062 C 234.21875 174.03125 235.636719 173.042969 236.460938 171.984375 C 237.421875 172.75 238.867188 173.324219 239.265625 174.324219 C 245.507812 189.8125 246.9375 205.253906 237.097656 219.839844 C 232.964844 225.953125 227.769531 231.363281 223.105469 237.121094 C 219.019531 242.148438 215.847656 247.597656 215.640625 254.300781 C 215.609375 255.4375 215.625 256.984375 216.304688 257.648438 C 222.738281 264.042969 229.320312 270.289062 236.285156 276.402344 C 233.050781 264.175781 237.671875 254.183594 244.253906 244.726562 C 250.523438 235.707031 256.792969 226.675781 263.167969 217.71875 C 263.832031 216.773438 265.78125 215.523438 266.105469 215.757812 C 267.464844 216.773438 268.96875 218.160156 269.457031 219.707031 C 273.765625 233.585938 272.273438 246.671875 263.359375 258.5 C 259.378906 263.792969 254.816406 268.667969 251.1875 274.179688 C 249.269531 277.109375 248.621094 280.957031 247.777344 284.476562 C 247.527344 285.539062 248.175781 287.292969 249.019531 288.042969 C 253.710938 292.273438 258.59375 296.292969 263.820312 300.730469 C 263.289062 291.417969 266.046875 283.566406 269.867188 276.066406 C 270.457031 274.914062 272.15625 273.855469 273.4375 273.722656 C 274.101562 273.648438 275.445312 275.652344 275.683594 276.859375 C 277.660156 287.160156 276.539062 297.148438 271.90625 306.976562 C 276.125 310.277344 280.492188 313.476562 284.578125 316.980469 C 285.703125 317.953125 286.96875 320.371094 286.5 321.269531 C 285.304688 323.566406 283.148438 322.640625 281.4375 321.359375 C 277.289062 318.261719 273.070312 315.257812 269.070312 311.988281 C 267.199219 310.453125 265.796875 310.691406 263.730469 311.605469 C 256.367188 314.859375 248.902344 317.925781 241.390625 320.828125 C 239.605469 321.519531 237.390625 321.683594 235.515625 321.328125 C 233.789062 321.003906 231.605469 320.003906 230.867188 318.617188 C 230.382812 317.71875 231.695312 314.902344 232.917969 314.183594 C 239.515625 310.335938 246.347656 306.84375 253.121094 303.292969 C 254.007812 302.835938 255.054688 302.691406 256.410156 302.277344 C 252.027344 298.5625 248.074219 295.058594 243.925781 291.785156 C 243.070312 291.109375 241.390625 290.886719 240.296875 291.183594 C 232.667969 293.304688 224.863281 295.058594 217.53125 297.988281 C 202.332031 304.046875 187.25 305.59375 171.917969 298.992188 C 170.429688 298.34375 169.367188 296.722656 168.097656 295.542969 C 169.527344 294.585938 170.84375 293.273438 172.4375 292.730469 C 177.304688 291.050781 182.515625 290.195312 187.148438 288.074219 C 200.515625 281.929688 214.269531 278.1875 230.367188 279.628906 C 228.050781 277.464844 226.515625 276.035156 224.996094 274.578125 C 221.558594 271.277344 217.914062 268.136719 214.753906 264.585938 C 212.054688 261.566406 208.882812 260.566406 205.015625 260.167969 C 195.691406 259.195312 186.824219 261.609375 177.984375 263.71875 C 160.5 267.886719 143.722656 265.207031 127.210938 259.253906 C 125.851562 258.765625 124.921875 257.085938 123.800781 255.96875 C 125.15625 255.230469 126.441406 254.183594 127.902344 253.832031 C 137.375 251.488281 147.039062 249.851562 156.324219 246.921875 C 170.164062 242.542969 183.621094 242.207031 197.109375 247.789062 C 197.667969 248.027344 198.300781 248.085938 199.160156 247.90625 C 193.566406 241.824219 190.96875 233.410156 183 229.285156 C 180.035156 227.75 177.320312 226.601562 174.015625 227.265625 C 170.132812 228.046875 166.164062 228.5625 162.386719 229.695312 C 152.675781 232.628906 142.863281 232.910156 133.390625 229.667969 C 123.003906 226.132812 112.925781 221.667969 102.847656 217.277344 C 101.28125 216.597656 100.457031 214.210938 99.289062 212.605469 C 100.972656 211.839844 102.609375 210.570312 104.351562 210.378906 C 114.476562 209.289062 124.671875 208.773438 134.765625 207.460938 C 147.484375 205.796875 158.976562 208.730469 169.75 215.316406 C 172.773438 217.171875 175.816406 219.027344 178.972656 220.972656 C 172.40625 211.25 166.0625 201.671875 159.480469 192.242188 C 158.625 191.019531 156.675781 190.003906 155.15625 189.886719 C 149.769531 189.503906 144.265625 188.867188 138.953125 189.546875 C 114.078125 192.757812 94.644531 183.503906 79.296875 164.425781 C 78.617188 163.570312 78.734375 162.082031 78.484375 160.886719 C 79.796875 160.667969 81.421875 159.855469 82.367188 160.34375 C 93.402344 165.957031 105.253906 166.632812 117.277344 166.621094 C 128.921875 166.605469 139.871094 169.214844 149.992188 175.742188 C 147.367188 170.804688 144.828125 165.824219 142.054688 160.992188 C 141.550781 160.105469 140.089844 159.769531 139.058594 159.207031 C 126.308594 152.179688 112.277344 147.113281 101.667969 136.785156 C 94.804688 130.109375 88.960938 122.359375 82.972656 114.84375 C 81.921875 113.53125 82.410156 111.011719 82.175781 109.054688 C 84.09375 109.480469 86.394531 109.378906 87.855469 110.4375 C 102.507812 121.152344 117.027344 132.039062 131.578125 142.882812 C 132.300781 143.429688 133.039062 143.972656 134.542969 145.078125 C 132.949219 140.789062 131.578125 137.34375 130.367188 133.835938 C 128.210938 127.574219 126.339844 121.222656 123.976562 115.050781 C 123.210938 113.0625 121.632812 110.777344 119.800781 109.910156 C 105.503906 103.144531 94.878906 92.640625 87.132812 79.027344 C 85.554688 76.269531 83.722656 73.632812 82.367188 70.773438 C 81.804688 69.597656 82.1875 67.976562 82.160156 66.546875 C 83.589844 66.796875 85.390625 66.574219 86.378906 67.371094 C 96.515625 75.460938 106.535156 83.710938 116.585938 91.933594 C 116.9375 92.226562 117.292969 92.535156 118.265625 92.375 C 115.566406 87.585938 113.074219 82.664062 110.121094 78.039062 C 103.203125 67.164062 98.625 55.65625 99.808594 42.5 C 99.953125 40.9375 101.222656 39.464844 101.960938 37.945312 C 103.320312 38.800781 105.132812 39.347656 105.945312 40.554688 C 112.675781 50.558594 119.742188 60.488281 121.957031 72.660156 C 122.960938 78.15625 122.839844 83.84375 123.195312 88.898438 C 129.539062 77.714844 136.164062 66.164062 142.644531 54.523438 C 143.988281 52.105469 144.679688 49.335938 145.859375 46.832031 C 146.257812 45.976562 147.410156 44.738281 147.941406 44.871094 C 148.886719 45.078125 149.992188 46.050781 150.375 46.980469 C 150.980469 48.40625 151.128906 50.042969 151.304688 51.605469 C 152.882812 66.457031 148.101562 79.542969 140.121094 91.742188 C 138.601562 94.070312 137.09375 96.425781 135.441406 98.652344 C 129.496094 106.695312 127.679688 115.226562 131.785156 124.714844 C 134.128906 130.183594 136.195312 135.78125 138.394531 141.308594 Z M 267.09375 233.304688 C 262.859375 240.203125 258.890625 247.199219 254.40625 253.847656 C 248.164062 263.097656 244.179688 271.070312 244.28125 274.605469 C 248.945312 268.757812 253.976562 262.480469 258.980469 256.175781 C 264.320312 249.441406 267.199219 241.851562 267.09375 233.304688 Z M 157.886719 94.421875 C 157.546875 94.320312 157.207031 94.203125 156.867188 94.097656 C 149.105469 108.035156 140.546875 121.726562 142.40625 138.992188 C 147.632812 123.949219 152.765625 109.1875 157.886719 94.421875 Z M 165.75 220.222656 C 151.394531 217.261719 138.128906 215.890625 124.007812 217.703125 C 137.714844 222.90625 151.070312 222.992188 165.75 220.222656 Z M 92.929688 78.671875 C 102.34375 92.800781 112.246094 101.863281 119.816406 103.292969 C 112.46875 92.832031 102.375 86.082031 92.929688 78.671875 Z M 189.613281 297.828125 C 204.132812 299.859375 216.335938 292.332031 229.363281 288.234375 C 215.65625 289.515625 202.433594 292.816406 189.613281 297.828125 Z M 231.132812 285.613281 C 218.132812 282.519531 195.792969 287.292969 180.523438 296.515625 C 197.371094 292.847656 213.558594 286.144531 231.132812 285.613281 Z M 127.667969 99.507812 C 128.035156 99.683594 128.390625 99.859375 128.757812 100.035156 C 136.652344 88.101562 145.519531 76.59375 146.878906 60.429688 C 140.136719 74.148438 133.894531 86.835938 127.667969 99.507812 Z M 185.273438 204.058594 C 185.714844 204.308594 186.144531 204.558594 186.585938 204.8125 C 194.347656 192.789062 203.910156 181.707031 206.269531 166.871094 C 199.277344 179.261719 192.28125 191.652344 185.273438 204.058594 Z M 188.105469 254.097656 C 173.277344 249 158.875 254.789062 144.207031 256.320312 C 144.238281 256.703125 144.265625 257.085938 144.28125 257.46875 C 158.890625 256.335938 173.5 255.214844 188.105469 254.097656 Z M 97.226562 174.253906 C 106.550781 182.785156 128.933594 188.207031 137.730469 184.183594 C 124.050781 181.207031 109.902344 180.792969 97.226562 174.253906 Z M 120.257812 219.605469 C 134.320312 228.089844 163.214844 229.460938 172.007812 222.019531 C 154.535156 225.675781 137.226562 226.351562 120.257812 219.605469 Z M 159.125 170.761719 C 162.519531 163.730469 165.648438 157.203125 168.820312 150.691406 C 171.933594 144.296875 175.078125 137.902344 178.207031 131.507812 C 177.761719 131.300781 177.320312 131.097656 176.878906 130.890625 C 170.324219 143.707031 160.71875 155.113281 159.125 170.761719 Z M 166.402344 161.167969 C 175.371094 151.914062 181.289062 141.234375 182.691406 128.03125 C 177.15625 139.289062 171.773438 150.234375 166.402344 161.167969 Z M 188.121094 256.027344 C 174.988281 257.175781 161.855469 258.324219 148.015625 259.535156 C 156.5 262.40625 170.3125 261.375 188.121094 256.027344 Z M 264.128906 231.582031 C 259.273438 238.566406 254.183594 245.773438 249.226562 253.050781 C 247.292969 255.878906 245.285156 258.753906 243.925781 261.859375 C 242.113281 266.074219 240.886719 270.539062 239.414062 274.902344 C 239.914062 275.078125 240.414062 275.269531 240.933594 275.445312 C 244.414062 258.414062 258.90625 247.246094 264.128906 231.582031 Z M 216.777344 232.777344 C 217.203125 232.953125 217.617188 233.113281 218.046875 233.292969 C 224.714844 219.53125 238.261719 209.082031 237.65625 191.828125 C 236.445312 202.351562 230.25 210.394531 224.582031 218.792969 C 221.601562 223.199219 219.34375 228.105469 216.777344 232.777344 Z M 160.4375 215.730469 C 148.382812 209.113281 135.296875 211.882812 122.945312 213.796875 C 135.175781 214.417969 148.101562 215.082031 160.4375 215.730469 Z M 104.5 170.894531 C 118.546875 173.546875 131.769531 176.050781 144.105469 178.378906 C 132.890625 170.597656 119.035156 171.261719 104.5 170.894531 Z M 212.070312 235.457031 C 217.308594 226.792969 223.035156 217.660156 228.390625 208.316406 C 231 203.765625 232.917969 198.800781 235.148438 194.027344 C 234.660156 193.804688 234.160156 193.582031 233.671875 193.347656 C 228.007812 208.464844 216.496094 220.589844 212.070312 235.457031 Z M 124.539062 101.511719 C 129.953125 90.121094 135.234375 78.980469 140.535156 67.855469 C 133.449219 78.257812 125.601562 88.324219 124.539062 101.511719 Z M 151.230469 120.945312 C 157.25 111.574219 162.59375 101.953125 162.296875 94.597656 C 159.597656 100.996094 155.421875 110.96875 151.230469 120.945312 Z M 117.382812 74.5625 C 115.980469 65.027344 111.035156 57.425781 105.828125 49.96875 C 109.605469 58.03125 113.398438 66.105469 117.382812 74.5625 Z M 90.261719 117.4375 C 90.082031 117.703125 89.890625 117.953125 89.714844 118.21875 C 99.96875 125.984375 110.226562 133.75 120.480469 141.511719 C 120.746094 141.160156 121.011719 140.820312 121.277344 140.46875 C 111.359375 133.027344 101.445312 125.585938 91.515625 118.160156 C 91.132812 117.878906 90.671875 117.671875 90.261719 117.4375 Z M 115.757812 80.320312 C 116.140625 80.128906 116.511719 79.9375 116.894531 79.746094 C 113.027344 71.539062 109.175781 63.320312 104.914062 54.273438 C 106.59375 64.453125 111.199219 72.378906 115.757812 80.320312 Z M 242.007812 256.75 C 242.347656 256.984375 242.703125 257.234375 243.042969 257.46875 C 248.574219 249.734375 254.109375 242 259.644531 234.277344 C 259.246094 234 258.832031 233.71875 258.433594 233.4375 C 252.972656 241.203125 247.5 248.984375 242.007812 256.75 Z M 113.175781 175.417969 C 113.042969 175.960938 112.910156 176.492188 112.777344 177.035156 C 121.042969 178.171875 129.304688 179.304688 137.566406 180.425781 C 137.625 180.011719 137.6875 179.601562 137.757812 179.171875 C 129.570312 177.921875 121.378906 176.667969 113.175781 175.417969 Z M 257.652344 307.625 C 257.488281 307.359375 257.339844 307.09375 257.179688 306.828125 C 251.070312 309.6875 244.960938 312.5625 238.851562 315.417969 C 238.984375 315.699219 239.117188 315.980469 239.234375 316.246094 C 245.375 313.371094 251.511719 310.5 257.652344 307.625 Z M 184.078125 197.8125 C 184.417969 197.988281 184.742188 198.164062 185.082031 198.355469 C 189.347656 191.050781 193.59375 183.726562 197.859375 176.417969 C 197.550781 176.242188 197.253906 176.066406 196.945312 175.902344 C 192.652344 183.195312 188.355469 190.503906 184.078125 197.8125 Z M 184.699219 249.382812 C 177.304688 247.421875 164.585938 248.230469 161.175781 250.605469 C 168.65625 250.207031 177.082031 249.78125 184.699219 249.382812 Z M 226.042969 225.203125 C 232.816406 218.851562 236.992188 212.058594 237.242188 208.039062 C 233.628906 213.578125 229.835938 219.382812 226.042969 225.203125 Z M 272.570312 285.496094 C 272.171875 285.378906 271.785156 285.257812 271.386719 285.125 C 270.253906 290.886719 269.101562 296.632812 267.964844 302.394531 C 268.40625 302.46875 268.835938 302.558594 269.277344 302.628906 C 270.386719 296.929688 271.476562 291.210938 272.570312 285.496094 Z M 200.753906 188.21875 C 201.0625 188.382812 201.371094 188.542969 201.695312 188.707031 C 204.335938 183.09375 206.980469 177.480469 209.621094 171.867188 C 209.28125 171.703125 208.957031 171.554688 208.617188 171.394531 C 205.992188 176.992188 203.363281 182.605469 200.753906 188.21875 Z M 113.339844 140.570312 C 113.53125 140.320312 113.738281 140.070312 113.929688 139.820312 C 110.0625 136.753906 106.183594 133.675781 102.316406 130.609375 C 102.109375 130.875 101.902344 131.140625 101.695312 131.390625 C 105.578125 134.441406 109.457031 137.503906 113.339844 140.570312 Z M 113.339844 140.570312 " fill-opacity="1" fill-rule="nonzero"/></g></svg>