<svg xmlns="http://www.w3.org/2000/svg" xmlns:xlink="http://www.w3.org/1999/xlink" width="500" zoomAndPan="magnify" viewBox="0 0 375 374.999991" height="500" preserveAspectRatio="xMidYMid meet" version="1.0"><defs><clipPath id="3a0272e180"><path d="M 89 58.613281 L 311.246094 58.613281 L 311.246094 270 L 89 270 Z M 89 58.613281 " clip-rule="nonzero"/></clipPath><clipPath id="66a7757fd7"><path d="M 63.746094 82 L 288 82 L 288 295.613281 L 63.746094 295.613281 Z M 63.746094 82 " clip-rule="nonzero"/></clipPath></defs><g clip-path="url(#3a0272e180)"><path fill="#ffc99d" d="M 303.753906 112.195312 C 302.351562 109.121094 300.75 106.175781 298.964844 103.351562 C 289.875 88.929688 275.972656 77.695312 258.164062 69.46875 C 254.917969 67.96875 251.625 66.652344 248.289062 65.496094 C 246.816406 64.980469 245.328125 64.507812 243.835938 64.058594 C 231.765625 60.421875 219.128906 58.796875 205.898438 58.601562 C 203.535156 58.640625 201.175781 58.738281 198.824219 58.875 C 197.324219 58.96875 195.824219 59.074219 194.328125 59.203125 C 178.546875 60.585938 163.113281 64.351562 148.496094 71.324219 C 147.019531 72.027344 145.550781 72.757812 144.09375 73.523438 C 142.78125 74.214844 141.476562 74.933594 140.179688 75.683594 C 135.90625 78.144531 131.863281 80.824219 128.054688 83.71875 C 125.902344 85.355469 123.832031 87.058594 121.84375 88.839844 C 111.882812 97.765625 103.992188 108.585938 98.804688 121.746094 C 98.617188 122.222656 98.441406 122.703125 98.269531 123.1875 C 97.925781 124.128906 97.605469 125.078125 97.304688 126.039062 C 96.074219 129.964844 95.125 134 94.011719 137.964844 C 93.046875 141.40625 92.253906 144.832031 91.628906 148.242188 C 91.441406 149.269531 91.269531 150.296875 91.113281 151.324219 C 90.1875 157.359375 89.804688 163.339844 89.980469 169.25 C 90.023438 170.664062 90.101562 172.066406 90.207031 173.464844 C 90.230469 173.773438 90.25 174.082031 90.277344 174.386719 C 90.277344 174.410156 90.277344 174.429688 90.28125 174.453125 C 90.320312 174.875 90.363281 175.300781 90.40625 175.722656 C 90.511719 176.792969 90.628906 177.863281 90.773438 178.929688 C 91.660156 185.441406 93.253906 191.871094 95.5625 198.195312 C 96.027344 199.472656 96.519531 200.75 97.042969 202.019531 C 97.546875 203.226562 98.078125 204.429688 98.628906 205.628906 C 99.800781 208.160156 101.078125 210.675781 102.488281 213.171875 C 106.257812 219.847656 110.589844 225.972656 115.382812 231.527344 C 115.820312 232.035156 116.257812 232.542969 116.703125 233.042969 C 119.929688 236.652344 123.363281 240 126.96875 243.097656 C 127.558594 243.609375 128.160156 244.109375 128.765625 244.609375 C 129.933594 245.574219 131.125 246.511719 132.335938 247.421875 C 133.195312 248.078125 134.070312 248.710938 134.949219 249.332031 C 138.78125 252.046875 142.765625 254.496094 146.878906 256.667969 C 147.085938 256.777344 147.292969 256.890625 147.507812 256.996094 C 149.691406 258.136719 151.914062 259.195312 154.167969 260.175781 C 155.421875 260.722656 156.691406 261.242188 157.96875 261.738281 C 159.714844 262.417969 161.476562 263.058594 163.253906 263.648438 C 164.347656 264.007812 165.441406 264.351562 166.542969 264.675781 C 170.570312 265.871094 174.671875 266.824219 178.820312 267.535156 C 180.851562 267.882812 182.898438 268.167969 184.957031 268.398438 C 190.429688 269.011719 195.972656 269.210938 201.539062 268.96875 C 202.753906 268.917969 203.972656 268.839844 205.1875 268.746094 C 206.851562 268.617188 208.523438 268.449219 210.1875 268.242188 C 210.945312 268.144531 211.710938 268.046875 212.46875 267.933594 C 214.285156 267.671875 216.101562 267.359375 217.914062 266.996094 C 217.972656 266.984375 218.027344 266.972656 218.085938 266.960938 C 219.921875 266.59375 221.757812 266.179688 223.589844 265.710938 C 224.675781 265.4375 225.761719 265.148438 226.84375 264.835938 C 231.339844 263.546875 235.808594 261.960938 240.222656 260.0625 C 242.609375 259.039062 244.980469 257.917969 247.328125 256.710938 C 247.480469 256.632812 247.636719 256.558594 247.789062 256.480469 C 249.980469 255.347656 252.089844 254.160156 254.160156 252.949219 C 254.980469 252.472656 255.800781 251.988281 256.601562 251.496094 C 260.761719 248.949219 264.667969 246.242188 268.328125 243.394531 C 268.875 242.96875 269.429688 242.550781 269.960938 242.117188 C 272.40625 240.148438 274.734375 238.105469 276.953125 235.996094 C 277.59375 235.390625 278.21875 234.773438 278.839844 234.15625 C 284.886719 228.132812 290.0625 221.589844 294.371094 214.550781 C 295.246094 213.128906 296.074219 211.679688 296.871094 210.214844 C 298.605469 207.058594 300.179688 203.8125 301.589844 200.46875 C 301.699219 200.210938 301.804688 199.953125 301.910156 199.699219 C 302.605469 198.015625 303.25 196.308594 303.867188 194.582031 C 304.054688 194.054688 304.246094 193.53125 304.429688 193 C 304.742188 192.085938 305.03125 191.15625 305.320312 190.230469 C 305.339844 190.175781 305.355469 190.121094 305.375 190.0625 C 306.421875 186.671875 307.328125 183.207031 308.089844 179.660156 C 308.292969 178.707031 308.496094 177.753906 308.679688 176.789062 C 309.722656 171.308594 310.425781 165.652344 310.804688 159.832031 C 310.90625 158.253906 310.988281 156.664062 311.042969 155.058594 C 311.140625 152.105469 311.160156 149.113281 311.101562 146.078125 C 310.84375 133.445312 308.3125 122.167969 303.753906 112.195312 " fill-opacity="1" fill-rule="nonzero"/></g><g clip-path="url(#66a7757fd7)"><path fill="#a56041" d="M 180.996094 85.144531 C 178.84375 85.179688 176.542969 85.273438 174.003906 85.421875 C 172.472656 85.511719 170.96875 85.621094 169.542969 85.746094 C 153.082031 87.1875 137.792969 91.226562 124.09375 97.757812 C 122.492188 98.523438 121.066406 99.234375 119.734375 99.941406 C 118.421875 100.632812 117.117188 101.351562 115.855469 102.078125 C 111.648438 104.503906 107.609375 107.175781 103.851562 110.035156 C 101.710938 111.660156 99.648438 113.363281 97.710938 115.097656 C 87.511719 124.238281 79.855469 135.164062 74.96875 147.578125 C 74.800781 148.007812 74.640625 148.441406 74.484375 148.875 L 74.441406 148.992188 C 74.105469 149.929688 73.785156 150.875 73.492188 151.792969 C 72.730469 154.238281 72.058594 156.777344 71.414062 159.230469 C 71.019531 160.722656 70.625 162.210938 70.210938 163.6875 C 69.269531 167.050781 68.472656 170.476562 67.851562 173.863281 C 67.667969 174.882812 67.496094 175.898438 67.34375 176.910156 C 66.425781 182.894531 66.050781 188.859375 66.222656 194.636719 C 66.261719 195.972656 66.332031 197.332031 66.445312 198.800781 L 66.460938 199.007812 C 66.476562 199.242188 66.496094 199.476562 66.511719 199.710938 L 66.519531 199.792969 C 66.550781 200.117188 66.585938 200.464844 66.617188 200.808594 L 66.640625 201.03125 C 66.761719 202.242188 66.878906 203.246094 67.007812 204.195312 C 67.878906 210.613281 69.472656 217.019531 71.734375 223.226562 C 72.234375 224.597656 72.714844 225.832031 73.199219 227.007812 C 73.648438 228.09375 74.164062 229.257812 74.769531 230.574219 C 75.945312 233.125 77.230469 235.636719 78.585938 238.035156 C 82.242188 244.523438 86.539062 250.636719 91.347656 256.214844 L 91.398438 256.269531 C 91.816406 256.753906 92.230469 257.234375 92.65625 257.710938 C 95.792969 261.21875 99.214844 264.566406 102.816406 267.664062 C 103.40625 268.167969 103.996094 268.664062 104.59375 269.15625 C 105.796875 270.144531 106.988281 271.085938 108.128906 271.945312 C 108.980469 272.589844 109.847656 273.214844 110.71875 273.832031 C 114.488281 276.5 118.457031 278.945312 122.519531 281.089844 L 123.140625 281.417969 C 125.300781 282.542969 127.519531 283.601562 129.734375 284.5625 C 130.882812 285.0625 132.113281 285.570312 133.492188 286.109375 C 135.238281 286.792969 137 287.425781 138.726562 287.996094 C 139.824219 288.359375 140.917969 288.703125 141.980469 289.015625 C 145.953125 290.191406 150.042969 291.144531 154.125 291.84375 C 156.058594 292.175781 158.101562 292.460938 160.195312 292.695312 C 165.652344 293.308594 171.171875 293.5 176.605469 293.261719 C 177.710938 293.214844 178.894531 293.144531 180.214844 293.039062 C 181.863281 292.914062 183.527344 292.746094 185.164062 292.542969 C 185.917969 292.449219 186.671875 292.351562 187.421875 292.238281 C 189.1875 291.980469 191 291.671875 192.808594 291.308594 L 192.992188 291.273438 C 194.792969 290.914062 196.625 290.496094 198.429688 290.039062 C 199.527344 289.761719 200.609375 289.46875 201.648438 289.171875 C 206.15625 287.878906 210.609375 286.289062 214.894531 284.449219 C 217.222656 283.449219 219.589844 282.332031 221.929688 281.128906 L 222.386719 280.898438 C 224.355469 279.875 226.425781 278.734375 228.707031 277.398438 C 229.523438 276.921875 230.335938 276.441406 231.128906 275.957031 C 235.1875 273.46875 239.101562 270.769531 242.753906 267.921875 L 243.242188 267.546875 C 243.621094 267.253906 244 266.957031 244.371094 266.660156 C 246.746094 264.746094 249.074219 262.707031 251.292969 260.601562 C 251.925781 260 252.542969 259.390625 253.160156 258.777344 C 259.097656 252.863281 264.269531 246.335938 268.527344 239.382812 C 269.316406 238.089844 270.128906 236.6875 271 235.09375 C 272.726562 231.949219 274.296875 228.703125 275.667969 225.449219 L 275.984375 224.6875 C 276.621094 223.144531 277.253906 221.488281 277.921875 219.621094 L 278.117188 219.082031 C 278.242188 218.742188 278.359375 218.398438 278.476562 218.058594 C 278.785156 217.152344 279.074219 216.234375 279.359375 215.316406 L 279.410156 215.160156 C 280.449219 211.800781 281.355469 208.335938 282.101562 204.84375 L 282.125 204.757812 C 282.316406 203.839844 282.511719 202.921875 282.6875 201.996094 C 283.710938 196.613281 284.421875 190.953125 284.796875 185.175781 C 284.902344 183.554688 284.980469 181.960938 285.035156 180.4375 C 285.132812 177.511719 285.152344 174.507812 285.089844 171.519531 C 284.839844 159.3125 282.40625 148.058594 277.847656 138.078125 C 276.496094 135.121094 274.90625 132.1875 273.128906 129.371094 C 264.375 115.484375 250.808594 104.226562 232.808594 95.910156 C 229.691406 94.472656 226.402344 93.148438 223.035156 91.976562 C 221.628906 91.488281 220.1875 91.023438 218.625 90.554688 C 207.230469 87.121094 194.921875 85.351562 180.996094 85.144531 Z M 172.078125 295.613281 C 168.039062 295.613281 163.972656 295.386719 159.949219 294.933594 C 157.804688 294.695312 155.71875 294.402344 153.742188 294.0625 C 149.578125 293.347656 145.402344 292.378906 141.339844 291.179688 C 140.253906 290.855469 139.136719 290.507812 138.015625 290.132812 C 136.253906 289.550781 134.457031 288.902344 132.675781 288.207031 C 131.265625 287.65625 130.011719 287.140625 128.832031 286.625 C 126.574219 285.644531 124.308594 284.566406 122.101562 283.414062 L 121.46875 283.082031 C 117.320312 280.890625 113.265625 278.394531 109.414062 275.667969 C 108.527344 275.039062 107.644531 274.402344 106.769531 273.742188 C 105.605469 272.863281 104.390625 271.90625 103.164062 270.894531 C 102.554688 270.394531 101.949219 269.886719 101.351562 269.371094 C 97.671875 266.210938 94.179688 262.792969 90.980469 259.210938 C 90.546875 258.726562 90.117188 258.234375 89.691406 257.742188 L 89.644531 257.6875 C 84.738281 251.996094 80.355469 245.757812 76.621094 239.140625 C 75.238281 236.691406 73.925781 234.125 72.722656 231.519531 C 72.105469 230.175781 71.578125 228.980469 71.117188 227.867188 C 70.625 226.667969 70.128906 225.402344 69.621094 224 C 67.296875 217.636719 65.667969 211.078125 64.777344 204.496094 C 64.644531 203.523438 64.523438 202.492188 64.398438 201.253906 L 64.378906 201.03125 C 64.34375 200.679688 64.308594 200.324219 64.273438 199.96875 L 64.269531 199.882812 C 64.25 199.660156 64.230469 199.414062 64.214844 199.171875 L 64.199219 198.96875 C 64.085938 197.46875 64.011719 196.070312 63.96875 194.707031 C 63.792969 188.789062 64.179688 182.6875 65.117188 176.570312 C 65.273438 175.535156 65.449219 174.496094 65.636719 173.460938 C 66.273438 170.003906 67.082031 166.511719 68.042969 163.078125 C 68.457031 161.613281 68.847656 160.132812 69.234375 158.65625 C 69.886719 156.179688 70.566406 153.613281 71.34375 151.125 C 71.644531 150.171875 71.972656 149.195312 72.324219 148.222656 L 72.367188 148.109375 C 72.53125 147.652344 72.695312 147.199219 72.871094 146.75 C 77.890625 134.007812 85.746094 122.796875 96.207031 113.421875 C 98.1875 111.644531 100.300781 109.90625 102.488281 108.238281 C 106.320312 105.328125 110.441406 102.597656 114.730469 100.125 C 116.015625 99.386719 117.34375 98.65625 118.683594 97.949219 C 120.042969 97.230469 121.496094 96.503906 123.125 95.726562 C 137.066406 89.078125 152.617188 84.964844 169.347656 83.503906 C 170.792969 83.378906 172.320312 83.265625 173.875 83.171875 C 176.445312 83.023438 178.773438 82.929688 180.992188 82.894531 C 195.164062 83.101562 207.675781 84.902344 219.277344 88.398438 C 220.867188 88.875 222.335938 89.351562 223.773438 89.847656 C 227.210938 91.046875 230.570312 92.398438 233.75 93.867188 C 252.15625 102.367188 266.046875 113.910156 275.035156 128.171875 C 276.867188 131.074219 278.5 134.089844 279.894531 137.144531 C 284.582031 147.40625 287.085938 158.957031 287.34375 171.472656 C 287.40625 174.503906 287.382812 177.546875 287.285156 180.515625 C 287.230469 182.0625 287.152344 183.675781 287.042969 185.320312 C 286.664062 191.191406 285.945312 196.941406 284.902344 202.414062 C 284.722656 203.359375 284.523438 204.292969 284.324219 205.230469 L 284.304688 205.316406 C 283.542969 208.871094 282.621094 212.402344 281.5625 215.816406 L 281.523438 215.9375 C 281.21875 216.921875 280.925781 217.859375 280.609375 218.78125 C 280.488281 219.140625 280.359375 219.492188 280.234375 219.847656 L 280.042969 220.375 C 279.367188 222.28125 278.71875 223.972656 278.066406 225.546875 L 277.746094 226.328125 C 276.34375 229.652344 274.738281 232.964844 272.976562 236.175781 C 272.085938 237.800781 271.257812 239.234375 270.449219 240.558594 C 266.09375 247.667969 260.8125 254.332031 254.75 260.371094 C 254.121094 260.996094 253.488281 261.621094 252.84375 262.234375 C 250.582031 264.382812 248.207031 266.460938 245.785156 268.414062 C 245.402344 268.722656 245.007812 269.027344 244.617188 269.328125 L 244.136719 269.699219 C 240.417969 272.59375 236.433594 275.34375 232.304688 277.875 C 231.496094 278.371094 230.671875 278.859375 229.84375 279.34375 C 227.527344 280.695312 225.425781 281.859375 223.425781 282.898438 L 222.960938 283.132812 C 220.570312 284.355469 218.15625 285.496094 215.785156 286.515625 C 211.414062 288.394531 206.863281 290.015625 202.269531 291.335938 C 201.207031 291.640625 200.101562 291.9375 198.984375 292.222656 C 197.144531 292.691406 195.273438 293.117188 193.421875 293.484375 L 193.320312 293.507812 C 191.402344 293.886719 189.550781 294.203125 187.746094 294.46875 C 186.980469 294.578125 186.210938 294.683594 185.441406 294.777344 C 183.769531 294.984375 182.070312 295.15625 180.390625 295.285156 C 179.042969 295.390625 177.839844 295.464844 176.703125 295.515625 C 175.167969 295.578125 173.625 295.613281 172.078125 295.613281 " fill-opacity="1" fill-rule="nonzero"/></g></svg>