<svg xmlns="http://www.w3.org/2000/svg" xmlns:xlink="http://www.w3.org/1999/xlink" width="500" zoomAndPan="magnify" viewBox="0 0 375 374.999991" height="500" preserveAspectRatio="xMidYMid meet" version="1.0"><defs><clipPath id="1e9d2b6b1a"><path d="M 77.152344 24.023438 L 297.652344 24.023438 L 297.652344 351 L 77.152344 351 Z M 77.152344 24.023438 " clip-rule="nonzero"/></clipPath></defs><g clip-path="url(#1e9d2b6b1a)"><path fill="#f3e6e0" d="M 297.636719 350.996094 L 293.601562 350.996094 L 293.601562 134.367188 C 293.601562 75.734375 245.960938 28.050781 187.402344 28.050781 C 128.84375 28.050781 81.203125 75.734375 81.203125 134.367188 L 81.203125 350.996094 L 77.167969 350.996094 L 77.167969 134.367188 C 77.167969 73.507812 126.621094 24.011719 187.402344 24.011719 C 248.1875 24.011719 297.636719 73.507812 297.636719 134.367188 Z M 297.636719 350.996094 " fill-opacity="1" fill-rule="nonzero"/></g><path fill="#f3e6e0" d="M 281.601562 350.996094 L 277.566406 350.996094 L 277.566406 134.367188 C 277.566406 84.597656 237.121094 44.113281 187.402344 44.113281 C 137.683594 44.113281 97.238281 84.585938 97.238281 134.367188 L 97.238281 350.996094 L 93.203125 350.996094 L 93.203125 134.367188 C 93.203125 82.359375 135.449219 40.058594 187.402344 40.058594 C 239.359375 40.058594 281.601562 82.359375 281.601562 134.367188 Z M 281.601562 350.996094 " fill-opacity="1" fill-rule="nonzero"/><path fill="#f3e6e0" d="M 265.574219 350.996094 L 261.535156 350.996094 L 261.535156 134.367188 C 261.535156 93.449219 228.28125 60.160156 187.402344 60.160156 C 146.523438 60.160156 113.269531 93.433594 113.269531 134.367188 L 113.269531 350.996094 L 109.234375 350.996094 L 109.234375 134.367188 C 109.234375 91.21875 144.300781 56.121094 187.402344 56.121094 C 230.507812 56.121094 265.574219 91.207031 265.574219 134.367188 Z M 265.574219 350.996094 " fill-opacity="1" fill-rule="nonzero"/><path fill="#f3e6e0" d="M 249.542969 350.996094 L 245.503906 350.996094 L 245.503906 134.367188 C 245.503906 102.300781 219.441406 76.207031 187.402344 76.207031 C 155.363281 76.207031 129.300781 102.285156 129.300781 134.367188 L 129.300781 350.996094 L 125.28125 350.996094 L 125.28125 134.367188 C 125.28125 100.074219 153.144531 72.183594 187.421875 72.183594 C 221.699219 72.183594 249.542969 100.074219 249.542969 134.367188 Z M 249.542969 350.996094 " fill-opacity="1" fill-rule="nonzero"/><path fill="#f3e6e0" d="M 233.507812 350.996094 L 229.472656 350.996094 L 229.472656 134.367188 C 229.472656 132.988281 229.40625 131.609375 229.269531 130.238281 C 229.136719 128.863281 228.933594 127.503906 228.667969 126.148438 C 228.398438 124.796875 228.0625 123.457031 227.664062 122.136719 C 227.265625 120.816406 226.800781 119.519531 226.273438 118.246094 C 225.746094 116.972656 225.160156 115.726562 224.511719 114.507812 C 223.863281 113.292969 223.152344 112.109375 222.390625 110.960938 C 221.625 109.816406 220.804688 108.707031 219.929688 107.640625 C 219.054688 106.574219 218.132812 105.554688 217.15625 104.578125 C 216.183594 103.601562 215.164062 102.675781 214.097656 101.800781 C 213.03125 100.925781 211.925781 100.105469 210.78125 99.335938 C 209.636719 98.570312 208.453125 97.863281 207.238281 97.210938 C 206.023438 96.5625 204.78125 95.972656 203.507812 95.445312 C 202.234375 94.914062 200.9375 94.453125 199.617188 94.050781 C 198.300781 93.648438 196.964844 93.316406 195.613281 93.046875 C 194.261719 92.777344 192.898438 92.574219 191.527344 92.4375 C 190.15625 92.304688 188.78125 92.238281 187.402344 92.238281 C 186.023438 92.238281 184.648438 92.304688 183.277344 92.4375 C 181.90625 92.574219 180.546875 92.777344 179.191406 93.046875 C 177.839844 93.316406 176.507812 93.648438 175.1875 94.050781 C 173.867188 94.453125 172.574219 94.914062 171.300781 95.445312 C 170.027344 95.972656 168.78125 96.5625 167.566406 97.210938 C 166.351562 97.863281 165.171875 98.570312 164.023438 99.335938 C 162.878906 100.105469 161.773438 100.925781 160.707031 101.800781 C 159.644531 102.675781 158.625 103.601562 157.648438 104.578125 C 156.675781 105.554688 155.75 106.574219 154.875 107.640625 C 154.003906 108.707031 153.183594 109.816406 152.417969 110.960938 C 151.652344 112.109375 150.945312 113.292969 150.296875 114.507812 C 149.644531 115.726562 149.058594 116.972656 148.53125 118.246094 C 148.003906 119.519531 147.539062 120.816406 147.140625 122.136719 C 146.742188 123.457031 146.40625 124.796875 146.140625 126.148438 C 145.871094 127.503906 145.667969 128.863281 145.535156 130.238281 C 145.402344 131.609375 145.332031 132.988281 145.335938 134.367188 L 145.335938 350.996094 L 141.296875 350.996094 L 141.296875 134.367188 C 141.296875 132.855469 141.371094 131.347656 141.519531 129.84375 C 141.667969 128.339844 141.890625 126.847656 142.183594 125.363281 C 142.480469 123.882812 142.84375 122.417969 143.285156 120.96875 C 143.722656 119.523438 144.230469 118.101562 144.808594 116.707031 C 145.386719 115.308594 146.03125 113.945312 146.742188 112.613281 C 147.453125 111.277344 148.230469 109.984375 149.070312 108.726562 C 149.90625 107.472656 150.804688 106.257812 151.765625 105.089844 C 152.722656 103.921875 153.734375 102.804688 154.800781 101.734375 C 155.871094 100.664062 156.988281 99.652344 158.15625 98.691406 C 159.320312 97.734375 160.535156 96.835938 161.789062 95.996094 C 163.042969 95.15625 164.339844 94.378906 165.667969 93.667969 C 167 92.953125 168.363281 92.308594 169.757812 91.730469 C 171.15625 91.152344 172.574219 90.644531 174.019531 90.203125 C 175.464844 89.765625 176.925781 89.398438 178.410156 89.105469 C 179.890625 88.808594 181.382812 88.585938 182.882812 88.4375 C 184.386719 88.292969 185.894531 88.21875 187.402344 88.21875 C 188.914062 88.21875 190.417969 88.292969 191.921875 88.4375 C 193.425781 88.585938 194.917969 88.808594 196.398438 89.105469 C 197.878906 89.398438 199.339844 89.765625 200.785156 90.203125 C 202.230469 90.644531 203.652344 91.152344 205.046875 91.730469 C 206.441406 92.308594 207.804688 92.953125 209.136719 93.667969 C 210.46875 94.378906 211.761719 95.15625 213.015625 95.996094 C 214.273438 96.835938 215.484375 97.734375 216.652344 98.691406 C 217.820312 99.652344 218.9375 100.664062 220.003906 101.734375 C 221.070312 102.804688 222.085938 103.921875 223.042969 105.089844 C 224 106.257812 224.898438 107.46875 225.738281 108.726562 C 226.574219 109.984375 227.351562 111.277344 228.0625 112.613281 C 228.773438 113.945312 229.417969 115.308594 229.996094 116.707031 C 230.574219 118.101562 231.082031 119.523438 231.523438 120.96875 C 231.960938 122.417969 232.328125 123.882812 232.621094 125.363281 C 232.914062 126.847656 233.136719 128.339844 233.285156 129.84375 C 233.433594 131.347656 233.507812 132.855469 233.507812 134.367188 Z M 233.507812 350.996094 " fill-opacity="1" fill-rule="nonzero"/><path fill="#f3e6e0" d="M 217.476562 350.996094 L 213.441406 350.996094 L 213.441406 134.367188 C 213.441406 133.511719 213.398438 132.660156 213.316406 131.8125 C 213.234375 130.960938 213.109375 130.117188 212.945312 129.28125 C 212.777344 128.441406 212.570312 127.613281 212.324219 126.796875 C 212.078125 125.980469 211.789062 125.175781 211.464844 124.386719 C 211.136719 123.597656 210.773438 122.828125 210.371094 122.074219 C 209.96875 121.320312 209.53125 120.589844 209.058594 119.878906 C 208.585938 119.167969 208.078125 118.484375 207.535156 117.824219 C 206.996094 117.160156 206.421875 116.53125 205.820312 115.925781 C 205.21875 115.320312 204.585938 114.75 203.925781 114.207031 C 203.269531 113.664062 202.582031 113.15625 201.875 112.683594 C 201.164062 112.207031 200.433594 111.769531 199.683594 111.367188 C 198.929688 110.964844 198.160156 110.597656 197.371094 110.269531 C 196.582031 109.945312 195.78125 109.65625 194.964844 109.410156 C 194.148438 109.160156 193.320312 108.953125 192.484375 108.785156 C 191.648438 108.621094 190.804688 108.496094 189.957031 108.410156 C 189.105469 108.328125 188.257812 108.285156 187.402344 108.285156 C 186.550781 108.285156 185.699219 108.328125 184.851562 108.410156 C 184 108.496094 183.15625 108.621094 182.320312 108.785156 C 181.484375 108.953125 180.65625 109.160156 179.839844 109.410156 C 179.023438 109.65625 178.222656 109.945312 177.433594 110.269531 C 176.648438 110.597656 175.875 110.964844 175.125 111.367188 C 174.371094 111.769531 173.640625 112.207031 172.929688 112.683594 C 172.222656 113.15625 171.539062 113.664062 170.878906 114.207031 C 170.21875 114.75 169.589844 115.320312 168.984375 115.925781 C 168.382812 116.53125 167.808594 117.160156 167.269531 117.824219 C 166.726562 118.484375 166.222656 119.167969 165.746094 119.878906 C 165.273438 120.589844 164.835938 121.320312 164.433594 122.074219 C 164.03125 122.828125 163.667969 123.597656 163.34375 124.386719 C 163.015625 125.175781 162.730469 125.980469 162.480469 126.796875 C 162.234375 127.613281 162.027344 128.441406 161.863281 129.28125 C 161.695312 130.117188 161.570312 130.960938 161.488281 131.8125 C 161.40625 132.660156 161.363281 133.511719 161.367188 134.367188 L 161.367188 350.996094 L 157.328125 350.996094 L 157.328125 134.367188 C 157.328125 133.382812 157.378906 132.398438 157.472656 131.417969 C 157.570312 130.433594 157.714844 129.460938 157.90625 128.496094 C 158.097656 127.527344 158.339844 126.570312 158.625 125.628906 C 158.910156 124.683594 159.242188 123.757812 159.617188 122.847656 C 159.996094 121.9375 160.417969 121.046875 160.878906 120.175781 C 161.34375 119.308594 161.851562 118.460938 162.398438 117.640625 C 162.945312 116.824219 163.53125 116.03125 164.15625 115.269531 C 164.78125 114.507812 165.441406 113.777344 166.136719 113.082031 C 166.835938 112.382812 167.5625 111.722656 168.324219 111.097656 C 169.085938 110.472656 169.875 109.882812 170.695312 109.335938 C 171.515625 108.789062 172.359375 108.28125 173.226562 107.816406 C 174.09375 107.351562 174.984375 106.933594 175.894531 106.554688 C 176.804688 106.179688 177.730469 105.847656 178.671875 105.558594 C 179.617188 105.273438 180.570312 105.035156 181.535156 104.84375 C 182.5 104.648438 183.476562 104.503906 184.457031 104.410156 C 185.433594 104.3125 186.417969 104.261719 187.402344 104.261719 C 188.386719 104.261719 189.371094 104.3125 190.351562 104.410156 C 191.332031 104.503906 192.304688 104.648438 193.269531 104.84375 C 194.234375 105.035156 195.191406 105.273438 196.132812 105.558594 C 197.074219 105.847656 198 106.179688 198.910156 106.554688 C 199.820312 106.933594 200.710938 107.351562 201.578125 107.816406 C 202.449219 108.28125 203.292969 108.789062 204.109375 109.335938 C 204.929688 109.882812 205.71875 110.472656 206.480469 111.097656 C 207.242188 111.722656 207.972656 112.382812 208.667969 113.082031 C 209.363281 113.777344 210.023438 114.507812 210.648438 115.269531 C 211.273438 116.03125 211.859375 116.824219 212.410156 117.640625 C 212.957031 118.460938 213.460938 119.308594 213.925781 120.175781 C 214.390625 121.046875 214.808594 121.9375 215.1875 122.847656 C 215.5625 123.757812 215.894531 124.683594 216.179688 125.628906 C 216.46875 126.570312 216.707031 127.527344 216.898438 128.496094 C 217.089844 129.460938 217.234375 130.433594 217.332031 131.417969 C 217.429688 132.398438 217.476562 133.382812 217.476562 134.367188 Z M 217.476562 350.996094 " fill-opacity="1" fill-rule="nonzero"/><path fill="#f3e6e0" d="M 201.445312 350.996094 L 197.410156 350.996094 L 197.410156 134.367188 C 197.410156 133.710938 197.347656 133.058594 197.21875 132.414062 C 197.089844 131.769531 196.898438 131.140625 196.648438 130.535156 C 196.398438 129.925781 196.089844 129.347656 195.722656 128.800781 C 195.359375 128.253906 194.945312 127.75 194.480469 127.285156 C 194.015625 126.820312 193.507812 126.402344 192.960938 126.039062 C 192.417969 125.671875 191.839844 125.363281 191.234375 125.113281 C 190.625 124.859375 190 124.671875 189.355469 124.542969 C 188.710938 124.414062 188.058594 124.351562 187.402344 124.351562 C 186.746094 124.351562 186.09375 124.414062 185.449219 124.542969 C 184.804688 124.671875 184.179688 124.859375 183.574219 125.113281 C 182.964844 125.363281 182.390625 125.671875 181.84375 126.039062 C 181.296875 126.402344 180.792969 126.820312 180.328125 127.285156 C 179.863281 127.75 179.449219 128.253906 179.082031 128.800781 C 178.71875 129.347656 178.410156 129.925781 178.15625 130.535156 C 177.90625 131.140625 177.714844 131.769531 177.589844 132.414062 C 177.460938 133.058594 177.394531 133.710938 177.394531 134.367188 L 177.394531 350.996094 L 173.359375 350.996094 L 173.359375 134.367188 C 173.359375 133.445312 173.449219 132.527344 173.628906 131.621094 C 173.808594 130.71875 174.074219 129.835938 174.425781 128.984375 C 174.777344 128.128906 175.210938 127.320312 175.722656 126.550781 C 176.234375 125.78125 176.816406 125.070312 177.46875 124.417969 C 178.121094 123.765625 178.828125 123.183594 179.597656 122.667969 C 180.363281 122.15625 181.171875 121.722656 182.027344 121.367188 C 182.878906 121.015625 183.757812 120.746094 184.660156 120.566406 C 185.566406 120.386719 186.480469 120.296875 187.402344 120.296875 C 188.324219 120.296875 189.238281 120.386719 190.144531 120.566406 C 191.050781 120.746094 191.929688 121.015625 192.78125 121.367188 C 193.632812 121.722656 194.441406 122.15625 195.210938 122.667969 C 195.976562 123.183594 196.6875 123.765625 197.335938 124.417969 C 197.988281 125.070312 198.570312 125.78125 199.082031 126.550781 C 199.597656 127.320312 200.027344 128.128906 200.382812 128.984375 C 200.734375 129.835938 201 130.71875 201.179688 131.621094 C 201.359375 132.527344 201.445312 133.445312 201.445312 134.367188 Z M 201.445312 350.996094 " fill-opacity="1" fill-rule="nonzero"/></svg>