<svg xmlns="http://www.w3.org/2000/svg" xmlns:xlink="http://www.w3.org/1999/xlink" width="500" zoomAndPan="magnify" viewBox="0 0 375 374.999991" height="500" preserveAspectRatio="xMidYMid meet" version="1.0"><defs><clipPath id="d627328118"><path d="M 135.082031 30.382812 L 276.832031 30.382812 L 276.832031 319.882812 L 135.082031 319.882812 Z M 135.082031 30.382812 " clip-rule="nonzero"/></clipPath></defs><g clip-path="url(#d627328118)"><path fill="#e4baa0" d="M 276.410156 166.507812 C 276.410156 167.683594 276.429688 168.863281 276.410156 170.039062 C 276.371094 172.007812 276.332031 173.984375 276.246094 175.953125 C 276.1875 177.277344 276.054688 178.597656 275.933594 179.914062 C 275.84375 180.917969 275.746094 181.921875 275.609375 182.914062 C 275.429688 184.21875 275.207031 185.519531 275.003906 186.824219 C 274.9375 187.242188 274.886719 187.660156 274.828125 188.082031 C 274.714844 188.890625 274.617188 189.707031 274.480469 190.515625 C 274.292969 191.632812 274.074219 192.746094 273.863281 193.859375 C 273.648438 194.949219 273.449219 196.039062 273.199219 197.121094 C 272.859375 198.585938 272.484375 200.042969 272.109375 201.5 C 271.773438 202.777344 271.433594 204.054688 271.039062 205.316406 C 270.019531 208.574219 269.019531 211.839844 267.914062 215.070312 C 267.054688 217.574219 266.078125 220.039062 265.109375 222.503906 C 264.355469 224.429688 263.582031 226.351562 262.730469 228.238281 C 261.601562 230.730469 260.453125 233.214844 259.191406 235.636719 C 258.015625 237.894531 256.71875 240.089844 255.382812 242.261719 C 253.453125 245.40625 251.425781 248.480469 249.367188 251.53125 C 247.691406 254.015625 245.960938 256.460938 244.179688 258.863281 C 243.179688 260.226562 242.046875 261.5 240.945312 262.789062 C 240.042969 263.839844 239.085938 264.839844 238.191406 265.886719 C 236.386719 268.003906 234.332031 269.867188 232.382812 271.847656 C 231.414062 272.835938 230.382812 273.769531 229.375 274.714844 C 228.363281 275.660156 227.371094 276.539062 226.347656 277.429688 C 225.390625 278.265625 224.398438 279.0625 223.4375 279.894531 C 222.511719 280.691406 221.609375 281.515625 220.683594 282.3125 C 220.101562 282.8125 219.503906 283.296875 218.902344 283.777344 C 218.160156 284.375 217.410156 284.960938 216.660156 285.554688 C 215.660156 286.335938 214.671875 287.136719 213.660156 287.890625 C 210.46875 290.257812 207.214844 292.53125 203.875 294.679688 C 201.402344 296.265625 198.902344 297.808594 196.40625 299.355469 C 194.851562 300.316406 193.308594 301.308594 191.707031 302.179688 C 190.050781 303.078125 188.324219 303.847656 186.625 304.667969 C 185.957031 304.992188 185.28125 305.300781 184.605469 305.605469 C 182.429688 306.585938 180.269531 307.601562 178.078125 308.535156 C 176.230469 309.320312 174.347656 310.023438 172.476562 310.75 C 170.507812 311.515625 168.535156 312.277344 166.558594 313.042969 C 165.476562 313.460938 164.390625 313.875 163.292969 314.265625 C 160.707031 315.179688 158.121094 316.128906 155.511719 316.972656 C 153.085938 317.785156 150.617188 318.453125 148.113281 318.964844 C 146.996094 319.167969 145.898438 319.433594 144.816406 319.769531 C 144.265625 319.871094 143.722656 319.851562 143.183594 319.710938 C 143.109375 319.710938 143.019531 319.53125 142.992188 319.421875 C 142.835938 318.582031 142.78125 317.734375 142.828125 316.882812 C 142.847656 316.480469 142.84375 316.082031 142.816406 315.679688 C 142.625 314.167969 142.785156 312.636719 142.628906 311.132812 C 142.503906 309.929688 142.609375 308.734375 142.492188 307.550781 C 142.324219 305.820312 142.472656 304.078125 142.3125 302.363281 C 142.175781 300.921875 142.320312 299.480469 142.167969 298.054688 C 142.011719 296.671875 142.089844 295.285156 142.015625 293.898438 C 141.992188 293.671875 142.03125 293.460938 142.136719 293.261719 C 142.242188 293.0625 142.394531 292.910156 142.59375 292.804688 C 144.597656 291.507812 146.5625 290.164062 148.570312 288.882812 C 150.539062 287.632812 152.542969 286.445312 154.527344 285.222656 C 156.398438 284.074219 158.265625 282.910156 160.144531 281.773438 C 162.066406 280.601562 164.023438 279.488281 165.929688 278.289062 C 167.878906 277.0625 169.808594 275.800781 171.695312 274.476562 C 174.246094 272.683594 176.78125 270.855469 179.269531 268.96875 C 181.042969 267.714844 182.90625 266.609375 184.855469 265.65625 C 186.46875 264.796875 188.050781 263.871094 189.613281 262.933594 C 190.882812 262.167969 192.136719 261.371094 193.351562 260.519531 C 195.214844 259.21875 197.066406 257.902344 198.875 256.515625 C 200.472656 255.289062 201.964844 253.9375 203.542969 252.683594 C 205.703125 250.90625 207.75 249.007812 209.6875 246.988281 C 211.589844 245.074219 213.503906 243.171875 215.394531 241.246094 C 216.539062 240.085938 217.648438 238.90625 218.753906 237.710938 C 219.695312 236.699219 220.625 235.679688 221.511719 234.621094 C 222.925781 232.933594 224.285156 231.203125 225.683594 229.507812 C 227.046875 227.808594 228.308594 226.042969 229.476562 224.203125 C 230.40625 222.785156 231.230469 221.296875 232.082031 219.832031 C 233.621094 217.195312 235.03125 214.492188 236.34375 211.734375 C 237.085938 210.179688 237.789062 208.605469 238.425781 207.003906 C 239.078125 205.378906 239.691406 203.742188 240.199219 202.066406 C 240.761719 200.203125 241.265625 198.304688 241.730469 196.410156 C 242.242188 194.308594 242.710938 192.195312 243.132812 190.074219 C 243.328125 189.117188 243.378906 188.132812 243.503906 187.160156 C 243.585938 186.535156 243.683594 185.910156 243.777344 185.28125 C 243.789062 185.203125 243.804688 185.125 243.8125 185.046875 C 243.867188 184.226562 243.910156 183.402344 243.984375 182.582031 C 244.066406 181.6875 244.179688 180.796875 244.269531 179.902344 C 244.277344 179.824219 244.28125 179.742188 244.285156 179.664062 C 244.339844 178.628906 244.378906 177.59375 244.457031 176.558594 C 244.535156 175.554688 244.660156 174.5625 244.757812 173.5625 C 244.777344 173.347656 244.765625 173.132812 244.765625 172.921875 C 244.765625 170.511719 244.78125 168.101562 244.765625 165.695312 C 244.753906 164.503906 244.683594 163.304688 244.601562 162.113281 C 244.523438 161.007812 244.414062 159.898438 244.28125 158.796875 C 244.15625 157.75 243.972656 156.707031 243.835938 155.664062 C 243.707031 154.71875 243.625 153.769531 243.480469 152.828125 C 243.339844 151.863281 243.140625 150.90625 242.949219 149.949219 C 242.664062 148.476562 242.378906 146.996094 242.039062 145.53125 C 241.710938 144.113281 241.324219 142.714844 240.972656 141.304688 C 240.171875 138.042969 239.203125 134.828125 238.074219 131.660156 C 237.511719 130.117188 236.914062 128.585938 236.273438 127.074219 C 235.535156 125.34375 234.753906 123.632812 233.9375 121.9375 C 233.375 120.769531 232.730469 119.644531 232.117188 118.5 C 231.59375 117.515625 231.078125 116.535156 230.53125 115.566406 C 229.695312 114.085938 228.855469 112.609375 227.980469 111.15625 C 227.324219 110.066406 226.652344 108.984375 225.925781 107.941406 C 224.609375 106.050781 223.285156 104.164062 221.890625 102.332031 C 220.796875 100.898438 219.59375 99.550781 218.417969 98.175781 C 217.246094 96.800781 216.074219 95.5 214.902344 94.164062 C 213.785156 92.886719 212.679688 91.59375 211.550781 90.324219 C 210.246094 88.855469 208.984375 87.335938 207.585938 85.957031 C 206.082031 84.453125 204.503906 83.035156 202.851562 81.699219 C 201.070312 80.277344 199.25 78.914062 197.394531 77.59375 C 196.578125 77.011719 195.679688 76.535156 194.8125 76.035156 C 193.824219 75.460938 192.828125 74.902344 191.808594 74.390625 C 190.789062 73.878906 189.742188 73.4375 188.707031 72.957031 C 188.035156 72.648438 187.363281 72.324219 186.6875 72.023438 C 184.554688 71.085938 182.414062 70.164062 180.285156 69.214844 C 178.304688 68.332031 176.28125 67.550781 174.222656 66.871094 C 170.886719 65.773438 167.554688 64.667969 164.214844 63.574219 C 163.0625 63.195312 161.90625 62.820312 160.742188 62.476562 C 158.417969 61.792969 156.09375 61.097656 153.75 60.46875 C 150.925781 59.714844 148.089844 59.007812 145.253906 58.320312 C 142.796875 57.722656 140.335938 57.160156 137.871094 56.601562 C 136.78125 56.355469 136.871094 56.355469 136.71875 55.230469 C 136.519531 53.707031 136.71875 52.183594 136.554688 50.679688 C 136.421875 49.503906 136.542969 48.332031 136.398438 47.175781 C 136.25 46.019531 136.382812 44.882812 136.234375 43.75 C 136.085938 42.617188 136.21875 41.503906 136.078125 40.40625 C 135.941406 39.367188 136.058594 38.320312 135.914062 37.304688 C 135.773438 36.261719 135.839844 35.230469 135.773438 34.195312 C 135.703125 33.03125 135.601562 31.871094 135.503906 30.710938 C 135.488281 30.519531 135.582031 30.464844 135.726562 30.472656 C 137.136719 30.421875 138.542969 30.460938 139.945312 30.582031 C 140.59375 30.695312 141.28125 30.582031 141.945312 30.632812 C 143.050781 30.726562 144.160156 30.730469 145.257812 30.917969 C 145.878906 31.027344 146.519531 31.027344 147.148438 31.109375 C 148.140625 31.238281 149.125 31.394531 150.113281 31.539062 C 150.84375 31.652344 151.570312 31.765625 152.296875 31.902344 C 153.507812 32.128906 154.726562 32.34375 155.933594 32.617188 C 157.777344 33.050781 159.613281 33.523438 161.449219 33.996094 C 162.085938 34.15625 162.710938 34.375 163.34375 34.566406 C 167.117188 35.695312 170.804688 37.082031 174.453125 38.550781 C 176 39.171875 177.511719 39.882812 179.027344 40.589844 C 181.050781 41.527344 183.074219 42.460938 185.0625 43.472656 C 187.164062 44.542969 189.234375 45.683594 191.300781 46.832031 C 193.273438 47.921875 195.230469 49.042969 197.171875 50.183594 C 198.71875 51.101562 200.242188 52.0625 201.761719 53.035156 C 204.125 54.546875 206.496094 56.050781 208.820312 57.628906 C 211.25 59.28125 213.636719 61 216.019531 62.71875 C 217.542969 63.820312 219.03125 64.96875 220.527344 66.101562 C 221.875 67.132812 223.21875 68.160156 224.546875 69.210938 C 225.296875 69.804688 226.007812 70.441406 226.742188 71.054688 C 227.675781 71.84375 228.617188 72.617188 229.542969 73.40625 C 230.066406 73.855469 230.578125 74.320312 231.089844 74.789062 C 231.851562 75.492188 232.625 76.183594 233.367188 76.910156 C 235.851562 79.332031 238.332031 81.753906 240.789062 84.203125 C 241.558594 84.972656 242.230469 85.835938 242.945312 86.65625 C 243.367188 87.136719 243.804688 87.597656 244.207031 88.097656 C 245.554688 89.769531 246.945312 91.410156 248.21875 93.140625 C 249.710938 95.164062 251.144531 97.234375 252.523438 99.34375 C 253.824219 101.347656 255.007812 103.421875 256.230469 105.472656 C 257.800781 108.105469 259.101562 110.875 260.433594 113.632812 C 261.371094 115.570312 262.21875 117.546875 263.066406 119.523438 C 264.09375 121.910156 265.097656 124.308594 266.078125 126.714844 C 266.707031 128.261719 267.269531 129.832031 267.867188 131.390625 C 269.441406 135.527344 270.835938 139.722656 272.1875 143.9375 C 272.921875 146.230469 273.566406 148.546875 274.21875 150.859375 C 274.894531 153.25 275.535156 155.648438 276.191406 158.042969 C 276.230469 158.140625 276.257812 158.242188 276.273438 158.347656 C 276.332031 159.195312 276.417969 160.042969 276.425781 160.890625 C 276.429688 162.761719 276.410156 164.632812 276.410156 166.507812 Z M 276.410156 166.507812 " fill-opacity="1" fill-rule="nonzero"/></g><path fill="#e4baa0" d="M 138.644531 173.863281 C 138.644531 168.632812 138.644531 164.347656 138.644531 160.070312 C 138.644531 159.3125 138.566406 158.554688 138.628906 157.792969 C 138.691406 157.03125 138.644531 156.238281 138.644531 155.464844 L 138.644531 122.871094 C 138.644531 122.09375 138.695312 121.316406 138.632812 120.542969 C 138.371094 117.449219 138.632812 114.347656 138.445312 111.261719 C 138.316406 109.175781 138.484375 107.09375 138.292969 105.027344 C 138.117188 103.132812 138.226562 101.246094 138.148438 99.351562 C 138.117188 99.089844 138.070312 98.832031 138.007812 98.578125 C 137.960938 98.289062 138.050781 98.199219 138.351562 98.289062 C 139.4375 98.625 140.523438 98.949219 141.59375 99.320312 C 144.191406 100.21875 146.785156 101.125 149.300781 102.246094 C 151.210938 103.101562 153.121094 103.949219 155.035156 104.800781 C 159.40625 106.738281 163.648438 108.941406 167.898438 111.125 C 171.503906 112.921875 174.960938 114.972656 178.273438 117.273438 C 179.523438 118.121094 180.707031 119.058594 181.824219 120.078125 C 182.996094 121.199219 184.191406 122.304688 185.332031 123.457031 C 186 124.136719 186.585938 124.902344 187.207031 125.625 C 187.585938 126.070312 187.976562 126.503906 188.347656 126.949219 C 189.148438 127.90625 189.941406 128.867188 190.742188 129.816406 C 190.964844 130.082031 191.210938 130.324219 191.429688 130.59375 C 192.289062 131.835938 192.988281 133.167969 193.523438 134.582031 C 193.875 135.328125 194.214844 136.074219 194.539062 136.835938 C 195.222656 138.441406 195.886719 140.0625 196.570312 141.671875 C 197.085938 142.890625 197.621094 144.109375 198.144531 145.328125 C 198.78125 146.816406 199.421875 148.300781 200.046875 149.792969 C 200.960938 151.96875 201.816406 154.164062 202.539062 156.414062 C 203.4375 159.207031 204.144531 162.050781 204.824219 164.902344 C 205.238281 166.621094 205.507812 168.371094 205.835938 170.105469 C 206.054688 171.253906 206.285156 172.386719 206.457031 173.53125 C 206.613281 174.550781 206.671875 175.585938 206.816406 176.605469 C 207.023438 177.785156 207.121094 178.972656 207.101562 180.167969 C 207.066406 180.980469 206.878906 181.789062 206.835938 182.605469 C 206.78125 183.371094 206.664062 184.128906 206.488281 184.878906 C 206.304688 185.757812 206.191406 186.65625 205.945312 187.515625 C 205.410156 189.339844 204.839844 191.15625 204.226562 192.960938 C 203.46875 195.21875 202.546875 197.410156 201.464844 199.53125 C 200.65625 201.105469 199.714844 202.625 198.855469 204.183594 C 198.328125 205.132812 197.839844 206.101562 197.339844 207.066406 C 196.355469 208.972656 195.410156 210.902344 194.386719 212.789062 C 193.695312 214.183594 192.789062 215.421875 191.671875 216.5 C 190.660156 217.410156 189.730469 218.410156 188.699219 219.289062 C 186.742188 220.949219 184.789062 222.621094 182.679688 224.09375 C 181.269531 225.078125 179.886719 226.097656 178.46875 227.074219 C 177.164062 227.972656 175.832031 228.84375 174.507812 229.714844 C 172.757812 230.863281 171.027344 232.039062 169.25 233.136719 C 167.945312 233.945312 166.585938 234.671875 165.238281 235.40625 C 163.652344 236.269531 162.078125 237.164062 160.457031 237.949219 C 158.503906 238.890625 156.507812 239.753906 154.511719 240.617188 C 152.109375 241.660156 149.691406 242.667969 147.277344 243.6875 C 145.007812 244.640625 142.738281 245.585938 140.46875 246.535156 C 140.140625 246.679688 140.101562 246.652344 140.078125 246.324219 C 140.078125 246.296875 140.078125 246.269531 140.078125 246.246094 C 140.023438 243.949219 140.042969 241.65625 139.894531 239.363281 C 139.765625 237.339844 139.894531 235.304688 139.71875 233.292969 C 139.570312 231.53125 139.738281 229.769531 139.578125 228.019531 C 139.375 225.726562 139.578125 223.433594 139.402344 221.140625 C 139.230469 218.847656 139.4375 216.550781 139.25 214.261719 C 139.03125 211.59375 139.285156 208.917969 139.085938 206.261719 C 138.871094 203.40625 139.128906 200.550781 138.933594 197.703125 C 138.695312 194.3125 138.972656 190.917969 138.773438 187.535156 C 138.488281 182.683594 138.785156 177.796875 138.644531 173.863281 Z M 138.644531 173.863281 " fill-opacity="1" fill-rule="nonzero"/></svg>