<svg xmlns="http://www.w3.org/2000/svg" xmlns:xlink="http://www.w3.org/1999/xlink" width="500" zoomAndPan="magnify" viewBox="0 0 375 374.999991" height="500" preserveAspectRatio="xMidYMid meet" version="1.0"><path fill="#c2b59b" d="M 118.820312 232.1875 C 118.792969 232.183594 118.773438 232.191406 118.746094 232.191406 C 118.71875 232.191406 118.695312 232.183594 118.667969 232.1875 C 115.039062 232.359375 111.691406 232.898438 108.21875 233.980469 C 106.027344 234.664062 106.964844 238.113281 109.171875 237.425781 C 112.933594 236.25 114.734375 235.945312 118.667969 235.757812 C 118.695312 235.753906 118.71875 235.746094 118.746094 235.746094 C 118.769531 235.75 118.792969 235.757812 118.820312 235.757812 C 122.839844 235.945312 125.554688 236.234375 129.382812 237.832031 C 131.066406 238.535156 132.53125 239.292969 134.457031 240.507812 C 135.09375 240.90625 135.753906 241.414062 136.777344 242.207031 C 137.492188 242.765625 138.136719 243.429688 138.808594 244.039062 C 144.316406 249.023438 146.730469 256.628906 147.074219 264.027344 C 147.074219 279.765625 147.074219 295.503906 147.074219 311.238281 C 147.074219 313.542969 150.652344 313.542969 150.652344 311.238281 C 150.652344 295.503906 150.652344 279.765625 150.652344 264.027344 C 150.242188 255.25 147.246094 248.023438 141.339844 241.511719 C 135.664062 235.261719 126.988281 232.566406 118.820312 232.1875 Z M 118.820312 232.1875 " fill-opacity="1" fill-rule="nonzero"/><path fill="#c2b59b" d="M 118.820312 222.652344 C 118.792969 222.652344 118.773438 222.65625 118.746094 222.65625 C 118.71875 222.65625 118.695312 222.652344 118.667969 222.652344 C 115.089844 222.785156 111.71875 223.214844 108.21875 223.992188 C 105.96875 224.492188 106.925781 227.933594 109.171875 227.433594 C 110.019531 227.246094 110.867188 227.058594 111.714844 226.871094 C 111.890625 226.832031 112.066406 226.792969 112.246094 226.753906 C 112.316406 226.738281 112.359375 226.726562 112.382812 226.71875 C 112.867188 226.660156 113.355469 226.597656 113.84375 226.535156 C 115.453125 226.332031 117.046875 226.285156 118.667969 226.226562 C 118.695312 226.226562 118.71875 226.21875 118.742188 226.214844 C 118.769531 226.21875 118.792969 226.226562 118.820312 226.226562 C 128.773438 226.53125 138.222656 230.007812 145.371094 237.140625 C 152.699219 244.457031 156.308594 253.847656 156.621094 264.03125 C 156.621094 279.765625 156.621094 295.503906 156.621094 311.242188 C 156.621094 313.542969 160.199219 313.542969 160.199219 311.242188 C 160.199219 295.503906 160.199219 279.765625 160.199219 264.03125 C 159.863281 253.15625 156.050781 242.75 148.25 234.964844 C 140.285156 227.015625 129.992188 222.996094 118.820312 222.652344 Z M 118.820312 222.652344 " fill-opacity="1" fill-rule="nonzero"/><path fill="#c2b59b" d="M 130.925781 214.582031 C 126.925781 213.609375 122.921875 213.238281 118.820312 213.089844 C 118.792969 213.085938 118.769531 213.09375 118.746094 213.09375 C 118.71875 213.09375 118.695312 213.085938 118.667969 213.089844 C 115.125 213.21875 111.710938 213.570312 108.21875 214.183594 C 105.953125 214.582031 106.917969 218.023438 109.171875 217.628906 C 110.019531 217.480469 110.867188 217.332031 111.714844 217.183594 C 111.890625 217.148438 112.066406 217.121094 112.242188 217.089844 C 112.777344 217.035156 113.308594 216.984375 113.84375 216.929688 C 115.453125 216.769531 117.054688 216.71875 118.667969 216.660156 C 118.695312 216.660156 118.71875 216.652344 118.746094 216.648438 C 118.769531 216.652344 118.792969 216.660156 118.820312 216.660156 C 124.5 216.867188 129.277344 217.226562 134.882812 219.453125 C 135.671875 219.769531 136.460938 220.082031 137.25 220.394531 C 138.046875 220.710938 137.480469 220.476562 138.570312 220.988281 C 140.039062 221.675781 141.421875 222.414062 142.828125 223.222656 C 143.976562 223.878906 145.070312 224.628906 146.179688 225.351562 C 146.671875 225.671875 147.125 226.066406 147.59375 226.421875 C 148.570312 227.164062 148.59375 227.179688 149.121094 227.636719 C 153.78125 231.679688 156.835938 235.15625 159.855469 240.421875 C 161.527344 243.335938 162.308594 245.214844 163.4375 248.046875 C 164.457031 250.609375 165.046875 253.433594 165.519531 256.140625 C 165.800781 257.761719 165.835938 258.253906 166.042969 260.3125 C 166.167969 261.542969 166.15625 262.792969 166.199219 264.027344 C 166.199219 279.765625 166.199219 295.503906 166.199219 311.238281 C 166.199219 313.542969 169.777344 313.542969 169.777344 311.238281 C 169.777344 295.503906 169.777344 279.765625 169.777344 264.027344 C 169.351562 252.28125 165.859375 241.761719 158.707031 232.375 C 151.949219 223.511719 141.707031 217.195312 130.925781 214.582031 Z M 130.925781 214.582031 " fill-opacity="1" fill-rule="nonzero"/><path fill="#c2b59b" d="M 145.003906 209.5 C 136.890625 205.375 127.828125 203.820312 118.820312 203.527344 C 118.792969 203.523438 118.769531 203.53125 118.742188 203.53125 C 118.714844 203.53125 118.695312 203.527344 118.667969 203.527344 C 115.144531 203.621094 111.714844 203.960938 108.21875 204.4375 C 105.945312 204.75 106.917969 208.191406 109.171875 207.882812 C 110.027344 207.765625 110.882812 207.648438 111.738281 207.53125 C 111.851562 207.515625 111.96875 207.5 112.082031 207.484375 C 112.101562 207.480469 112.144531 207.480469 112.222656 207.472656 C 112.765625 207.421875 113.3125 207.371094 113.859375 207.324219 C 115.460938 207.175781 117.058594 207.140625 118.667969 207.097656 C 118.695312 207.097656 118.71875 207.089844 118.746094 207.089844 C 118.773438 207.089844 118.792969 207.097656 118.820312 207.097656 C 124.929688 207.300781 129.339844 207.839844 135.429688 209.609375 C 140.386719 211.046875 145.1875 213.140625 149.945312 216.371094 C 151.625 217.511719 152.078125 217.785156 153.328125 218.761719 C 154.566406 219.726562 155.742188 220.71875 156.921875 221.753906 C 159.035156 223.605469 160.890625 225.6875 162.742188 227.792969 C 162.347656 227.339844 163.585938 228.875 163.800781 229.152344 C 164.140625 229.589844 164.507812 230.023438 164.820312 230.480469 C 165.628906 231.664062 166.484375 232.820312 167.207031 234.054688 C 168.699219 236.589844 170.0625 239.148438 171.242188 241.84375 C 171.882812 243.304688 172.4375 244.574219 173.042969 246.660156 C 173.640625 248.714844 174.171875 250.738281 174.632812 252.828125 C 175.496094 256.746094 175.605469 259.65625 175.746094 264.027344 C 175.746094 279.765625 175.746094 295.503906 175.746094 311.238281 C 175.746094 313.542969 179.324219 313.542969 179.324219 311.238281 C 179.324219 295.503906 179.324219 279.765625 179.324219 264.027344 C 178.9375 252.304688 175.949219 241.871094 170 231.75 C 164.265625 221.984375 154.960938 214.566406 145.003906 209.5 Z M 145.003906 209.5 " fill-opacity="1" fill-rule="nonzero"/><path fill="#c2b59b" d="M 159.65625 207.125 C 147.441406 198.582031 133.664062 194.417969 118.820312 193.960938 C 118.792969 193.960938 118.769531 193.96875 118.742188 193.96875 C 118.714844 193.96875 118.695312 193.960938 118.667969 193.960938 C 115.3125 194.054688 112.027344 194.292969 108.695312 194.722656 C 106.441406 195.011719 106.414062 198.585938 108.695312 198.292969 C 112.027344 197.863281 115.3125 197.625 118.667969 197.535156 C 118.695312 197.53125 118.71875 197.527344 118.746094 197.523438 C 118.769531 197.527344 118.792969 197.53125 118.820312 197.535156 C 129.726562 197.867188 140.730469 200.355469 150.316406 205.515625 C 155.824219 208.484375 159.433594 211.210938 163.945312 215.207031 C 166.011719 217.039062 167.828125 219.140625 169.660156 221.199219 C 170.523438 222.171875 171.300781 223.234375 172.113281 224.257812 C 172.132812 224.289062 172.160156 224.332031 172.207031 224.394531 C 172.4375 224.722656 172.667969 225.050781 172.894531 225.378906 C 173.371094 226.050781 173.84375 226.726562 174.320312 227.402344 C 181.910156 238.214844 184.933594 251.300781 185.324219 264.027344 C 185.324219 279.765625 185.324219 295.503906 185.324219 311.238281 C 185.324219 313.542969 188.902344 313.542969 188.902344 311.238281 C 188.902344 295.503906 188.902344 279.765625 188.902344 264.027344 C 188.566406 253.082031 186.511719 241.976562 181.25 232.234375 C 175.945312 222.410156 168.871094 213.578125 159.65625 207.125 Z M 159.65625 207.125 " fill-opacity="1" fill-rule="nonzero"/><path fill="#c2b59b" d="M 266.578125 147.894531 C 269.507812 146.25 271.371094 145.441406 274.214844 144.339844 C 276.8125 143.332031 279.585938 142.703125 282.320312 142.230469 C 283.945312 141.945312 284.4375 141.910156 286.496094 141.703125 C 287.722656 141.582031 288.964844 141.59375 290.191406 141.546875 C 290.210938 141.546875 290.230469 141.542969 290.25 141.539062 C 290.269531 141.542969 290.289062 141.546875 290.3125 141.546875 C 291.449219 141.589844 292.582031 141.628906 293.71875 141.667969 C 294.691406 141.703125 295.507812 140.832031 295.507812 139.882812 C 295.507812 138.882812 294.691406 138.132812 293.71875 138.097656 C 292.582031 138.058594 291.449219 138.015625 290.3125 137.976562 C 290.292969 137.976562 290.277344 137.980469 290.257812 137.980469 C 290.234375 137.980469 290.214844 137.976562 290.191406 137.976562 C 278.402344 138.402344 267.976562 141.949219 258.523438 149.035156 C 249.625 155.699219 243.332031 166.125 240.726562 176.828125 C 239.757812 180.820312 239.386719 184.820312 239.234375 188.917969 C 239.234375 212.6875 239.234375 236.457031 239.234375 260.230469 C 239.234375 277.230469 239.234375 294.234375 239.234375 311.238281 C 239.234375 313.542969 242.8125 313.542969 242.8125 311.238281 C 242.8125 287.46875 242.8125 263.695312 242.8125 239.925781 C 242.8125 222.921875 242.8125 205.917969 242.8125 188.917969 C 243.214844 177.867188 246.730469 166.863281 253.796875 158.628906 C 257.792969 153.976562 261.304688 150.855469 266.578125 147.894531 Z M 266.578125 147.894531 " fill-opacity="1" fill-rule="nonzero"/><path fill="#c2b59b" d="M 244.914062 154.429688 C 245.882812 153.195312 246.875 152.019531 247.910156 150.84375 C 249.726562 148.78125 251.757812 146.957031 253.804688 145.136719 C 253.554688 145.363281 254.164062 144.835938 254.195312 144.8125 C 254.570312 144.523438 254.945312 144.234375 255.320312 143.945312 C 255.761719 143.605469 256.191406 143.238281 256.652344 142.925781 C 257.828125 142.128906 258.980469 141.289062 260.207031 140.566406 C 262.746094 139.066406 265.316406 137.703125 268.015625 136.511719 C 269.472656 135.871094 270.738281 135.320312 272.824219 134.714844 C 274.882812 134.117188 276.910156 133.589844 279.003906 133.128906 C 279.742188 132.964844 280.488281 132.851562 281.234375 132.734375 C 281.820312 132.640625 282.40625 132.550781 282.988281 132.457031 C 283.003906 132.457031 283.015625 132.453125 283.027344 132.453125 C 283.332031 132.421875 283.632812 132.390625 283.9375 132.363281 C 286.03125 132.15625 288.085938 132.066406 290.191406 132.015625 C 290.210938 132.015625 290.230469 132.007812 290.25 132.007812 C 290.273438 132.007812 290.289062 132.015625 290.3125 132.015625 C 291.445312 132.046875 292.582031 132.078125 293.71875 132.105469 C 296.027344 132.167969 296.019531 128.597656 293.71875 128.535156 C 292.582031 128.503906 291.445312 128.472656 290.3125 128.445312 C 290.289062 128.445312 290.269531 128.449219 290.25 128.449219 C 290.230469 128.449219 290.210938 128.445312 290.191406 128.445312 C 278.488281 128.734375 267.960938 131.84375 257.890625 137.785156 C 248.136719 143.535156 240.714844 152.796875 235.640625 162.742188 C 231.515625 170.832031 229.953125 179.9375 229.65625 188.917969 C 229.65625 212.6875 229.65625 236.460938 229.65625 260.230469 C 229.65625 277.234375 229.65625 294.238281 229.65625 311.242188 C 229.65625 313.542969 233.234375 313.542969 233.234375 311.242188 C 233.234375 287.46875 233.234375 263.699219 233.234375 239.925781 C 233.234375 222.925781 233.234375 205.921875 233.234375 188.917969 C 233.433594 182.84375 233.96875 178.378906 235.746094 172.324219 C 237.203125 167.363281 239.277344 162.570312 242.519531 157.8125 C 243.664062 156.132812 243.9375 155.679688 244.914062 154.429688 Z M 244.914062 154.429688 " fill-opacity="1" fill-rule="nonzero"/><path fill="#c2b59b" d="M 229.667969 161.4375 C 230.296875 160.078125 230.941406 158.757812 231.652344 157.4375 C 234.621094 151.941406 237.390625 148.320312 241.363281 143.796875 C 243.175781 141.734375 245.289062 139.921875 247.328125 138.09375 C 248.300781 137.226562 249.375 136.460938 250.402344 135.660156 C 250.429688 135.640625 250.476562 135.609375 250.558594 135.550781 C 250.886719 135.320312 251.214844 135.09375 251.542969 134.863281 C 252.21875 134.390625 252.898438 133.917969 253.574219 133.441406 C 264.414062 125.855469 277.433594 122.839844 290.191406 122.453125 C 290.214844 122.453125 290.230469 122.445312 290.25 122.445312 C 290.273438 122.445312 290.292969 122.453125 290.3125 122.453125 C 291.449219 122.484375 292.585938 122.515625 293.71875 122.542969 C 296.027344 122.605469 296.019531 119.035156 293.71875 118.972656 C 292.585938 118.941406 291.449219 118.910156 290.3125 118.882812 C 290.292969 118.882812 290.273438 118.886719 290.253906 118.886719 C 290.234375 118.886719 290.214844 118.878906 290.191406 118.882812 C 279.214844 119.214844 268.152344 121.261719 258.382812 126.519531 C 248.519531 131.828125 239.761719 138.898438 233.292969 148.113281 C 224.714844 160.339844 220.570312 174.058594 220.109375 188.917969 C 220.109375 212.6875 220.109375 236.460938 220.109375 260.230469 C 220.109375 277.234375 220.109375 294.238281 220.109375 311.242188 C 220.109375 313.542969 223.6875 313.542969 223.6875 311.242188 C 223.6875 287.46875 223.6875 263.699219 223.6875 239.925781 C 223.6875 222.925781 223.6875 205.921875 223.6875 188.917969 C 223.871094 182.988281 224.121094 178.882812 225.636719 173.0625 C 226.339844 170.355469 227.101562 167.695312 228.136719 165.09375 C 228.460938 164.277344 228.785156 163.460938 229.109375 162.644531 C 229.113281 162.636719 229.113281 162.632812 229.117188 162.628906 C 229.128906 162.601562 229.144531 162.570312 229.164062 162.53125 C 229.328125 162.164062 229.496094 161.800781 229.667969 161.4375 Z M 229.667969 161.4375 " fill-opacity="1" fill-rule="nonzero"/><path fill="#c2b59b" d="M 293.71875 157.285156 C 292.582031 157.226562 291.449219 157.164062 290.3125 157.105469 C 290.292969 157.101562 290.277344 157.109375 290.257812 157.109375 C 290.234375 157.109375 290.214844 157.101562 290.191406 157.105469 C 281.433594 157.511719 274.125 160.496094 267.671875 166.429688 C 261.464844 172.144531 258.648438 180.71875 258.363281 188.917969 C 258.363281 212.6875 258.363281 236.457031 258.363281 260.230469 C 258.363281 277.234375 258.363281 294.234375 258.363281 311.238281 C 258.363281 313.542969 261.9375 313.542969 261.9375 311.238281 C 261.9375 287.46875 261.9375 263.699219 261.9375 239.925781 C 261.9375 222.921875 261.9375 205.921875 261.9375 188.917969 C 262.011719 186.761719 261.941406 185.972656 262.414062 183.769531 C 262.8125 181.921875 263.261719 180.113281 263.984375 178.363281 C 264.683594 176.671875 265.449219 175.230469 266.664062 173.304688 C 267.90625 171.332031 268.726562 170.558594 270.203125 168.957031 C 275.34375 163.378906 282.871094 161.015625 290.191406 160.675781 C 290.210938 160.675781 290.230469 160.667969 290.25 160.667969 C 290.273438 160.667969 290.292969 160.675781 290.3125 160.675781 C 291.449219 160.738281 292.582031 160.796875 293.71875 160.859375 C 294.691406 160.910156 295.507812 160.007812 295.507812 159.074219 C 295.507812 158.058594 294.691406 157.339844 293.71875 157.285156 Z M 293.71875 157.285156 " fill-opacity="1" fill-rule="nonzero"/><path fill="#c2b59b" d="M 293.71875 147.691406 C 292.582031 147.640625 291.449219 147.59375 290.3125 147.542969 C 290.292969 147.539062 290.277344 147.546875 290.257812 147.546875 C 290.234375 147.546875 290.214844 147.539062 290.191406 147.542969 C 279.273438 147.992188 268.953125 151.671875 261.113281 159.503906 C 253.109375 167.496094 249.246094 177.738281 248.785156 188.917969 C 248.785156 212.6875 248.785156 236.460938 248.785156 260.230469 C 248.785156 277.234375 248.785156 294.238281 248.785156 311.242188 C 248.785156 313.542969 252.359375 313.542969 252.359375 311.242188 C 252.359375 287.46875 252.359375 263.699219 252.359375 239.925781 C 252.359375 222.925781 252.359375 205.921875 252.359375 188.917969 C 252.773438 178.960938 256.113281 169.550781 263.292969 162.375 C 270.652344 155.019531 279.96875 151.535156 290.191406 151.113281 C 290.210938 151.113281 290.230469 151.105469 290.25 151.105469 C 290.269531 151.105469 290.289062 151.113281 290.3125 151.113281 C 291.449219 151.164062 292.582031 151.214844 293.71875 151.265625 C 294.691406 151.308594 295.507812 150.417969 295.507812 149.476562 C 295.507812 148.472656 294.691406 147.734375 293.71875 147.691406 Z M 293.71875 147.691406 " fill-opacity="1" fill-rule="nonzero"/><path fill="#c2b59b" d="M 150.207031 145.265625 C 147.273438 146.894531 145.414062 147.691406 142.578125 148.820312 C 140.015625 149.839844 137.175781 150.460938 134.460938 150.914062 C 132.332031 151.269531 129.480469 151.503906 126.574219 151.609375 C 126.550781 151.609375 126.535156 151.617188 126.511719 151.617188 C 126.492188 151.617188 126.472656 151.609375 126.453125 151.609375 C 120.082031 151.339844 115.480469 150.507812 109.171875 148.332031 C 106.984375 147.582031 106.054688 151.03125 108.21875 151.777344 C 114.246094 153.851562 120.085938 154.914062 126.453125 155.179688 C 126.476562 155.183594 126.496094 155.175781 126.515625 155.175781 C 126.539062 155.175781 126.554688 155.179688 126.574219 155.179688 C 138.328125 154.757812 148.863281 151.230469 158.242188 144.097656 C 167.121094 137.347656 173.445312 127.101562 176.066406 116.328125 C 177.039062 112.335938 177.410156 108.339844 177.558594 104.242188 C 177.558594 90.773438 177.558594 77.300781 177.558594 63.832031 C 177.558594 61.527344 173.984375 61.527344 173.984375 63.832031 C 173.984375 77.300781 173.984375 90.773438 173.984375 104.242188 C 173.585938 115.21875 170.082031 126.378906 162.992188 134.527344 C 158.980469 139.136719 155.476562 142.335938 150.207031 145.265625 Z M 150.207031 145.265625 " fill-opacity="1" fill-rule="nonzero"/><path fill="#c2b59b" d="M 162.835938 148.128906 C 160.574219 150.113281 159.230469 151.003906 156.566406 152.589844 C 154.03125 154.101562 151.476562 155.464844 148.761719 156.628906 C 147.300781 157.253906 146.03125 157.847656 143.945312 158.441406 C 141.890625 159.023438 139.851562 159.550781 137.765625 160.023438 C 137.027344 160.191406 136.28125 160.304688 135.53125 160.421875 C 134.945312 160.515625 134.359375 160.609375 133.777344 160.699219 C 133.769531 160.699219 133.765625 160.699219 133.761719 160.703125 C 133.453125 160.730469 133.144531 160.757812 132.835938 160.785156 C 130.746094 160.976562 128.675781 161.074219 126.574219 161.140625 C 126.554688 161.140625 126.535156 161.148438 126.515625 161.148438 C 126.496094 161.148438 126.476562 161.140625 126.453125 161.140625 C 120.160156 160.984375 115.519531 160.253906 109.171875 158.472656 C 106.945312 157.847656 106.003906 161.296875 108.21875 161.917969 C 114.257812 163.609375 120.183594 164.554688 126.453125 164.714844 C 126.472656 164.714844 126.492188 164.710938 126.511719 164.710938 C 126.53125 164.710938 126.550781 164.714844 126.574219 164.714844 C 138.265625 164.328125 148.8125 161.367188 158.875 155.375 C 168.632812 149.5625 176.027344 140.40625 181.125 130.414062 C 185.257812 122.308594 186.808594 113.234375 187.109375 104.242188 C 187.109375 90.769531 187.109375 77.300781 187.109375 63.832031 C 187.109375 61.527344 183.53125 61.527344 183.53125 63.832031 C 183.53125 77.300781 183.53125 90.769531 183.53125 104.242188 C 183.328125 110.34375 182.789062 114.742188 181.019531 120.824219 C 179.574219 125.785156 177.484375 130.589844 174.246094 135.347656 C 170.835938 140.351562 167.632812 143.917969 162.835938 148.128906 Z M 162.835938 148.128906 " fill-opacity="1" fill-rule="nonzero"/><path fill="#c2b59b" d="M 175.40625 149.359375 C 173.574219 151.421875 171.496094 153.238281 169.4375 155.0625 C 168.460938 155.929688 167.398438 156.703125 166.375 157.511719 C 166.347656 157.53125 166.300781 157.5625 166.238281 157.609375 C 165.910156 157.835938 165.582031 158.066406 165.253906 158.296875 C 164.578125 158.769531 163.898438 159.242188 163.222656 159.71875 C 152.386719 167.300781 139.328125 170.316406 126.574219 170.707031 C 126.550781 170.707031 126.535156 170.710938 126.515625 170.714844 C 126.492188 170.710938 126.476562 170.707031 126.453125 170.707031 C 120.191406 170.546875 115.558594 169.929688 109.171875 168.433594 C 106.925781 167.90625 105.976562 171.351562 108.21875 171.875 C 114.28125 173.296875 120.226562 174.121094 126.453125 174.277344 C 126.472656 174.277344 126.492188 174.273438 126.511719 174.273438 C 126.535156 174.273438 126.550781 174.277344 126.574219 174.277344 C 137.550781 173.945312 148.617188 171.894531 158.386719 166.636719 C 168.253906 161.328125 177.023438 154.269531 183.5 145.042969 C 192.039062 132.882812 196.3125 119.046875 196.65625 104.242188 C 196.65625 90.773438 196.65625 77.300781 196.65625 63.832031 C 196.65625 61.527344 193.078125 61.527344 193.078125 63.832031 C 193.078125 77.300781 193.078125 90.773438 193.078125 104.242188 C 192.828125 115.128906 190.273438 126.160156 185.113281 135.71875 C 182.144531 141.222656 179.414062 144.851562 175.40625 149.359375 Z M 175.40625 149.359375 " fill-opacity="1" fill-rule="nonzero"/><path fill="#c2b59b" d="M 107.792969 130.011719 C 113.574219 133.832031 119.53125 135.742188 126.453125 136.054688 C 126.472656 136.054688 126.492188 136.050781 126.511719 136.050781 C 126.535156 136.050781 126.550781 136.054688 126.574219 136.054688 C 135.265625 135.65625 142.722656 132.683594 149.09375 126.726562 C 155.304688 120.917969 158.050781 112.511719 158.433594 104.242188 C 158.433594 90.769531 158.433594 77.300781 158.433594 63.832031 C 158.433594 61.527344 154.859375 61.527344 154.859375 63.832031 C 154.859375 77.300781 154.859375 90.769531 154.859375 104.242188 C 154.492188 112.082031 151.796875 118.621094 146.5625 124.199219 C 141.457031 129.644531 134.074219 132.136719 126.574219 132.480469 C 126.554688 132.484375 126.535156 132.488281 126.515625 132.492188 C 126.492188 132.488281 126.476562 132.484375 126.453125 132.480469 C 125.589844 132.441406 124.726562 132.40625 123.863281 132.367188 C 124.617188 132.398438 123.554688 132.335938 123.519531 132.328125 C 122.964844 132.253906 122.414062 132.179688 121.859375 132.105469 C 120.410156 131.910156 118.976562 131.488281 117.59375 131.027344 C 115.242188 130.246094 112.222656 128.660156 109.597656 126.925781 C 107.667969 125.652344 105.878906 128.746094 107.792969 130.011719 Z M 107.792969 130.011719 " fill-opacity="1" fill-rule="nonzero"/><path fill="#c2b59b" d="M 107.792969 141.152344 C 113.859375 143.917969 119.78125 145.351562 126.453125 145.617188 C 126.472656 145.617188 126.492188 145.613281 126.511719 145.613281 C 126.535156 145.613281 126.550781 145.617188 126.574219 145.617188 C 137.441406 145.175781 147.90625 141.523438 155.671875 133.65625 C 163.585938 125.636719 167.636719 115.429688 167.984375 104.242188 C 167.984375 90.773438 167.984375 77.300781 167.984375 63.832031 C 167.984375 61.527344 164.40625 61.527344 164.40625 63.832031 C 164.40625 77.300781 164.40625 90.773438 164.40625 104.242188 C 164.097656 114.214844 160.59375 123.582031 153.488281 130.78125 C 146.191406 138.171875 136.75 141.632812 126.574219 142.046875 C 126.554688 142.046875 126.535156 142.054688 126.515625 142.054688 C 126.492188 142.054688 126.476562 142.046875 126.453125 142.046875 C 120.226562 141.800781 114.898438 140.488281 109.597656 138.070312 C 107.515625 137.121094 105.699219 140.199219 107.792969 141.152344 Z M 107.792969 141.152344 " fill-opacity="1" fill-rule="nonzero"/><path fill="#c2b59b" d="M 202.558594 181.046875 C 202.558594 181.582031 202.535156 182.113281 202.480469 182.644531 C 202.429688 183.179688 202.351562 183.707031 202.246094 184.230469 C 202.140625 184.753906 202.011719 185.273438 201.855469 185.785156 C 201.699219 186.296875 201.519531 186.800781 201.316406 187.292969 C 201.109375 187.789062 200.882812 188.269531 200.628906 188.742188 C 200.378906 189.214844 200.101562 189.671875 199.804688 190.117188 C 199.507812 190.5625 199.1875 190.992188 198.847656 191.402344 C 198.507812 191.816406 198.152344 192.210938 197.773438 192.589844 C 197.394531 192.96875 196.996094 193.328125 196.582031 193.667969 C 196.167969 194.007812 195.738281 194.324219 195.292969 194.621094 C 194.847656 194.917969 194.390625 195.191406 193.917969 195.445312 C 193.445312 195.695312 192.964844 195.925781 192.46875 196.128906 C 191.972656 196.335938 191.46875 196.515625 190.957031 196.671875 C 190.445312 196.824219 189.925781 196.953125 189.402344 197.058594 C 188.875 197.164062 188.347656 197.242188 187.816406 197.292969 C 187.28125 197.347656 186.746094 197.371094 186.210938 197.371094 C 185.675781 197.371094 185.140625 197.347656 184.609375 197.292969 C 184.078125 197.242188 183.546875 197.164062 183.023438 197.058594 C 182.496094 196.953125 181.980469 196.824219 181.464844 196.671875 C 180.953125 196.515625 180.449219 196.335938 179.957031 196.128906 C 179.460938 195.925781 178.976562 195.695312 178.503906 195.445312 C 178.035156 195.191406 177.574219 194.917969 177.128906 194.621094 C 176.683594 194.324219 176.253906 194.007812 175.839844 193.667969 C 175.425781 193.328125 175.03125 192.96875 174.652344 192.589844 C 174.273438 192.210938 173.914062 191.816406 173.574219 191.402344 C 173.234375 190.992188 172.917969 190.5625 172.617188 190.117188 C 172.320312 189.671875 172.046875 189.214844 171.792969 188.742188 C 171.542969 188.269531 171.3125 187.789062 171.109375 187.292969 C 170.902344 186.800781 170.722656 186.296875 170.566406 185.785156 C 170.414062 185.273438 170.28125 184.753906 170.179688 184.230469 C 170.074219 183.707031 169.996094 183.179688 169.941406 182.644531 C 169.890625 182.113281 169.863281 181.582031 169.863281 181.046875 C 169.863281 180.511719 169.890625 179.976562 169.941406 179.445312 C 169.996094 178.914062 170.074219 178.386719 170.179688 177.859375 C 170.28125 177.335938 170.414062 176.816406 170.566406 176.304688 C 170.722656 175.792969 170.902344 175.292969 171.109375 174.796875 C 171.3125 174.304688 171.542969 173.820312 171.792969 173.347656 C 172.046875 172.878906 172.320312 172.417969 172.617188 171.976562 C 172.917969 171.53125 173.234375 171.101562 173.574219 170.6875 C 173.914062 170.273438 174.273438 169.878906 174.652344 169.5 C 175.03125 169.121094 175.425781 168.765625 175.839844 168.425781 C 176.253906 168.085938 176.683594 167.765625 177.128906 167.46875 C 177.574219 167.171875 178.035156 166.898438 178.503906 166.648438 C 178.976562 166.394531 179.460938 166.167969 179.957031 165.960938 C 180.449219 165.757812 180.953125 165.578125 181.464844 165.421875 C 181.980469 165.265625 182.496094 165.136719 183.023438 165.03125 C 183.546875 164.929688 184.078125 164.851562 184.609375 164.796875 C 185.140625 164.746094 185.675781 164.71875 186.210938 164.71875 C 186.746094 164.71875 187.28125 164.746094 187.816406 164.796875 C 188.347656 164.851562 188.875 164.929688 189.402344 165.03125 C 189.925781 165.136719 190.445312 165.265625 190.957031 165.421875 C 191.46875 165.578125 191.972656 165.757812 192.46875 165.960938 C 192.964844 166.167969 193.445312 166.394531 193.917969 166.648438 C 194.390625 166.898438 194.847656 167.171875 195.292969 167.46875 C 195.738281 167.765625 196.167969 168.085938 196.582031 168.425781 C 196.996094 168.765625 197.394531 169.121094 197.773438 169.5 C 198.152344 169.878906 198.507812 170.273438 198.847656 170.6875 C 199.1875 171.101562 199.507812 171.53125 199.804688 171.976562 C 200.101562 172.417969 200.378906 172.878906 200.628906 173.347656 C 200.882812 173.820312 201.109375 174.304688 201.316406 174.796875 C 201.519531 175.292969 201.699219 175.792969 201.855469 176.304688 C 202.011719 176.816406 202.140625 177.335938 202.246094 177.859375 C 202.351562 178.386719 202.429688 178.914062 202.480469 179.445312 C 202.535156 179.976562 202.558594 180.511719 202.558594 181.046875 Z M 202.558594 181.046875 " fill-opacity="1" fill-rule="nonzero"/></svg>