<svg xmlns="http://www.w3.org/2000/svg" xmlns:xlink="http://www.w3.org/1999/xlink" width="500" zoomAndPan="magnify" viewBox="0 0 375 374.999991" height="500" preserveAspectRatio="xMidYMid meet" version="1.0"><path fill="#657f61" d="M 290.160156 147.46875 C 287.023438 133.921875 283.320312 120.515625 280.378906 106.933594 C 278.136719 96.582031 276.6875 85.148438 268.722656 77.332031 C 258.363281 67.164062 242.480469 67.042969 229.269531 70.542969 C 215.242188 74.261719 201.214844 80.105469 188.179688 86.429688 C 157.625 101.265625 133.941406 124.78125 112.878906 150.9375 C 106.953125 158.300781 100.507812 166.722656 95.171875 175.75 C 83.300781 186.558594 78.375 204.378906 76.5 220.003906 C 73.945312 241.289062 79.582031 262.746094 91.933594 280.355469 C 98.570312 289.824219 106.945312 298.199219 117.824219 302.628906 C 130.480469 307.789062 145.667969 306.433594 158.871094 304.503906 C 174.265625 302.246094 189.128906 297.511719 203.789062 292.390625 C 215.175781 288.414062 226.769531 285.019531 238.078125 280.839844 C 249.617188 276.582031 260.90625 271.5 270.476562 263.683594 C 280.722656 255.3125 287.292969 243.269531 291.59375 230.957031 C 301 203.945312 296.457031 174.609375 290.160156 147.46875 Z M 290.160156 147.46875 " fill-opacity="1" fill-rule="nonzero"/></svg>