<svg xmlns="http://www.w3.org/2000/svg" xmlns:xlink="http://www.w3.org/1999/xlink" width="500" zoomAndPan="magnify" viewBox="0 0 375 374.999991" height="500" preserveAspectRatio="xMidYMid meet" version="1.0"><path fill="#9dbf9e" d="M 102.300781 281.765625 C 113.132812 263.355469 141.628906 258.753906 160.027344 258.753906 C 167.746094 258.753906 175.613281 259.496094 183.328125 259.644531 C 197.128906 259.941406 211.675781 259.941406 224.882812 255.339844 C 263.617188 241.828125 275.042969 188.382812 319.710938 186.15625 C 327.429688 185.710938 327.429688 173.683594 319.710938 174.128906 C 263.765625 177.101562 253.375 244.652344 194.902344 247.769531 C 157.804688 249.847656 114.320312 237.820312 92.058594 275.828125 C 88.054688 282.359375 98.441406 288.449219 102.300781 281.765625 Z M 102.300781 281.765625 " fill-opacity="1" fill-rule="nonzero"/><path fill="#9dbf9e" d="M 73.804688 256.972656 C 110.90625 218.816406 166.855469 250.738281 210.785156 230.101562 C 252.78125 210.503906 264.359375 160.324219 316.152344 156.019531 C 323.71875 155.425781 323.867188 143.398438 316.152344 143.992188 C 263.023438 148.445312 251 193.429688 208.410156 215.847656 C 162.402344 240.195312 105.566406 206.941406 65.347656 248.363281 C 60.003906 254.003906 68.464844 262.464844 73.804688 256.972656 Z M 73.804688 256.972656 " fill-opacity="1" fill-rule="nonzero"/><path fill="#9dbf9e" d="M 62.824219 226.984375 C 98.441406 191.945312 150.382812 217.183594 192.085938 199.074219 C 233.042969 181.257812 253.226562 136.421875 299.378906 127.660156 C 306.949219 126.175781 303.683594 114.597656 296.265625 116.082031 C 245.660156 125.730469 223.101562 178.289062 174.722656 190.609375 C 132.871094 201.152344 88.351562 185.117188 54.367188 218.371094 C 48.875 223.867188 57.332031 232.328125 62.824219 226.984375 Z M 62.824219 226.984375 " fill-opacity="1" fill-rule="nonzero"/><path fill="#9dbf9e" d="M 63.714844 191.796875 C 99.628906 165.371094 143.851562 178.4375 183.179688 162.996094 C 221.320312 148.148438 237.941406 99.007812 282.609375 98.710938 C 290.328125 98.710938 290.328125 86.683594 282.609375 86.683594 C 237.941406 86.980469 223.695312 127.363281 188.820312 147.109375 C 147.710938 170.566406 97.402344 152.007812 57.628906 181.40625 C 51.546875 186.007812 57.480469 196.398438 63.714844 191.796875 Z M 63.714844 191.796875 " fill-opacity="1" fill-rule="nonzero"/></svg>