<svg width="107" height="99" viewBox="0 0 107 99" fill="none" xmlns="http://www.w3.org/2000/svg">
<path d="M31.2083 16.5V10.3125ZM75.7916 16.5V10.3125ZM11.1458 37.125H95.8541Z" fill="black"/>
<path d="M31.2083 16.5V10.3125M75.7916 16.5V10.3125M11.1458 37.125H95.8541" stroke="black" stroke-width="5" stroke-linecap="round"/>
<path d="M8.91663 49.5C8.91663 33.9446 8.91663 26.1649 14.1418 21.3345C19.3625 16.5 27.7709 16.5 44.5833 16.5H62.4166C79.229 16.5 87.6374 16.5 92.8581 21.3345C98.0833 26.1649 98.0833 33.9446 98.0833 49.5V57.75C98.0833 73.3054 98.0833 81.0851 92.8581 85.9155C87.6374 90.75 79.229 90.75 62.4166 90.75H44.5833C27.7709 90.75 19.3625 90.75 14.1418 85.9155C8.91663 81.0851 8.91663 73.3054 8.91663 57.75V49.5Z" stroke="black" stroke-width="5"/>
<path d="M80.25 70.125C80.25 71.219 79.7803 72.2682 78.9442 73.0418C78.1081 73.8154 76.9741 74.25 75.7917 74.25C74.6092 74.25 73.4752 73.8154 72.6391 73.0418C71.803 72.2682 71.3333 71.219 71.3333 70.125C71.3333 69.031 71.803 67.9818 72.6391 67.2082C73.4752 66.4346 74.6092 66 75.7917 66C76.9741 66 78.1081 66.4346 78.9442 67.2082C79.7803 67.9818 80.25 69.031 80.25 70.125ZM80.25 53.625C80.25 54.719 79.7803 55.7682 78.9442 56.5418C78.1081 57.3154 76.9741 57.75 75.7917 57.75C74.6092 57.75 73.4752 57.3154 72.6391 56.5418C71.803 55.7682 71.3333 54.719 71.3333 53.625C71.3333 52.531 71.803 51.4818 72.6391 50.7082C73.4752 49.9346 74.6092 49.5 75.7917 49.5C76.9741 49.5 78.1081 49.9346 78.9442 50.7082C79.7803 51.4818 80.25 52.531 80.25 53.625ZM57.9583 70.125C57.9583 71.219 57.4886 72.2682 56.6525 73.0418C55.8164 73.8154 54.6824 74.25 53.5 74.25C52.3176 74.25 51.1836 73.8154 50.3475 73.0418C49.5114 72.2682 49.0417 71.219 49.0417 70.125C49.0417 69.031 49.5114 67.9818 50.3475 67.2082C51.1836 66.4346 52.3176 66 53.5 66C54.6824 66 55.8164 66.4346 56.6525 67.2082C57.4886 67.9818 57.9583 69.031 57.9583 70.125ZM57.9583 53.625C57.9583 54.719 57.4886 55.7682 56.6525 56.5418C55.8164 57.3154 54.6824 57.75 53.5 57.75C52.3176 57.75 51.1836 57.3154 50.3475 56.5418C49.5114 55.7682 49.0417 54.719 49.0417 53.625C49.0417 52.531 49.5114 51.4818 50.3475 50.7082C51.1836 49.9346 52.3176 49.5 53.5 49.5C54.6824 49.5 55.8164 49.9346 56.6525 50.7082C57.4886 51.4818 57.9583 52.531 57.9583 53.625ZM35.6667 70.125C35.6667 71.219 35.197 72.2682 34.3609 73.0418C33.5248 73.8154 32.3908 74.25 31.2083 74.25C30.0259 74.25 28.8919 73.8154 28.0558 73.0418C27.2197 72.2682 26.75 71.219 26.75 70.125C26.75 69.031 27.2197 67.9818 28.0558 67.2082C28.8919 66.4346 30.0259 66 31.2083 66C32.3908 66 33.5248 66.4346 34.3609 67.2082C35.197 67.9818 35.6667 69.031 35.6667 70.125ZM35.6667 53.625C35.6667 54.719 35.197 55.7682 34.3609 56.5418C33.5248 57.3154 32.3908 57.75 31.2083 57.75C30.0259 57.75 28.8919 57.3154 28.0558 56.5418C27.2197 55.7682 26.75 54.719 26.75 53.625C26.75 52.531 27.2197 51.4818 28.0558 50.7082C28.8919 49.9346 30.0259 49.5 31.2083 49.5C32.3908 49.5 33.5248 49.9346 34.3609 50.7082C35.197 51.4818 35.6667 52.531 35.6667 53.625Z" fill="black"/>
</svg>
