<svg width="109" height="109" viewBox="0 0 109 109" fill="none" xmlns="http://www.w3.org/2000/svg">
<path d="M25.5968 83.4031C32.2842 90.0906 41.0836 94.2522 50.4956 95.1787C59.9075 96.1052 69.3495 93.7393 77.2125 88.4843C85.0755 83.2292 90.8729 75.4101 93.6168 66.3594C96.3607 57.3088 95.8813 47.5867 92.2602 38.85C88.6391 30.1133 82.1005 22.9025 73.7586 18.4466C65.4167 13.9906 55.7877 12.5652 46.5126 14.4133C37.2375 16.2614 28.8903 21.2685 22.8933 28.5815C16.8964 35.8945 13.6209 45.0607 13.625 54.5181V63.5833" stroke="black" stroke-width="5" stroke-linecap="round" stroke-linejoin="round"/>
<path d="M4.54163 54.4999L13.625 63.5833L22.7083 54.4999M49.9583 36.3333V59.0416H72.6666" stroke="black" stroke-width="5" stroke-linecap="round" stroke-linejoin="round"/>
</svg>
