<svg width="102" height="96" viewBox="0 0 102 96" fill="none" xmlns="http://www.w3.org/2000/svg">
<path d="M83.3637 51.9999C83.5488 50.6735 83.6482 49.3377 83.6612 47.9999C83.6482 46.6621 83.5488 45.3263 83.3637 43.9999L92.565 37.2199C92.9805 36.9212 93.2644 36.4888 93.3624 36.0054C93.4604 35.522 93.3656 35.0216 93.0962 34.5999L84.3837 20.3799C84.1314 19.9534 83.722 19.6284 83.2327 19.4663C82.7434 19.3042 82.208 19.3162 81.7275 19.4999L70.8687 23.6199C68.6092 21.9969 66.1383 20.6526 63.5162 19.6199L61.88 8.75989C61.8078 8.27934 61.5524 7.83988 61.1615 7.52342C60.7705 7.20697 60.2706 7.03512 59.755 7.03989H42.2875C41.7718 7.03512 41.2719 7.20697 40.881 7.52342C40.49 7.83988 40.2346 8.27934 40.1625 8.75989L38.5262 19.6199C35.9008 20.6462 33.429 21.9909 31.1737 23.6199L20.2725 19.4999C19.7919 19.3162 19.2565 19.3042 18.7672 19.4663C18.278 19.6284 17.8686 19.9534 17.6162 20.3799L8.90372 34.5999C8.63429 35.0216 8.53952 35.522 8.63753 36.0054C8.73554 36.4888 9.01946 36.9212 9.43497 37.2199L18.615 43.9999C18.4306 45.3264 18.3312 46.6621 18.3175 47.9999C18.3305 49.3377 18.4298 50.6735 18.615 51.9999L9.43497 58.7799C9.01946 59.0786 8.73554 59.511 8.63753 59.9944C8.53952 60.4777 8.63429 60.9782 8.90372 61.3999L17.6162 75.6199C17.8686 76.0464 18.278 76.3714 18.7672 76.5334C19.2565 76.6955 19.7919 76.6836 20.2725 76.4999L31.1312 72.3799C33.3907 74.0029 35.8616 75.3472 38.4837 76.3799L40.12 87.2399C40.1921 87.7204 40.4475 88.1599 40.8385 88.4764C41.2294 88.7928 41.7293 88.9647 42.245 88.9599H59.67C60.1856 88.9647 60.6855 88.7928 61.0765 88.4764C61.4674 88.1599 61.7228 87.7204 61.795 87.2399L63.4312 76.3799C66.0567 75.3536 68.5284 74.0089 70.7837 72.3799L81.6425 76.4999C82.123 76.6836 82.6584 76.6955 83.1477 76.5334C83.637 76.3714 84.0464 76.0464 84.2987 75.6199L93.0112 61.3999C93.2806 60.9782 93.3754 60.4777 93.2774 59.9944C93.1794 59.511 92.8955 59.0786 92.48 58.7799L83.3637 51.9999ZM51 62.3599C47.9814 62.3639 45.0294 61.525 42.5176 59.9495C40.0057 58.374 38.0468 56.1327 36.8887 53.5091C35.7307 50.8855 35.4255 47.9976 36.0118 45.2107C36.5981 42.4238 38.0496 39.8632 40.1825 37.8529C42.3155 35.8426 45.0341 34.473 47.9943 33.9173C50.9545 33.3616 54.0234 33.6448 56.8126 34.7311C59.6018 35.8174 61.9859 37.6579 63.6634 40.0198C65.3408 42.3818 66.2362 45.1589 66.2362 47.9999C66.239 49.8847 65.847 51.7516 65.0825 53.4937C64.3181 55.2358 63.1962 56.819 61.7811 58.1527C60.366 59.4864 58.6855 60.5445 56.8355 61.2664C54.9856 61.9883 53.0026 62.3599 51 62.3599Z" stroke="black" stroke-width="5" stroke-linecap="round" stroke-linejoin="round"/>
</svg>
