<svg width="128" height="125" viewBox="0 0 128 125" fill="none" xmlns="http://www.w3.org/2000/svg">
<path d="M10.6667 75.5208L19.488 72.651C24.2013 71.1169 28.4842 68.5321 31.9972 65.1014C35.5103 61.6707 38.1571 57.4882 39.728 52.8854L42.6667 44.2708C42.6667 44.2708 50.6667 39.0625 64 39.0625C77.3334 39.0625 85.3334 44.2708 85.3334 44.2708L88.272 52.8854C89.843 57.4882 92.4898 61.6707 96.0028 65.1014C99.5159 68.5321 103.799 71.1169 108.512 72.651L117.333 75.5208M50.6667 54.6875V80.7291L28 85.1562C26.8947 85.3807 25.8997 85.964 25.1773 86.8113C24.4548 87.6585 24.0474 88.7197 24.0215 89.8219C23.9955 90.9241 24.3525 92.0025 25.0342 92.8813C25.716 93.7601 26.6824 94.3875 27.776 94.6614C34.736 96.3906 50.1654 100.365 64 105.026C78.1707 109.797 90.6667 115.286 90.6667 119.792M77.3334 54.6875V80.7291L100 85.1562C101.105 85.3807 102.1 85.964 102.823 86.8113C103.545 87.6585 103.953 88.7197 103.979 89.8219C104.005 90.9241 103.648 92.0025 102.966 92.8813C102.284 93.7601 101.318 94.3875 100.224 94.6614C95.0294 95.9531 85.1147 98.4947 74.6667 101.641M53.3334 108.917C44.1067 112.625 37.3334 116.469 37.3334 119.792M63.2 28.6458C63.2 28.6458 54.6667 23.4375 54.6667 16.927C54.6667 14.5125 55.6489 12.1968 57.3972 10.4894C59.1456 8.78206 61.5168 7.82288 63.9894 7.82288C66.4619 7.82288 68.8331 8.78206 70.5815 10.4894C72.3298 12.1968 73.312 14.5125 73.312 16.927C73.312 23.4375 64.8 28.6458 64.8 28.6458H63.2Z" stroke="black" stroke-width="5"/>
</svg>
